<?xml version="1.0" standalone="no"?>
<!DOCTYPE svg PUBLIC "-//W3C//DTD SVG 1.1//EN"
  "http://www.w3.org/Graphics/SVG/1.1/DTD/svg11.dtd">
<svg width="102mm" height="101.99999999999997mm" viewBox="-44 -37.99999999999999 102 101.99999999999997" xmlns="http://www.w3.org/2000/svg" version="1.1">
	<title>svgOutput</title>
	<desc>made with tinkercad</desc>
<path d="M 22.451000213623047 -34.55300140380859 L 29.4278507232666 -30.997999191284173 L 36.388999938964844 -27.45100021362304 L 47.45100021362305 -16.38899993896484 L 54.553001403808594 -2.4509999752044673 L 54.94116973876953 1.1102230246251565e-16 L 57 12.999999999999996 L 56.84115219116211 14.00300025939941 L 54.553001403808594 28.45100021362304 L 50.99800109863281 35.42784881591796 L 47.45100021362305 42.38899993896484 L 36.388999938964844 53.45100021362303 L 27.45549201965332 58.00299835205077 L 22.451000213623047 60.55300140380858 L 7 62.999999999999986 L 6.998000144958496 62.99968338012694 L -8.451000213623047 60.55300140380858 L -22.388999938964844 53.45100021362303 L -33.45100021362305 42.38899993896484 L -38.00299835205078 33.45549011230468 L -40.553001403808594 28.45100021362304 L -43 12.999999999999996 L -40.94116973876953 1.1102230246251565e-16 L -40.553001403808594 -2.4509999752044673 L -33.45100021362305 -16.38899993896484 L -22.388999938964844 -27.45100021362304 L -8.451000213623047 -34.55300140380859 L 6.998000144958496 -36.999683380126946 L 7 -36.99999999999999 L 8.001999855041504 -36.84131240844726 L 22.451000213623047 -34.55300140380859 M 7.021999835968018 -31.6550006866455 L 6.998000144958496 -31.499999999999993 L 7.021999835968018 -31.344999313354485 L 7.0929999351501465 -31.204999923706048 L 7.204999923706055 -31.093000411987298 L 7.34499979019165 -31.021999359130852 L 7.5 -30.997999191284173 L 7.65500020980835 -31.021999359130852 L 7.795000076293945 -31.093000411987298 L 7.9070000648498535 -31.204999923706048 L 7.978000164031982 -31.344999313354485 L 8.001999855041504 -31.499999999999993 L 7.978000164031982 -31.6550006866455 L 7.932864189147949 -31.743999481201165 L 7.9070000648498535 -31.795000076293938 L 7.795000076293945 -31.906999588012688 L 7.65500020980835 -31.978000640869134 L 7.5 -32.00199890136718 L 7.34499979019165 -31.978000640869134 L 7.204999923706055 -31.906999588012688 L 7.0929999351501465 -31.795000076293938 L 7.067135810852051 -31.743999481201165 L 7.021999835968018 -31.6550006866455 M 51.02199935913086 13.345000267028805 L 50.99800109863281 13.499999999999996 L 51.02199935913086 13.654999732971188 L 51.09299850463867 13.795000076293942 L 51.20500183105469 13.906999588012692 L 51.345001220703125 13.97799968719482 L 51.5 14.00300025939941 L 51.654998779296875 13.97799968719482 L 51.79499816894531 13.906999588012692 L 51.90700149536133 13.795000076293942 L 51.97800064086914 13.654999732971188 L 52.00299835205078 13.499999999999996 L 51.97800064086914 13.345000267028805 L 51.961265563964844 13.3120002746582 L 51.90700149536133 13.204999923706051 L 51.79499816894531 13.093000411987301 L 51.654998779296875 13.022000312805172 L 51.5 12.998000144958493 L 51.345001220703125 13.022000312805172 L 51.20500183105469 13.093000411987301 L 51.09299850463867 13.204999923706051 L 51.038734436035156 13.3120002746582 L 51.02199935913086 13.345000267028805 M -37.97800064086914 12.345000267028805 L -38.00299835205078 12.499999999999996 L -37.97800064086914 12.654999732971188 L -37.90700149536133 12.795000076293942 L -37.79499816894531 12.906999588012692 L -37.654998779296875 12.97799968719482 L -37.5 13.00300025939941 L -37.345001220703125 12.97799968719482 L -37.20500183105469 12.906999588012692 L -37.09299850463867 12.795000076293942 L -37.02199935913086 12.654999732971188 L -36.99800109863281 12.499999999999996 L -37.02199935913086 12.345000267028805 L -37.050907135009766 12.28800010681152 L -37.09299850463867 12.204999923706051 L -37.20500183105469 12.093000411987301 L -37.345001220703125 12.022000312805172 L -37.5 11.998000144958494 L -37.654998779296875 12.022000312805172 L -37.79499816894531 12.093000411987301 L -37.90700149536133 12.204999923706051 L -37.949092864990234 12.28800010681152 L -37.97800064086914 12.345000267028805 M 7.021999835968018 57.34500122070311 L 6.998000144958496 57.499999999999986 L 7.021999835968018 57.65499877929686 L 7.0929999351501465 57.7949981689453 L 7.204999923706055 57.907001495361314 L 7.34499979019165 57.978000640869126 L 7.5 58.00299835205077 L 7.65500020980835 57.978000640869126 L 7.795000076293945 57.907001495361314 L 7.9070000648498535 57.7949981689453 L 7.978000164031982 57.65499877929686 L 8.001999855041504 57.499999999999986 L 7.978000164031982 57.34500122070311 L 7.977492809295654 57.34400177001952 L 7.9070000648498535 57.20500183105467 L 7.795000076293945 57.09299850463866 L 7.65500020980835 57.021999359130845 L 7.5 56.9980010986328 L 7.34499979019165 57.021999359130845 L 7.204999923706055 57.09299850463866 L 7.0929999351501465 57.20500183105467 L 7.022507190704346 57.34400177001952 L 7.021999835968018 57.34500122070311 z" fill="none" stroke="rgb(255,0,0)" stroke-width="0.001mm" />
</svg>