%TF.GenerationSoftware,KiCad,Pcbnew,(5.1.9)-1*%
%TF.CreationDate,2022-04-02T11:26:26-04:00*%
%TF.ProjectId,Light_Sensor_schematic,4c696768-745f-4536-956e-736f725f7363,rev?*%
%TF.SameCoordinates,Original*%
%TF.FileFunction,Plated,1,2,PTH,Drill*%
%TF.FilePolarity,Positive*%
%FSLAX46Y46*%
G04 Gerber Fmt 4.6, Leading zero omitted, Abs format (unit mm)*
G04 Created by KiCad (PCBNEW (5.1.9)-1) date 2022-04-02 11:26:26*
%MOMM*%
%LPD*%
G01*
G04 APERTURE LIST*
%TA.AperFunction,ViaDrill*%
%ADD10C,0.254000*%
%TD*%
%TA.AperFunction,ComponentDrill*%
%ADD11C,0.400000*%
%TD*%
%TA.AperFunction,ComponentDrill*%
%ADD12C,0.830000*%
%TD*%
%TA.AperFunction,ComponentDrill*%
%ADD13C,0.950000*%
%TD*%
%TA.AperFunction,ComponentDrill*%
%ADD14C,2.200000*%
%TD*%
G04 APERTURE END LIST*
D10*
X113000000Y-88000000D03*
X117500000Y-89500000D03*
X120500000Y-88000000D03*
X127000000Y-88000000D03*
X129500000Y-101000000D03*
X131677096Y-86322904D03*
X132000000Y-89000000D03*
X132000000Y-93000000D03*
X133000000Y-87000000D03*
X133000000Y-92000000D03*
X133530200Y-89500000D03*
X134124909Y-86624909D03*
X135000000Y-85000000D03*
X135000000Y-100000000D03*
X137389663Y-94428336D03*
X138500000Y-92500000D03*
X139000000Y-94000000D03*
X140000000Y-93000000D03*
X141000000Y-87000000D03*
X141000000Y-98000000D03*
X142000000Y-88000000D03*
X142500000Y-98000000D03*
X143500000Y-97830599D03*
X146946001Y-101000000D03*
X147476201Y-97634201D03*
D11*
%TO.C,H4*%
X103350000Y-105000000D03*
X103833274Y-103833274D03*
X103833274Y-106166726D03*
X105000000Y-103350000D03*
X105000000Y-106650000D03*
X106166726Y-103833274D03*
X106166726Y-106166726D03*
X106650000Y-105000000D03*
%TO.C,H2*%
X123350000Y-85000000D03*
%TO.C,H1*%
X123350000Y-125000000D03*
%TO.C,H2*%
X123833274Y-83833274D03*
X123833274Y-86166726D03*
%TO.C,H1*%
X123833274Y-123833274D03*
X123833274Y-126166726D03*
%TO.C,H2*%
X125000000Y-83350000D03*
X125000000Y-86650000D03*
%TO.C,H1*%
X125000000Y-123350000D03*
X125000000Y-126650000D03*
%TO.C,H2*%
X126166726Y-83833274D03*
X126166726Y-86166726D03*
%TO.C,H1*%
X126166726Y-123833274D03*
X126166726Y-126166726D03*
%TO.C,H2*%
X126650000Y-85000000D03*
%TO.C,H1*%
X126650000Y-125000000D03*
%TO.C,H3*%
X143350000Y-105000000D03*
X143833274Y-103833274D03*
X143833274Y-106166726D03*
X145000000Y-103350000D03*
X145000000Y-106650000D03*
X146166726Y-103833274D03*
X146166726Y-106166726D03*
X146650000Y-105000000D03*
D12*
%TO.C,IC1*%
X111000000Y-106000000D03*
X111000000Y-108000000D03*
X111000000Y-110000000D03*
D13*
%TO.C,J3*%
X106000000Y-97000000D03*
X107433941Y-94952120D03*
X108867882Y-92904240D03*
X110301823Y-90856360D03*
%TO.C,J1*%
X136393031Y-120915111D03*
X138000000Y-119000000D03*
X139606969Y-117084889D03*
D14*
%TO.C,H4*%
X105000000Y-105000000D03*
%TO.C,H2*%
X125000000Y-85000000D03*
%TO.C,H1*%
X125000000Y-125000000D03*
%TO.C,H3*%
X145000000Y-105000000D03*
M02*
