%TF.GenerationSoftware,KiCad,Pcbnew,(6.0.4)*%
%TF.CreationDate,2022-04-19T23:51:48-04:00*%
%TF.ProjectId,Light_Sensor_schematic,4c696768-745f-4536-956e-736f725f7363,rev?*%
%TF.SameCoordinates,Original*%
%TF.FileFunction,Soldermask,Bot*%
%TF.FilePolarity,Negative*%
%FSLAX46Y46*%
G04 Gerber Fmt 4.6, Leading zero omitted, Abs format (unit mm)*
G04 Created by KiCad (PCBNEW (6.0.4)) date 2022-04-19 23:51:48*
%MOMM*%
%LPD*%
G01*
G04 APERTURE LIST*
G04 Aperture macros list*
%AMRoundRect*
0 Rectangle with rounded corners*
0 $1 Rounding radius*
0 $2 $3 $4 $5 $6 $7 $8 $9 X,Y pos of 4 corners*
0 Add a 4 corners polygon primitive as box body*
4,1,4,$2,$3,$4,$5,$6,$7,$8,$9,$2,$3,0*
0 Add four circle primitives for the rounded corners*
1,1,$1+$1,$2,$3*
1,1,$1+$1,$4,$5*
1,1,$1+$1,$6,$7*
1,1,$1+$1,$8,$9*
0 Add four rect primitives between the rounded corners*
20,1,$1+$1,$2,$3,$4,$5,0*
20,1,$1+$1,$4,$5,$6,$7,0*
20,1,$1+$1,$6,$7,$8,$9,0*
20,1,$1+$1,$8,$9,$2,$3,0*%
%AMHorizOval*
0 Thick line with rounded ends*
0 $1 width*
0 $2 $3 position (X,Y) of the first rounded end (center of the circle)*
0 $4 $5 position (X,Y) of the second rounded end (center of the circle)*
0 Add line between two ends*
20,1,$1,$2,$3,$4,$5,0*
0 Add two circle primitives to create the rounded ends*
1,1,$1,$2,$3*
1,1,$1,$4,$5*%
G04 Aperture macros list end*
%ADD10C,4.501600*%
%ADD11C,0.801600*%
%ADD12C,1.301600*%
%ADD13RoundRect,0.300800X0.169710X-0.925648X0.941055X-0.006394X-0.169710X0.925648X-0.941055X0.006394X0*%
%ADD14HorizOval,1.801600X-0.095756X0.080348X0.095756X-0.080348X0*%
%ADD15RoundRect,0.300800X0.249739X-0.907334X0.938031X0.075648X-0.249739X0.907334X-0.938031X-0.075648X0*%
%ADD16HorizOval,1.801600X-0.102394X0.071697X0.102394X-0.071697X0*%
%ADD17RoundRect,0.288300X-0.300000X-0.237500X0.300000X-0.237500X0.300000X0.237500X-0.300000X0.237500X0*%
%ADD18C,1.431600*%
G04 APERTURE END LIST*
D10*
%TO.C,H1*%
X125000000Y-125000000D03*
D11*
X126166726Y-126166726D03*
X126650000Y-125000000D03*
X125000000Y-126650000D03*
X125000000Y-123350000D03*
X123350000Y-125000000D03*
X123833274Y-126166726D03*
X123833274Y-123833274D03*
X126166726Y-123833274D03*
%TD*%
%TO.C,H2*%
X125000000Y-86650000D03*
X123833274Y-86166726D03*
D10*
X125000000Y-85000000D03*
D11*
X125000000Y-83350000D03*
X126650000Y-85000000D03*
X123833274Y-83833274D03*
X123350000Y-85000000D03*
X126166726Y-86166726D03*
X126166726Y-83833274D03*
%TD*%
%TO.C,H3*%
X146166726Y-106166726D03*
D10*
X145000000Y-105000000D03*
D11*
X145000000Y-103350000D03*
X143833274Y-106166726D03*
X146650000Y-105000000D03*
X146166726Y-103833274D03*
X143833274Y-103833274D03*
X143350000Y-105000000D03*
X145000000Y-106650000D03*
%TD*%
%TO.C,H4*%
X106650000Y-105000000D03*
X103833274Y-106166726D03*
X106166726Y-106166726D03*
X105000000Y-103350000D03*
X103350000Y-105000000D03*
X105000000Y-106650000D03*
X103833274Y-103833274D03*
D10*
X105000000Y-105000000D03*
D11*
X106166726Y-103833274D03*
%TD*%
D12*
%TO.C,J1*%
X136896660Y-123426357D03*
D13*
X136393031Y-120915111D03*
D14*
X138000000Y-119000000D03*
X139606969Y-117084889D03*
%TD*%
D12*
%TO.C,J3*%
X106720582Y-99457796D03*
D15*
X106000000Y-97000000D03*
D16*
X107433941Y-94952120D03*
X108867882Y-92904240D03*
X110301823Y-90856360D03*
%TD*%
D17*
%TO.C,C2*%
X136275000Y-87000000D03*
X138000000Y-87000000D03*
%TD*%
%TO.C,C4*%
X136275000Y-89000000D03*
X138000000Y-89000000D03*
%TD*%
%TO.C,C6*%
X136275000Y-91000000D03*
X138000000Y-91000000D03*
%TD*%
D18*
%TO.C,IC1*%
X111000000Y-110000000D03*
X111000000Y-108000000D03*
X111000000Y-106000000D03*
%TD*%
M02*
