%TF.GenerationSoftware,KiCad,Pcbnew,(5.1.9)-1*%
%TF.CreationDate,2022-04-02T11:09:43-04:00*%
%TF.ProjectId,Light_Sensor_schematic,4c696768-745f-4536-956e-736f725f7363,rev?*%
%TF.SameCoordinates,Original*%
%TF.FileFunction,Soldermask,Top*%
%TF.FilePolarity,Negative*%
%FSLAX46Y46*%
G04 Gerber Fmt 4.6, Leading zero omitted, Abs format (unit mm)*
G04 Created by KiCad (PCBNEW (5.1.9)-1) date 2022-04-02 11:09:43*
%MOMM*%
%LPD*%
G01*
G04 APERTURE LIST*
%ADD10C,4.501600*%
%ADD11C,0.801600*%
%ADD12C,1.431600*%
%ADD13C,1.301600*%
%ADD14C,0.100000*%
%ADD15C,1.601600*%
G04 APERTURE END LIST*
%TO.C,U2*%
G36*
G01*
X137769200Y-101427000D02*
X137769200Y-98637000D01*
G75*
G02*
X137820000Y-98586200I50800J0D01*
G01*
X138560000Y-98586200D01*
G75*
G02*
X138610800Y-98637000I0J-50800D01*
G01*
X138610800Y-101427000D01*
G75*
G02*
X138560000Y-101477800I-50800J0D01*
G01*
X137820000Y-101477800D01*
G75*
G02*
X137769200Y-101427000I0J50800D01*
G01*
G37*
G36*
G01*
X137769200Y-97363000D02*
X137769200Y-94573000D01*
G75*
G02*
X137820000Y-94522200I50800J0D01*
G01*
X138560000Y-94522200D01*
G75*
G02*
X138610800Y-94573000I0J-50800D01*
G01*
X138610800Y-97363000D01*
G75*
G02*
X138560000Y-97413800I-50800J0D01*
G01*
X137820000Y-97413800D01*
G75*
G02*
X137769200Y-97363000I0J50800D01*
G01*
G37*
G36*
G01*
X139039200Y-101427000D02*
X139039200Y-98637000D01*
G75*
G02*
X139090000Y-98586200I50800J0D01*
G01*
X139830000Y-98586200D01*
G75*
G02*
X139880800Y-98637000I0J-50800D01*
G01*
X139880800Y-101427000D01*
G75*
G02*
X139830000Y-101477800I-50800J0D01*
G01*
X139090000Y-101477800D01*
G75*
G02*
X139039200Y-101427000I0J50800D01*
G01*
G37*
G36*
G01*
X139039200Y-97363000D02*
X139039200Y-94573000D01*
G75*
G02*
X139090000Y-94522200I50800J0D01*
G01*
X139830000Y-94522200D01*
G75*
G02*
X139880800Y-94573000I0J-50800D01*
G01*
X139880800Y-97363000D01*
G75*
G02*
X139830000Y-97413800I-50800J0D01*
G01*
X139090000Y-97413800D01*
G75*
G02*
X139039200Y-97363000I0J50800D01*
G01*
G37*
G36*
G01*
X140309200Y-101427000D02*
X140309200Y-98637000D01*
G75*
G02*
X140360000Y-98586200I50800J0D01*
G01*
X141100000Y-98586200D01*
G75*
G02*
X141150800Y-98637000I0J-50800D01*
G01*
X141150800Y-101427000D01*
G75*
G02*
X141100000Y-101477800I-50800J0D01*
G01*
X140360000Y-101477800D01*
G75*
G02*
X140309200Y-101427000I0J50800D01*
G01*
G37*
G36*
G01*
X140309200Y-97363000D02*
X140309200Y-94573000D01*
G75*
G02*
X140360000Y-94522200I50800J0D01*
G01*
X141100000Y-94522200D01*
G75*
G02*
X141150800Y-94573000I0J-50800D01*
G01*
X141150800Y-97363000D01*
G75*
G02*
X141100000Y-97413800I-50800J0D01*
G01*
X140360000Y-97413800D01*
G75*
G02*
X140309200Y-97363000I0J50800D01*
G01*
G37*
G36*
G01*
X141579200Y-101427000D02*
X141579200Y-98637000D01*
G75*
G02*
X141630000Y-98586200I50800J0D01*
G01*
X142370000Y-98586200D01*
G75*
G02*
X142420800Y-98637000I0J-50800D01*
G01*
X142420800Y-101427000D01*
G75*
G02*
X142370000Y-101477800I-50800J0D01*
G01*
X141630000Y-101477800D01*
G75*
G02*
X141579200Y-101427000I0J50800D01*
G01*
G37*
G36*
G01*
X141579200Y-97363000D02*
X141579200Y-94573000D01*
G75*
G02*
X141630000Y-94522200I50800J0D01*
G01*
X142370000Y-94522200D01*
G75*
G02*
X142420800Y-94573000I0J-50800D01*
G01*
X142420800Y-97363000D01*
G75*
G02*
X142370000Y-97413800I-50800J0D01*
G01*
X141630000Y-97413800D01*
G75*
G02*
X141579200Y-97363000I0J50800D01*
G01*
G37*
G36*
G01*
X142849200Y-101427000D02*
X142849200Y-98637000D01*
G75*
G02*
X142900000Y-98586200I50800J0D01*
G01*
X143640000Y-98586200D01*
G75*
G02*
X143690800Y-98637000I0J-50800D01*
G01*
X143690800Y-101427000D01*
G75*
G02*
X143640000Y-101477800I-50800J0D01*
G01*
X142900000Y-101477800D01*
G75*
G02*
X142849200Y-101427000I0J50800D01*
G01*
G37*
G36*
G01*
X142849200Y-97363000D02*
X142849200Y-94573000D01*
G75*
G02*
X142900000Y-94522200I50800J0D01*
G01*
X143640000Y-94522200D01*
G75*
G02*
X143690800Y-94573000I0J-50800D01*
G01*
X143690800Y-97363000D01*
G75*
G02*
X143640000Y-97413800I-50800J0D01*
G01*
X142900000Y-97413800D01*
G75*
G02*
X142849200Y-97363000I0J50800D01*
G01*
G37*
G36*
G01*
X144119200Y-101427000D02*
X144119200Y-98637000D01*
G75*
G02*
X144170000Y-98586200I50800J0D01*
G01*
X144910000Y-98586200D01*
G75*
G02*
X144960800Y-98637000I0J-50800D01*
G01*
X144960800Y-101427000D01*
G75*
G02*
X144910000Y-101477800I-50800J0D01*
G01*
X144170000Y-101477800D01*
G75*
G02*
X144119200Y-101427000I0J50800D01*
G01*
G37*
G36*
G01*
X144119200Y-97363000D02*
X144119200Y-94573000D01*
G75*
G02*
X144170000Y-94522200I50800J0D01*
G01*
X144910000Y-94522200D01*
G75*
G02*
X144960800Y-94573000I0J-50800D01*
G01*
X144960800Y-97363000D01*
G75*
G02*
X144910000Y-97413800I-50800J0D01*
G01*
X144170000Y-97413800D01*
G75*
G02*
X144119200Y-97363000I0J50800D01*
G01*
G37*
G36*
G01*
X145389200Y-101427000D02*
X145389200Y-98637000D01*
G75*
G02*
X145440000Y-98586200I50800J0D01*
G01*
X146180000Y-98586200D01*
G75*
G02*
X146230800Y-98637000I0J-50800D01*
G01*
X146230800Y-101427000D01*
G75*
G02*
X146180000Y-101477800I-50800J0D01*
G01*
X145440000Y-101477800D01*
G75*
G02*
X145389200Y-101427000I0J50800D01*
G01*
G37*
G36*
G01*
X145389200Y-97363000D02*
X145389200Y-94573000D01*
G75*
G02*
X145440000Y-94522200I50800J0D01*
G01*
X146180000Y-94522200D01*
G75*
G02*
X146230800Y-94573000I0J-50800D01*
G01*
X146230800Y-97363000D01*
G75*
G02*
X146180000Y-97413800I-50800J0D01*
G01*
X145440000Y-97413800D01*
G75*
G02*
X145389200Y-97363000I0J50800D01*
G01*
G37*
%TD*%
%TO.C,U1*%
G36*
G01*
X134074200Y-87337900D02*
X134074200Y-87162100D01*
G75*
G02*
X134162100Y-87074200I87900J0D01*
G01*
X134962900Y-87074200D01*
G75*
G02*
X135050800Y-87162100I0J-87900D01*
G01*
X135050800Y-87337900D01*
G75*
G02*
X134962900Y-87425800I-87900J0D01*
G01*
X134162100Y-87425800D01*
G75*
G02*
X134074200Y-87337900I0J87900D01*
G01*
G37*
G36*
G01*
X134074200Y-87837900D02*
X134074200Y-87662100D01*
G75*
G02*
X134162100Y-87574200I87900J0D01*
G01*
X134962900Y-87574200D01*
G75*
G02*
X135050800Y-87662100I0J-87900D01*
G01*
X135050800Y-87837900D01*
G75*
G02*
X134962900Y-87925800I-87900J0D01*
G01*
X134162100Y-87925800D01*
G75*
G02*
X134074200Y-87837900I0J87900D01*
G01*
G37*
G36*
G01*
X134074200Y-88337900D02*
X134074200Y-88162100D01*
G75*
G02*
X134162100Y-88074200I87900J0D01*
G01*
X134962900Y-88074200D01*
G75*
G02*
X135050800Y-88162100I0J-87900D01*
G01*
X135050800Y-88337900D01*
G75*
G02*
X134962900Y-88425800I-87900J0D01*
G01*
X134162100Y-88425800D01*
G75*
G02*
X134074200Y-88337900I0J87900D01*
G01*
G37*
G36*
G01*
X134074200Y-88837900D02*
X134074200Y-88662100D01*
G75*
G02*
X134162100Y-88574200I87900J0D01*
G01*
X134962900Y-88574200D01*
G75*
G02*
X135050800Y-88662100I0J-87900D01*
G01*
X135050800Y-88837900D01*
G75*
G02*
X134962900Y-88925800I-87900J0D01*
G01*
X134162100Y-88925800D01*
G75*
G02*
X134074200Y-88837900I0J87900D01*
G01*
G37*
G36*
G01*
X134074200Y-89337900D02*
X134074200Y-89162100D01*
G75*
G02*
X134162100Y-89074200I87900J0D01*
G01*
X134962900Y-89074200D01*
G75*
G02*
X135050800Y-89162100I0J-87900D01*
G01*
X135050800Y-89337900D01*
G75*
G02*
X134962900Y-89425800I-87900J0D01*
G01*
X134162100Y-89425800D01*
G75*
G02*
X134074200Y-89337900I0J87900D01*
G01*
G37*
G36*
G01*
X134074200Y-89837900D02*
X134074200Y-89662100D01*
G75*
G02*
X134162100Y-89574200I87900J0D01*
G01*
X134962900Y-89574200D01*
G75*
G02*
X135050800Y-89662100I0J-87900D01*
G01*
X135050800Y-89837900D01*
G75*
G02*
X134962900Y-89925800I-87900J0D01*
G01*
X134162100Y-89925800D01*
G75*
G02*
X134074200Y-89837900I0J87900D01*
G01*
G37*
G36*
G01*
X134074200Y-90337900D02*
X134074200Y-90162100D01*
G75*
G02*
X134162100Y-90074200I87900J0D01*
G01*
X134962900Y-90074200D01*
G75*
G02*
X135050800Y-90162100I0J-87900D01*
G01*
X135050800Y-90337900D01*
G75*
G02*
X134962900Y-90425800I-87900J0D01*
G01*
X134162100Y-90425800D01*
G75*
G02*
X134074200Y-90337900I0J87900D01*
G01*
G37*
G36*
G01*
X134074200Y-90837900D02*
X134074200Y-90662100D01*
G75*
G02*
X134162100Y-90574200I87900J0D01*
G01*
X134962900Y-90574200D01*
G75*
G02*
X135050800Y-90662100I0J-87900D01*
G01*
X135050800Y-90837900D01*
G75*
G02*
X134962900Y-90925800I-87900J0D01*
G01*
X134162100Y-90925800D01*
G75*
G02*
X134074200Y-90837900I0J87900D01*
G01*
G37*
G36*
G01*
X135074200Y-91837900D02*
X135074200Y-91037100D01*
G75*
G02*
X135162100Y-90949200I87900J0D01*
G01*
X135337900Y-90949200D01*
G75*
G02*
X135425800Y-91037100I0J-87900D01*
G01*
X135425800Y-91837900D01*
G75*
G02*
X135337900Y-91925800I-87900J0D01*
G01*
X135162100Y-91925800D01*
G75*
G02*
X135074200Y-91837900I0J87900D01*
G01*
G37*
G36*
G01*
X135574200Y-91837900D02*
X135574200Y-91037100D01*
G75*
G02*
X135662100Y-90949200I87900J0D01*
G01*
X135837900Y-90949200D01*
G75*
G02*
X135925800Y-91037100I0J-87900D01*
G01*
X135925800Y-91837900D01*
G75*
G02*
X135837900Y-91925800I-87900J0D01*
G01*
X135662100Y-91925800D01*
G75*
G02*
X135574200Y-91837900I0J87900D01*
G01*
G37*
G36*
G01*
X136074200Y-91837900D02*
X136074200Y-91037100D01*
G75*
G02*
X136162100Y-90949200I87900J0D01*
G01*
X136337900Y-90949200D01*
G75*
G02*
X136425800Y-91037100I0J-87900D01*
G01*
X136425800Y-91837900D01*
G75*
G02*
X136337900Y-91925800I-87900J0D01*
G01*
X136162100Y-91925800D01*
G75*
G02*
X136074200Y-91837900I0J87900D01*
G01*
G37*
G36*
G01*
X136574200Y-91837900D02*
X136574200Y-91037100D01*
G75*
G02*
X136662100Y-90949200I87900J0D01*
G01*
X136837900Y-90949200D01*
G75*
G02*
X136925800Y-91037100I0J-87900D01*
G01*
X136925800Y-91837900D01*
G75*
G02*
X136837900Y-91925800I-87900J0D01*
G01*
X136662100Y-91925800D01*
G75*
G02*
X136574200Y-91837900I0J87900D01*
G01*
G37*
G36*
G01*
X137074200Y-91837900D02*
X137074200Y-91037100D01*
G75*
G02*
X137162100Y-90949200I87900J0D01*
G01*
X137337900Y-90949200D01*
G75*
G02*
X137425800Y-91037100I0J-87900D01*
G01*
X137425800Y-91837900D01*
G75*
G02*
X137337900Y-91925800I-87900J0D01*
G01*
X137162100Y-91925800D01*
G75*
G02*
X137074200Y-91837900I0J87900D01*
G01*
G37*
G36*
G01*
X137574200Y-91837900D02*
X137574200Y-91037100D01*
G75*
G02*
X137662100Y-90949200I87900J0D01*
G01*
X137837900Y-90949200D01*
G75*
G02*
X137925800Y-91037100I0J-87900D01*
G01*
X137925800Y-91837900D01*
G75*
G02*
X137837900Y-91925800I-87900J0D01*
G01*
X137662100Y-91925800D01*
G75*
G02*
X137574200Y-91837900I0J87900D01*
G01*
G37*
G36*
G01*
X138074200Y-91837900D02*
X138074200Y-91037100D01*
G75*
G02*
X138162100Y-90949200I87900J0D01*
G01*
X138337900Y-90949200D01*
G75*
G02*
X138425800Y-91037100I0J-87900D01*
G01*
X138425800Y-91837900D01*
G75*
G02*
X138337900Y-91925800I-87900J0D01*
G01*
X138162100Y-91925800D01*
G75*
G02*
X138074200Y-91837900I0J87900D01*
G01*
G37*
G36*
G01*
X138574200Y-91837900D02*
X138574200Y-91037100D01*
G75*
G02*
X138662100Y-90949200I87900J0D01*
G01*
X138837900Y-90949200D01*
G75*
G02*
X138925800Y-91037100I0J-87900D01*
G01*
X138925800Y-91837900D01*
G75*
G02*
X138837900Y-91925800I-87900J0D01*
G01*
X138662100Y-91925800D01*
G75*
G02*
X138574200Y-91837900I0J87900D01*
G01*
G37*
G36*
G01*
X138949200Y-90837900D02*
X138949200Y-90662100D01*
G75*
G02*
X139037100Y-90574200I87900J0D01*
G01*
X139837900Y-90574200D01*
G75*
G02*
X139925800Y-90662100I0J-87900D01*
G01*
X139925800Y-90837900D01*
G75*
G02*
X139837900Y-90925800I-87900J0D01*
G01*
X139037100Y-90925800D01*
G75*
G02*
X138949200Y-90837900I0J87900D01*
G01*
G37*
G36*
G01*
X138949200Y-90337900D02*
X138949200Y-90162100D01*
G75*
G02*
X139037100Y-90074200I87900J0D01*
G01*
X139837900Y-90074200D01*
G75*
G02*
X139925800Y-90162100I0J-87900D01*
G01*
X139925800Y-90337900D01*
G75*
G02*
X139837900Y-90425800I-87900J0D01*
G01*
X139037100Y-90425800D01*
G75*
G02*
X138949200Y-90337900I0J87900D01*
G01*
G37*
G36*
G01*
X138949200Y-89837900D02*
X138949200Y-89662100D01*
G75*
G02*
X139037100Y-89574200I87900J0D01*
G01*
X139837900Y-89574200D01*
G75*
G02*
X139925800Y-89662100I0J-87900D01*
G01*
X139925800Y-89837900D01*
G75*
G02*
X139837900Y-89925800I-87900J0D01*
G01*
X139037100Y-89925800D01*
G75*
G02*
X138949200Y-89837900I0J87900D01*
G01*
G37*
G36*
G01*
X138949200Y-89337900D02*
X138949200Y-89162100D01*
G75*
G02*
X139037100Y-89074200I87900J0D01*
G01*
X139837900Y-89074200D01*
G75*
G02*
X139925800Y-89162100I0J-87900D01*
G01*
X139925800Y-89337900D01*
G75*
G02*
X139837900Y-89425800I-87900J0D01*
G01*
X139037100Y-89425800D01*
G75*
G02*
X138949200Y-89337900I0J87900D01*
G01*
G37*
G36*
G01*
X138949200Y-88837900D02*
X138949200Y-88662100D01*
G75*
G02*
X139037100Y-88574200I87900J0D01*
G01*
X139837900Y-88574200D01*
G75*
G02*
X139925800Y-88662100I0J-87900D01*
G01*
X139925800Y-88837900D01*
G75*
G02*
X139837900Y-88925800I-87900J0D01*
G01*
X139037100Y-88925800D01*
G75*
G02*
X138949200Y-88837900I0J87900D01*
G01*
G37*
G36*
G01*
X138949200Y-88337900D02*
X138949200Y-88162100D01*
G75*
G02*
X139037100Y-88074200I87900J0D01*
G01*
X139837900Y-88074200D01*
G75*
G02*
X139925800Y-88162100I0J-87900D01*
G01*
X139925800Y-88337900D01*
G75*
G02*
X139837900Y-88425800I-87900J0D01*
G01*
X139037100Y-88425800D01*
G75*
G02*
X138949200Y-88337900I0J87900D01*
G01*
G37*
G36*
G01*
X138949200Y-87837900D02*
X138949200Y-87662100D01*
G75*
G02*
X139037100Y-87574200I87900J0D01*
G01*
X139837900Y-87574200D01*
G75*
G02*
X139925800Y-87662100I0J-87900D01*
G01*
X139925800Y-87837900D01*
G75*
G02*
X139837900Y-87925800I-87900J0D01*
G01*
X139037100Y-87925800D01*
G75*
G02*
X138949200Y-87837900I0J87900D01*
G01*
G37*
G36*
G01*
X138949200Y-87337900D02*
X138949200Y-87162100D01*
G75*
G02*
X139037100Y-87074200I87900J0D01*
G01*
X139837900Y-87074200D01*
G75*
G02*
X139925800Y-87162100I0J-87900D01*
G01*
X139925800Y-87337900D01*
G75*
G02*
X139837900Y-87425800I-87900J0D01*
G01*
X139037100Y-87425800D01*
G75*
G02*
X138949200Y-87337900I0J87900D01*
G01*
G37*
G36*
G01*
X138574200Y-86962900D02*
X138574200Y-86162100D01*
G75*
G02*
X138662100Y-86074200I87900J0D01*
G01*
X138837900Y-86074200D01*
G75*
G02*
X138925800Y-86162100I0J-87900D01*
G01*
X138925800Y-86962900D01*
G75*
G02*
X138837900Y-87050800I-87900J0D01*
G01*
X138662100Y-87050800D01*
G75*
G02*
X138574200Y-86962900I0J87900D01*
G01*
G37*
G36*
G01*
X138074200Y-86962900D02*
X138074200Y-86162100D01*
G75*
G02*
X138162100Y-86074200I87900J0D01*
G01*
X138337900Y-86074200D01*
G75*
G02*
X138425800Y-86162100I0J-87900D01*
G01*
X138425800Y-86962900D01*
G75*
G02*
X138337900Y-87050800I-87900J0D01*
G01*
X138162100Y-87050800D01*
G75*
G02*
X138074200Y-86962900I0J87900D01*
G01*
G37*
G36*
G01*
X137574200Y-86962900D02*
X137574200Y-86162100D01*
G75*
G02*
X137662100Y-86074200I87900J0D01*
G01*
X137837900Y-86074200D01*
G75*
G02*
X137925800Y-86162100I0J-87900D01*
G01*
X137925800Y-86962900D01*
G75*
G02*
X137837900Y-87050800I-87900J0D01*
G01*
X137662100Y-87050800D01*
G75*
G02*
X137574200Y-86962900I0J87900D01*
G01*
G37*
G36*
G01*
X137074200Y-86962900D02*
X137074200Y-86162100D01*
G75*
G02*
X137162100Y-86074200I87900J0D01*
G01*
X137337900Y-86074200D01*
G75*
G02*
X137425800Y-86162100I0J-87900D01*
G01*
X137425800Y-86962900D01*
G75*
G02*
X137337900Y-87050800I-87900J0D01*
G01*
X137162100Y-87050800D01*
G75*
G02*
X137074200Y-86962900I0J87900D01*
G01*
G37*
G36*
G01*
X136574200Y-86962900D02*
X136574200Y-86162100D01*
G75*
G02*
X136662100Y-86074200I87900J0D01*
G01*
X136837900Y-86074200D01*
G75*
G02*
X136925800Y-86162100I0J-87900D01*
G01*
X136925800Y-86962900D01*
G75*
G02*
X136837900Y-87050800I-87900J0D01*
G01*
X136662100Y-87050800D01*
G75*
G02*
X136574200Y-86962900I0J87900D01*
G01*
G37*
G36*
G01*
X136074200Y-86962900D02*
X136074200Y-86162100D01*
G75*
G02*
X136162100Y-86074200I87900J0D01*
G01*
X136337900Y-86074200D01*
G75*
G02*
X136425800Y-86162100I0J-87900D01*
G01*
X136425800Y-86962900D01*
G75*
G02*
X136337900Y-87050800I-87900J0D01*
G01*
X136162100Y-87050800D01*
G75*
G02*
X136074200Y-86962900I0J87900D01*
G01*
G37*
G36*
G01*
X135574200Y-86962900D02*
X135574200Y-86162100D01*
G75*
G02*
X135662100Y-86074200I87900J0D01*
G01*
X135837900Y-86074200D01*
G75*
G02*
X135925800Y-86162100I0J-87900D01*
G01*
X135925800Y-86962900D01*
G75*
G02*
X135837900Y-87050800I-87900J0D01*
G01*
X135662100Y-87050800D01*
G75*
G02*
X135574200Y-86962900I0J87900D01*
G01*
G37*
G36*
G01*
X135074200Y-86962900D02*
X135074200Y-86162100D01*
G75*
G02*
X135162100Y-86074200I87900J0D01*
G01*
X135337900Y-86074200D01*
G75*
G02*
X135425800Y-86162100I0J-87900D01*
G01*
X135425800Y-86962900D01*
G75*
G02*
X135337900Y-87050800I-87900J0D01*
G01*
X135162100Y-87050800D01*
G75*
G02*
X135074200Y-86962900I0J87900D01*
G01*
G37*
G36*
G01*
X135224200Y-90725000D02*
X135224200Y-87275000D01*
G75*
G02*
X135275000Y-87224200I50800J0D01*
G01*
X138725000Y-87224200D01*
G75*
G02*
X138775800Y-87275000I0J-50800D01*
G01*
X138775800Y-90725000D01*
G75*
G02*
X138725000Y-90775800I-50800J0D01*
G01*
X135275000Y-90775800D01*
G75*
G02*
X135224200Y-90725000I0J50800D01*
G01*
G37*
%TD*%
%TO.C,BT1*%
G36*
G01*
X126800000Y-121000800D02*
X123200000Y-121000800D01*
G75*
G02*
X123149200Y-120950000I0J50800D01*
G01*
X123149200Y-118350000D01*
G75*
G02*
X123200000Y-118299200I50800J0D01*
G01*
X126800000Y-118299200D01*
G75*
G02*
X126850800Y-118350000I0J-50800D01*
G01*
X126850800Y-120950000D01*
G75*
G02*
X126800000Y-121000800I-50800J0D01*
G01*
G37*
G36*
G01*
X126800000Y-91700800D02*
X123200000Y-91700800D01*
G75*
G02*
X123149200Y-91650000I0J50800D01*
G01*
X123149200Y-89050000D01*
G75*
G02*
X123200000Y-88999200I50800J0D01*
G01*
X126800000Y-88999200D01*
G75*
G02*
X126850800Y-89050000I0J-50800D01*
G01*
X126850800Y-91650000D01*
G75*
G02*
X126800000Y-91700800I-50800J0D01*
G01*
G37*
%TD*%
%TO.C,C1*%
G36*
G01*
X106737100Y-107549200D02*
X107262900Y-107549200D01*
G75*
G02*
X107525800Y-107812100I0J-262900D01*
G01*
X107525800Y-108462900D01*
G75*
G02*
X107262900Y-108725800I-262900J0D01*
G01*
X106737100Y-108725800D01*
G75*
G02*
X106474200Y-108462900I0J262900D01*
G01*
X106474200Y-107812100D01*
G75*
G02*
X106737100Y-107549200I262900J0D01*
G01*
G37*
G36*
G01*
X106737100Y-109274200D02*
X107262900Y-109274200D01*
G75*
G02*
X107525800Y-109537100I0J-262900D01*
G01*
X107525800Y-110187900D01*
G75*
G02*
X107262900Y-110450800I-262900J0D01*
G01*
X106737100Y-110450800D01*
G75*
G02*
X106474200Y-110187900I0J262900D01*
G01*
X106474200Y-109537100D01*
G75*
G02*
X106737100Y-109274200I262900J0D01*
G01*
G37*
%TD*%
D10*
%TO.C,H1*%
X125000000Y-125000000D03*
D11*
X126650000Y-125000000D03*
X126166726Y-126166726D03*
X125000000Y-126650000D03*
X123833274Y-126166726D03*
X123350000Y-125000000D03*
X123833274Y-123833274D03*
X125000000Y-123350000D03*
X126166726Y-123833274D03*
%TD*%
%TO.C,H2*%
X126166726Y-83833274D03*
X125000000Y-83350000D03*
X123833274Y-83833274D03*
X123350000Y-85000000D03*
X123833274Y-86166726D03*
X125000000Y-86650000D03*
X126166726Y-86166726D03*
X126650000Y-85000000D03*
D10*
X125000000Y-85000000D03*
%TD*%
%TO.C,H3*%
X145000000Y-105000000D03*
D11*
X146650000Y-105000000D03*
X146166726Y-106166726D03*
X145000000Y-106650000D03*
X143833274Y-106166726D03*
X143350000Y-105000000D03*
X143833274Y-103833274D03*
X145000000Y-103350000D03*
X146166726Y-103833274D03*
%TD*%
%TO.C,H4*%
X106166726Y-103833274D03*
X105000000Y-103350000D03*
X103833274Y-103833274D03*
X103350000Y-105000000D03*
X103833274Y-106166726D03*
X105000000Y-106650000D03*
X106166726Y-106166726D03*
X106650000Y-105000000D03*
D10*
X105000000Y-105000000D03*
%TD*%
D12*
%TO.C,IC1*%
X111000000Y-110000000D03*
X111000000Y-108000000D03*
X111000000Y-106000000D03*
%TD*%
%TO.C,J1*%
G36*
G01*
X136396860Y-122094235D02*
X135231156Y-121116094D01*
G75*
G02*
X135198500Y-120742836I170301J202957D01*
G01*
X136015944Y-119768643D01*
G75*
G02*
X136389202Y-119735987I202957J-170301D01*
G01*
X137554906Y-120714128D01*
G75*
G02*
X137587562Y-121087386I-170301J-202957D01*
G01*
X136770118Y-122061579D01*
G75*
G02*
X136396860Y-122094235I-202957J170301D01*
G01*
G37*
G36*
G01*
X137516733Y-119770401D02*
X137325221Y-119609705D01*
G75*
G02*
X137214191Y-118340629I579023J690053D01*
G01*
X137214191Y-118340629D01*
G75*
G02*
X138483267Y-118229599I690053J-579023D01*
G01*
X138674779Y-118390295D01*
G75*
G02*
X138785809Y-119659371I-579023J-690053D01*
G01*
X138785809Y-119659371D01*
G75*
G02*
X137516733Y-119770401I-690053J579023D01*
G01*
G37*
G36*
G01*
X139123702Y-117855290D02*
X138932190Y-117694594D01*
G75*
G02*
X138821160Y-116425518I579023J690053D01*
G01*
X138821160Y-116425518D01*
G75*
G02*
X140090236Y-116314488I690053J-579023D01*
G01*
X140281748Y-116475184D01*
G75*
G02*
X140392778Y-117744260I-579023J-690053D01*
G01*
X140392778Y-117744260D01*
G75*
G02*
X139123702Y-117855290I-690053J579023D01*
G01*
G37*
D13*
X136896660Y-123426357D03*
%TD*%
%TO.C,J3*%
G36*
G01*
X106106581Y-98174303D02*
X104860063Y-97301481D01*
G75*
G02*
X104795000Y-96932490I151964J217027D01*
G01*
X105524428Y-95890760D01*
G75*
G02*
X105893419Y-95825697I217027J-151964D01*
G01*
X107139937Y-96698519D01*
G75*
G02*
X107205000Y-97067510I-151964J-217027D01*
G01*
X106475572Y-98109240D01*
G75*
G02*
X106106581Y-98174303I-217027J151964D01*
G01*
G37*
G36*
G01*
X107019657Y-95761709D02*
X106814869Y-95618315D01*
G75*
G02*
X106593655Y-94363745I516678J737892D01*
G01*
X106593655Y-94363745D01*
G75*
G02*
X107848225Y-94142531I737892J-516678D01*
G01*
X108053013Y-94285925D01*
G75*
G02*
X108274227Y-95540495I-516678J-737892D01*
G01*
X108274227Y-95540495D01*
G75*
G02*
X107019657Y-95761709I-737892J516678D01*
G01*
G37*
G36*
G01*
X108453598Y-93713829D02*
X108248810Y-93570435D01*
G75*
G02*
X108027596Y-92315865I516678J737892D01*
G01*
X108027596Y-92315865D01*
G75*
G02*
X109282166Y-92094651I737892J-516678D01*
G01*
X109486954Y-92238045D01*
G75*
G02*
X109708168Y-93492615I-516678J-737892D01*
G01*
X109708168Y-93492615D01*
G75*
G02*
X108453598Y-93713829I-737892J516678D01*
G01*
G37*
G36*
G01*
X109887539Y-91665949D02*
X109682751Y-91522555D01*
G75*
G02*
X109461537Y-90267985I516678J737892D01*
G01*
X109461537Y-90267985D01*
G75*
G02*
X110716107Y-90046771I737892J-516678D01*
G01*
X110920895Y-90190165D01*
G75*
G02*
X111142109Y-91444735I-516678J-737892D01*
G01*
X111142109Y-91444735D01*
G75*
G02*
X109887539Y-91665949I-737892J516678D01*
G01*
G37*
X106720582Y-99457796D03*
%TD*%
D14*
%TO.C,JP2*%
G36*
X115740089Y-85799824D02*
G01*
X115730560Y-85796933D01*
X115721777Y-85792239D01*
X115714079Y-85785921D01*
X115707761Y-85778223D01*
X115703067Y-85769440D01*
X115700176Y-85759911D01*
X115699200Y-85750000D01*
X115699200Y-84250000D01*
X115700176Y-84240089D01*
X115703067Y-84230560D01*
X115707761Y-84221777D01*
X115714079Y-84214079D01*
X115721777Y-84207761D01*
X115730560Y-84203067D01*
X115740089Y-84200176D01*
X115750000Y-84199200D01*
X116300000Y-84199200D01*
X116306113Y-84199802D01*
X116324534Y-84199802D01*
X116329514Y-84200047D01*
X116378345Y-84204857D01*
X116383275Y-84205588D01*
X116431400Y-84215160D01*
X116436237Y-84216372D01*
X116483192Y-84230616D01*
X116487885Y-84232295D01*
X116533218Y-84251072D01*
X116537726Y-84253204D01*
X116580999Y-84276335D01*
X116585273Y-84278897D01*
X116626072Y-84306157D01*
X116630077Y-84309127D01*
X116668006Y-84340255D01*
X116671700Y-84343603D01*
X116706397Y-84378300D01*
X116709745Y-84381994D01*
X116740873Y-84419923D01*
X116743843Y-84423928D01*
X116771103Y-84464727D01*
X116773665Y-84469001D01*
X116796796Y-84512274D01*
X116798928Y-84516782D01*
X116817705Y-84562115D01*
X116819384Y-84566808D01*
X116833628Y-84613763D01*
X116834840Y-84618600D01*
X116844412Y-84666725D01*
X116845143Y-84671655D01*
X116849953Y-84720486D01*
X116850198Y-84725466D01*
X116850198Y-84743887D01*
X116850800Y-84750000D01*
X116850800Y-85250000D01*
X116850198Y-85256113D01*
X116850198Y-85274534D01*
X116849953Y-85279514D01*
X116845143Y-85328345D01*
X116844412Y-85333275D01*
X116834840Y-85381400D01*
X116833628Y-85386237D01*
X116819384Y-85433192D01*
X116817705Y-85437885D01*
X116798928Y-85483218D01*
X116796796Y-85487726D01*
X116773665Y-85530999D01*
X116771103Y-85535273D01*
X116743843Y-85576072D01*
X116740873Y-85580077D01*
X116709745Y-85618006D01*
X116706397Y-85621700D01*
X116671700Y-85656397D01*
X116668006Y-85659745D01*
X116630077Y-85690873D01*
X116626072Y-85693843D01*
X116585273Y-85721103D01*
X116580999Y-85723665D01*
X116537726Y-85746796D01*
X116533218Y-85748928D01*
X116487885Y-85767705D01*
X116483192Y-85769384D01*
X116436237Y-85783628D01*
X116431400Y-85784840D01*
X116383275Y-85794412D01*
X116378345Y-85795143D01*
X116329514Y-85799953D01*
X116324534Y-85800198D01*
X116306113Y-85800198D01*
X116300000Y-85800800D01*
X115750000Y-85800800D01*
X115740089Y-85799824D01*
G37*
G36*
X113693887Y-85800198D02*
G01*
X113675466Y-85800198D01*
X113670486Y-85799953D01*
X113621655Y-85795143D01*
X113616725Y-85794412D01*
X113568600Y-85784840D01*
X113563763Y-85783628D01*
X113516808Y-85769384D01*
X113512115Y-85767705D01*
X113466782Y-85748928D01*
X113462274Y-85746796D01*
X113419001Y-85723665D01*
X113414727Y-85721103D01*
X113373928Y-85693843D01*
X113369923Y-85690873D01*
X113331994Y-85659745D01*
X113328300Y-85656397D01*
X113293603Y-85621700D01*
X113290255Y-85618006D01*
X113259127Y-85580077D01*
X113256157Y-85576072D01*
X113228897Y-85535273D01*
X113226335Y-85530999D01*
X113203204Y-85487726D01*
X113201072Y-85483218D01*
X113182295Y-85437885D01*
X113180616Y-85433192D01*
X113166372Y-85386237D01*
X113165160Y-85381400D01*
X113155588Y-85333275D01*
X113154857Y-85328345D01*
X113150047Y-85279514D01*
X113149802Y-85274534D01*
X113149802Y-85256113D01*
X113149200Y-85250000D01*
X113149200Y-84750000D01*
X113149802Y-84743887D01*
X113149802Y-84725466D01*
X113150047Y-84720486D01*
X113154857Y-84671655D01*
X113155588Y-84666725D01*
X113165160Y-84618600D01*
X113166372Y-84613763D01*
X113180616Y-84566808D01*
X113182295Y-84562115D01*
X113201072Y-84516782D01*
X113203204Y-84512274D01*
X113226335Y-84469001D01*
X113228897Y-84464727D01*
X113256157Y-84423928D01*
X113259127Y-84419923D01*
X113290255Y-84381994D01*
X113293603Y-84378300D01*
X113328300Y-84343603D01*
X113331994Y-84340255D01*
X113369923Y-84309127D01*
X113373928Y-84306157D01*
X113414727Y-84278897D01*
X113419001Y-84276335D01*
X113462274Y-84253204D01*
X113466782Y-84251072D01*
X113512115Y-84232295D01*
X113516808Y-84230616D01*
X113563763Y-84216372D01*
X113568600Y-84215160D01*
X113616725Y-84205588D01*
X113621655Y-84204857D01*
X113670486Y-84200047D01*
X113675466Y-84199802D01*
X113693887Y-84199802D01*
X113700000Y-84199200D01*
X114250000Y-84199200D01*
X114259911Y-84200176D01*
X114269440Y-84203067D01*
X114278223Y-84207761D01*
X114285921Y-84214079D01*
X114292239Y-84221777D01*
X114296933Y-84230560D01*
X114299824Y-84240089D01*
X114300800Y-84250000D01*
X114300800Y-85750000D01*
X114299824Y-85759911D01*
X114296933Y-85769440D01*
X114292239Y-85778223D01*
X114285921Y-85785921D01*
X114278223Y-85792239D01*
X114269440Y-85796933D01*
X114259911Y-85799824D01*
X114250000Y-85800800D01*
X113700000Y-85800800D01*
X113693887Y-85800198D01*
G37*
G36*
G01*
X115550800Y-84250000D02*
X115550800Y-85750000D01*
G75*
G02*
X115500000Y-85800800I-50800J0D01*
G01*
X114500000Y-85800800D01*
G75*
G02*
X114449200Y-85750000I0J50800D01*
G01*
X114449200Y-84250000D01*
G75*
G02*
X114500000Y-84199200I50800J0D01*
G01*
X115500000Y-84199200D01*
G75*
G02*
X115550800Y-84250000I0J-50800D01*
G01*
G37*
%TD*%
%TO.C,R3*%
G36*
G01*
X141262900Y-110450800D02*
X140737100Y-110450800D01*
G75*
G02*
X140474200Y-110187900I0J262900D01*
G01*
X140474200Y-109637100D01*
G75*
G02*
X140737100Y-109374200I262900J0D01*
G01*
X141262900Y-109374200D01*
G75*
G02*
X141525800Y-109637100I0J-262900D01*
G01*
X141525800Y-110187900D01*
G75*
G02*
X141262900Y-110450800I-262900J0D01*
G01*
G37*
G36*
G01*
X141262900Y-108625800D02*
X140737100Y-108625800D01*
G75*
G02*
X140474200Y-108362900I0J262900D01*
G01*
X140474200Y-107812100D01*
G75*
G02*
X140737100Y-107549200I262900J0D01*
G01*
X141262900Y-107549200D01*
G75*
G02*
X141525800Y-107812100I0J-262900D01*
G01*
X141525800Y-108362900D01*
G75*
G02*
X141262900Y-108625800I-262900J0D01*
G01*
G37*
%TD*%
%TO.C,R4*%
G36*
G01*
X138262900Y-108625800D02*
X137737100Y-108625800D01*
G75*
G02*
X137474200Y-108362900I0J262900D01*
G01*
X137474200Y-107812100D01*
G75*
G02*
X137737100Y-107549200I262900J0D01*
G01*
X138262900Y-107549200D01*
G75*
G02*
X138525800Y-107812100I0J-262900D01*
G01*
X138525800Y-108362900D01*
G75*
G02*
X138262900Y-108625800I-262900J0D01*
G01*
G37*
G36*
G01*
X138262900Y-110450800D02*
X137737100Y-110450800D01*
G75*
G02*
X137474200Y-110187900I0J262900D01*
G01*
X137474200Y-109637100D01*
G75*
G02*
X137737100Y-109374200I262900J0D01*
G01*
X138262900Y-109374200D01*
G75*
G02*
X138525800Y-109637100I0J-262900D01*
G01*
X138525800Y-110187900D01*
G75*
G02*
X138262900Y-110450800I-262900J0D01*
G01*
G37*
%TD*%
D15*
%TO.C,TP1*%
X144000000Y-92000000D03*
%TD*%
%TO.C,TP2*%
X132000000Y-84000000D03*
%TD*%
%TO.C,TP6*%
X109000000Y-104000000D03*
%TD*%
%TO.C,U3*%
G36*
G01*
X128299200Y-86175000D02*
X128299200Y-85825000D01*
G75*
G02*
X128350000Y-85774200I50800J0D01*
G01*
X129250000Y-85774200D01*
G75*
G02*
X129300800Y-85825000I0J-50800D01*
G01*
X129300800Y-86175000D01*
G75*
G02*
X129250000Y-86225800I-50800J0D01*
G01*
X128350000Y-86225800D01*
G75*
G02*
X128299200Y-86175000I0J50800D01*
G01*
G37*
G36*
G01*
X130039200Y-86175000D02*
X130039200Y-85825000D01*
G75*
G02*
X130090000Y-85774200I50800J0D01*
G01*
X130990000Y-85774200D01*
G75*
G02*
X131040800Y-85825000I0J-50800D01*
G01*
X131040800Y-86175000D01*
G75*
G02*
X130990000Y-86225800I-50800J0D01*
G01*
X130090000Y-86225800D01*
G75*
G02*
X130039200Y-86175000I0J50800D01*
G01*
G37*
G36*
G01*
X128299200Y-86875000D02*
X128299200Y-86525000D01*
G75*
G02*
X128350000Y-86474200I50800J0D01*
G01*
X129250000Y-86474200D01*
G75*
G02*
X129300800Y-86525000I0J-50800D01*
G01*
X129300800Y-86875000D01*
G75*
G02*
X129250000Y-86925800I-50800J0D01*
G01*
X128350000Y-86925800D01*
G75*
G02*
X128299200Y-86875000I0J50800D01*
G01*
G37*
G36*
G01*
X130039200Y-86875000D02*
X130039200Y-86525000D01*
G75*
G02*
X130090000Y-86474200I50800J0D01*
G01*
X130990000Y-86474200D01*
G75*
G02*
X131040800Y-86525000I0J-50800D01*
G01*
X131040800Y-86875000D01*
G75*
G02*
X130990000Y-86925800I-50800J0D01*
G01*
X130090000Y-86925800D01*
G75*
G02*
X130039200Y-86875000I0J50800D01*
G01*
G37*
G36*
G01*
X128299200Y-87575000D02*
X128299200Y-87225000D01*
G75*
G02*
X128350000Y-87174200I50800J0D01*
G01*
X129250000Y-87174200D01*
G75*
G02*
X129300800Y-87225000I0J-50800D01*
G01*
X129300800Y-87575000D01*
G75*
G02*
X129250000Y-87625800I-50800J0D01*
G01*
X128350000Y-87625800D01*
G75*
G02*
X128299200Y-87575000I0J50800D01*
G01*
G37*
G36*
G01*
X130039200Y-87575000D02*
X130039200Y-87225000D01*
G75*
G02*
X130090000Y-87174200I50800J0D01*
G01*
X130990000Y-87174200D01*
G75*
G02*
X131040800Y-87225000I0J-50800D01*
G01*
X131040800Y-87575000D01*
G75*
G02*
X130990000Y-87625800I-50800J0D01*
G01*
X130090000Y-87625800D01*
G75*
G02*
X130039200Y-87575000I0J50800D01*
G01*
G37*
G36*
G01*
X128299200Y-88275000D02*
X128299200Y-87925000D01*
G75*
G02*
X128350000Y-87874200I50800J0D01*
G01*
X129250000Y-87874200D01*
G75*
G02*
X129300800Y-87925000I0J-50800D01*
G01*
X129300800Y-88275000D01*
G75*
G02*
X129250000Y-88325800I-50800J0D01*
G01*
X128350000Y-88325800D01*
G75*
G02*
X128299200Y-88275000I0J50800D01*
G01*
G37*
G36*
G01*
X130039200Y-88275000D02*
X130039200Y-87925000D01*
G75*
G02*
X130090000Y-87874200I50800J0D01*
G01*
X130990000Y-87874200D01*
G75*
G02*
X131040800Y-87925000I0J-50800D01*
G01*
X131040800Y-88275000D01*
G75*
G02*
X130990000Y-88325800I-50800J0D01*
G01*
X130090000Y-88325800D01*
G75*
G02*
X130039200Y-88275000I0J50800D01*
G01*
G37*
G36*
G01*
X128299200Y-88975000D02*
X128299200Y-88625000D01*
G75*
G02*
X128350000Y-88574200I50800J0D01*
G01*
X129250000Y-88574200D01*
G75*
G02*
X129300800Y-88625000I0J-50800D01*
G01*
X129300800Y-88975000D01*
G75*
G02*
X129250000Y-89025800I-50800J0D01*
G01*
X128350000Y-89025800D01*
G75*
G02*
X128299200Y-88975000I0J50800D01*
G01*
G37*
G36*
G01*
X130039200Y-88975000D02*
X130039200Y-88625000D01*
G75*
G02*
X130090000Y-88574200I50800J0D01*
G01*
X130990000Y-88574200D01*
G75*
G02*
X131040800Y-88625000I0J-50800D01*
G01*
X131040800Y-88975000D01*
G75*
G02*
X130990000Y-89025800I-50800J0D01*
G01*
X130090000Y-89025800D01*
G75*
G02*
X130039200Y-88975000I0J50800D01*
G01*
G37*
%TD*%
M02*
