%TF.GenerationSoftware,KiCad,Pcbnew,(5.1.9)-1*%
%TF.CreationDate,2022-04-02T11:09:43-04:00*%
%TF.ProjectId,Light_Sensor_schematic,4c696768-745f-4536-956e-736f725f7363,rev?*%
%TF.SameCoordinates,Original*%
%TF.FileFunction,Soldermask,Bot*%
%TF.FilePolarity,Negative*%
%FSLAX46Y46*%
G04 Gerber Fmt 4.6, Leading zero omitted, Abs format (unit mm)*
G04 Created by KiCad (PCBNEW (5.1.9)-1) date 2022-04-02 11:09:43*
%MOMM*%
%LPD*%
G01*
G04 APERTURE LIST*
%ADD10C,4.501600*%
%ADD11C,0.801600*%
%ADD12C,1.431600*%
%ADD13C,1.301600*%
G04 APERTURE END LIST*
%TO.C,C2*%
G36*
G01*
X137411700Y-87262900D02*
X137411700Y-86737100D01*
G75*
G02*
X137674600Y-86474200I262900J0D01*
G01*
X138325400Y-86474200D01*
G75*
G02*
X138588300Y-86737100I0J-262900D01*
G01*
X138588300Y-87262900D01*
G75*
G02*
X138325400Y-87525800I-262900J0D01*
G01*
X137674600Y-87525800D01*
G75*
G02*
X137411700Y-87262900I0J262900D01*
G01*
G37*
G36*
G01*
X135686700Y-87262900D02*
X135686700Y-86737100D01*
G75*
G02*
X135949600Y-86474200I262900J0D01*
G01*
X136600400Y-86474200D01*
G75*
G02*
X136863300Y-86737100I0J-262900D01*
G01*
X136863300Y-87262900D01*
G75*
G02*
X136600400Y-87525800I-262900J0D01*
G01*
X135949600Y-87525800D01*
G75*
G02*
X135686700Y-87262900I0J262900D01*
G01*
G37*
%TD*%
%TO.C,C4*%
G36*
G01*
X135686700Y-89262900D02*
X135686700Y-88737100D01*
G75*
G02*
X135949600Y-88474200I262900J0D01*
G01*
X136600400Y-88474200D01*
G75*
G02*
X136863300Y-88737100I0J-262900D01*
G01*
X136863300Y-89262900D01*
G75*
G02*
X136600400Y-89525800I-262900J0D01*
G01*
X135949600Y-89525800D01*
G75*
G02*
X135686700Y-89262900I0J262900D01*
G01*
G37*
G36*
G01*
X137411700Y-89262900D02*
X137411700Y-88737100D01*
G75*
G02*
X137674600Y-88474200I262900J0D01*
G01*
X138325400Y-88474200D01*
G75*
G02*
X138588300Y-88737100I0J-262900D01*
G01*
X138588300Y-89262900D01*
G75*
G02*
X138325400Y-89525800I-262900J0D01*
G01*
X137674600Y-89525800D01*
G75*
G02*
X137411700Y-89262900I0J262900D01*
G01*
G37*
%TD*%
%TO.C,C6*%
G36*
G01*
X137411700Y-91262900D02*
X137411700Y-90737100D01*
G75*
G02*
X137674600Y-90474200I262900J0D01*
G01*
X138325400Y-90474200D01*
G75*
G02*
X138588300Y-90737100I0J-262900D01*
G01*
X138588300Y-91262900D01*
G75*
G02*
X138325400Y-91525800I-262900J0D01*
G01*
X137674600Y-91525800D01*
G75*
G02*
X137411700Y-91262900I0J262900D01*
G01*
G37*
G36*
G01*
X135686700Y-91262900D02*
X135686700Y-90737100D01*
G75*
G02*
X135949600Y-90474200I262900J0D01*
G01*
X136600400Y-90474200D01*
G75*
G02*
X136863300Y-90737100I0J-262900D01*
G01*
X136863300Y-91262900D01*
G75*
G02*
X136600400Y-91525800I-262900J0D01*
G01*
X135949600Y-91525800D01*
G75*
G02*
X135686700Y-91262900I0J262900D01*
G01*
G37*
%TD*%
D10*
%TO.C,H1*%
X125000000Y-125000000D03*
D11*
X126650000Y-125000000D03*
X126166726Y-126166726D03*
X125000000Y-126650000D03*
X123833274Y-126166726D03*
X123350000Y-125000000D03*
X123833274Y-123833274D03*
X125000000Y-123350000D03*
X126166726Y-123833274D03*
%TD*%
%TO.C,H2*%
X126166726Y-83833274D03*
X125000000Y-83350000D03*
X123833274Y-83833274D03*
X123350000Y-85000000D03*
X123833274Y-86166726D03*
X125000000Y-86650000D03*
X126166726Y-86166726D03*
X126650000Y-85000000D03*
D10*
X125000000Y-85000000D03*
%TD*%
%TO.C,H3*%
X145000000Y-105000000D03*
D11*
X146650000Y-105000000D03*
X146166726Y-106166726D03*
X145000000Y-106650000D03*
X143833274Y-106166726D03*
X143350000Y-105000000D03*
X143833274Y-103833274D03*
X145000000Y-103350000D03*
X146166726Y-103833274D03*
%TD*%
%TO.C,H4*%
X106166726Y-103833274D03*
X105000000Y-103350000D03*
X103833274Y-103833274D03*
X103350000Y-105000000D03*
X103833274Y-106166726D03*
X105000000Y-106650000D03*
X106166726Y-106166726D03*
X106650000Y-105000000D03*
D10*
X105000000Y-105000000D03*
%TD*%
D12*
%TO.C,IC1*%
X111000000Y-110000000D03*
X111000000Y-108000000D03*
X111000000Y-106000000D03*
%TD*%
%TO.C,J1*%
G36*
G01*
X136396860Y-122094235D02*
X135231156Y-121116094D01*
G75*
G02*
X135198500Y-120742836I170301J202957D01*
G01*
X136015944Y-119768643D01*
G75*
G02*
X136389202Y-119735987I202957J-170301D01*
G01*
X137554906Y-120714128D01*
G75*
G02*
X137587562Y-121087386I-170301J-202957D01*
G01*
X136770118Y-122061579D01*
G75*
G02*
X136396860Y-122094235I-202957J170301D01*
G01*
G37*
G36*
G01*
X137516733Y-119770401D02*
X137325221Y-119609705D01*
G75*
G02*
X137214191Y-118340629I579023J690053D01*
G01*
X137214191Y-118340629D01*
G75*
G02*
X138483267Y-118229599I690053J-579023D01*
G01*
X138674779Y-118390295D01*
G75*
G02*
X138785809Y-119659371I-579023J-690053D01*
G01*
X138785809Y-119659371D01*
G75*
G02*
X137516733Y-119770401I-690053J579023D01*
G01*
G37*
G36*
G01*
X139123702Y-117855290D02*
X138932190Y-117694594D01*
G75*
G02*
X138821160Y-116425518I579023J690053D01*
G01*
X138821160Y-116425518D01*
G75*
G02*
X140090236Y-116314488I690053J-579023D01*
G01*
X140281748Y-116475184D01*
G75*
G02*
X140392778Y-117744260I-579023J-690053D01*
G01*
X140392778Y-117744260D01*
G75*
G02*
X139123702Y-117855290I-690053J579023D01*
G01*
G37*
D13*
X136896660Y-123426357D03*
%TD*%
%TO.C,J3*%
G36*
G01*
X106106581Y-98174303D02*
X104860063Y-97301481D01*
G75*
G02*
X104795000Y-96932490I151964J217027D01*
G01*
X105524428Y-95890760D01*
G75*
G02*
X105893419Y-95825697I217027J-151964D01*
G01*
X107139937Y-96698519D01*
G75*
G02*
X107205000Y-97067510I-151964J-217027D01*
G01*
X106475572Y-98109240D01*
G75*
G02*
X106106581Y-98174303I-217027J151964D01*
G01*
G37*
G36*
G01*
X107019657Y-95761709D02*
X106814869Y-95618315D01*
G75*
G02*
X106593655Y-94363745I516678J737892D01*
G01*
X106593655Y-94363745D01*
G75*
G02*
X107848225Y-94142531I737892J-516678D01*
G01*
X108053013Y-94285925D01*
G75*
G02*
X108274227Y-95540495I-516678J-737892D01*
G01*
X108274227Y-95540495D01*
G75*
G02*
X107019657Y-95761709I-737892J516678D01*
G01*
G37*
G36*
G01*
X108453598Y-93713829D02*
X108248810Y-93570435D01*
G75*
G02*
X108027596Y-92315865I516678J737892D01*
G01*
X108027596Y-92315865D01*
G75*
G02*
X109282166Y-92094651I737892J-516678D01*
G01*
X109486954Y-92238045D01*
G75*
G02*
X109708168Y-93492615I-516678J-737892D01*
G01*
X109708168Y-93492615D01*
G75*
G02*
X108453598Y-93713829I-737892J516678D01*
G01*
G37*
G36*
G01*
X109887539Y-91665949D02*
X109682751Y-91522555D01*
G75*
G02*
X109461537Y-90267985I516678J737892D01*
G01*
X109461537Y-90267985D01*
G75*
G02*
X110716107Y-90046771I737892J-516678D01*
G01*
X110920895Y-90190165D01*
G75*
G02*
X111142109Y-91444735I-516678J-737892D01*
G01*
X111142109Y-91444735D01*
G75*
G02*
X109887539Y-91665949I-737892J516678D01*
G01*
G37*
X106720582Y-99457796D03*
%TD*%
M02*
