%TF.GenerationSoftware,KiCad,Pcbnew,(5.1.9)-1*%
%TF.CreationDate,2022-04-02T11:09:43-04:00*%
%TF.ProjectId,Light_Sensor_schematic,4c696768-745f-4536-956e-736f725f7363,rev?*%
%TF.SameCoordinates,Original*%
%TF.FileFunction,Legend,Top*%
%TF.FilePolarity,Positive*%
%FSLAX46Y46*%
G04 Gerber Fmt 4.6, Leading zero omitted, Abs format (unit mm)*
G04 Created by KiCad (PCBNEW (5.1.9)-1) date 2022-04-02 11:09:43*
%MOMM*%
%LPD*%
G01*
G04 APERTURE LIST*
%ADD10C,0.150000*%
%ADD11C,0.120000*%
G04 APERTURE END LIST*
D10*
%TO.C,U2*%
X147588000Y-99524000D02*
X146572000Y-99524000D01*
X147588000Y-96476000D02*
X147588000Y-99524000D01*
X146572000Y-96476000D02*
X147588000Y-96476000D01*
X136412000Y-99524000D02*
X137428000Y-99524000D01*
X136412000Y-96476000D02*
X136412000Y-99524000D01*
X137428000Y-96476000D02*
X136412000Y-96476000D01*
D11*
%TO.C,U1*%
X134865000Y-86390000D02*
X134390000Y-86390000D01*
X139610000Y-91610000D02*
X139610000Y-91135000D01*
X139135000Y-91610000D02*
X139610000Y-91610000D01*
X134390000Y-91610000D02*
X134390000Y-91135000D01*
X134865000Y-91610000D02*
X134390000Y-91610000D01*
X139610000Y-86390000D02*
X139610000Y-86865000D01*
X139135000Y-86390000D02*
X139610000Y-86390000D01*
%TO.C,BT1*%
X119000000Y-93000000D02*
X119000000Y-91000000D01*
X120000000Y-92000000D02*
X118000000Y-92000000D01*
X133350000Y-116350000D02*
X128850000Y-116350000D01*
X133350000Y-93650000D02*
X128850000Y-93650000D01*
X133350000Y-93650000D02*
X133350000Y-116350000D01*
X128850000Y-119550000D02*
X127300000Y-119550000D01*
X128850000Y-116350000D02*
X128850000Y-119550000D01*
X128850000Y-90450000D02*
X127300000Y-90450000D01*
X128850000Y-93650000D02*
X128850000Y-90450000D01*
X121150000Y-90450000D02*
X122700000Y-90450000D01*
X121150000Y-93650000D02*
X121150000Y-90450000D01*
X116650000Y-95450000D02*
X118450000Y-93650000D01*
X118450000Y-93650000D02*
X121150000Y-93650000D01*
X116650000Y-116350000D02*
X116650000Y-95450000D01*
X116650000Y-116350000D02*
X121150000Y-116350000D01*
X121150000Y-119550000D02*
X122700000Y-119550000D01*
X121150000Y-116350000D02*
X121150000Y-119550000D01*
%TO.C,C1*%
X106490000Y-108853733D02*
X106490000Y-109146267D01*
X107510000Y-108853733D02*
X107510000Y-109146267D01*
%TO.C,J1*%
X132454464Y-121330672D02*
X133412020Y-122134156D01*
X133257949Y-120373116D02*
X132454464Y-121330672D01*
X142870609Y-117473675D02*
X140106622Y-120767666D01*
X140610778Y-115577451D02*
X142870609Y-117473675D01*
X141092869Y-115002918D02*
X140610778Y-115577451D01*
X140106622Y-120767666D02*
X138023990Y-123249650D01*
X135082804Y-122165433D02*
X136109304Y-123026769D01*
X134600714Y-122739967D02*
X135082804Y-122165433D01*
X139369269Y-113556646D02*
X138212251Y-114935526D01*
X139943802Y-114038737D02*
X139369269Y-113556646D01*
X138786784Y-115417617D02*
X139943802Y-114038737D01*
X138212251Y-114935526D02*
X138786784Y-115417617D01*
X134034131Y-119914815D02*
X132877114Y-121293695D01*
X134608665Y-120396905D02*
X134034131Y-119914815D01*
X133451647Y-121775785D02*
X134608665Y-120396905D01*
X132877114Y-121293695D02*
X133451647Y-121775785D01*
X137248069Y-116084592D02*
X134998313Y-118765748D01*
X137822603Y-116566683D02*
X137248069Y-116084592D01*
X135572846Y-119247839D02*
X137822603Y-116566683D01*
X134998313Y-118765748D02*
X135572846Y-119247839D01*
X139368036Y-113542557D02*
X132863025Y-121294927D01*
X143941321Y-117380000D02*
X139368036Y-113542557D01*
X137436311Y-125132369D02*
X143941321Y-117380000D01*
X132863025Y-121294927D02*
X137436311Y-125132369D01*
%TO.C,J3*%
X102112639Y-97757248D02*
X103136579Y-98474219D01*
X102829610Y-96733308D02*
X102112639Y-97757248D01*
X113586929Y-90959221D02*
X110403580Y-95505515D01*
X111170430Y-89267171D02*
X113586929Y-90959221D01*
X111600613Y-88652807D02*
X111170430Y-89267171D01*
X110403580Y-95505515D02*
X107828222Y-99183508D01*
X104803732Y-98359758D02*
X105901396Y-99128351D01*
X104373550Y-98974122D02*
X104803732Y-98359758D01*
X109757521Y-87362260D02*
X108725083Y-88836733D01*
X110371885Y-87792442D02*
X109757521Y-87362260D01*
X109339447Y-89266916D02*
X110371885Y-87792442D01*
X108725083Y-88836733D02*
X109339447Y-89266916D01*
X103562895Y-96209102D02*
X102530458Y-97683575D01*
X104177259Y-96639284D02*
X103562895Y-96209102D01*
X103144822Y-98113758D02*
X104177259Y-96639284D01*
X102530458Y-97683575D02*
X103144822Y-98113758D01*
X107864718Y-90065461D02*
X104423260Y-94980374D01*
X108479082Y-90495644D02*
X107864718Y-90065461D01*
X105037624Y-95410556D02*
X108479082Y-90495644D01*
X104423260Y-94980374D02*
X105037624Y-95410556D01*
X109755065Y-87348332D02*
X102516530Y-97686031D01*
X114645403Y-90772584D02*
X109755065Y-87348332D01*
X107406868Y-101110283D02*
X114645403Y-90772584D01*
X102516530Y-97686031D02*
X107406868Y-101110283D01*
%TO.C,JP2*%
X116400000Y-86000000D02*
X113600000Y-86000000D01*
X112950000Y-85300000D02*
X112950000Y-84700000D01*
X113600000Y-84000000D02*
X116400000Y-84000000D01*
X117050000Y-84700000D02*
X117050000Y-85300000D01*
X116200000Y-83800000D02*
X116500000Y-83500000D01*
X116500000Y-83500000D02*
X115900000Y-83500000D01*
X116200000Y-83800000D02*
X115900000Y-83500000D01*
X113650000Y-86000000D02*
G75*
G02*
X112950000Y-85300000I0J700000D01*
G01*
X112950000Y-84700000D02*
G75*
G02*
X113650000Y-84000000I700000J0D01*
G01*
X116350000Y-84000000D02*
G75*
G02*
X117050000Y-84700000I0J-700000D01*
G01*
X117050000Y-85300000D02*
G75*
G02*
X116350000Y-86000000I-700000J0D01*
G01*
%TO.C,R3*%
X141522500Y-109254724D02*
X141522500Y-108745276D01*
X140477500Y-109254724D02*
X140477500Y-108745276D01*
%TO.C,R4*%
X137477500Y-109254724D02*
X137477500Y-108745276D01*
X138522500Y-109254724D02*
X138522500Y-108745276D01*
%TO.C,TP1*%
X144950000Y-92000000D02*
G75*
G03*
X144950000Y-92000000I-950000J0D01*
G01*
%TO.C,TP2*%
X132950000Y-84000000D02*
G75*
G03*
X132950000Y-84000000I-950000J0D01*
G01*
%TO.C,TP6*%
X109950000Y-104000000D02*
G75*
G03*
X109950000Y-104000000I-950000J0D01*
G01*
D10*
%TO.C,U3*%
X127900000Y-89300000D02*
X127900000Y-86000000D01*
X131400000Y-89300000D02*
X127900000Y-89300000D01*
X131400000Y-85500000D02*
X131400000Y-89300000D01*
X128300000Y-85500000D02*
X131400000Y-85500000D01*
X127900000Y-86000000D02*
X128300000Y-85500000D01*
%TO.C,U2*%
X138479655Y-92844820D02*
X138479655Y-93654344D01*
X138527274Y-93749582D01*
X138574893Y-93797201D01*
X138670131Y-93844820D01*
X138860607Y-93844820D01*
X138955845Y-93797201D01*
X139003464Y-93749582D01*
X139051083Y-93654344D01*
X139051083Y-92844820D01*
X139479655Y-92940059D02*
X139527274Y-92892440D01*
X139622512Y-92844820D01*
X139860607Y-92844820D01*
X139955845Y-92892440D01*
X140003464Y-92940059D01*
X140051083Y-93035297D01*
X140051083Y-93130535D01*
X140003464Y-93273392D01*
X139432036Y-93844820D01*
X140051083Y-93844820D01*
%TO.C,U1*%
X136238095Y-84632380D02*
X136238095Y-85441904D01*
X136285714Y-85537142D01*
X136333333Y-85584761D01*
X136428571Y-85632380D01*
X136619047Y-85632380D01*
X136714285Y-85584761D01*
X136761904Y-85537142D01*
X136809523Y-85441904D01*
X136809523Y-84632380D01*
X137809523Y-85632380D02*
X137238095Y-85632380D01*
X137523809Y-85632380D02*
X137523809Y-84632380D01*
X137428571Y-84775238D01*
X137333333Y-84870476D01*
X137238095Y-84918095D01*
%TO.C,BT1*%
X130228571Y-91660714D02*
X130276190Y-91517857D01*
X130323809Y-91470238D01*
X130419047Y-91422619D01*
X130561904Y-91422619D01*
X130657142Y-91470238D01*
X130704761Y-91517857D01*
X130752380Y-91613095D01*
X130752380Y-91994047D01*
X129752380Y-91994047D01*
X129752380Y-91660714D01*
X129800000Y-91565476D01*
X129847619Y-91517857D01*
X129942857Y-91470238D01*
X130038095Y-91470238D01*
X130133333Y-91517857D01*
X130180952Y-91565476D01*
X130228571Y-91660714D01*
X130228571Y-91994047D01*
X129752380Y-91136904D02*
X129752380Y-90565476D01*
X130752380Y-90851190D02*
X129752380Y-90851190D01*
X130752380Y-89708333D02*
X130752380Y-90279761D01*
X130752380Y-89994047D02*
X129752380Y-89994047D01*
X129895238Y-90089285D01*
X129990476Y-90184523D01*
X130038095Y-90279761D01*
%TO.C,C1*%
X108787142Y-109166666D02*
X108834761Y-109214285D01*
X108882380Y-109357142D01*
X108882380Y-109452380D01*
X108834761Y-109595238D01*
X108739523Y-109690476D01*
X108644285Y-109738095D01*
X108453809Y-109785714D01*
X108310952Y-109785714D01*
X108120476Y-109738095D01*
X108025238Y-109690476D01*
X107930000Y-109595238D01*
X107882380Y-109452380D01*
X107882380Y-109357142D01*
X107930000Y-109214285D01*
X107977619Y-109166666D01*
X108882380Y-108214285D02*
X108882380Y-108785714D01*
X108882380Y-108500000D02*
X107882380Y-108500000D01*
X108025238Y-108595238D01*
X108120476Y-108690476D01*
X108168095Y-108785714D01*
%TO.C,H1*%
X124238095Y-122252380D02*
X124238095Y-121252380D01*
X124238095Y-121728571D02*
X124809523Y-121728571D01*
X124809523Y-122252380D02*
X124809523Y-121252380D01*
X125809523Y-122252380D02*
X125238095Y-122252380D01*
X125523809Y-122252380D02*
X125523809Y-121252380D01*
X125428571Y-121395238D01*
X125333333Y-121490476D01*
X125238095Y-121538095D01*
%TO.C,H2*%
X124238095Y-82252380D02*
X124238095Y-81252380D01*
X124238095Y-81728571D02*
X124809523Y-81728571D01*
X124809523Y-82252380D02*
X124809523Y-81252380D01*
X125238095Y-81347619D02*
X125285714Y-81300000D01*
X125380952Y-81252380D01*
X125619047Y-81252380D01*
X125714285Y-81300000D01*
X125761904Y-81347619D01*
X125809523Y-81442857D01*
X125809523Y-81538095D01*
X125761904Y-81680952D01*
X125190476Y-82252380D01*
X125809523Y-82252380D01*
%TO.C,H3*%
X144238095Y-102252380D02*
X144238095Y-101252380D01*
X144238095Y-101728571D02*
X144809523Y-101728571D01*
X144809523Y-102252380D02*
X144809523Y-101252380D01*
X145190476Y-101252380D02*
X145809523Y-101252380D01*
X145476190Y-101633333D01*
X145619047Y-101633333D01*
X145714285Y-101680952D01*
X145761904Y-101728571D01*
X145809523Y-101823809D01*
X145809523Y-102061904D01*
X145761904Y-102157142D01*
X145714285Y-102204761D01*
X145619047Y-102252380D01*
X145333333Y-102252380D01*
X145238095Y-102204761D01*
X145190476Y-102157142D01*
%TO.C,H4*%
X104238095Y-102252380D02*
X104238095Y-101252380D01*
X104238095Y-101728571D02*
X104809523Y-101728571D01*
X104809523Y-102252380D02*
X104809523Y-101252380D01*
X105714285Y-101585714D02*
X105714285Y-102252380D01*
X105476190Y-101204761D02*
X105238095Y-101919047D01*
X105857142Y-101919047D01*
%TO.C,J1*%
X134646778Y-116621449D02*
X135193953Y-117080583D01*
X135272779Y-117208888D01*
X135284518Y-117343063D01*
X135229169Y-117483106D01*
X135167951Y-117556063D01*
X136055610Y-116498192D02*
X135688303Y-116935932D01*
X135871957Y-116717062D02*
X135105912Y-116074274D01*
X135154129Y-116239058D01*
X135165868Y-116373232D01*
X135141129Y-116476798D01*
%TO.C,J3*%
X104603146Y-91850932D02*
X105188255Y-92260629D01*
X105277963Y-92381576D01*
X105301351Y-92514217D01*
X105258419Y-92658552D01*
X105203793Y-92736566D01*
X104821651Y-91538874D02*
X105176723Y-91031780D01*
X105297588Y-91523336D01*
X105379528Y-91406314D01*
X105473161Y-91355613D01*
X105539482Y-91343919D01*
X105644809Y-91359538D01*
X105839846Y-91496104D01*
X105890547Y-91589737D01*
X105902241Y-91656058D01*
X105886622Y-91761385D01*
X105722743Y-91995429D01*
X105629109Y-92046130D01*
X105562789Y-92057824D01*
%TO.C,JP2*%
X114166666Y-86252380D02*
X114166666Y-86966666D01*
X114119047Y-87109523D01*
X114023809Y-87204761D01*
X113880952Y-87252380D01*
X113785714Y-87252380D01*
X114642857Y-87252380D02*
X114642857Y-86252380D01*
X115023809Y-86252380D01*
X115119047Y-86300000D01*
X115166666Y-86347619D01*
X115214285Y-86442857D01*
X115214285Y-86585714D01*
X115166666Y-86680952D01*
X115119047Y-86728571D01*
X115023809Y-86776190D01*
X114642857Y-86776190D01*
X115595238Y-86347619D02*
X115642857Y-86300000D01*
X115738095Y-86252380D01*
X115976190Y-86252380D01*
X116071428Y-86300000D01*
X116119047Y-86347619D01*
X116166666Y-86442857D01*
X116166666Y-86538095D01*
X116119047Y-86680952D01*
X115547619Y-87252380D01*
X116166666Y-87252380D01*
%TO.C,R3*%
X140022380Y-109166666D02*
X139546190Y-109500000D01*
X140022380Y-109738095D02*
X139022380Y-109738095D01*
X139022380Y-109357142D01*
X139070000Y-109261904D01*
X139117619Y-109214285D01*
X139212857Y-109166666D01*
X139355714Y-109166666D01*
X139450952Y-109214285D01*
X139498571Y-109261904D01*
X139546190Y-109357142D01*
X139546190Y-109738095D01*
X139022380Y-108833333D02*
X139022380Y-108214285D01*
X139403333Y-108547619D01*
X139403333Y-108404761D01*
X139450952Y-108309523D01*
X139498571Y-108261904D01*
X139593809Y-108214285D01*
X139831904Y-108214285D01*
X139927142Y-108261904D01*
X139974761Y-108309523D01*
X140022380Y-108404761D01*
X140022380Y-108690476D01*
X139974761Y-108785714D01*
X139927142Y-108833333D01*
%TO.C,R4*%
X137022380Y-109166666D02*
X136546190Y-109500000D01*
X137022380Y-109738095D02*
X136022380Y-109738095D01*
X136022380Y-109357142D01*
X136070000Y-109261904D01*
X136117619Y-109214285D01*
X136212857Y-109166666D01*
X136355714Y-109166666D01*
X136450952Y-109214285D01*
X136498571Y-109261904D01*
X136546190Y-109357142D01*
X136546190Y-109738095D01*
X136355714Y-108309523D02*
X137022380Y-108309523D01*
X135974761Y-108547619D02*
X136689047Y-108785714D01*
X136689047Y-108166666D01*
%TO.C,TP1*%
X142738095Y-89804380D02*
X143309523Y-89804380D01*
X143023809Y-90804380D02*
X143023809Y-89804380D01*
X143642857Y-90804380D02*
X143642857Y-89804380D01*
X144023809Y-89804380D01*
X144119047Y-89852000D01*
X144166666Y-89899619D01*
X144214285Y-89994857D01*
X144214285Y-90137714D01*
X144166666Y-90232952D01*
X144119047Y-90280571D01*
X144023809Y-90328190D01*
X143642857Y-90328190D01*
X145166666Y-90804380D02*
X144595238Y-90804380D01*
X144880952Y-90804380D02*
X144880952Y-89804380D01*
X144785714Y-89947238D01*
X144690476Y-90042476D01*
X144595238Y-90090095D01*
%TO.C,TP2*%
X130738095Y-81804380D02*
X131309523Y-81804380D01*
X131023809Y-82804380D02*
X131023809Y-81804380D01*
X131642857Y-82804380D02*
X131642857Y-81804380D01*
X132023809Y-81804380D01*
X132119047Y-81852000D01*
X132166666Y-81899619D01*
X132214285Y-81994857D01*
X132214285Y-82137714D01*
X132166666Y-82232952D01*
X132119047Y-82280571D01*
X132023809Y-82328190D01*
X131642857Y-82328190D01*
X132595238Y-81899619D02*
X132642857Y-81852000D01*
X132738095Y-81804380D01*
X132976190Y-81804380D01*
X133071428Y-81852000D01*
X133119047Y-81899619D01*
X133166666Y-81994857D01*
X133166666Y-82090095D01*
X133119047Y-82232952D01*
X132547619Y-82804380D01*
X133166666Y-82804380D01*
%TO.C,TP6*%
X107738095Y-101804380D02*
X108309523Y-101804380D01*
X108023809Y-102804380D02*
X108023809Y-101804380D01*
X108642857Y-102804380D02*
X108642857Y-101804380D01*
X109023809Y-101804380D01*
X109119047Y-101852000D01*
X109166666Y-101899619D01*
X109214285Y-101994857D01*
X109214285Y-102137714D01*
X109166666Y-102232952D01*
X109119047Y-102280571D01*
X109023809Y-102328190D01*
X108642857Y-102328190D01*
X110071428Y-101804380D02*
X109880952Y-101804380D01*
X109785714Y-101852000D01*
X109738095Y-101899619D01*
X109642857Y-102042476D01*
X109595238Y-102232952D01*
X109595238Y-102613904D01*
X109642857Y-102709142D01*
X109690476Y-102756761D01*
X109785714Y-102804380D01*
X109976190Y-102804380D01*
X110071428Y-102756761D01*
X110119047Y-102709142D01*
X110166666Y-102613904D01*
X110166666Y-102375809D01*
X110119047Y-102280571D01*
X110071428Y-102232952D01*
X109976190Y-102185333D01*
X109785714Y-102185333D01*
X109690476Y-102232952D01*
X109642857Y-102280571D01*
X109595238Y-102375809D01*
%TO.C,U3*%
X128838095Y-84152380D02*
X128838095Y-84961904D01*
X128885714Y-85057142D01*
X128933333Y-85104761D01*
X129028571Y-85152380D01*
X129219047Y-85152380D01*
X129314285Y-85104761D01*
X129361904Y-85057142D01*
X129409523Y-84961904D01*
X129409523Y-84152380D01*
X129790476Y-84152380D02*
X130409523Y-84152380D01*
X130076190Y-84533333D01*
X130219047Y-84533333D01*
X130314285Y-84580952D01*
X130361904Y-84628571D01*
X130409523Y-84723809D01*
X130409523Y-84961904D01*
X130361904Y-85057142D01*
X130314285Y-85104761D01*
X130219047Y-85152380D01*
X129933333Y-85152380D01*
X129838095Y-85104761D01*
X129790476Y-85057142D01*
%TD*%
M02*
