%TF.GenerationSoftware,KiCad,Pcbnew,(6.0.4)*%
%TF.CreationDate,2022-04-19T23:51:48-04:00*%
%TF.ProjectId,Light_Sensor_schematic,4c696768-745f-4536-956e-736f725f7363,rev?*%
%TF.SameCoordinates,Original*%
%TF.FileFunction,Copper,L1,Top*%
%TF.FilePolarity,Positive*%
%FSLAX46Y46*%
G04 Gerber Fmt 4.6, Leading zero omitted, Abs format (unit mm)*
G04 Created by KiCad (PCBNEW (6.0.4)) date 2022-04-19 23:51:48*
%MOMM*%
%LPD*%
G01*
G04 APERTURE LIST*
G04 Aperture macros list*
%AMRoundRect*
0 Rectangle with rounded corners*
0 $1 Rounding radius*
0 $2 $3 $4 $5 $6 $7 $8 $9 X,Y pos of 4 corners*
0 Add a 4 corners polygon primitive as box body*
4,1,4,$2,$3,$4,$5,$6,$7,$8,$9,$2,$3,0*
0 Add four circle primitives for the rounded corners*
1,1,$1+$1,$2,$3*
1,1,$1+$1,$4,$5*
1,1,$1+$1,$6,$7*
1,1,$1+$1,$8,$9*
0 Add four rect primitives between the rounded corners*
20,1,$1+$1,$2,$3,$4,$5,0*
20,1,$1+$1,$4,$5,$6,$7,0*
20,1,$1+$1,$6,$7,$8,$9,0*
20,1,$1+$1,$8,$9,$2,$3,0*%
%AMHorizOval*
0 Thick line with rounded ends*
0 $1 width*
0 $2 $3 position (X,Y) of the first rounded end (center of the circle)*
0 $4 $5 position (X,Y) of the second rounded end (center of the circle)*
0 Add line between two ends*
20,1,$1,$2,$3,$4,$5,0*
0 Add two circle primitives to create the rounded ends*
1,1,$1,$2,$3*
1,1,$1,$4,$5*%
%AMFreePoly0*
4,1,22,0.550000,-0.750000,0.000000,-0.750000,0.000000,-0.745033,-0.079941,-0.743568,-0.215256,-0.701293,-0.333266,-0.622738,-0.424486,-0.514219,-0.481581,-0.384460,-0.499164,-0.250000,-0.500000,-0.250000,-0.500000,0.250000,-0.499164,0.250000,-0.499963,0.256109,-0.478152,0.396186,-0.417904,0.524511,-0.324060,0.630769,-0.204165,0.706417,-0.067858,0.745374,0.000000,0.744959,0.000000,0.750000,
0.550000,0.750000,0.550000,-0.750000,0.550000,-0.750000,$1*%
%AMFreePoly1*
4,1,20,0.000000,0.744959,0.073905,0.744508,0.209726,0.703889,0.328688,0.626782,0.421226,0.519385,0.479903,0.390333,0.500000,0.250000,0.500000,-0.250000,0.499851,-0.262216,0.476331,-0.402017,0.414519,-0.529596,0.319384,-0.634700,0.198574,-0.708877,0.061801,-0.746166,0.000000,-0.745033,0.000000,-0.750000,-0.550000,-0.750000,-0.550000,0.750000,0.000000,0.750000,0.000000,0.744959,
0.000000,0.744959,$1*%
G04 Aperture macros list end*
%TA.AperFunction,SMDPad,CuDef*%
%ADD10R,3.600000X2.600000*%
%TD*%
%TA.AperFunction,SMDPad,CuDef*%
%ADD11RoundRect,0.237500X-0.237500X0.300000X-0.237500X-0.300000X0.237500X-0.300000X0.237500X0.300000X0*%
%TD*%
%TA.AperFunction,ComponentPad*%
%ADD12C,4.400000*%
%TD*%
%TA.AperFunction,ComponentPad*%
%ADD13C,0.700000*%
%TD*%
%TA.AperFunction,ComponentPad*%
%ADD14RoundRect,0.250000X0.169710X-0.925648X0.941055X-0.006394X-0.169710X0.925648X-0.941055X0.006394X0*%
%TD*%
%TA.AperFunction,ComponentPad*%
%ADD15HorizOval,1.700000X-0.095756X0.080348X0.095756X-0.080348X0*%
%TD*%
%TA.AperFunction,ComponentPad*%
%ADD16RoundRect,0.250000X0.249739X-0.907334X0.938031X0.075648X-0.249739X0.907334X-0.938031X-0.075648X0*%
%TD*%
%TA.AperFunction,ComponentPad*%
%ADD17HorizOval,1.700000X-0.102394X0.071697X0.102394X-0.071697X0*%
%TD*%
%TA.AperFunction,SMDPad,CuDef*%
%ADD18FreePoly0,180.000000*%
%TD*%
%TA.AperFunction,SMDPad,CuDef*%
%ADD19R,1.000000X1.500000*%
%TD*%
%TA.AperFunction,SMDPad,CuDef*%
%ADD20FreePoly1,180.000000*%
%TD*%
%TA.AperFunction,SMDPad,CuDef*%
%ADD21RoundRect,0.237500X0.237500X-0.250000X0.237500X0.250000X-0.237500X0.250000X-0.237500X-0.250000X0*%
%TD*%
%TA.AperFunction,SMDPad,CuDef*%
%ADD22C,1.500000*%
%TD*%
%TA.AperFunction,SMDPad,CuDef*%
%ADD23RoundRect,0.062500X-0.375000X-0.062500X0.375000X-0.062500X0.375000X0.062500X-0.375000X0.062500X0*%
%TD*%
%TA.AperFunction,SMDPad,CuDef*%
%ADD24RoundRect,0.062500X-0.062500X-0.375000X0.062500X-0.375000X0.062500X0.375000X-0.062500X0.375000X0*%
%TD*%
%TA.AperFunction,SMDPad,CuDef*%
%ADD25R,3.450000X3.450000*%
%TD*%
%TA.AperFunction,SMDPad,CuDef*%
%ADD26R,0.740000X2.790000*%
%TD*%
%TA.AperFunction,SMDPad,CuDef*%
%ADD27R,0.900000X0.350000*%
%TD*%
%TA.AperFunction,ComponentPad*%
%ADD28C,1.330000*%
%TD*%
%TA.AperFunction,ViaPad*%
%ADD29C,0.508000*%
%TD*%
%TA.AperFunction,Conductor*%
%ADD30C,0.152400*%
%TD*%
G04 APERTURE END LIST*
D10*
%TO.P,BT1,1,+*%
%TO.N,Net-(BT1-Pad1)*%
X125000000Y-90350000D03*
%TO.P,BT1,2,-*%
%TO.N,GND*%
X125000000Y-119650000D03*
%TD*%
D11*
%TO.P,C1,1*%
%TO.N,/sensor_pwr*%
X107000000Y-108137500D03*
%TO.P,C1,2*%
%TO.N,GND*%
X107000000Y-109862500D03*
%TD*%
D12*
%TO.P,H1,1*%
%TO.N,N/C*%
X125000000Y-125000000D03*
D13*
X126166726Y-126166726D03*
X126650000Y-125000000D03*
X125000000Y-126650000D03*
X125000000Y-123350000D03*
X123350000Y-125000000D03*
X123833274Y-126166726D03*
X123833274Y-123833274D03*
X126166726Y-123833274D03*
%TD*%
%TO.P,H2,1*%
%TO.N,N/C*%
X125000000Y-86650000D03*
X123833274Y-86166726D03*
D12*
X125000000Y-85000000D03*
D13*
X125000000Y-83350000D03*
X126650000Y-85000000D03*
X123833274Y-83833274D03*
X123350000Y-85000000D03*
X126166726Y-86166726D03*
X126166726Y-83833274D03*
%TD*%
%TO.P,H3,1*%
%TO.N,N/C*%
X146166726Y-106166726D03*
D12*
X145000000Y-105000000D03*
D13*
X145000000Y-103350000D03*
X143833274Y-106166726D03*
X146650000Y-105000000D03*
X146166726Y-103833274D03*
X143833274Y-103833274D03*
X143350000Y-105000000D03*
X145000000Y-106650000D03*
%TD*%
%TO.P,H4,1*%
%TO.N,N/C*%
X106650000Y-105000000D03*
X103833274Y-106166726D03*
X106166726Y-106166726D03*
X105000000Y-103350000D03*
X103350000Y-105000000D03*
X105000000Y-106650000D03*
X103833274Y-103833274D03*
D12*
X105000000Y-105000000D03*
D13*
X106166726Y-103833274D03*
%TD*%
D14*
%TO.P,J1,1,Pin_1*%
%TO.N,GND*%
X136393031Y-120915111D03*
D15*
%TO.P,J1,2,Pin_2*%
%TO.N,Net-(J1-Pad2)*%
X138000000Y-119000000D03*
%TO.P,J1,3,Pin_3*%
%TO.N,Net-(J1-Pad3)*%
X139606969Y-117084889D03*
%TD*%
D16*
%TO.P,J3,1,Pin_1*%
%TO.N,unconnected-(J3-Pad1)*%
X106000000Y-97000000D03*
D17*
%TO.P,J3,2,Pin_2*%
%TO.N,Net-(J3-Pad2)*%
X107433941Y-94952120D03*
%TO.P,J3,3,Pin_3*%
%TO.N,unconnected-(J3-Pad3)*%
X108867882Y-92904240D03*
%TO.P,J3,4,Pin_4*%
%TO.N,GND*%
X110301823Y-90856360D03*
%TD*%
D18*
%TO.P,JP2,1,A*%
%TO.N,Net-(BT1-Pad1)*%
X116300000Y-85000000D03*
D19*
%TO.P,JP2,2,C*%
%TO.N,VDD*%
X115000000Y-85000000D03*
D20*
%TO.P,JP2,3,B*%
%TO.N,Net-(J3-Pad2)*%
X113700000Y-85000000D03*
%TD*%
D21*
%TO.P,R3,1*%
%TO.N,/TX*%
X141000000Y-109912500D03*
%TO.P,R3,2*%
%TO.N,Net-(J1-Pad3)*%
X141000000Y-108087500D03*
%TD*%
%TO.P,R4,1*%
%TO.N,/RX*%
X138000000Y-109912500D03*
%TO.P,R4,2*%
%TO.N,Net-(J1-Pad2)*%
X138000000Y-108087500D03*
%TD*%
D22*
%TO.P,TP1,1,1*%
%TO.N,/CLKOUT*%
X144000000Y-92000000D03*
%TD*%
%TO.P,TP2,1,1*%
%TO.N,/oscillator*%
X132000000Y-84000000D03*
%TD*%
%TO.P,TP6,1,1*%
%TO.N,/tsl237_freq*%
X109000000Y-104000000D03*
%TD*%
D23*
%TO.P,U1,1,VDD*%
%TO.N,VDD*%
X134562500Y-87250000D03*
%TO.P,U1,2,PC14*%
%TO.N,/oscillator*%
X134562500Y-87750000D03*
%TO.P,U1,3,PC15*%
%TO.N,unconnected-(U1-Pad3)*%
X134562500Y-88250000D03*
%TO.P,U1,4,NRST*%
%TO.N,/NRST*%
X134562500Y-88750000D03*
%TO.P,U1,5,VDDA*%
%TO.N,VDD*%
X134562500Y-89250000D03*
%TO.P,U1,6,PA0*%
%TO.N,/tsl237_freq*%
X134562500Y-89750000D03*
%TO.P,U1,7,PA1*%
%TO.N,unconnected-(U1-Pad7)*%
X134562500Y-90250000D03*
%TO.P,U1,8,PA2*%
%TO.N,/TX*%
X134562500Y-90750000D03*
D24*
%TO.P,U1,9,PA3*%
%TO.N,/RX*%
X135250000Y-91437500D03*
%TO.P,U1,10,PA4*%
%TO.N,/sensor_pwr*%
X135750000Y-91437500D03*
%TO.P,U1,11,PA5*%
%TO.N,unconnected-(U1-Pad11)*%
X136250000Y-91437500D03*
%TO.P,U1,12,PA6*%
%TO.N,unconnected-(U1-Pad12)*%
X136750000Y-91437500D03*
%TO.P,U1,13,PA7*%
%TO.N,unconnected-(U1-Pad13)*%
X137250000Y-91437500D03*
%TO.P,U1,14,PB0*%
%TO.N,unconnected-(U1-Pad14)*%
X137750000Y-91437500D03*
%TO.P,U1,15,PB1*%
%TO.N,unconnected-(U1-Pad15)*%
X138250000Y-91437500D03*
%TO.P,U1,16,VSS*%
%TO.N,GND*%
X138750000Y-91437500D03*
D23*
%TO.P,U1,17,VDD*%
%TO.N,VDD*%
X139437500Y-90750000D03*
%TO.P,U1,18,PA8*%
%TO.N,/CLKOUT*%
X139437500Y-90250000D03*
%TO.P,U1,19,PA9*%
%TO.N,unconnected-(U1-Pad19)*%
X139437500Y-89750000D03*
%TO.P,U1,20,PA10*%
%TO.N,unconnected-(U1-Pad20)*%
X139437500Y-89250000D03*
%TO.P,U1,21,PA11*%
%TO.N,unconnected-(U1-Pad21)*%
X139437500Y-88750000D03*
%TO.P,U1,22,PA12*%
%TO.N,unconnected-(U1-Pad22)*%
X139437500Y-88250000D03*
%TO.P,U1,23,PA13*%
%TO.N,/SWDIO*%
X139437500Y-87750000D03*
%TO.P,U1,24,PA14*%
%TO.N,/SWDCLK*%
X139437500Y-87250000D03*
D24*
%TO.P,U1,25,PA15*%
%TO.N,unconnected-(U1-Pad25)*%
X138750000Y-86562500D03*
%TO.P,U1,26,PB3*%
%TO.N,/SWO*%
X138250000Y-86562500D03*
%TO.P,U1,27,PB4*%
%TO.N,unconnected-(U1-Pad27)*%
X137750000Y-86562500D03*
%TO.P,U1,28,PB5*%
%TO.N,unconnected-(U1-Pad28)*%
X137250000Y-86562500D03*
%TO.P,U1,29,PB6*%
%TO.N,unconnected-(U1-Pad29)*%
X136750000Y-86562500D03*
%TO.P,U1,30,PB7*%
%TO.N,unconnected-(U1-Pad30)*%
X136250000Y-86562500D03*
%TO.P,U1,31,PH3*%
%TO.N,GND*%
X135750000Y-86562500D03*
%TO.P,U1,32,VSS*%
X135250000Y-86562500D03*
D25*
%TO.P,U1,33,VSS*%
X137000000Y-89000000D03*
%TD*%
D26*
%TO.P,U2,1,Reserved*%
%TO.N,unconnected-(U2-Pad1)*%
X138190000Y-100032000D03*
%TO.P,U2,2,Reserved*%
%TO.N,unconnected-(U2-Pad2)*%
X138190000Y-95968000D03*
%TO.P,U2,3,T_VCC*%
%TO.N,VDD*%
X139460000Y-100032000D03*
%TO.P,U2,4,SWDIO*%
%TO.N,/SWDIO*%
X139460000Y-95968000D03*
%TO.P,U2,5,GND*%
%TO.N,GND*%
X140730000Y-100032000D03*
%TO.P,U2,6,SWCLK*%
%TO.N,/SWDCLK*%
X140730000Y-95968000D03*
%TO.P,U2,7,GND*%
%TO.N,GND*%
X142000000Y-100032000D03*
%TO.P,U2,8,SWO*%
%TO.N,/SWO*%
X142000000Y-95968000D03*
%TO.P,U2,9,JRCLK*%
%TO.N,unconnected-(U2-Pad9)*%
X143270000Y-100032000D03*
%TO.P,U2,10,JTDI*%
%TO.N,unconnected-(U2-Pad10)*%
X143270000Y-95968000D03*
%TO.P,U2,11,GNDDetect*%
%TO.N,GND*%
X144540000Y-100032000D03*
%TO.P,U2,12,NRST*%
%TO.N,/NRST*%
X144540000Y-95968000D03*
%TO.P,U2,13,VCP_RX*%
%TO.N,/RX*%
X145810000Y-100032000D03*
%TO.P,U2,14,VCP_TX*%
%TO.N,/TX*%
X145810000Y-95968000D03*
%TD*%
D27*
%TO.P,U3,1,OE*%
%TO.N,VDD*%
X128800000Y-86000000D03*
%TO.P,U3,2,VCC*%
X128800000Y-86700000D03*
%TO.P,U3,3,VCC*%
X128800000Y-87400000D03*
%TO.P,U3,4,OUT*%
%TO.N,/oscillator*%
X128800000Y-88100000D03*
%TO.P,U3,5,GND*%
%TO.N,GND*%
X128800000Y-88800000D03*
%TO.P,U3,6,NC*%
%TO.N,unconnected-(U3-Pad6)*%
X130540000Y-88800000D03*
%TO.P,U3,7,GND*%
%TO.N,GND*%
X130540000Y-88100000D03*
%TO.P,U3,8,GND*%
X130540000Y-87400000D03*
%TO.P,U3,9,GND*%
X130540000Y-86700000D03*
%TO.P,U3,10,NC*%
%TO.N,unconnected-(U3-Pad10)*%
X130540000Y-86000000D03*
%TD*%
D28*
%TO.P,IC1,1,GND*%
%TO.N,GND*%
X111000000Y-110000000D03*
%TO.P,IC1,2,VDD*%
%TO.N,/sensor_pwr*%
X111000000Y-108000000D03*
%TO.P,IC1,3,OUT*%
%TO.N,/tsl237_freq*%
X111000000Y-106000000D03*
%TD*%
D29*
%TO.N,GND*%
X138500000Y-92500000D03*
X135000000Y-85000000D03*
X120500000Y-88000000D03*
X113000000Y-88000000D03*
X142500000Y-98000000D03*
X131677096Y-86322904D03*
%TO.N,VDD*%
X133530200Y-89500000D03*
X134124909Y-86624909D03*
X127000000Y-88000000D03*
X117500000Y-89500000D03*
X137389663Y-94428336D03*
%TO.N,/TX*%
X147476201Y-97634201D03*
X133000000Y-92000000D03*
%TO.N,/RX*%
X146946001Y-101000000D03*
X132000000Y-93000000D03*
%TO.N,/NRST*%
X129500000Y-101000000D03*
X135000000Y-100000000D03*
X143500000Y-97830599D03*
X132000000Y-89000000D03*
%TO.N,/SWDIO*%
X142000000Y-88000000D03*
X139000000Y-94000000D03*
%TO.N,/SWDCLK*%
X140000000Y-93000000D03*
X141000000Y-87000000D03*
%TO.N,/SWO*%
X141000000Y-98000000D03*
X133000000Y-87000000D03*
%TD*%
D30*
%TO.N,GND*%
X142679039Y-98360799D02*
X142000000Y-99039838D01*
X136393031Y-105361131D02*
X140730000Y-101024162D01*
X140730000Y-101024162D02*
X140730000Y-100032000D01*
X142000000Y-98484600D02*
X142015400Y-98484600D01*
X138750000Y-91854010D02*
X138750000Y-91437500D01*
X138750000Y-92250000D02*
X138750000Y-91437500D01*
X144540000Y-100032000D02*
X144540000Y-98484600D01*
X130540000Y-88100000D02*
X130540000Y-86700000D01*
X142123801Y-98360799D02*
X142000000Y-98484600D01*
X127047162Y-88800000D02*
X126247162Y-88000000D01*
X135127920Y-119650000D02*
X136393031Y-120915111D01*
X135000000Y-85000000D02*
X135000000Y-86312500D01*
X135250000Y-86562500D02*
X135750000Y-86562500D01*
X142123801Y-98360799D02*
X142679039Y-98360799D01*
X130540000Y-86700000D02*
X131300000Y-86700000D01*
X142015400Y-98484600D02*
X142500000Y-98000000D01*
X110862500Y-109862500D02*
X111000000Y-110000000D01*
X135750000Y-86562500D02*
X135750000Y-87750000D01*
X111000000Y-119000000D02*
X111650000Y-119650000D01*
X128800000Y-88800000D02*
X129417838Y-88800000D01*
X111650000Y-119650000D02*
X125000000Y-119650000D01*
X144540000Y-98484600D02*
X144416199Y-98360799D01*
X130117838Y-88100000D02*
X130540000Y-88100000D01*
X138500000Y-92500000D02*
X138750000Y-92250000D01*
X113000000Y-88000000D02*
X110301823Y-90698177D01*
X128800000Y-88800000D02*
X127047162Y-88800000D01*
X142000000Y-98484600D02*
X142000000Y-100032000D01*
X144416199Y-98360799D02*
X142123801Y-98360799D01*
X135750000Y-87750000D02*
X137000000Y-89000000D01*
X110301823Y-90698177D02*
X110301823Y-90856360D01*
X136393031Y-120915111D02*
X136393031Y-105361131D01*
X107000000Y-109862500D02*
X110862500Y-109862500D01*
X111000000Y-110000000D02*
X111000000Y-119000000D01*
X129417838Y-88800000D02*
X130117838Y-88100000D01*
X135000000Y-86312500D02*
X135250000Y-86562500D01*
X142000000Y-100032000D02*
X140730000Y-100032000D01*
X126247162Y-88000000D02*
X120500000Y-88000000D01*
X125000000Y-119650000D02*
X135127920Y-119650000D01*
X131300000Y-86700000D02*
X131677096Y-86322904D01*
%TO.N,Net-(BT1-Pad1)*%
X122002409Y-90702409D02*
X125145973Y-90702409D01*
X125145973Y-90702409D02*
X125249191Y-90599191D01*
X125550000Y-89800000D02*
X125000000Y-90350000D01*
X116300000Y-85000000D02*
X122002409Y-90702409D01*
%TO.N,VDD*%
X133780200Y-89250000D02*
X133530200Y-89500000D01*
X115000000Y-85000000D02*
X115000000Y-87000000D01*
X138895838Y-93000000D02*
X139469799Y-93000000D01*
X134562500Y-87062500D02*
X134124909Y-86624909D01*
X141000000Y-90602410D02*
X141000000Y-90780200D01*
X127600000Y-87400000D02*
X128800000Y-87400000D01*
X134562500Y-87250000D02*
X134250000Y-87250000D01*
X135639201Y-96256637D02*
X138895838Y-93000000D01*
X139469799Y-92745503D02*
X139745503Y-92469799D01*
X134562500Y-87250000D02*
X134562500Y-87062500D01*
X139336199Y-98360799D02*
X135639201Y-98360799D01*
X127000000Y-88000000D02*
X127600000Y-87400000D01*
X139469799Y-93000000D02*
X139469799Y-92745503D01*
X115000000Y-87000000D02*
X117500000Y-89500000D01*
X139460000Y-100032000D02*
X139460000Y-98484600D01*
X141000000Y-90602410D02*
X140852410Y-90750000D01*
X140852410Y-90750000D02*
X139437500Y-90750000D01*
X140969799Y-92469799D02*
X141000000Y-92439598D01*
X139745503Y-92469799D02*
X140969799Y-92469799D01*
X134562500Y-89250000D02*
X133780200Y-89250000D01*
X135639201Y-98360799D02*
X135639201Y-96256637D01*
X128800000Y-87400000D02*
X128800000Y-86700000D01*
X139460000Y-98484600D02*
X139336199Y-98360799D01*
X141000000Y-92439598D02*
X141000000Y-90602410D01*
X128800000Y-86700000D02*
X128800000Y-86000000D01*
%TO.N,/sensor_pwr*%
X107000000Y-108137500D02*
X110862500Y-108137500D01*
X111000000Y-108000000D02*
X120784698Y-108000000D01*
X135750000Y-93034698D02*
X135750000Y-91437500D01*
X120784698Y-108000000D02*
X135750000Y-93034698D01*
X110862500Y-108137500D02*
X111000000Y-108000000D01*
%TO.N,/tsl237_freq*%
X117895990Y-106000000D02*
X134145990Y-89750000D01*
X109000000Y-104000000D02*
X111000000Y-106000000D01*
X111000000Y-106000000D02*
X117895990Y-106000000D01*
X134145990Y-89750000D02*
X134562500Y-89750000D01*
%TO.N,Net-(J1-Pad2)*%
X138000000Y-108087500D02*
X137248790Y-108838710D01*
X137248790Y-108838710D02*
X137248790Y-118248790D01*
X137248790Y-118248790D02*
X138000000Y-119000000D01*
%TO.N,Net-(J1-Pad3)*%
X140248790Y-116443068D02*
X139606969Y-117084889D01*
X140248790Y-108838710D02*
X140248790Y-116443068D01*
X141000000Y-108087500D02*
X140248790Y-108838710D01*
%TO.N,Net-(J3-Pad2)*%
X107433941Y-91266059D02*
X113700000Y-85000000D01*
X107433941Y-94952120D02*
X107433941Y-91266059D01*
%TO.N,/TX*%
X133312500Y-92000000D02*
X133000000Y-92000000D01*
X141000000Y-109912500D02*
X143752278Y-109912500D01*
X147476201Y-97634201D02*
X145810000Y-95968000D01*
X134562500Y-90750000D02*
X133312500Y-92000000D01*
X147476201Y-106188577D02*
X147476201Y-97634201D01*
X143752278Y-109912500D02*
X147476201Y-106188577D01*
%TO.N,/RX*%
X138000000Y-109425000D02*
X142523799Y-104901201D01*
X147000000Y-101000000D02*
X146946001Y-101000000D01*
X135250000Y-91437500D02*
X135250000Y-92750000D01*
X135250000Y-92750000D02*
X135000000Y-93000000D01*
X138000000Y-109912500D02*
X138000000Y-109425000D01*
X142523799Y-103476201D02*
X144296799Y-101703201D01*
X145810000Y-100032000D02*
X146032000Y-100032000D01*
X146032000Y-100032000D02*
X147000000Y-101000000D01*
X145810000Y-101024162D02*
X145810000Y-100032000D01*
X145130961Y-101703201D02*
X145810000Y-101024162D01*
X135000000Y-93000000D02*
X132000000Y-93000000D01*
X142523799Y-104901201D02*
X142523799Y-103476201D01*
X144296799Y-101703201D02*
X145130961Y-101703201D01*
%TO.N,/CLKOUT*%
X142250000Y-90250000D02*
X139437500Y-90250000D01*
X144000000Y-92000000D02*
X142250000Y-90250000D01*
%TO.N,/oscillator*%
X132207297Y-86991995D02*
X132965302Y-87750000D01*
X129526201Y-84026201D02*
X129552402Y-84000000D01*
X128800000Y-88100000D02*
X129402400Y-88100000D01*
X129402400Y-88100000D02*
X129526201Y-87976199D01*
X132207297Y-84207297D02*
X132207297Y-86991995D01*
X129552402Y-84000000D02*
X132000000Y-84000000D01*
X132000000Y-84000000D02*
X132207297Y-84207297D01*
X129526201Y-87976199D02*
X129526201Y-84026201D01*
X132965302Y-87750000D02*
X134562500Y-87750000D01*
%TO.N,/NRST*%
X144540000Y-95968000D02*
X144540000Y-97515400D01*
X134562500Y-88750000D02*
X132250000Y-88750000D01*
X144540000Y-97515400D02*
X144055400Y-98000000D01*
X144055400Y-98000000D02*
X143669401Y-98000000D01*
X130500000Y-100000000D02*
X129500000Y-101000000D01*
X132250000Y-88750000D02*
X132000000Y-89000000D01*
X135000000Y-100000000D02*
X130500000Y-100000000D01*
X143669401Y-98000000D02*
X143500000Y-97830599D01*
%TO.N,/SWDIO*%
X141746001Y-87746001D02*
X139441499Y-87746001D01*
X142000000Y-88000000D02*
X141746001Y-87746001D01*
X139460000Y-94420600D02*
X139039400Y-94000000D01*
X139441499Y-87746001D02*
X139437500Y-87750000D01*
X139460000Y-95968000D02*
X139460000Y-94420600D01*
X139039400Y-94000000D02*
X139000000Y-94000000D01*
%TO.N,/SWDCLK*%
X139687500Y-87000000D02*
X139437500Y-87250000D01*
X140730000Y-93730000D02*
X140000000Y-93000000D01*
X141000000Y-87000000D02*
X139687500Y-87000000D01*
X140730000Y-95968000D02*
X140730000Y-94730000D01*
X140730000Y-95968000D02*
X140730000Y-93730000D01*
%TO.N,/SWO*%
X133000000Y-86215302D02*
X133000000Y-87000000D01*
X141515400Y-98000000D02*
X141000000Y-98000000D01*
X136594799Y-84469799D02*
X134745503Y-84469799D01*
X142000000Y-97515400D02*
X141515400Y-98000000D01*
X142000000Y-95968000D02*
X142000000Y-97515400D01*
X138250000Y-86562500D02*
X138250000Y-86125000D01*
X138250000Y-86125000D02*
X136594799Y-84469799D01*
X134745503Y-84469799D02*
X133000000Y-86215302D01*
%TD*%
%TA.AperFunction,Conductor*%
%TO.N,GND*%
G36*
X125130753Y-80508900D02*
G01*
X125600726Y-80520796D01*
X126108510Y-80533649D01*
X126113529Y-80533877D01*
X126550067Y-80562489D01*
X127089465Y-80597844D01*
X127094504Y-80598276D01*
X128067086Y-80701357D01*
X128072104Y-80701991D01*
X128600071Y-80779483D01*
X129039757Y-80844018D01*
X129044718Y-80844848D01*
X129407862Y-80913136D01*
X130005945Y-81025605D01*
X130010896Y-81026640D01*
X130964031Y-81245813D01*
X130968936Y-81247045D01*
X131912525Y-81504297D01*
X131917377Y-81505725D01*
X132849874Y-81800634D01*
X132854664Y-81802255D01*
X133701229Y-82107872D01*
X133774598Y-82134359D01*
X133779320Y-82136172D01*
X134685151Y-82504913D01*
X134689796Y-82506913D01*
X135580140Y-82911729D01*
X135584701Y-82913915D01*
X135833915Y-83039529D01*
X136458042Y-83354115D01*
X136462488Y-83356467D01*
X136929268Y-83615741D01*
X137317502Y-83831386D01*
X137321873Y-83833930D01*
X138157117Y-84342765D01*
X138161383Y-84345483D01*
X138975519Y-84887418D01*
X138979667Y-84890300D01*
X139741646Y-85442895D01*
X139771422Y-85464489D01*
X139775449Y-85467535D01*
X140543532Y-86073043D01*
X140547411Y-86076229D01*
X140580446Y-86104494D01*
X140624672Y-86142334D01*
X140663429Y-86201819D01*
X140663873Y-86272814D01*
X140625864Y-86332779D01*
X140608780Y-86345390D01*
X140527588Y-86395340D01*
X140526196Y-86393077D01*
X140471500Y-86414768D01*
X140459930Y-86415300D01*
X139734078Y-86415300D01*
X139717631Y-86414222D01*
X139695688Y-86411333D01*
X139687500Y-86410255D01*
X139649181Y-86415300D01*
X139649176Y-86415300D01*
X139553989Y-86427832D01*
X139541274Y-86429506D01*
X139541272Y-86429506D01*
X139534863Y-86430350D01*
X139534731Y-86429350D01*
X139471127Y-86427832D01*
X139412333Y-86388034D01*
X139384389Y-86322768D01*
X139383499Y-86307817D01*
X139383499Y-86150076D01*
X139373357Y-86073029D01*
X139369881Y-86046626D01*
X139369880Y-86046624D01*
X139368803Y-86038439D01*
X139311267Y-85899536D01*
X139235829Y-85801223D01*
X139224769Y-85786809D01*
X139224768Y-85786808D01*
X139219742Y-85780258D01*
X139100463Y-85688733D01*
X138961561Y-85631197D01*
X138953377Y-85630120D01*
X138953375Y-85630119D01*
X138854012Y-85617038D01*
X138854011Y-85617038D01*
X138849925Y-85616500D01*
X138750013Y-85616500D01*
X138650076Y-85616501D01*
X138645992Y-85617039D01*
X138645986Y-85617039D01*
X138642300Y-85617525D01*
X138639503Y-85617893D01*
X138569355Y-85606957D01*
X138533958Y-85582067D01*
X137041186Y-84089296D01*
X137030318Y-84076904D01*
X137016838Y-84059336D01*
X137011812Y-84052786D01*
X136927224Y-83987880D01*
X136889672Y-83959065D01*
X136882046Y-83955906D01*
X136882044Y-83955905D01*
X136848012Y-83941809D01*
X136755065Y-83903309D01*
X136747436Y-83900149D01*
X136739248Y-83899071D01*
X136633123Y-83885099D01*
X136633118Y-83885099D01*
X136594799Y-83880054D01*
X136586611Y-83881132D01*
X136564666Y-83884021D01*
X136548220Y-83885099D01*
X134792081Y-83885099D01*
X134775634Y-83884021D01*
X134753691Y-83881132D01*
X134745503Y-83880054D01*
X134707184Y-83885099D01*
X134707179Y-83885099D01*
X134601054Y-83899071D01*
X134592866Y-83900149D01*
X134585237Y-83903309D01*
X134492290Y-83941809D01*
X134458258Y-83955905D01*
X134458256Y-83955906D01*
X134450630Y-83959065D01*
X134413078Y-83987880D01*
X134328490Y-84052786D01*
X134323464Y-84059336D01*
X134323460Y-84059340D01*
X134309980Y-84076908D01*
X134299112Y-84089300D01*
X133007092Y-85381320D01*
X132944780Y-85415346D01*
X132873965Y-85410281D01*
X132817129Y-85367734D01*
X132792318Y-85301214D01*
X132791997Y-85292225D01*
X132791997Y-85039980D01*
X132811999Y-84971859D01*
X132828902Y-84950885D01*
X132967749Y-84812038D01*
X132970912Y-84807522D01*
X133090899Y-84636162D01*
X133090900Y-84636160D01*
X133094056Y-84631653D01*
X133096379Y-84626671D01*
X133096382Y-84626666D01*
X133184795Y-84437061D01*
X133187120Y-84432076D01*
X133244115Y-84219371D01*
X133263307Y-84000000D01*
X133244115Y-83780629D01*
X133187120Y-83567924D01*
X133139749Y-83466337D01*
X133096382Y-83373334D01*
X133096379Y-83373329D01*
X133094056Y-83368347D01*
X133089311Y-83361570D01*
X132970908Y-83192473D01*
X132970906Y-83192470D01*
X132967749Y-83187962D01*
X132812038Y-83032251D01*
X132631654Y-82905944D01*
X132432076Y-82812880D01*
X132219371Y-82755885D01*
X132000000Y-82736693D01*
X131780629Y-82755885D01*
X131567924Y-82812880D01*
X131474562Y-82856415D01*
X131373334Y-82903618D01*
X131373329Y-82903621D01*
X131368347Y-82905944D01*
X131363840Y-82909100D01*
X131363838Y-82909101D01*
X131192473Y-83029092D01*
X131192470Y-83029094D01*
X131187962Y-83032251D01*
X131032251Y-83187962D01*
X131029093Y-83192472D01*
X131029088Y-83192478D01*
X130910689Y-83361570D01*
X130855232Y-83405899D01*
X130807476Y-83415300D01*
X129598988Y-83415300D01*
X129582541Y-83414222D01*
X129560590Y-83411332D01*
X129552402Y-83410254D01*
X129399765Y-83430350D01*
X129257529Y-83489266D01*
X129250978Y-83494293D01*
X129179184Y-83549382D01*
X129155020Y-83567924D01*
X129135389Y-83582987D01*
X129130366Y-83589533D01*
X129124523Y-83595376D01*
X129123955Y-83594808D01*
X129121010Y-83597752D01*
X129121579Y-83598321D01*
X129115740Y-83604160D01*
X129109188Y-83609188D01*
X129068300Y-83662475D01*
X129015467Y-83731328D01*
X129011256Y-83741496D01*
X129011253Y-83741499D01*
X129011254Y-83741500D01*
X128966887Y-83848612D01*
X128956551Y-83873564D01*
X128945295Y-83959065D01*
X128936456Y-84026201D01*
X128937534Y-84034389D01*
X128940423Y-84056334D01*
X128941501Y-84072780D01*
X128941501Y-85190500D01*
X128921499Y-85258621D01*
X128867843Y-85305114D01*
X128815501Y-85316500D01*
X128301866Y-85316500D01*
X128239684Y-85323255D01*
X128103295Y-85374385D01*
X127986739Y-85461739D01*
X127899385Y-85578295D01*
X127896236Y-85586694D01*
X127896025Y-85587080D01*
X127845766Y-85637225D01*
X127776374Y-85652237D01*
X127709883Y-85627350D01*
X127667401Y-85570465D01*
X127662059Y-85501341D01*
X127686381Y-85382329D01*
X127687028Y-85374385D01*
X127709828Y-85094056D01*
X127712856Y-85056826D01*
X127713451Y-85000000D01*
X127711755Y-84971859D01*
X127694026Y-84677793D01*
X127694026Y-84677789D01*
X127693798Y-84674015D01*
X127689856Y-84652426D01*
X127635805Y-84356473D01*
X127635804Y-84356469D01*
X127635125Y-84352751D01*
X127632025Y-84342765D01*
X127540424Y-84047763D01*
X127538282Y-84040863D01*
X127404670Y-83742869D01*
X127236226Y-83463084D01*
X127233899Y-83460100D01*
X127233894Y-83460093D01*
X127037726Y-83208558D01*
X127037724Y-83208556D01*
X127035390Y-83205563D01*
X126862983Y-83032251D01*
X126807742Y-82976720D01*
X126805070Y-82974034D01*
X126548603Y-82771852D01*
X126269705Y-82601945D01*
X126266261Y-82600379D01*
X126266257Y-82600377D01*
X126155667Y-82550095D01*
X125972414Y-82466775D01*
X125661037Y-82368300D01*
X125443492Y-82327390D01*
X125343809Y-82308645D01*
X125343807Y-82308645D01*
X125340086Y-82307945D01*
X125014208Y-82286586D01*
X125010428Y-82286794D01*
X125010427Y-82286794D01*
X124912897Y-82292162D01*
X124688124Y-82304532D01*
X124684397Y-82305193D01*
X124684393Y-82305193D01*
X124527341Y-82333027D01*
X124366557Y-82361522D01*
X124362941Y-82362624D01*
X124362933Y-82362626D01*
X124057789Y-82455627D01*
X124054167Y-82456731D01*
X123755477Y-82588781D01*
X123730041Y-82603914D01*
X123478074Y-82753817D01*
X123478068Y-82753821D01*
X123474814Y-82755757D01*
X123471812Y-82758073D01*
X123269813Y-82913915D01*
X123216244Y-82955243D01*
X122983513Y-83184347D01*
X122981149Y-83187314D01*
X122981146Y-83187317D01*
X122840483Y-83363838D01*
X122779991Y-83439751D01*
X122608626Y-83717757D01*
X122607037Y-83721204D01*
X122495066Y-83964090D01*
X122471902Y-84014336D01*
X122470741Y-84017940D01*
X122470741Y-84017941D01*
X122462196Y-84044477D01*
X122371797Y-84325192D01*
X122371079Y-84328903D01*
X122371078Y-84328907D01*
X122310482Y-84642105D01*
X122310481Y-84642114D01*
X122309763Y-84645824D01*
X122309496Y-84649600D01*
X122309495Y-84649605D01*
X122286966Y-84967796D01*
X122286698Y-84971585D01*
X122292638Y-85090899D01*
X122300988Y-85258621D01*
X122302936Y-85297759D01*
X122303577Y-85301490D01*
X122303578Y-85301498D01*
X122354254Y-85596415D01*
X122358241Y-85619619D01*
X122359329Y-85623258D01*
X122359330Y-85623261D01*
X122446419Y-85914463D01*
X122451814Y-85932504D01*
X122453327Y-85935975D01*
X122453329Y-85935981D01*
X122514461Y-86076240D01*
X122582297Y-86231881D01*
X122584220Y-86235152D01*
X122584222Y-86235156D01*
X122628472Y-86310428D01*
X122747802Y-86513414D01*
X122750103Y-86516429D01*
X122943631Y-86770012D01*
X122943636Y-86770017D01*
X122945931Y-86773025D01*
X122982199Y-86810255D01*
X123167041Y-87000000D01*
X123173814Y-87006953D01*
X123272650Y-87086561D01*
X123425196Y-87209431D01*
X123425201Y-87209435D01*
X123428149Y-87211809D01*
X123705253Y-87384627D01*
X124001112Y-87522903D01*
X124048504Y-87538439D01*
X124296304Y-87619672D01*
X124311440Y-87624634D01*
X124315154Y-87625373D01*
X124315155Y-87625373D01*
X124341532Y-87630620D01*
X124631742Y-87688346D01*
X124635514Y-87688633D01*
X124635522Y-87688634D01*
X124953602Y-87712829D01*
X124953607Y-87712829D01*
X124957379Y-87713116D01*
X125283633Y-87698586D01*
X125343425Y-87688634D01*
X125602037Y-87645590D01*
X125602042Y-87645589D01*
X125605778Y-87644967D01*
X125919149Y-87553034D01*
X125922616Y-87551544D01*
X125922620Y-87551543D01*
X126178415Y-87441644D01*
X126248899Y-87433132D01*
X126312797Y-87464077D01*
X126349821Y-87524656D01*
X126348216Y-87595634D01*
X126334066Y-87625663D01*
X126312698Y-87658820D01*
X126310287Y-87665443D01*
X126310286Y-87665446D01*
X126256600Y-87812947D01*
X126256599Y-87812952D01*
X126254190Y-87819570D01*
X126232750Y-87989286D01*
X126249443Y-88159536D01*
X126303440Y-88321856D01*
X126307087Y-88327878D01*
X126307088Y-88327880D01*
X126320623Y-88350229D01*
X126338802Y-88418859D01*
X126316991Y-88486422D01*
X126262115Y-88531468D01*
X126212847Y-88541500D01*
X123151866Y-88541500D01*
X123089684Y-88548255D01*
X122953295Y-88599385D01*
X122836739Y-88686739D01*
X122749385Y-88803295D01*
X122698255Y-88939684D01*
X122691500Y-89001866D01*
X122691500Y-89991709D01*
X122671498Y-90059830D01*
X122617842Y-90106323D01*
X122565500Y-90117709D01*
X122296789Y-90117709D01*
X122228668Y-90097707D01*
X122207694Y-90080804D01*
X117350634Y-85223744D01*
X117316608Y-85161432D01*
X117313729Y-85134649D01*
X117313729Y-84788953D01*
X117313727Y-84788953D01*
X117313318Y-84785984D01*
X117313805Y-84746137D01*
X117314496Y-84689562D01*
X117308353Y-84642579D01*
X117296508Y-84551998D01*
X117296508Y-84551996D01*
X117295926Y-84547548D01*
X117256755Y-84407252D01*
X117199072Y-84276159D01*
X117122103Y-84152504D01*
X117041265Y-84056334D01*
X117032831Y-84046301D01*
X117032830Y-84046300D01*
X117029946Y-84042869D01*
X116921361Y-83945782D01*
X116917628Y-83943297D01*
X116917624Y-83943294D01*
X116805865Y-83868901D01*
X116805863Y-83868900D01*
X116802136Y-83866419D01*
X116670667Y-83803711D01*
X116666388Y-83802374D01*
X116666385Y-83802373D01*
X116538240Y-83762338D01*
X116538242Y-83762338D01*
X116533961Y-83761001D01*
X116529537Y-83760284D01*
X116529535Y-83760284D01*
X116454531Y-83748136D01*
X116390179Y-83737713D01*
X116320298Y-83736432D01*
X116251461Y-83735170D01*
X116251459Y-83735170D01*
X116246980Y-83735088D01*
X116242535Y-83735641D01*
X116238056Y-83735878D01*
X116238049Y-83735751D01*
X116229661Y-83736271D01*
X115750000Y-83736271D01*
X115741066Y-83736910D01*
X115683625Y-83741018D01*
X115683623Y-83741018D01*
X115676889Y-83741500D01*
X115667011Y-83744400D01*
X115664577Y-83745115D01*
X115610504Y-83746526D01*
X115610316Y-83748255D01*
X115551531Y-83741869D01*
X115548134Y-83741500D01*
X114451866Y-83741500D01*
X114389684Y-83748255D01*
X114389389Y-83748366D01*
X114347373Y-83750271D01*
X114254446Y-83736910D01*
X114254443Y-83736910D01*
X114250000Y-83736271D01*
X113712678Y-83736271D01*
X113710369Y-83736250D01*
X113651453Y-83735170D01*
X113646980Y-83735088D01*
X113620150Y-83738430D01*
X113506872Y-83752540D01*
X113506868Y-83752541D01*
X113502435Y-83753093D01*
X113364255Y-83790766D01*
X113360138Y-83792548D01*
X113360134Y-83792549D01*
X113234704Y-83846827D01*
X113234699Y-83846829D01*
X113230580Y-83848612D01*
X113108528Y-83923552D01*
X113105080Y-83926415D01*
X113105078Y-83926416D01*
X113009851Y-84005475D01*
X112996460Y-84016592D01*
X112900346Y-84122776D01*
X112897839Y-84126492D01*
X112897838Y-84126494D01*
X112831611Y-84224681D01*
X112818893Y-84243536D01*
X112756446Y-84372428D01*
X112712162Y-84511188D01*
X112688400Y-84652426D01*
X112681318Y-84731373D01*
X112681167Y-84743715D01*
X112683919Y-84785984D01*
X112686005Y-84818036D01*
X112686271Y-84826221D01*
X112686271Y-85134648D01*
X112666269Y-85202769D01*
X112649366Y-85223743D01*
X107053438Y-90819672D01*
X107041047Y-90830539D01*
X107016928Y-90849046D01*
X106982385Y-90894064D01*
X106923207Y-90971186D01*
X106915929Y-90988758D01*
X106864291Y-91113422D01*
X106863213Y-91121610D01*
X106850747Y-91216304D01*
X106850294Y-91219742D01*
X106844196Y-91266059D01*
X106845274Y-91274247D01*
X106848163Y-91296192D01*
X106849241Y-91312638D01*
X106849241Y-93522430D01*
X106829239Y-93590551D01*
X106782493Y-93633629D01*
X106590976Y-93735675D01*
X106408686Y-93876819D01*
X106252784Y-94046660D01*
X106249893Y-94051138D01*
X106249891Y-94051140D01*
X106203889Y-94122385D01*
X106127726Y-94240340D01*
X106037088Y-94452322D01*
X106035846Y-94457514D01*
X106035845Y-94457518D01*
X105984706Y-94671355D01*
X105983465Y-94676545D01*
X105968387Y-94906597D01*
X105992285Y-95135902D01*
X106004719Y-95180286D01*
X106003835Y-95251276D01*
X105964711Y-95310519D01*
X105899768Y-95339206D01*
X105876252Y-95340072D01*
X105704970Y-95330347D01*
X105597746Y-95349350D01*
X105538018Y-95359935D01*
X105538016Y-95359936D01*
X105530814Y-95361212D01*
X105368428Y-95431314D01*
X105362559Y-95435681D01*
X105362555Y-95435683D01*
X105340735Y-95451918D01*
X105226526Y-95536892D01*
X105157842Y-95616323D01*
X105155997Y-95618958D01*
X104620147Y-96384232D01*
X104411734Y-96681876D01*
X104360058Y-96774809D01*
X104309677Y-96944353D01*
X104299650Y-97120939D01*
X104300927Y-97128142D01*
X104319195Y-97231219D01*
X104330515Y-97295095D01*
X104333415Y-97301812D01*
X104333415Y-97301813D01*
X104341608Y-97320792D01*
X104400617Y-97457481D01*
X104404984Y-97463350D01*
X104404986Y-97463354D01*
X104458970Y-97535910D01*
X104506195Y-97599383D01*
X104585626Y-97668067D01*
X104686995Y-97739046D01*
X105852235Y-98554956D01*
X105896563Y-98610413D01*
X105903872Y-98681032D01*
X105875130Y-98740747D01*
X105814030Y-98811159D01*
X105811030Y-98816345D01*
X105811027Y-98816349D01*
X105734017Y-98949466D01*
X105708109Y-98994250D01*
X105638721Y-99194067D01*
X105637860Y-99200002D01*
X105637860Y-99200004D01*
X105609538Y-99395340D01*
X105608369Y-99403400D01*
X105618149Y-99614695D01*
X105619553Y-99620520D01*
X105619553Y-99620521D01*
X105660250Y-99789386D01*
X105667707Y-99820330D01*
X105670189Y-99825788D01*
X105670190Y-99825792D01*
X105713635Y-99921342D01*
X105755256Y-100012883D01*
X105877636Y-100185407D01*
X106030432Y-100331677D01*
X106208130Y-100446416D01*
X106213696Y-100448659D01*
X106398750Y-100523238D01*
X106398753Y-100523239D01*
X106404319Y-100525482D01*
X106611919Y-100566024D01*
X106617481Y-100566296D01*
X106773428Y-100566296D01*
X106931148Y-100551248D01*
X107134116Y-100491704D01*
X107217693Y-100448659D01*
X107316831Y-100397600D01*
X107316834Y-100397598D01*
X107322162Y-100394854D01*
X107488502Y-100264192D01*
X107492434Y-100259661D01*
X107492437Y-100259658D01*
X107623203Y-100108963D01*
X107627134Y-100104433D01*
X107630134Y-100099247D01*
X107630137Y-100099243D01*
X107730049Y-99926538D01*
X107733055Y-99921342D01*
X107802443Y-99721525D01*
X107810139Y-99668450D01*
X107831934Y-99518132D01*
X107831934Y-99518129D01*
X107832795Y-99512192D01*
X107823015Y-99300897D01*
X107773457Y-99095262D01*
X107730107Y-98999918D01*
X107705854Y-98946577D01*
X107685908Y-98902709D01*
X107563528Y-98730185D01*
X107410732Y-98583915D01*
X107233034Y-98469176D01*
X107149190Y-98435386D01*
X107042414Y-98392354D01*
X107042411Y-98392353D01*
X107037988Y-98390571D01*
X107037987Y-98390570D01*
X107036845Y-98390110D01*
X107036934Y-98389890D01*
X106979705Y-98352914D01*
X106950369Y-98288262D01*
X106960644Y-98218012D01*
X106971917Y-98198362D01*
X106980304Y-98186385D01*
X107388177Y-97603881D01*
X107586398Y-97320792D01*
X107586399Y-97320790D01*
X107588266Y-97318124D01*
X107639942Y-97225191D01*
X107690323Y-97055647D01*
X107700350Y-96879061D01*
X107681347Y-96771837D01*
X107670762Y-96712109D01*
X107670761Y-96712107D01*
X107669485Y-96704905D01*
X107666586Y-96698190D01*
X107666585Y-96698186D01*
X107601675Y-96547828D01*
X107593040Y-96477359D01*
X107623874Y-96413408D01*
X107684388Y-96376278D01*
X107698398Y-96373324D01*
X107854618Y-96349558D01*
X107994334Y-96303216D01*
X108068377Y-96278657D01*
X108068380Y-96278656D01*
X108073441Y-96276977D01*
X108276906Y-96168565D01*
X108459196Y-96027421D01*
X108615098Y-95857580D01*
X108629938Y-95834598D01*
X108737261Y-95668383D01*
X108740156Y-95663900D01*
X108830794Y-95451918D01*
X108835722Y-95431314D01*
X108883176Y-95232885D01*
X108883176Y-95232883D01*
X108884417Y-95227695D01*
X108886721Y-95192546D01*
X108899146Y-95002973D01*
X108899146Y-95002969D01*
X108899495Y-94997643D01*
X108875597Y-94768338D01*
X108813405Y-94546339D01*
X108797890Y-94513590D01*
X108786800Y-94443467D01*
X108815383Y-94378478D01*
X108874564Y-94339259D01*
X108914066Y-94333666D01*
X109006485Y-94335359D01*
X109060635Y-94336352D01*
X109065906Y-94335550D01*
X109065908Y-94335550D01*
X109283281Y-94302481D01*
X109283282Y-94302481D01*
X109288559Y-94301678D01*
X109429595Y-94254898D01*
X109502318Y-94230777D01*
X109502321Y-94230776D01*
X109507382Y-94229097D01*
X109530238Y-94216919D01*
X109706138Y-94123194D01*
X109710847Y-94120685D01*
X109862081Y-94003587D01*
X109888914Y-93982811D01*
X109888915Y-93982810D01*
X109893137Y-93979541D01*
X110049039Y-93809700D01*
X110096837Y-93735675D01*
X110145034Y-93661030D01*
X110174097Y-93616020D01*
X110240805Y-93460006D01*
X110262635Y-93408950D01*
X110262636Y-93408947D01*
X110264735Y-93404038D01*
X110276738Y-93353850D01*
X110317117Y-93185005D01*
X110317117Y-93185003D01*
X110318358Y-93179815D01*
X110322680Y-93113879D01*
X110333087Y-92955093D01*
X110333087Y-92955089D01*
X110333436Y-92949763D01*
X110309538Y-92720458D01*
X110247346Y-92498459D01*
X110231591Y-92465204D01*
X110220502Y-92395078D01*
X110249087Y-92330090D01*
X110308268Y-92290873D01*
X110347769Y-92285280D01*
X110489211Y-92287873D01*
X110499815Y-92287169D01*
X110717113Y-92254111D01*
X110727444Y-92251630D01*
X110936061Y-92182435D01*
X110945834Y-92178246D01*
X111139806Y-92074892D01*
X111148734Y-92069116D01*
X111322515Y-91934561D01*
X111330349Y-91927357D01*
X111340863Y-91915903D01*
X111347189Y-91903040D01*
X111338564Y-91892371D01*
X110051283Y-90991007D01*
X110006955Y-90935550D01*
X109999646Y-90864931D01*
X110020341Y-90815523D01*
X110035276Y-90794194D01*
X110660891Y-90794194D01*
X110661340Y-90795981D01*
X110666670Y-90801752D01*
X111628067Y-91474928D01*
X111641429Y-91479435D01*
X111648764Y-91471619D01*
X111696099Y-91360912D01*
X111699442Y-91350803D01*
X111750563Y-91137049D01*
X111752153Y-91126536D01*
X111766527Y-90907222D01*
X111766322Y-90896580D01*
X111743540Y-90677986D01*
X111741545Y-90667530D01*
X111682256Y-90455892D01*
X111678532Y-90445932D01*
X111584430Y-90247308D01*
X111579081Y-90238117D01*
X111452853Y-90058182D01*
X111446040Y-90050033D01*
X111300829Y-89903549D01*
X111289167Y-89897116D01*
X111277018Y-89906473D01*
X110665967Y-90779145D01*
X110660891Y-90794194D01*
X110035276Y-90794194D01*
X110858822Y-89618047D01*
X110863711Y-89603551D01*
X110855161Y-89595046D01*
X110786495Y-89555161D01*
X110776876Y-89550614D01*
X110570944Y-89473823D01*
X110560697Y-89470962D01*
X110370512Y-89434856D01*
X110307317Y-89402499D01*
X110271648Y-89341113D01*
X110274829Y-89270188D01*
X110304918Y-89221972D01*
X110676966Y-88849925D01*
X113276382Y-86250509D01*
X113338694Y-86216483D01*
X113401578Y-86218887D01*
X113473844Y-86240499D01*
X113473849Y-86240500D01*
X113478142Y-86241784D01*
X113482574Y-86242446D01*
X113482577Y-86242447D01*
X113617765Y-86262650D01*
X113617768Y-86262650D01*
X113622196Y-86263312D01*
X113696855Y-86263768D01*
X113760945Y-86264160D01*
X113760950Y-86264160D01*
X113765417Y-86264187D01*
X113767861Y-86263852D01*
X113771656Y-86263729D01*
X114250000Y-86263729D01*
X114280311Y-86261561D01*
X114349685Y-86276652D01*
X114399887Y-86326854D01*
X114415300Y-86387240D01*
X114415300Y-86953422D01*
X114414222Y-86969869D01*
X114410255Y-87000000D01*
X114411333Y-87008188D01*
X114415300Y-87038319D01*
X114415300Y-87038321D01*
X114428506Y-87138627D01*
X114430350Y-87152637D01*
X114471901Y-87252949D01*
X114489266Y-87294873D01*
X114518512Y-87332987D01*
X114582987Y-87417013D01*
X114589537Y-87422039D01*
X114589541Y-87422043D01*
X114607109Y-87435523D01*
X114619501Y-87446391D01*
X116708496Y-89535386D01*
X116742522Y-89597698D01*
X116744800Y-89612185D01*
X116749443Y-89659536D01*
X116803440Y-89821856D01*
X116807087Y-89827878D01*
X116807088Y-89827880D01*
X116888406Y-89962154D01*
X116888409Y-89962157D01*
X116892056Y-89968180D01*
X117010889Y-90091234D01*
X117154030Y-90184903D01*
X117160634Y-90187359D01*
X117160636Y-90187360D01*
X117307757Y-90242074D01*
X117307759Y-90242074D01*
X117314367Y-90244532D01*
X117393454Y-90255085D01*
X117476949Y-90266226D01*
X117476953Y-90266226D01*
X117483930Y-90267157D01*
X117490941Y-90266519D01*
X117490945Y-90266519D01*
X117647273Y-90252292D01*
X117647275Y-90252292D01*
X117654292Y-90251653D01*
X117660990Y-90249477D01*
X117660993Y-90249476D01*
X117810289Y-90200966D01*
X117810291Y-90200965D01*
X117816985Y-90198790D01*
X117898704Y-90150076D01*
X117957872Y-90114805D01*
X117957874Y-90114804D01*
X117963924Y-90111197D01*
X118087805Y-89993227D01*
X118096347Y-89980371D01*
X118178570Y-89856614D01*
X118182471Y-89850743D01*
X118243218Y-89690826D01*
X118246676Y-89666221D01*
X118266475Y-89525347D01*
X118266475Y-89525344D01*
X118267026Y-89521425D01*
X118267325Y-89500000D01*
X118248256Y-89330000D01*
X118212963Y-89228649D01*
X118194314Y-89175097D01*
X118194313Y-89175095D01*
X118191999Y-89168450D01*
X118101348Y-89023378D01*
X118076613Y-88998469D01*
X117985772Y-88906992D01*
X117980809Y-88901994D01*
X117896952Y-88848777D01*
X117842316Y-88814104D01*
X117842313Y-88814102D01*
X117836373Y-88810333D01*
X117822548Y-88805410D01*
X117681854Y-88755311D01*
X117681849Y-88755310D01*
X117675219Y-88752949D01*
X117668233Y-88752116D01*
X117668229Y-88752115D01*
X117620526Y-88746427D01*
X117610249Y-88745202D01*
X117544976Y-88717275D01*
X117536073Y-88709183D01*
X115621605Y-86794715D01*
X115587579Y-86732403D01*
X115584700Y-86705620D01*
X115584700Y-86385375D01*
X115604702Y-86317254D01*
X115658358Y-86270761D01*
X115728630Y-86260657D01*
X115740979Y-86262432D01*
X115750000Y-86263729D01*
X116290008Y-86263729D01*
X116290778Y-86263731D01*
X116360931Y-86264160D01*
X116360937Y-86264160D01*
X116365417Y-86264187D01*
X116449507Y-86252669D01*
X116505276Y-86245030D01*
X116505280Y-86245029D01*
X116509727Y-86244420D01*
X116565781Y-86228400D01*
X116600051Y-86218606D01*
X116671046Y-86219119D01*
X116723770Y-86250660D01*
X121556022Y-91082912D01*
X121566889Y-91095303D01*
X121585396Y-91119422D01*
X121647419Y-91167013D01*
X121707536Y-91213143D01*
X121715165Y-91216303D01*
X121715167Y-91216304D01*
X121723469Y-91219743D01*
X121842139Y-91268898D01*
X121842144Y-91268899D01*
X121849772Y-91272059D01*
X121857960Y-91273137D01*
X121964085Y-91287109D01*
X121964090Y-91287109D01*
X122002409Y-91292154D01*
X122010597Y-91291076D01*
X122032542Y-91288187D01*
X122048988Y-91287109D01*
X122565500Y-91287109D01*
X122633621Y-91307111D01*
X122680114Y-91360767D01*
X122691500Y-91413109D01*
X122691500Y-91698134D01*
X122698255Y-91760316D01*
X122749385Y-91896705D01*
X122836739Y-92013261D01*
X122953295Y-92100615D01*
X123089684Y-92151745D01*
X123151866Y-92158500D01*
X126848134Y-92158500D01*
X126910316Y-92151745D01*
X127046705Y-92100615D01*
X127163261Y-92013261D01*
X127250615Y-91896705D01*
X127301745Y-91760316D01*
X127308500Y-91698134D01*
X127308500Y-89001866D01*
X127301745Y-88939684D01*
X127298973Y-88932288D01*
X127298971Y-88932282D01*
X127267666Y-88848777D01*
X127262483Y-88777970D01*
X127296404Y-88715601D01*
X127321130Y-88696319D01*
X127336159Y-88687360D01*
X127463924Y-88611197D01*
X127587805Y-88493227D01*
X127616523Y-88450004D01*
X127670879Y-88404334D01*
X127741299Y-88395301D01*
X127805423Y-88425774D01*
X127842893Y-88486078D01*
X127846733Y-88533338D01*
X127842369Y-88573512D01*
X127842000Y-88580328D01*
X127842000Y-88606885D01*
X127846475Y-88622124D01*
X127847865Y-88623329D01*
X127855548Y-88625000D01*
X127927069Y-88625000D01*
X127995190Y-88645002D01*
X128002634Y-88650174D01*
X128092167Y-88717275D01*
X128103295Y-88725615D01*
X128117709Y-88731018D01*
X128174472Y-88773661D01*
X128199171Y-88840222D01*
X128183963Y-88909571D01*
X128133676Y-88959689D01*
X128073477Y-88975000D01*
X127860116Y-88975000D01*
X127844877Y-88979475D01*
X127843672Y-88980865D01*
X127842001Y-88988548D01*
X127842001Y-89019669D01*
X127842371Y-89026490D01*
X127847895Y-89077352D01*
X127851521Y-89092604D01*
X127896676Y-89213054D01*
X127905214Y-89228649D01*
X127981715Y-89330724D01*
X127994276Y-89343285D01*
X128096351Y-89419786D01*
X128111946Y-89428324D01*
X128232394Y-89473478D01*
X128247649Y-89477105D01*
X128298514Y-89482631D01*
X128305328Y-89483000D01*
X128606885Y-89483000D01*
X128622124Y-89478525D01*
X128623329Y-89477135D01*
X128625000Y-89469452D01*
X128625000Y-88993114D01*
X128610872Y-88944997D01*
X128610872Y-88874001D01*
X128649256Y-88814275D01*
X128713837Y-88784782D01*
X128731768Y-88783500D01*
X128849000Y-88783500D01*
X128917121Y-88803502D01*
X128963614Y-88857158D01*
X128975000Y-88909500D01*
X128975000Y-89464884D01*
X128979475Y-89480123D01*
X128980865Y-89481328D01*
X128988548Y-89482999D01*
X129294669Y-89482999D01*
X129301490Y-89482629D01*
X129352352Y-89477105D01*
X129367604Y-89473479D01*
X129488054Y-89428324D01*
X129503649Y-89419786D01*
X129594018Y-89352058D01*
X129660525Y-89327210D01*
X129729907Y-89342263D01*
X129745148Y-89352058D01*
X129754173Y-89358822D01*
X129843295Y-89425615D01*
X129979684Y-89476745D01*
X130041866Y-89483500D01*
X131038134Y-89483500D01*
X131100316Y-89476745D01*
X131236705Y-89425615D01*
X131237162Y-89426835D01*
X131297636Y-89413611D01*
X131364183Y-89438349D01*
X131388502Y-89462312D01*
X131392056Y-89468180D01*
X131396953Y-89473251D01*
X131426421Y-89503766D01*
X131510889Y-89591234D01*
X131582460Y-89638069D01*
X131624074Y-89665300D01*
X131654030Y-89684903D01*
X131660634Y-89687359D01*
X131660636Y-89687360D01*
X131807757Y-89742074D01*
X131807759Y-89742074D01*
X131814367Y-89744532D01*
X131893454Y-89755085D01*
X131976949Y-89766226D01*
X131976953Y-89766226D01*
X131983930Y-89767157D01*
X131990941Y-89766519D01*
X131990945Y-89766519D01*
X132147273Y-89752292D01*
X132147275Y-89752292D01*
X132154292Y-89751653D01*
X132160990Y-89749477D01*
X132160993Y-89749476D01*
X132310289Y-89700966D01*
X132310291Y-89700965D01*
X132316985Y-89698790D01*
X132381628Y-89660255D01*
X132457872Y-89614805D01*
X132457874Y-89614804D01*
X132463924Y-89611197D01*
X132540328Y-89538439D01*
X132561265Y-89518501D01*
X132624390Y-89486009D01*
X132695061Y-89492803D01*
X132750840Y-89536725D01*
X132773556Y-89597451D01*
X132779643Y-89659536D01*
X132833640Y-89821856D01*
X132837287Y-89827878D01*
X132837288Y-89827880D01*
X132883115Y-89903549D01*
X132922256Y-89968180D01*
X132927150Y-89973248D01*
X132931449Y-89978830D01*
X132929448Y-89980371D01*
X132956952Y-90032917D01*
X132950642Y-90103632D01*
X132922474Y-90146625D01*
X117690705Y-105378395D01*
X117628393Y-105412421D01*
X117601610Y-105415300D01*
X112091232Y-105415300D01*
X112023111Y-105395298D01*
X111990274Y-105364689D01*
X111900594Y-105244594D01*
X111875816Y-105211412D01*
X111751377Y-105096381D01*
X111721687Y-105068936D01*
X111717442Y-105065012D01*
X111712559Y-105061931D01*
X111712555Y-105061928D01*
X111539923Y-104953006D01*
X111535040Y-104949925D01*
X111334720Y-104870005D01*
X111329060Y-104868879D01*
X111329056Y-104868878D01*
X111128857Y-104829056D01*
X111128854Y-104829056D01*
X111123190Y-104827929D01*
X111117415Y-104827853D01*
X111117411Y-104827853D01*
X111009320Y-104826438D01*
X110907534Y-104825106D01*
X110901837Y-104826085D01*
X110901836Y-104826085D01*
X110753766Y-104851528D01*
X110683242Y-104843351D01*
X110643333Y-104816443D01*
X110253743Y-104426853D01*
X110219717Y-104364541D01*
X110221132Y-104305146D01*
X110242690Y-104224691D01*
X110242691Y-104224685D01*
X110244115Y-104219371D01*
X110263307Y-104000000D01*
X110244115Y-103780629D01*
X110187120Y-103567924D01*
X110139749Y-103466337D01*
X110096382Y-103373334D01*
X110096379Y-103373329D01*
X110094056Y-103368347D01*
X109990374Y-103220274D01*
X109970908Y-103192473D01*
X109970906Y-103192470D01*
X109967749Y-103187962D01*
X109812038Y-103032251D01*
X109631654Y-102905944D01*
X109432076Y-102812880D01*
X109219371Y-102755885D01*
X109000000Y-102736693D01*
X108780629Y-102755885D01*
X108567924Y-102812880D01*
X108487213Y-102850516D01*
X108373334Y-102903618D01*
X108373329Y-102903621D01*
X108368347Y-102905944D01*
X108363840Y-102909100D01*
X108363838Y-102909101D01*
X108192473Y-103029092D01*
X108192470Y-103029094D01*
X108187962Y-103032251D01*
X108032251Y-103187962D01*
X108029094Y-103192470D01*
X108029092Y-103192473D01*
X108009626Y-103220274D01*
X107905944Y-103368347D01*
X107903621Y-103373329D01*
X107903618Y-103373334D01*
X107860251Y-103466337D01*
X107812880Y-103567924D01*
X107755885Y-103780629D01*
X107755406Y-103786106D01*
X107743542Y-103921714D01*
X107717679Y-103987833D01*
X107660175Y-104029472D01*
X107589288Y-104033413D01*
X107527523Y-103998404D01*
X107503049Y-103962283D01*
X107424056Y-103786106D01*
X107404670Y-103742869D01*
X107236226Y-103463084D01*
X107233899Y-103460100D01*
X107233894Y-103460093D01*
X107037726Y-103208558D01*
X107037724Y-103208556D01*
X107035390Y-103205563D01*
X106860559Y-103029814D01*
X106807742Y-102976720D01*
X106805070Y-102974034D01*
X106548603Y-102771852D01*
X106269705Y-102601945D01*
X106266261Y-102600379D01*
X106266257Y-102600377D01*
X106155667Y-102550095D01*
X105972414Y-102466775D01*
X105661037Y-102368300D01*
X105416225Y-102322263D01*
X105343809Y-102308645D01*
X105343807Y-102308645D01*
X105340086Y-102307945D01*
X105014208Y-102286586D01*
X105010428Y-102286794D01*
X105010427Y-102286794D01*
X104912897Y-102292162D01*
X104688124Y-102304532D01*
X104684397Y-102305193D01*
X104684393Y-102305193D01*
X104527340Y-102333027D01*
X104366557Y-102361522D01*
X104362941Y-102362624D01*
X104362933Y-102362626D01*
X104057789Y-102455627D01*
X104054167Y-102456731D01*
X103755477Y-102588781D01*
X103730041Y-102603914D01*
X103478074Y-102753817D01*
X103478068Y-102753821D01*
X103474814Y-102755757D01*
X103471812Y-102758073D01*
X103291726Y-102897009D01*
X103216244Y-102955243D01*
X103115759Y-103054162D01*
X102993239Y-103174773D01*
X102983513Y-103184347D01*
X102981149Y-103187314D01*
X102981146Y-103187317D01*
X102964220Y-103208558D01*
X102779991Y-103439751D01*
X102608626Y-103717757D01*
X102471902Y-104014336D01*
X102470741Y-104017940D01*
X102470741Y-104017941D01*
X102451659Y-104077196D01*
X102371797Y-104325192D01*
X102371079Y-104328903D01*
X102371078Y-104328907D01*
X102310482Y-104642105D01*
X102310481Y-104642114D01*
X102309763Y-104645824D01*
X102309496Y-104649600D01*
X102309495Y-104649605D01*
X102286966Y-104967796D01*
X102286698Y-104971585D01*
X102292638Y-105090899D01*
X102300745Y-105253743D01*
X102302936Y-105297759D01*
X102303577Y-105301490D01*
X102303578Y-105301498D01*
X102340236Y-105514832D01*
X102358241Y-105619619D01*
X102359329Y-105623258D01*
X102359330Y-105623261D01*
X102400435Y-105760704D01*
X102451814Y-105932504D01*
X102453327Y-105935975D01*
X102453329Y-105935981D01*
X102467786Y-105969150D01*
X102582297Y-106231881D01*
X102584220Y-106235152D01*
X102584222Y-106235156D01*
X102626584Y-106307215D01*
X102747802Y-106513414D01*
X102750103Y-106516429D01*
X102943631Y-106770012D01*
X102943636Y-106770017D01*
X102945931Y-106773025D01*
X103007931Y-106836670D01*
X103127533Y-106959444D01*
X103173814Y-107006953D01*
X103245896Y-107065012D01*
X103425196Y-107209431D01*
X103425201Y-107209435D01*
X103428149Y-107211809D01*
X103705253Y-107384627D01*
X104001112Y-107522903D01*
X104038459Y-107535146D01*
X104259204Y-107607510D01*
X104311440Y-107624634D01*
X104631742Y-107688346D01*
X104635514Y-107688633D01*
X104635522Y-107688634D01*
X104953602Y-107712829D01*
X104953607Y-107712829D01*
X104957379Y-107713116D01*
X105283633Y-107698586D01*
X105330622Y-107690765D01*
X105602037Y-107645590D01*
X105602042Y-107645589D01*
X105605778Y-107644967D01*
X105609412Y-107643901D01*
X105609416Y-107643900D01*
X105864405Y-107569095D01*
X105935401Y-107569112D01*
X105995118Y-107607510D01*
X106024596Y-107672098D01*
X106025218Y-107702839D01*
X106016500Y-107787928D01*
X106016500Y-108487072D01*
X106016837Y-108490318D01*
X106016837Y-108490322D01*
X106022390Y-108543837D01*
X106027293Y-108591093D01*
X106029474Y-108597629D01*
X106029474Y-108597631D01*
X106071034Y-108722200D01*
X106082346Y-108756107D01*
X106173884Y-108904031D01*
X106180929Y-108911063D01*
X106181139Y-108911273D01*
X106182105Y-108913038D01*
X106183613Y-108914941D01*
X106183287Y-108915199D01*
X106215219Y-108973554D01*
X106210218Y-109044375D01*
X106181292Y-109089470D01*
X106178636Y-109092131D01*
X106169625Y-109103540D01*
X106086088Y-109239063D01*
X106079944Y-109252241D01*
X106029685Y-109403766D01*
X106026819Y-109417132D01*
X106017328Y-109509770D01*
X106017000Y-109516185D01*
X106017000Y-109590385D01*
X106021475Y-109605624D01*
X106022865Y-109606829D01*
X106030548Y-109608500D01*
X107964885Y-109608500D01*
X107980124Y-109604025D01*
X107981329Y-109602635D01*
X107983000Y-109594952D01*
X107983000Y-109516234D01*
X107982663Y-109509718D01*
X107972925Y-109415868D01*
X107970032Y-109402472D01*
X107919512Y-109251047D01*
X107913347Y-109237885D01*
X107829574Y-109102508D01*
X107820536Y-109091106D01*
X107818861Y-109089433D01*
X107818081Y-109088007D01*
X107815993Y-109085373D01*
X107816444Y-109085016D01*
X107784781Y-109027151D01*
X107789784Y-108956331D01*
X107818701Y-108911246D01*
X107821756Y-108908185D01*
X107826929Y-108903003D01*
X107837848Y-108885289D01*
X107901465Y-108782084D01*
X107954238Y-108734591D01*
X108008725Y-108722200D01*
X110009560Y-108722200D01*
X110077681Y-108742202D01*
X110103179Y-108764456D01*
X110103841Y-108765392D01*
X110258329Y-108915887D01*
X110263133Y-108919097D01*
X110333775Y-108966299D01*
X110371848Y-109012637D01*
X110987189Y-109627979D01*
X111001132Y-109635592D01*
X111002966Y-109635461D01*
X111009580Y-109631210D01*
X111617408Y-109023381D01*
X111619002Y-109020462D01*
X111658229Y-108977001D01*
X111662475Y-108974083D01*
X111667525Y-108971255D01*
X111833344Y-108833344D01*
X111971255Y-108667525D01*
X111981554Y-108649135D01*
X112032289Y-108599473D01*
X112091489Y-108584700D01*
X120738120Y-108584700D01*
X120754567Y-108585778D01*
X120784698Y-108589745D01*
X120823017Y-108584700D01*
X120823022Y-108584700D01*
X120929147Y-108570728D01*
X120937335Y-108569650D01*
X121062082Y-108517978D01*
X121071938Y-108513896D01*
X121071940Y-108513895D01*
X121079571Y-108510734D01*
X121127640Y-108473849D01*
X121201711Y-108417013D01*
X121206737Y-108410463D01*
X121206741Y-108410459D01*
X121220221Y-108392891D01*
X121231089Y-108380499D01*
X128534405Y-101077183D01*
X128596717Y-101043157D01*
X128667532Y-101048222D01*
X128724368Y-101090769D01*
X128745780Y-101145953D01*
X128747290Y-101145632D01*
X128748756Y-101152527D01*
X128749443Y-101159536D01*
X128803440Y-101321856D01*
X128807087Y-101327878D01*
X128807088Y-101327880D01*
X128888406Y-101462154D01*
X128888409Y-101462157D01*
X128892056Y-101468180D01*
X129010889Y-101591234D01*
X129016785Y-101595092D01*
X129136918Y-101673705D01*
X129154030Y-101684903D01*
X129160634Y-101687359D01*
X129160636Y-101687360D01*
X129307757Y-101742074D01*
X129307759Y-101742074D01*
X129314367Y-101744532D01*
X129393454Y-101755085D01*
X129476949Y-101766226D01*
X129476953Y-101766226D01*
X129483930Y-101767157D01*
X129490941Y-101766519D01*
X129490945Y-101766519D01*
X129647273Y-101752292D01*
X129647275Y-101752292D01*
X129654292Y-101751653D01*
X129660990Y-101749477D01*
X129660993Y-101749476D01*
X129810289Y-101700966D01*
X129810291Y-101700965D01*
X129816985Y-101698790D01*
X129963924Y-101611197D01*
X130087805Y-101493227D01*
X130101079Y-101473249D01*
X130178570Y-101356614D01*
X130182471Y-101350743D01*
X130243218Y-101190826D01*
X130247616Y-101159536D01*
X130254873Y-101107898D01*
X130284161Y-101043224D01*
X130290552Y-101036338D01*
X130705287Y-100621604D01*
X130767599Y-100587579D01*
X130794382Y-100584700D01*
X134463342Y-100584700D01*
X134532335Y-100605268D01*
X134541396Y-100611197D01*
X134654030Y-100684903D01*
X134660634Y-100687359D01*
X134660636Y-100687360D01*
X134807757Y-100742074D01*
X134807759Y-100742074D01*
X134814367Y-100744532D01*
X134893454Y-100755085D01*
X134976949Y-100766226D01*
X134976953Y-100766226D01*
X134983930Y-100767157D01*
X134990941Y-100766519D01*
X134990945Y-100766519D01*
X135147273Y-100752292D01*
X135147275Y-100752292D01*
X135154292Y-100751653D01*
X135160990Y-100749477D01*
X135160993Y-100749476D01*
X135310289Y-100700966D01*
X135310291Y-100700965D01*
X135316985Y-100698790D01*
X135463924Y-100611197D01*
X135587805Y-100493227D01*
X135682471Y-100350743D01*
X135743218Y-100190826D01*
X135753221Y-100119652D01*
X135766475Y-100025347D01*
X135766475Y-100025344D01*
X135767026Y-100021425D01*
X135767325Y-100000000D01*
X135748256Y-99830000D01*
X135742858Y-99814497D01*
X135694314Y-99675097D01*
X135694313Y-99675095D01*
X135691999Y-99668450D01*
X135601348Y-99523378D01*
X135567474Y-99489266D01*
X135542024Y-99463638D01*
X135480809Y-99401994D01*
X135379456Y-99337674D01*
X135342316Y-99314104D01*
X135342313Y-99314102D01*
X135336373Y-99310333D01*
X135329740Y-99307971D01*
X135181854Y-99255311D01*
X135181849Y-99255310D01*
X135175219Y-99252949D01*
X135168231Y-99252116D01*
X135168228Y-99252115D01*
X135052655Y-99238334D01*
X135005357Y-99232694D01*
X134998354Y-99233430D01*
X134998353Y-99233430D01*
X134953958Y-99238096D01*
X134835228Y-99250575D01*
X134825071Y-99254033D01*
X134679956Y-99303434D01*
X134679953Y-99303435D01*
X134673289Y-99305704D01*
X134527588Y-99395340D01*
X134526196Y-99393077D01*
X134471500Y-99414768D01*
X134459930Y-99415300D01*
X130546586Y-99415300D01*
X130530139Y-99414222D01*
X130508188Y-99411332D01*
X130500000Y-99410254D01*
X130500029Y-99410035D01*
X130436325Y-99391330D01*
X130389832Y-99337674D01*
X130379728Y-99267400D01*
X130409222Y-99202820D01*
X130415351Y-99196237D01*
X136130503Y-93481085D01*
X136142895Y-93470217D01*
X136145550Y-93468180D01*
X136167013Y-93451711D01*
X136179739Y-93435127D01*
X136244488Y-93350743D01*
X136255707Y-93336122D01*
X136260734Y-93329571D01*
X136296131Y-93244115D01*
X136319650Y-93187335D01*
X136334700Y-93073019D01*
X136334700Y-93073017D01*
X136339745Y-93034698D01*
X136335778Y-93004565D01*
X136334700Y-92988119D01*
X136334700Y-92496003D01*
X136354702Y-92427882D01*
X136408358Y-92381389D01*
X136444256Y-92371081D01*
X136461561Y-92368803D01*
X136468026Y-92366125D01*
X136531974Y-92366125D01*
X136538439Y-92368803D01*
X136632008Y-92381121D01*
X136645981Y-92382961D01*
X136650075Y-92383500D01*
X136749987Y-92383500D01*
X136849924Y-92383499D01*
X136854009Y-92382961D01*
X136854013Y-92382961D01*
X136944256Y-92371081D01*
X136961561Y-92368803D01*
X136968026Y-92366125D01*
X137031974Y-92366125D01*
X137038439Y-92368803D01*
X137132008Y-92381121D01*
X137145981Y-92382961D01*
X137150075Y-92383500D01*
X137249987Y-92383500D01*
X137349924Y-92383499D01*
X137354009Y-92382961D01*
X137354013Y-92382961D01*
X137444256Y-92371081D01*
X137461561Y-92368803D01*
X137468026Y-92366125D01*
X137531974Y-92366125D01*
X137538439Y-92368803D01*
X137632008Y-92381121D01*
X137645981Y-92382961D01*
X137650075Y-92383500D01*
X137749987Y-92383500D01*
X137849924Y-92383499D01*
X137854009Y-92382961D01*
X137854013Y-92382961D01*
X137944256Y-92371081D01*
X137961561Y-92368803D01*
X137968026Y-92366125D01*
X138031974Y-92366125D01*
X138038439Y-92368803D01*
X138132008Y-92381121D01*
X138145981Y-92382961D01*
X138150075Y-92383500D01*
X138249987Y-92383500D01*
X138349924Y-92383499D01*
X138355018Y-92382828D01*
X138361998Y-92381910D01*
X138432146Y-92392851D01*
X138485244Y-92439980D01*
X138504432Y-92508335D01*
X138483619Y-92576212D01*
X138478403Y-92583536D01*
X138460314Y-92607110D01*
X138449447Y-92619501D01*
X137440984Y-93627964D01*
X137378672Y-93661990D01*
X137365059Y-93664179D01*
X137224891Y-93678911D01*
X137218223Y-93681181D01*
X137069619Y-93731770D01*
X137069616Y-93731771D01*
X137062952Y-93734040D01*
X136917251Y-93823676D01*
X136912220Y-93828603D01*
X136912217Y-93828605D01*
X136866322Y-93873549D01*
X136795029Y-93943364D01*
X136702361Y-94087156D01*
X136699950Y-94093779D01*
X136699949Y-94093782D01*
X136646263Y-94241283D01*
X136646262Y-94241288D01*
X136643853Y-94247906D01*
X136627358Y-94378478D01*
X136623639Y-94407917D01*
X136595257Y-94472994D01*
X136587728Y-94481220D01*
X135258698Y-95810250D01*
X135246307Y-95821117D01*
X135222188Y-95839624D01*
X135162624Y-95917251D01*
X135139497Y-95947389D01*
X135139496Y-95947391D01*
X135128467Y-95961764D01*
X135128467Y-95961765D01*
X135069551Y-96104000D01*
X135054501Y-96218316D01*
X135049456Y-96256637D01*
X135050534Y-96264825D01*
X135053423Y-96286770D01*
X135054501Y-96303216D01*
X135054501Y-98314220D01*
X135053423Y-98330666D01*
X135049456Y-98360799D01*
X135054501Y-98399120D01*
X135069551Y-98513436D01*
X135072711Y-98521065D01*
X135080725Y-98540413D01*
X135128467Y-98655671D01*
X135222188Y-98777812D01*
X135228738Y-98782838D01*
X135228739Y-98782839D01*
X135283258Y-98824673D01*
X135344328Y-98871533D01*
X135407795Y-98897822D01*
X135478934Y-98927289D01*
X135478937Y-98927290D01*
X135486564Y-98930449D01*
X135639201Y-98950544D01*
X135647389Y-98949466D01*
X135669334Y-98946577D01*
X135685780Y-98945499D01*
X137185500Y-98945499D01*
X137253621Y-98965501D01*
X137300114Y-99019157D01*
X137311500Y-99071499D01*
X137311500Y-101475134D01*
X137318255Y-101537316D01*
X137369385Y-101673705D01*
X137456739Y-101790261D01*
X137573295Y-101877615D01*
X137709684Y-101928745D01*
X137771866Y-101935500D01*
X138608134Y-101935500D01*
X138670316Y-101928745D01*
X138677712Y-101925973D01*
X138677718Y-101925971D01*
X138780771Y-101887338D01*
X138851578Y-101882155D01*
X138869229Y-101887338D01*
X138972282Y-101925971D01*
X138972288Y-101925973D01*
X138979684Y-101928745D01*
X139041866Y-101935500D01*
X139878134Y-101935500D01*
X139940316Y-101928745D01*
X139947712Y-101925973D01*
X139947718Y-101925971D01*
X140051483Y-101887071D01*
X140122290Y-101881888D01*
X140139941Y-101887071D01*
X140242391Y-101925478D01*
X140257649Y-101929105D01*
X140308514Y-101934631D01*
X140315328Y-101935000D01*
X140457885Y-101935000D01*
X140473124Y-101930525D01*
X140474329Y-101929135D01*
X140476000Y-101921452D01*
X140476000Y-101916884D01*
X140984000Y-101916884D01*
X140988475Y-101932123D01*
X140989865Y-101933328D01*
X140997548Y-101934999D01*
X141144669Y-101934999D01*
X141151490Y-101934629D01*
X141202352Y-101929105D01*
X141217606Y-101925478D01*
X141320771Y-101886804D01*
X141391578Y-101881621D01*
X141409229Y-101886804D01*
X141512391Y-101925478D01*
X141527649Y-101929105D01*
X141578514Y-101934631D01*
X141585328Y-101935000D01*
X141727885Y-101935000D01*
X141743124Y-101930525D01*
X141744329Y-101929135D01*
X141746000Y-101921452D01*
X141746000Y-100304115D01*
X141741525Y-100288876D01*
X141740135Y-100287671D01*
X141732452Y-100286000D01*
X141002115Y-100286000D01*
X140986876Y-100290475D01*
X140985671Y-100291865D01*
X140984000Y-100299548D01*
X140984000Y-101916884D01*
X140476000Y-101916884D01*
X140476000Y-99904000D01*
X140496002Y-99835879D01*
X140549658Y-99789386D01*
X140602000Y-99778000D01*
X142128000Y-99778000D01*
X142196121Y-99798002D01*
X142242614Y-99851658D01*
X142254000Y-99904000D01*
X142254000Y-101916884D01*
X142258475Y-101932123D01*
X142259865Y-101933328D01*
X142267548Y-101934999D01*
X142414669Y-101934999D01*
X142421490Y-101934629D01*
X142472352Y-101929105D01*
X142487607Y-101925478D01*
X142590059Y-101887071D01*
X142660866Y-101881888D01*
X142678517Y-101887071D01*
X142782282Y-101925971D01*
X142782288Y-101925973D01*
X142789684Y-101928745D01*
X142851866Y-101935500D01*
X142933419Y-101935500D01*
X143001540Y-101955502D01*
X143048033Y-102009158D01*
X143058137Y-102079432D01*
X143028643Y-102144012D01*
X143022526Y-102150583D01*
X142143289Y-103029821D01*
X142130905Y-103040681D01*
X142106786Y-103059188D01*
X142047222Y-103136815D01*
X142013065Y-103181328D01*
X142009906Y-103188956D01*
X142009902Y-103188962D01*
X142008741Y-103191766D01*
X142008740Y-103191770D01*
X141954149Y-103323564D01*
X141939765Y-103432824D01*
X141934054Y-103476201D01*
X141935132Y-103484389D01*
X141938021Y-103506334D01*
X141939099Y-103522780D01*
X141939099Y-104606821D01*
X141919097Y-104674942D01*
X141902194Y-104695916D01*
X139091925Y-107506185D01*
X139029613Y-107540211D01*
X138958798Y-107535146D01*
X138901962Y-107492599D01*
X138895686Y-107483393D01*
X138829970Y-107377197D01*
X138826116Y-107370969D01*
X138819825Y-107364689D01*
X138708184Y-107253242D01*
X138708179Y-107253238D01*
X138703003Y-107248071D01*
X138647433Y-107213817D01*
X138561150Y-107160631D01*
X138561148Y-107160630D01*
X138554920Y-107156791D01*
X138389809Y-107102026D01*
X138382973Y-107101326D01*
X138382970Y-107101325D01*
X138331474Y-107096049D01*
X138287072Y-107091500D01*
X137712928Y-107091500D01*
X137709682Y-107091837D01*
X137709678Y-107091837D01*
X137615765Y-107101581D01*
X137615761Y-107101582D01*
X137608907Y-107102293D01*
X137602371Y-107104474D01*
X137602369Y-107104474D01*
X137596141Y-107106552D01*
X137443893Y-107157346D01*
X137295969Y-107248884D01*
X137290796Y-107254066D01*
X137178242Y-107366816D01*
X137178238Y-107366821D01*
X137173071Y-107371997D01*
X137169231Y-107378227D01*
X137169230Y-107378228D01*
X137086364Y-107512662D01*
X137081791Y-107520080D01*
X137027026Y-107685191D01*
X137026326Y-107692027D01*
X137026325Y-107692030D01*
X137025636Y-107698755D01*
X137016500Y-107787928D01*
X137016500Y-108191920D01*
X136996498Y-108260041D01*
X136979595Y-108281015D01*
X136868287Y-108392323D01*
X136855896Y-108403190D01*
X136831777Y-108421697D01*
X136826751Y-108428247D01*
X136826750Y-108428248D01*
X136778528Y-108491093D01*
X136749082Y-108529467D01*
X136749081Y-108529468D01*
X136738056Y-108543837D01*
X136738056Y-108543838D01*
X136732016Y-108558420D01*
X136732015Y-108558421D01*
X136688909Y-108662488D01*
X136679140Y-108686073D01*
X136664090Y-108800389D01*
X136659045Y-108838710D01*
X136660123Y-108846898D01*
X136663012Y-108868843D01*
X136664090Y-108885289D01*
X136664090Y-118202212D01*
X136663012Y-118218659D01*
X136659045Y-118248790D01*
X136660123Y-118256978D01*
X136664090Y-118287109D01*
X136664090Y-118287114D01*
X136666271Y-118303683D01*
X136654251Y-118369727D01*
X136656649Y-118370760D01*
X136654540Y-118375657D01*
X136652020Y-118380367D01*
X136579059Y-118599063D01*
X136543989Y-118826926D01*
X136544077Y-118832250D01*
X136544077Y-118832254D01*
X136547600Y-119044645D01*
X136547812Y-119057441D01*
X136548800Y-119062694D01*
X136556427Y-119103251D01*
X136549360Y-119173895D01*
X136505221Y-119229503D01*
X136438025Y-119252421D01*
X136414518Y-119251234D01*
X136251876Y-119227652D01*
X136237337Y-119227245D01*
X136075852Y-119241515D01*
X136061616Y-119244463D01*
X135907745Y-119295501D01*
X135894561Y-119301649D01*
X135756187Y-119386943D01*
X135745394Y-119395345D01*
X135677340Y-119461409D01*
X135672967Y-119466111D01*
X135431900Y-119753404D01*
X135425531Y-119767956D01*
X135425822Y-119769772D01*
X135430631Y-119775988D01*
X136361724Y-120557268D01*
X137678465Y-121662144D01*
X137693017Y-121668513D01*
X137694833Y-121668222D01*
X137701049Y-121663413D01*
X137945029Y-121372649D01*
X137948939Y-121367468D01*
X138002800Y-121287845D01*
X138009193Y-121275726D01*
X138068897Y-121124546D01*
X138072635Y-121110496D01*
X138095897Y-120950060D01*
X138096304Y-120935521D01*
X138082034Y-120774036D01*
X138079086Y-120759800D01*
X138027504Y-120604288D01*
X138025043Y-120533334D01*
X138061333Y-120472313D01*
X138124853Y-120440599D01*
X138139070Y-120438877D01*
X138235283Y-120432739D01*
X138291961Y-120429123D01*
X138291963Y-120429123D01*
X138297288Y-120428783D01*
X138302478Y-120427551D01*
X138302480Y-120427551D01*
X138516410Y-120376782D01*
X138516414Y-120376781D01*
X138521604Y-120375549D01*
X138535167Y-120369778D01*
X138728828Y-120287373D01*
X138728834Y-120287370D01*
X138733743Y-120285281D01*
X138927641Y-120160561D01*
X139097751Y-120004954D01*
X139239213Y-119822909D01*
X139347980Y-119619633D01*
X139420941Y-119400937D01*
X139456011Y-119173074D01*
X139454853Y-119103251D01*
X139452277Y-118947899D01*
X139452276Y-118947894D01*
X139452188Y-118942559D01*
X139409580Y-118715985D01*
X139396980Y-118682014D01*
X139392043Y-118611193D01*
X139426180Y-118548942D01*
X139488554Y-118515029D01*
X139528394Y-118512900D01*
X139668872Y-118527788D01*
X139668876Y-118527788D01*
X139674178Y-118528350D01*
X139820286Y-118519029D01*
X139898930Y-118514012D01*
X139898932Y-118514012D01*
X139904257Y-118513672D01*
X139909447Y-118512440D01*
X139909449Y-118512440D01*
X140123379Y-118461671D01*
X140123383Y-118461670D01*
X140128573Y-118460438D01*
X140142136Y-118454667D01*
X140335797Y-118372262D01*
X140335803Y-118372259D01*
X140340712Y-118370170D01*
X140534610Y-118245450D01*
X140680557Y-118111946D01*
X140700777Y-118093450D01*
X140700778Y-118093449D01*
X140704720Y-118089843D01*
X140846182Y-117907798D01*
X140954949Y-117704522D01*
X141027910Y-117485826D01*
X141062980Y-117257963D01*
X141062892Y-117252635D01*
X141059246Y-117032788D01*
X141059245Y-117032783D01*
X141059157Y-117027448D01*
X141016549Y-116800874D01*
X140936374Y-116584718D01*
X140889346Y-116503427D01*
X140850426Y-116436153D01*
X140833490Y-116373057D01*
X140833490Y-111034500D01*
X140853492Y-110966379D01*
X140907148Y-110919886D01*
X140959490Y-110908500D01*
X141287072Y-110908500D01*
X141290318Y-110908163D01*
X141290322Y-110908163D01*
X141384235Y-110898419D01*
X141384239Y-110898418D01*
X141391093Y-110897707D01*
X141397629Y-110895526D01*
X141397631Y-110895526D01*
X141549159Y-110844972D01*
X141556107Y-110842654D01*
X141704031Y-110751116D01*
X141709597Y-110745540D01*
X141821758Y-110633184D01*
X141821762Y-110633179D01*
X141826929Y-110628003D01*
X141831483Y-110620616D01*
X141870644Y-110557084D01*
X141923416Y-110509591D01*
X141977904Y-110497200D01*
X143705700Y-110497200D01*
X143722147Y-110498278D01*
X143752278Y-110502245D01*
X143790597Y-110497200D01*
X143790602Y-110497200D01*
X143896727Y-110483228D01*
X143904915Y-110482150D01*
X144005491Y-110440490D01*
X144039523Y-110426394D01*
X144039525Y-110426393D01*
X144047151Y-110423234D01*
X144097808Y-110384363D01*
X144169291Y-110329513D01*
X144174317Y-110322963D01*
X144174321Y-110322959D01*
X144187801Y-110305391D01*
X144198669Y-110292999D01*
X147856708Y-106634961D01*
X147869100Y-106624093D01*
X147886661Y-106610618D01*
X147893214Y-106605590D01*
X147902124Y-106593979D01*
X147925114Y-106564017D01*
X147981908Y-106490001D01*
X147986935Y-106483450D01*
X148014454Y-106417013D01*
X148045851Y-106341214D01*
X148060901Y-106226898D01*
X148060901Y-106226896D01*
X148065946Y-106188577D01*
X148061979Y-106158444D01*
X148060901Y-106141998D01*
X148060901Y-98170143D01*
X148081953Y-98100416D01*
X148154771Y-97990815D01*
X148158672Y-97984944D01*
X148191186Y-97899350D01*
X148195601Y-97887729D01*
X148238490Y-97831151D01*
X148305159Y-97806742D01*
X148374441Y-97822252D01*
X148424339Y-97872756D01*
X148433721Y-97895106D01*
X148463228Y-97990135D01*
X148530176Y-98205744D01*
X148531578Y-98210603D01*
X148673135Y-98740750D01*
X148767795Y-99095262D01*
X148783886Y-99155526D01*
X148785088Y-99160420D01*
X148865374Y-99518132D01*
X148999268Y-100114696D01*
X149000277Y-100119652D01*
X149175996Y-101081795D01*
X149176804Y-101086787D01*
X149313760Y-102055155D01*
X149314368Y-102060176D01*
X149354300Y-102456731D01*
X149412007Y-103029814D01*
X149412356Y-103033283D01*
X149412761Y-103038312D01*
X149471069Y-104005475D01*
X149471618Y-104014586D01*
X149471820Y-104019625D01*
X149490775Y-104963852D01*
X149491462Y-104998092D01*
X149491480Y-105001919D01*
X149490905Y-105056826D01*
X149486149Y-105510984D01*
X149486050Y-105514832D01*
X149445921Y-106492649D01*
X149445612Y-106497697D01*
X149366326Y-107472499D01*
X149365815Y-107477530D01*
X149363978Y-107492599D01*
X149254303Y-108392323D01*
X149247472Y-108448358D01*
X149246761Y-108453354D01*
X149110360Y-109290895D01*
X149089548Y-109418686D01*
X149088635Y-109423661D01*
X148892810Y-110381887D01*
X148891698Y-110386821D01*
X148657577Y-111336413D01*
X148656268Y-111341298D01*
X148384228Y-112280726D01*
X148382724Y-112285553D01*
X148314742Y-112489324D01*
X148073199Y-113213318D01*
X148071502Y-113218083D01*
X147724999Y-114132661D01*
X147723113Y-114137353D01*
X147340173Y-115037320D01*
X147338109Y-115041911D01*
X146979139Y-115799607D01*
X146919378Y-115925747D01*
X146917122Y-115930273D01*
X146743342Y-116261979D01*
X146522271Y-116683952D01*
X146463234Y-116796639D01*
X146460801Y-116801064D01*
X146264168Y-117142330D01*
X145972528Y-117648484D01*
X145969916Y-117652814D01*
X145517578Y-118369727D01*
X145448032Y-118479950D01*
X145445248Y-118484173D01*
X144890569Y-119289730D01*
X144887617Y-119293837D01*
X144301075Y-120076458D01*
X144297961Y-120080443D01*
X143680498Y-120838878D01*
X143677227Y-120842736D01*
X143478630Y-121067604D01*
X143133845Y-121458000D01*
X143029802Y-121575806D01*
X143026385Y-121579523D01*
X142828186Y-121786564D01*
X142350048Y-122286033D01*
X142346478Y-122289615D01*
X142174267Y-122455627D01*
X141655996Y-122955243D01*
X141642366Y-122968382D01*
X141638659Y-122971815D01*
X141066436Y-123480753D01*
X140907836Y-123621812D01*
X140903995Y-123625092D01*
X140760355Y-123742869D01*
X140147716Y-124245201D01*
X140143742Y-124248329D01*
X139991295Y-124363415D01*
X139376353Y-124827650D01*
X139363162Y-124837608D01*
X139359065Y-124840574D01*
X138555448Y-125398062D01*
X138551235Y-125400860D01*
X138213080Y-125615874D01*
X137725936Y-125925621D01*
X137721629Y-125928240D01*
X136875896Y-126419481D01*
X136871473Y-126421933D01*
X136560285Y-126586351D01*
X136081532Y-126839303D01*
X136006726Y-126878827D01*
X136002217Y-126881094D01*
X135186124Y-127271226D01*
X135119842Y-127302912D01*
X135115241Y-127305000D01*
X134222309Y-127688634D01*
X134216625Y-127691076D01*
X134211948Y-127692975D01*
X134159784Y-127712947D01*
X133298555Y-128042679D01*
X133293796Y-128044392D01*
X132367133Y-128357150D01*
X132362309Y-128358671D01*
X131423836Y-128633988D01*
X131418956Y-128635314D01*
X131203861Y-128689143D01*
X130470163Y-128872755D01*
X130465269Y-128873876D01*
X130033457Y-128963693D01*
X129507714Y-129073047D01*
X129502743Y-129073977D01*
X128537991Y-129234556D01*
X128532986Y-129235286D01*
X127562577Y-129357017D01*
X127557547Y-129357546D01*
X127073676Y-129398603D01*
X126583001Y-129440237D01*
X126577960Y-129440563D01*
X125600917Y-129484076D01*
X125595864Y-129484200D01*
X125281066Y-129485574D01*
X124617819Y-129488468D01*
X124612762Y-129488388D01*
X124495762Y-129484200D01*
X123635373Y-129453402D01*
X123630346Y-129453122D01*
X123210634Y-129421195D01*
X122655109Y-129378937D01*
X122650075Y-129378452D01*
X121678645Y-129265195D01*
X121673634Y-129264509D01*
X120707502Y-129112353D01*
X120702523Y-129111466D01*
X119743294Y-128920663D01*
X119738354Y-128919577D01*
X118787532Y-128690427D01*
X118782640Y-128689143D01*
X117841830Y-128422034D01*
X117836993Y-128420556D01*
X116907599Y-128115885D01*
X116902826Y-128114213D01*
X115986449Y-127772505D01*
X115981746Y-127770643D01*
X115400749Y-127527011D01*
X115079798Y-127392425D01*
X115075197Y-127390386D01*
X114189140Y-126976269D01*
X114184612Y-126974041D01*
X113315898Y-126524704D01*
X113311478Y-126522304D01*
X112461499Y-126038466D01*
X112457158Y-126035879D01*
X112419004Y-126012084D01*
X111627262Y-125518309D01*
X111623061Y-125515570D01*
X110824113Y-124971585D01*
X122286698Y-124971585D01*
X122302936Y-125297759D01*
X122303577Y-125301490D01*
X122303578Y-125301498D01*
X122340835Y-125518320D01*
X122358241Y-125619619D01*
X122359329Y-125623258D01*
X122359330Y-125623261D01*
X122450539Y-125928240D01*
X122451814Y-125932504D01*
X122453327Y-125935975D01*
X122453329Y-125935981D01*
X122542868Y-126141416D01*
X122582297Y-126231881D01*
X122584220Y-126235152D01*
X122584222Y-126235156D01*
X122626584Y-126307215D01*
X122747802Y-126513414D01*
X122750103Y-126516429D01*
X122943631Y-126770012D01*
X122943636Y-126770017D01*
X122945931Y-126773025D01*
X123173814Y-127006953D01*
X123246635Y-127065607D01*
X123425196Y-127209431D01*
X123425201Y-127209435D01*
X123428149Y-127211809D01*
X123705253Y-127384627D01*
X124001112Y-127522903D01*
X124311440Y-127624634D01*
X124631742Y-127688346D01*
X124635514Y-127688633D01*
X124635522Y-127688634D01*
X124953602Y-127712829D01*
X124953607Y-127712829D01*
X124957379Y-127713116D01*
X125283633Y-127698586D01*
X125317320Y-127692979D01*
X125602037Y-127645590D01*
X125602042Y-127645589D01*
X125605778Y-127644967D01*
X125919149Y-127553034D01*
X125922616Y-127551544D01*
X125922620Y-127551543D01*
X126215721Y-127425616D01*
X126215723Y-127425615D01*
X126219205Y-127424119D01*
X126501601Y-127260091D01*
X126762245Y-127063324D01*
X126997363Y-126836670D01*
X127203549Y-126583410D01*
X127240586Y-126524710D01*
X127375788Y-126310428D01*
X127375790Y-126310425D01*
X127377815Y-126307215D01*
X127517638Y-126012084D01*
X127544188Y-125932504D01*
X127619790Y-125705897D01*
X127619792Y-125705891D01*
X127620992Y-125702293D01*
X127686381Y-125382329D01*
X127692956Y-125301498D01*
X127712674Y-125059061D01*
X127712856Y-125056826D01*
X127713451Y-125000000D01*
X127711510Y-124967796D01*
X127694026Y-124677793D01*
X127694026Y-124677789D01*
X127693798Y-124674015D01*
X127688650Y-124645824D01*
X127645895Y-124411724D01*
X127635125Y-124352751D01*
X127627722Y-124328907D01*
X127539404Y-124044477D01*
X127538282Y-124040863D01*
X127404670Y-123742869D01*
X127236226Y-123463084D01*
X127233899Y-123460100D01*
X127233894Y-123460093D01*
X127037726Y-123208558D01*
X127037724Y-123208556D01*
X127035390Y-123205563D01*
X126805070Y-122974034D01*
X126548603Y-122771852D01*
X126269705Y-122601945D01*
X126266261Y-122600379D01*
X126266257Y-122600377D01*
X126153753Y-122549225D01*
X125972414Y-122466775D01*
X125661037Y-122368300D01*
X125394242Y-122318129D01*
X125343809Y-122308645D01*
X125343807Y-122308645D01*
X125340086Y-122307945D01*
X125014208Y-122286586D01*
X125010428Y-122286794D01*
X125010427Y-122286794D01*
X124912897Y-122292162D01*
X124688124Y-122304532D01*
X124684397Y-122305193D01*
X124684393Y-122305193D01*
X124528029Y-122332905D01*
X124366557Y-122361522D01*
X124362941Y-122362624D01*
X124362933Y-122362626D01*
X124057789Y-122455627D01*
X124054167Y-122456731D01*
X123755477Y-122588781D01*
X123646144Y-122653827D01*
X123478074Y-122753817D01*
X123478068Y-122753821D01*
X123474814Y-122755757D01*
X123471812Y-122758073D01*
X123318018Y-122876725D01*
X123216244Y-122955243D01*
X123201106Y-122970145D01*
X123011330Y-123156964D01*
X122983513Y-123184347D01*
X122981149Y-123187314D01*
X122981146Y-123187317D01*
X122782356Y-123436783D01*
X122779991Y-123439751D01*
X122608626Y-123717757D01*
X122471902Y-124014336D01*
X122470741Y-124017940D01*
X122470741Y-124017941D01*
X122462196Y-124044477D01*
X122371797Y-124325192D01*
X122371079Y-124328903D01*
X122371078Y-124328907D01*
X122310482Y-124642105D01*
X122310481Y-124642114D01*
X122309763Y-124645824D01*
X122286698Y-124971585D01*
X110824113Y-124971585D01*
X110814619Y-124965121D01*
X110810544Y-124962226D01*
X110024814Y-124379755D01*
X110020817Y-124376666D01*
X109929966Y-124303489D01*
X109259124Y-123763153D01*
X109255258Y-123759909D01*
X109207024Y-123717757D01*
X108518813Y-123116334D01*
X108515078Y-123112936D01*
X108457468Y-123058361D01*
X107977743Y-122603914D01*
X107805056Y-122440326D01*
X107801455Y-122436775D01*
X107492224Y-122119341D01*
X135719977Y-122119341D01*
X135720268Y-122121157D01*
X135725077Y-122127373D01*
X136107870Y-122448575D01*
X136147197Y-122507685D01*
X136148323Y-122578673D01*
X136122046Y-122627675D01*
X135990108Y-122779720D01*
X135987108Y-122784906D01*
X135987105Y-122784910D01*
X135948985Y-122850803D01*
X135884187Y-122962811D01*
X135814799Y-123162628D01*
X135813938Y-123168563D01*
X135813938Y-123168565D01*
X135808574Y-123205563D01*
X135784447Y-123371961D01*
X135794227Y-123583256D01*
X135795631Y-123589081D01*
X135795631Y-123589082D01*
X135832694Y-123742869D01*
X135843785Y-123788891D01*
X135846267Y-123794349D01*
X135846268Y-123794353D01*
X135889713Y-123889903D01*
X135931334Y-123981444D01*
X136053714Y-124153968D01*
X136206510Y-124300238D01*
X136384208Y-124414977D01*
X136389774Y-124417220D01*
X136574828Y-124491799D01*
X136574831Y-124491800D01*
X136580397Y-124494043D01*
X136787997Y-124534585D01*
X136793559Y-124534857D01*
X136949506Y-124534857D01*
X137107226Y-124519809D01*
X137310194Y-124460265D01*
X137393771Y-124417220D01*
X137492909Y-124366161D01*
X137492912Y-124366159D01*
X137498240Y-124363415D01*
X137664580Y-124232753D01*
X137668512Y-124228222D01*
X137668515Y-124228219D01*
X137799281Y-124077524D01*
X137803212Y-124072994D01*
X137806212Y-124067808D01*
X137806215Y-124067804D01*
X137906127Y-123895099D01*
X137909133Y-123889903D01*
X137978521Y-123690086D01*
X137988178Y-123623483D01*
X138008012Y-123486693D01*
X138008012Y-123486690D01*
X138008873Y-123480753D01*
X137999093Y-123269458D01*
X137949535Y-123063823D01*
X137909932Y-122976720D01*
X137864466Y-122876725D01*
X137861986Y-122871270D01*
X137739606Y-122698746D01*
X137586810Y-122552476D01*
X137409112Y-122437737D01*
X137302731Y-122394864D01*
X137247028Y-122350851D01*
X137223961Y-122283706D01*
X137240858Y-122214750D01*
X137253310Y-122197009D01*
X137354162Y-122076818D01*
X137360531Y-122062266D01*
X137360240Y-122060450D01*
X137355431Y-122054234D01*
X136438216Y-121284599D01*
X136423664Y-121278230D01*
X136421848Y-121278521D01*
X136415632Y-121283330D01*
X135726346Y-122104789D01*
X135719977Y-122119341D01*
X107492224Y-122119341D01*
X107118998Y-121736214D01*
X107115542Y-121732521D01*
X107057749Y-121668222D01*
X106860237Y-121448478D01*
X106461746Y-121005131D01*
X106458441Y-121001302D01*
X106452944Y-120994669D01*
X122692001Y-120994669D01*
X122692371Y-121001490D01*
X122697895Y-121052352D01*
X122701521Y-121067604D01*
X122746676Y-121188054D01*
X122755214Y-121203649D01*
X122831715Y-121305724D01*
X122844276Y-121318285D01*
X122946351Y-121394786D01*
X122961946Y-121403324D01*
X123082394Y-121448478D01*
X123097649Y-121452105D01*
X123148514Y-121457631D01*
X123155328Y-121458000D01*
X124727885Y-121458000D01*
X124743124Y-121453525D01*
X124744329Y-121452135D01*
X124746000Y-121444452D01*
X124746000Y-121439884D01*
X125254000Y-121439884D01*
X125258475Y-121455123D01*
X125259865Y-121456328D01*
X125267548Y-121457999D01*
X126844669Y-121457999D01*
X126851490Y-121457629D01*
X126902352Y-121452105D01*
X126917604Y-121448479D01*
X127038054Y-121403324D01*
X127053649Y-121394786D01*
X127155724Y-121318285D01*
X127168285Y-121305724D01*
X127244786Y-121203649D01*
X127253324Y-121188054D01*
X127298478Y-121067606D01*
X127302105Y-121052351D01*
X127307631Y-121001486D01*
X127308000Y-120994672D01*
X127308000Y-120894701D01*
X134689758Y-120894701D01*
X134704028Y-121056186D01*
X134706976Y-121070422D01*
X134758014Y-121224293D01*
X134764162Y-121237477D01*
X134849456Y-121375851D01*
X134857858Y-121386644D01*
X134923922Y-121454698D01*
X134928624Y-121459071D01*
X135311672Y-121780486D01*
X135326224Y-121786855D01*
X135328040Y-121786564D01*
X135334256Y-121781755D01*
X136023543Y-120960296D01*
X136029912Y-120945744D01*
X136029621Y-120943928D01*
X136024812Y-120937712D01*
X135107597Y-120168078D01*
X135093045Y-120161709D01*
X135091229Y-120162000D01*
X135085013Y-120166809D01*
X134841033Y-120457573D01*
X134837123Y-120462754D01*
X134783262Y-120542377D01*
X134776869Y-120554496D01*
X134717165Y-120705676D01*
X134713427Y-120719726D01*
X134690165Y-120880162D01*
X134689758Y-120894701D01*
X127308000Y-120894701D01*
X127308000Y-119922115D01*
X127303525Y-119906876D01*
X127302135Y-119905671D01*
X127294452Y-119904000D01*
X125272115Y-119904000D01*
X125256876Y-119908475D01*
X125255671Y-119909865D01*
X125254000Y-119917548D01*
X125254000Y-121439884D01*
X124746000Y-121439884D01*
X124746000Y-119922115D01*
X124741525Y-119906876D01*
X124740135Y-119905671D01*
X124732452Y-119904000D01*
X122710116Y-119904000D01*
X122694877Y-119908475D01*
X122693672Y-119909865D01*
X122692001Y-119917548D01*
X122692001Y-120994669D01*
X106452944Y-120994669D01*
X105834362Y-120248259D01*
X105831214Y-120244301D01*
X105415609Y-119699728D01*
X105237862Y-119466823D01*
X105234881Y-119462751D01*
X105233940Y-119461409D01*
X105175347Y-119377885D01*
X122692000Y-119377885D01*
X122696475Y-119393124D01*
X122697865Y-119394329D01*
X122705548Y-119396000D01*
X124727885Y-119396000D01*
X124743124Y-119391525D01*
X124744329Y-119390135D01*
X124746000Y-119382452D01*
X124746000Y-119377885D01*
X125254000Y-119377885D01*
X125258475Y-119393124D01*
X125259865Y-119394329D01*
X125267548Y-119396000D01*
X127289884Y-119396000D01*
X127305123Y-119391525D01*
X127306328Y-119390135D01*
X127307999Y-119382452D01*
X127307999Y-118305331D01*
X127307629Y-118298510D01*
X127302105Y-118247648D01*
X127298479Y-118232396D01*
X127253324Y-118111946D01*
X127244786Y-118096351D01*
X127168285Y-117994276D01*
X127155724Y-117981715D01*
X127053649Y-117905214D01*
X127038054Y-117896676D01*
X126917606Y-117851522D01*
X126902351Y-117847895D01*
X126851486Y-117842369D01*
X126844672Y-117842000D01*
X125272115Y-117842000D01*
X125256876Y-117846475D01*
X125255671Y-117847865D01*
X125254000Y-117855548D01*
X125254000Y-119377885D01*
X124746000Y-119377885D01*
X124746000Y-117860116D01*
X124741525Y-117844877D01*
X124740135Y-117843672D01*
X124732452Y-117842001D01*
X123155331Y-117842001D01*
X123148510Y-117842371D01*
X123097648Y-117847895D01*
X123082396Y-117851521D01*
X122961946Y-117896676D01*
X122946351Y-117905214D01*
X122844276Y-117981715D01*
X122831715Y-117994276D01*
X122755214Y-118096351D01*
X122746676Y-118111946D01*
X122701522Y-118232394D01*
X122697895Y-118247649D01*
X122692369Y-118298514D01*
X122692000Y-118305328D01*
X122692000Y-119377885D01*
X105175347Y-119377885D01*
X104673195Y-118662068D01*
X104670398Y-118657906D01*
X104184887Y-117903094D01*
X104141295Y-117835323D01*
X104138645Y-117831015D01*
X103642993Y-116987884D01*
X103640518Y-116983473D01*
X103599358Y-116906549D01*
X103179102Y-116121129D01*
X103176812Y-116116634D01*
X103159032Y-116079935D01*
X102750379Y-115236476D01*
X102748266Y-115231883D01*
X102357489Y-114335297D01*
X102355562Y-114330621D01*
X102001091Y-113419101D01*
X101999353Y-113414352D01*
X101681743Y-112489324D01*
X101680197Y-112484508D01*
X101399972Y-111547500D01*
X101398620Y-111542626D01*
X101297230Y-111146305D01*
X101256773Y-110988160D01*
X110376200Y-110988160D01*
X110386082Y-111000649D01*
X110433091Y-111032059D01*
X110443204Y-111037550D01*
X110630667Y-111118090D01*
X110641600Y-111121642D01*
X110840601Y-111166672D01*
X110852010Y-111168174D01*
X111055885Y-111176184D01*
X111067367Y-111175582D01*
X111269290Y-111146305D01*
X111280472Y-111143620D01*
X111473674Y-111078037D01*
X111484189Y-111073355D01*
X111615788Y-110999656D01*
X111625652Y-110989579D01*
X111622697Y-110981907D01*
X111012812Y-110372022D01*
X110998868Y-110364408D01*
X110997035Y-110364539D01*
X110990420Y-110368790D01*
X110382393Y-110976818D01*
X110376200Y-110988160D01*
X101256773Y-110988160D01*
X101156216Y-110595093D01*
X101155064Y-110590183D01*
X101153694Y-110583764D01*
X101073644Y-110208766D01*
X106017000Y-110208766D01*
X106017337Y-110215282D01*
X106027075Y-110309132D01*
X106029968Y-110322528D01*
X106080488Y-110473953D01*
X106086653Y-110487115D01*
X106170426Y-110622492D01*
X106179460Y-110633890D01*
X106292129Y-110746363D01*
X106303540Y-110755375D01*
X106439063Y-110838912D01*
X106452241Y-110845056D01*
X106603766Y-110895315D01*
X106617132Y-110898181D01*
X106709770Y-110907672D01*
X106716185Y-110908000D01*
X106727885Y-110908000D01*
X106743124Y-110903525D01*
X106744329Y-110902135D01*
X106746000Y-110894452D01*
X106746000Y-110889885D01*
X107254000Y-110889885D01*
X107258475Y-110905124D01*
X107259865Y-110906329D01*
X107267548Y-110908000D01*
X107283766Y-110908000D01*
X107290282Y-110907663D01*
X107384132Y-110897925D01*
X107397528Y-110895032D01*
X107548953Y-110844512D01*
X107562115Y-110838347D01*
X107697492Y-110754574D01*
X107708890Y-110745540D01*
X107821363Y-110632871D01*
X107830375Y-110621460D01*
X107913912Y-110485937D01*
X107920056Y-110472759D01*
X107970315Y-110321234D01*
X107973181Y-110307868D01*
X107982672Y-110215230D01*
X107983000Y-110208815D01*
X107983000Y-110134615D01*
X107978525Y-110119376D01*
X107977135Y-110118171D01*
X107969452Y-110116500D01*
X107272115Y-110116500D01*
X107256876Y-110120975D01*
X107255671Y-110122365D01*
X107254000Y-110130048D01*
X107254000Y-110889885D01*
X106746000Y-110889885D01*
X106746000Y-110134615D01*
X106741525Y-110119376D01*
X106740135Y-110118171D01*
X106732452Y-110116500D01*
X106035115Y-110116500D01*
X106019876Y-110120975D01*
X106018671Y-110122365D01*
X106017000Y-110130048D01*
X106017000Y-110208766D01*
X101073644Y-110208766D01*
X101023727Y-109974929D01*
X109822757Y-109974929D01*
X109836100Y-110178517D01*
X109837900Y-110189884D01*
X109888124Y-110387638D01*
X109891962Y-110398476D01*
X109977381Y-110583764D01*
X109983134Y-110593730D01*
X109999149Y-110616390D01*
X110009739Y-110624778D01*
X110023038Y-110617751D01*
X110627979Y-110012811D01*
X110634356Y-110001132D01*
X111364408Y-110001132D01*
X111364539Y-110002965D01*
X111368790Y-110009580D01*
X111977992Y-110618782D01*
X111990372Y-110625542D01*
X111996952Y-110620616D01*
X112073355Y-110484189D01*
X112078037Y-110473674D01*
X112143620Y-110280472D01*
X112146305Y-110269290D01*
X112175878Y-110065326D01*
X112176508Y-110057945D01*
X112177928Y-110003704D01*
X112177685Y-109996305D01*
X112158828Y-109791076D01*
X112156731Y-109779762D01*
X112101349Y-109583394D01*
X112097227Y-109572655D01*
X112006985Y-109389663D01*
X112002041Y-109381595D01*
X111991313Y-109373544D01*
X111978894Y-109380316D01*
X111372022Y-109987188D01*
X111364408Y-110001132D01*
X110634356Y-110001132D01*
X110635592Y-109998868D01*
X110635461Y-109997034D01*
X110631210Y-109990420D01*
X110020409Y-109379620D01*
X110008034Y-109372863D01*
X110002068Y-109377329D01*
X109914339Y-109544073D01*
X109909934Y-109554707D01*
X109849431Y-109749558D01*
X109847039Y-109760812D01*
X109823058Y-109963428D01*
X109822757Y-109974929D01*
X101023727Y-109974929D01*
X100950880Y-109633677D01*
X100949928Y-109628731D01*
X100946655Y-109609678D01*
X100784300Y-108664830D01*
X100783544Y-108659829D01*
X100656733Y-107690066D01*
X100656178Y-107685039D01*
X100568388Y-106710965D01*
X100568035Y-106705920D01*
X100519406Y-105729096D01*
X100519256Y-105724041D01*
X100512929Y-105065012D01*
X100509867Y-104746045D01*
X100509920Y-104741001D01*
X100511298Y-104695916D01*
X100539788Y-103763428D01*
X100540044Y-103758377D01*
X100609118Y-102782805D01*
X100609576Y-102777768D01*
X100717748Y-101805734D01*
X100718408Y-101800720D01*
X100865502Y-100833812D01*
X100866363Y-100828828D01*
X101043036Y-99915674D01*
X101052141Y-99868612D01*
X101053201Y-99863668D01*
X101277367Y-98911671D01*
X101278625Y-98906772D01*
X101375795Y-98557569D01*
X101540813Y-97964544D01*
X101542263Y-97959709D01*
X101561701Y-97899350D01*
X101753855Y-97302651D01*
X101842060Y-97028746D01*
X101843707Y-97023964D01*
X101968185Y-96684727D01*
X102180616Y-96105797D01*
X102182445Y-96101105D01*
X102184402Y-96096371D01*
X102555942Y-95197176D01*
X102557965Y-95192546D01*
X102645360Y-95002973D01*
X102867336Y-94521469D01*
X102967419Y-94304373D01*
X102969628Y-94299823D01*
X103414409Y-93428772D01*
X103416799Y-93424315D01*
X103896169Y-92571830D01*
X103898736Y-92567472D01*
X104293308Y-91927357D01*
X104411944Y-91734892D01*
X104414680Y-91730648D01*
X104443531Y-91687795D01*
X104866889Y-91058958D01*
X104960871Y-90919361D01*
X104963779Y-90915223D01*
X105252015Y-90522119D01*
X105542103Y-90126488D01*
X105545170Y-90122477D01*
X105548970Y-90117709D01*
X106154682Y-89357587D01*
X106157913Y-89353696D01*
X106589990Y-88854012D01*
X106797608Y-88613909D01*
X106800991Y-88610151D01*
X106872997Y-88533338D01*
X107469890Y-87896598D01*
X107473418Y-87892983D01*
X107656305Y-87712947D01*
X107933018Y-87440546D01*
X108170384Y-87206880D01*
X108174059Y-87203404D01*
X108898030Y-86545796D01*
X108901841Y-86542472D01*
X109651601Y-85914463D01*
X109655543Y-85911294D01*
X110429879Y-85313898D01*
X110433944Y-85310889D01*
X110941455Y-84950885D01*
X111231676Y-84745017D01*
X111235851Y-84742179D01*
X112055656Y-84208774D01*
X112059941Y-84206108D01*
X112064655Y-84203304D01*
X112607989Y-83880054D01*
X112900457Y-83706054D01*
X112904855Y-83703556D01*
X113764751Y-83237641D01*
X113769245Y-83235321D01*
X114295952Y-82976720D01*
X114647191Y-82804270D01*
X114651770Y-82802135D01*
X115546279Y-82406676D01*
X115550917Y-82404736D01*
X116235557Y-82134359D01*
X116460591Y-82045489D01*
X116465331Y-82043726D01*
X116700203Y-81961705D01*
X117388708Y-81721268D01*
X117393422Y-81719726D01*
X118329058Y-81434566D01*
X118333877Y-81433203D01*
X119280165Y-81185831D01*
X119285037Y-81184662D01*
X119762741Y-81080069D01*
X120240422Y-80975482D01*
X120245383Y-80974499D01*
X120981629Y-80844016D01*
X121208441Y-80803819D01*
X121213421Y-80803039D01*
X122182523Y-80671150D01*
X122187537Y-80670571D01*
X123161128Y-80577681D01*
X123166157Y-80577303D01*
X124142761Y-80523557D01*
X124147787Y-80523382D01*
X124624366Y-80516312D01*
X125125696Y-80508874D01*
X125130753Y-80508900D01*
G37*
%TD.AperFunction*%
%TA.AperFunction,Conductor*%
G36*
X130657121Y-86703502D02*
G01*
X130703614Y-86757158D01*
X130715000Y-86809500D01*
X130715000Y-87206885D01*
X130719475Y-87222124D01*
X130720865Y-87223329D01*
X130728548Y-87225000D01*
X131479884Y-87225000D01*
X131518384Y-87213695D01*
X131538966Y-87200467D01*
X131609963Y-87200465D01*
X131669690Y-87238846D01*
X131690877Y-87273141D01*
X131696563Y-87286868D01*
X131701592Y-87293422D01*
X131701594Y-87293425D01*
X131723410Y-87321855D01*
X131723411Y-87321856D01*
X131790284Y-87409008D01*
X131796834Y-87414034D01*
X131796838Y-87414038D01*
X131814406Y-87427518D01*
X131826798Y-87438386D01*
X132334650Y-87946238D01*
X132368676Y-88008550D01*
X132363611Y-88079365D01*
X132321064Y-88136201D01*
X132254859Y-88160895D01*
X132250000Y-88160255D01*
X132211681Y-88165300D01*
X132211676Y-88165300D01*
X132105551Y-88179272D01*
X132097363Y-88180350D01*
X132089736Y-88183509D01*
X132089733Y-88183510D01*
X132072071Y-88190826D01*
X132014043Y-88214862D01*
X131976189Y-88230542D01*
X131941142Y-88239443D01*
X131880545Y-88245812D01*
X131835228Y-88250575D01*
X131828560Y-88252845D01*
X131679956Y-88303434D01*
X131679953Y-88303435D01*
X131673289Y-88305704D01*
X131667293Y-88309393D01*
X131667282Y-88309398D01*
X131665639Y-88310409D01*
X131664441Y-88310735D01*
X131660916Y-88312394D01*
X131660624Y-88311775D01*
X131597137Y-88329063D01*
X131529424Y-88307721D01*
X131517111Y-88298313D01*
X131492135Y-88276671D01*
X131484452Y-88275000D01*
X131412931Y-88275000D01*
X131344810Y-88254998D01*
X131337366Y-88249826D01*
X131243892Y-88179771D01*
X131243890Y-88179770D01*
X131236705Y-88174385D01*
X131222291Y-88168982D01*
X131165528Y-88126339D01*
X131140829Y-88059778D01*
X131156037Y-87990429D01*
X131206324Y-87940311D01*
X131266523Y-87925000D01*
X131479884Y-87925000D01*
X131495123Y-87920525D01*
X131496328Y-87919135D01*
X131497999Y-87911452D01*
X131497999Y-87880331D01*
X131497629Y-87873510D01*
X131492105Y-87822648D01*
X131488478Y-87807393D01*
X131483544Y-87794231D01*
X131478360Y-87723424D01*
X131483544Y-87705769D01*
X131488477Y-87692610D01*
X131492105Y-87677351D01*
X131497631Y-87626486D01*
X131498000Y-87619672D01*
X131498000Y-87593115D01*
X131493525Y-87577876D01*
X131492135Y-87576671D01*
X131484452Y-87575000D01*
X130733115Y-87575000D01*
X130717876Y-87579475D01*
X130716671Y-87580865D01*
X130715000Y-87588548D01*
X130715000Y-87906886D01*
X130729128Y-87955003D01*
X130729128Y-88025999D01*
X130690744Y-88085725D01*
X130626163Y-88115218D01*
X130608232Y-88116500D01*
X130491000Y-88116500D01*
X130422879Y-88096498D01*
X130376386Y-88042842D01*
X130365000Y-87990500D01*
X130365000Y-86809500D01*
X130385002Y-86741379D01*
X130438658Y-86694886D01*
X130491000Y-86683500D01*
X130589000Y-86683500D01*
X130657121Y-86703502D01*
G37*
%TD.AperFunction*%
%TA.AperFunction,Conductor*%
G36*
X136368539Y-85074501D02*
G01*
X136389514Y-85091404D01*
X136703168Y-85405059D01*
X136737193Y-85467371D01*
X136732128Y-85538187D01*
X136689581Y-85595022D01*
X136630518Y-85619076D01*
X136538439Y-85631197D01*
X136531974Y-85633875D01*
X136468026Y-85633875D01*
X136461561Y-85631197D01*
X136360506Y-85617893D01*
X136354012Y-85617038D01*
X136354011Y-85617038D01*
X136349925Y-85616500D01*
X136250013Y-85616500D01*
X136150076Y-85616501D01*
X136145991Y-85617039D01*
X136145987Y-85617039D01*
X136105248Y-85622402D01*
X136038439Y-85631197D01*
X136031344Y-85634136D01*
X135966418Y-85634136D01*
X135953244Y-85630606D01*
X135853981Y-85617538D01*
X135845772Y-85617000D01*
X135654228Y-85617000D01*
X135646019Y-85617538D01*
X135546761Y-85630606D01*
X135532611Y-85634397D01*
X135467389Y-85634397D01*
X135453239Y-85630606D01*
X135353981Y-85617538D01*
X135345772Y-85617000D01*
X135154228Y-85617000D01*
X135146019Y-85617538D01*
X135046758Y-85630606D01*
X135030940Y-85634844D01*
X134907418Y-85686009D01*
X134893237Y-85694196D01*
X134787165Y-85775587D01*
X134775586Y-85787167D01*
X134694198Y-85893235D01*
X134681879Y-85914572D01*
X134679822Y-85913384D01*
X134642915Y-85959180D01*
X134575550Y-85981597D01*
X134503545Y-85962062D01*
X134467231Y-85939016D01*
X134467222Y-85939012D01*
X134461282Y-85935242D01*
X134402928Y-85914463D01*
X134387754Y-85909060D01*
X134330290Y-85867366D01*
X134304490Y-85801223D01*
X134318545Y-85731632D01*
X134340926Y-85701266D01*
X134950788Y-85091404D01*
X135013100Y-85057378D01*
X135039883Y-85054499D01*
X136300418Y-85054499D01*
X136368539Y-85074501D01*
G37*
%TD.AperFunction*%
%TD*%
M02*
