%TF.GenerationSoftware,KiCad,Pcbnew,(5.1.9)-1*%
%TF.CreationDate,2022-04-02T11:09:43-04:00*%
%TF.ProjectId,Light_Sensor_schematic,4c696768-745f-4536-956e-736f725f7363,rev?*%
%TF.SameCoordinates,Original*%
%TF.FileFunction,Paste,Bot*%
%TF.FilePolarity,Positive*%
%FSLAX46Y46*%
G04 Gerber Fmt 4.6, Leading zero omitted, Abs format (unit mm)*
G04 Created by KiCad (PCBNEW (5.1.9)-1) date 2022-04-02 11:09:43*
%MOMM*%
%LPD*%
G01*
G04 APERTURE LIST*
G04 APERTURE END LIST*
%TO.C,C2*%
G36*
G01*
X137462500Y-87237500D02*
X137462500Y-86762500D01*
G75*
G02*
X137700000Y-86525000I237500J0D01*
G01*
X138300000Y-86525000D01*
G75*
G02*
X138537500Y-86762500I0J-237500D01*
G01*
X138537500Y-87237500D01*
G75*
G02*
X138300000Y-87475000I-237500J0D01*
G01*
X137700000Y-87475000D01*
G75*
G02*
X137462500Y-87237500I0J237500D01*
G01*
G37*
G36*
G01*
X135737500Y-87237500D02*
X135737500Y-86762500D01*
G75*
G02*
X135975000Y-86525000I237500J0D01*
G01*
X136575000Y-86525000D01*
G75*
G02*
X136812500Y-86762500I0J-237500D01*
G01*
X136812500Y-87237500D01*
G75*
G02*
X136575000Y-87475000I-237500J0D01*
G01*
X135975000Y-87475000D01*
G75*
G02*
X135737500Y-87237500I0J237500D01*
G01*
G37*
%TD*%
%TO.C,C4*%
G36*
G01*
X135737500Y-89237500D02*
X135737500Y-88762500D01*
G75*
G02*
X135975000Y-88525000I237500J0D01*
G01*
X136575000Y-88525000D01*
G75*
G02*
X136812500Y-88762500I0J-237500D01*
G01*
X136812500Y-89237500D01*
G75*
G02*
X136575000Y-89475000I-237500J0D01*
G01*
X135975000Y-89475000D01*
G75*
G02*
X135737500Y-89237500I0J237500D01*
G01*
G37*
G36*
G01*
X137462500Y-89237500D02*
X137462500Y-88762500D01*
G75*
G02*
X137700000Y-88525000I237500J0D01*
G01*
X138300000Y-88525000D01*
G75*
G02*
X138537500Y-88762500I0J-237500D01*
G01*
X138537500Y-89237500D01*
G75*
G02*
X138300000Y-89475000I-237500J0D01*
G01*
X137700000Y-89475000D01*
G75*
G02*
X137462500Y-89237500I0J237500D01*
G01*
G37*
%TD*%
%TO.C,C6*%
G36*
G01*
X137462500Y-91237500D02*
X137462500Y-90762500D01*
G75*
G02*
X137700000Y-90525000I237500J0D01*
G01*
X138300000Y-90525000D01*
G75*
G02*
X138537500Y-90762500I0J-237500D01*
G01*
X138537500Y-91237500D01*
G75*
G02*
X138300000Y-91475000I-237500J0D01*
G01*
X137700000Y-91475000D01*
G75*
G02*
X137462500Y-91237500I0J237500D01*
G01*
G37*
G36*
G01*
X135737500Y-91237500D02*
X135737500Y-90762500D01*
G75*
G02*
X135975000Y-90525000I237500J0D01*
G01*
X136575000Y-90525000D01*
G75*
G02*
X136812500Y-90762500I0J-237500D01*
G01*
X136812500Y-91237500D01*
G75*
G02*
X136575000Y-91475000I-237500J0D01*
G01*
X135975000Y-91475000D01*
G75*
G02*
X135737500Y-91237500I0J237500D01*
G01*
G37*
%TD*%
M02*
