%TF.GenerationSoftware,KiCad,Pcbnew,(5.1.9)-1*%
%TF.CreationDate,2022-04-02T11:09:43-04:00*%
%TF.ProjectId,Light_Sensor_schematic,4c696768-745f-4536-956e-736f725f7363,rev?*%
%TF.SameCoordinates,Original*%
%TF.FileFunction,Legend,Bot*%
%TF.FilePolarity,Positive*%
%FSLAX46Y46*%
G04 Gerber Fmt 4.6, Leading zero omitted, Abs format (unit mm)*
G04 Created by KiCad (PCBNEW (5.1.9)-1) date 2022-04-02 11:09:43*
%MOMM*%
%LPD*%
G01*
G04 APERTURE LIST*
%ADD10C,0.120000*%
%ADD11C,0.200000*%
%ADD12C,0.150000*%
%ADD13C,0.254000*%
G04 APERTURE END LIST*
D10*
%TO.C,C2*%
X136991233Y-87510000D02*
X137283767Y-87510000D01*
X136991233Y-86490000D02*
X137283767Y-86490000D01*
%TO.C,C4*%
X136991233Y-88490000D02*
X137283767Y-88490000D01*
X136991233Y-89510000D02*
X137283767Y-89510000D01*
%TO.C,C6*%
X136991233Y-91510000D02*
X137283767Y-91510000D01*
X136991233Y-90490000D02*
X137283767Y-90490000D01*
D11*
%TO.C,IC1*%
X112816870Y-110149000D02*
G75*
G03*
X112816870Y-110149000I-46870J0D01*
G01*
X109400000Y-105700000D02*
X109400000Y-110300000D01*
X112000000Y-110300000D02*
X112000000Y-105700000D01*
%TO.C,C2*%
D12*
X137304166Y-88787142D02*
X137351785Y-88834761D01*
X137494642Y-88882380D01*
X137589880Y-88882380D01*
X137732738Y-88834761D01*
X137827976Y-88739523D01*
X137875595Y-88644285D01*
X137923214Y-88453809D01*
X137923214Y-88310952D01*
X137875595Y-88120476D01*
X137827976Y-88025238D01*
X137732738Y-87930000D01*
X137589880Y-87882380D01*
X137494642Y-87882380D01*
X137351785Y-87930000D01*
X137304166Y-87977619D01*
X136923214Y-87977619D02*
X136875595Y-87930000D01*
X136780357Y-87882380D01*
X136542261Y-87882380D01*
X136447023Y-87930000D01*
X136399404Y-87977619D01*
X136351785Y-88072857D01*
X136351785Y-88168095D01*
X136399404Y-88310952D01*
X136970833Y-88882380D01*
X136351785Y-88882380D01*
%TO.C,C4*%
X137304166Y-90787142D02*
X137351785Y-90834761D01*
X137494642Y-90882380D01*
X137589880Y-90882380D01*
X137732738Y-90834761D01*
X137827976Y-90739523D01*
X137875595Y-90644285D01*
X137923214Y-90453809D01*
X137923214Y-90310952D01*
X137875595Y-90120476D01*
X137827976Y-90025238D01*
X137732738Y-89930000D01*
X137589880Y-89882380D01*
X137494642Y-89882380D01*
X137351785Y-89930000D01*
X137304166Y-89977619D01*
X136447023Y-90215714D02*
X136447023Y-90882380D01*
X136685119Y-89834761D02*
X136923214Y-90549047D01*
X136304166Y-90549047D01*
%TO.C,C6*%
X137304166Y-92787142D02*
X137351785Y-92834761D01*
X137494642Y-92882380D01*
X137589880Y-92882380D01*
X137732738Y-92834761D01*
X137827976Y-92739523D01*
X137875595Y-92644285D01*
X137923214Y-92453809D01*
X137923214Y-92310952D01*
X137875595Y-92120476D01*
X137827976Y-92025238D01*
X137732738Y-91930000D01*
X137589880Y-91882380D01*
X137494642Y-91882380D01*
X137351785Y-91930000D01*
X137304166Y-91977619D01*
X136447023Y-91882380D02*
X136637500Y-91882380D01*
X136732738Y-91930000D01*
X136780357Y-91977619D01*
X136875595Y-92120476D01*
X136923214Y-92310952D01*
X136923214Y-92691904D01*
X136875595Y-92787142D01*
X136827976Y-92834761D01*
X136732738Y-92882380D01*
X136542261Y-92882380D01*
X136447023Y-92834761D01*
X136399404Y-92787142D01*
X136351785Y-92691904D01*
X136351785Y-92453809D01*
X136399404Y-92358571D01*
X136447023Y-92310952D01*
X136542261Y-92263333D01*
X136732738Y-92263333D01*
X136827976Y-92310952D01*
X136875595Y-92358571D01*
X136923214Y-92453809D01*
%TO.C,IC1*%
D13*
X113305523Y-106911238D02*
X112035523Y-106911238D01*
X113184571Y-108241714D02*
X113245047Y-108181238D01*
X113305523Y-107999809D01*
X113305523Y-107878857D01*
X113245047Y-107697428D01*
X113124095Y-107576476D01*
X113003142Y-107516000D01*
X112761238Y-107455523D01*
X112579809Y-107455523D01*
X112337904Y-107516000D01*
X112216952Y-107576476D01*
X112096000Y-107697428D01*
X112035523Y-107878857D01*
X112035523Y-107999809D01*
X112096000Y-108181238D01*
X112156476Y-108241714D01*
X113305523Y-109451238D02*
X113305523Y-108725523D01*
X113305523Y-109088380D02*
X112035523Y-109088380D01*
X112216952Y-108967428D01*
X112337904Y-108846476D01*
X112398380Y-108725523D01*
%TD*%
M02*
