%TF.GenerationSoftware,KiCad,Pcbnew,(6.0.4)*%
%TF.CreationDate,2022-04-19T23:51:48-04:00*%
%TF.ProjectId,Light_Sensor_schematic,4c696768-745f-4536-956e-736f725f7363,rev?*%
%TF.SameCoordinates,Original*%
%TF.FileFunction,Copper,L2,Bot*%
%TF.FilePolarity,Positive*%
%FSLAX46Y46*%
G04 Gerber Fmt 4.6, Leading zero omitted, Abs format (unit mm)*
G04 Created by KiCad (PCBNEW (6.0.4)) date 2022-04-19 23:51:48*
%MOMM*%
%LPD*%
G01*
G04 APERTURE LIST*
G04 Aperture macros list*
%AMRoundRect*
0 Rectangle with rounded corners*
0 $1 Rounding radius*
0 $2 $3 $4 $5 $6 $7 $8 $9 X,Y pos of 4 corners*
0 Add a 4 corners polygon primitive as box body*
4,1,4,$2,$3,$4,$5,$6,$7,$8,$9,$2,$3,0*
0 Add four circle primitives for the rounded corners*
1,1,$1+$1,$2,$3*
1,1,$1+$1,$4,$5*
1,1,$1+$1,$6,$7*
1,1,$1+$1,$8,$9*
0 Add four rect primitives between the rounded corners*
20,1,$1+$1,$2,$3,$4,$5,0*
20,1,$1+$1,$4,$5,$6,$7,0*
20,1,$1+$1,$6,$7,$8,$9,0*
20,1,$1+$1,$8,$9,$2,$3,0*%
%AMHorizOval*
0 Thick line with rounded ends*
0 $1 width*
0 $2 $3 position (X,Y) of the first rounded end (center of the circle)*
0 $4 $5 position (X,Y) of the second rounded end (center of the circle)*
0 Add line between two ends*
20,1,$1,$2,$3,$4,$5,0*
0 Add two circle primitives to create the rounded ends*
1,1,$1,$2,$3*
1,1,$1,$4,$5*%
G04 Aperture macros list end*
%TA.AperFunction,ComponentPad*%
%ADD10C,4.400000*%
%TD*%
%TA.AperFunction,ComponentPad*%
%ADD11C,0.700000*%
%TD*%
%TA.AperFunction,ComponentPad*%
%ADD12RoundRect,0.250000X0.169710X-0.925648X0.941055X-0.006394X-0.169710X0.925648X-0.941055X0.006394X0*%
%TD*%
%TA.AperFunction,ComponentPad*%
%ADD13HorizOval,1.700000X-0.095756X0.080348X0.095756X-0.080348X0*%
%TD*%
%TA.AperFunction,ComponentPad*%
%ADD14RoundRect,0.250000X0.249739X-0.907334X0.938031X0.075648X-0.249739X0.907334X-0.938031X-0.075648X0*%
%TD*%
%TA.AperFunction,ComponentPad*%
%ADD15HorizOval,1.700000X-0.102394X0.071697X0.102394X-0.071697X0*%
%TD*%
%TA.AperFunction,SMDPad,CuDef*%
%ADD16RoundRect,0.237500X-0.300000X-0.237500X0.300000X-0.237500X0.300000X0.237500X-0.300000X0.237500X0*%
%TD*%
%TA.AperFunction,ComponentPad*%
%ADD17C,1.330000*%
%TD*%
%TA.AperFunction,ViaPad*%
%ADD18C,0.508000*%
%TD*%
%TA.AperFunction,Conductor*%
%ADD19C,0.152400*%
%TD*%
G04 APERTURE END LIST*
D10*
%TO.P,H1,1*%
%TO.N,N/C*%
X125000000Y-125000000D03*
D11*
X126166726Y-126166726D03*
X126650000Y-125000000D03*
X125000000Y-126650000D03*
X125000000Y-123350000D03*
X123350000Y-125000000D03*
X123833274Y-126166726D03*
X123833274Y-123833274D03*
X126166726Y-123833274D03*
%TD*%
%TO.P,H2,1*%
%TO.N,N/C*%
X125000000Y-86650000D03*
X123833274Y-86166726D03*
D10*
X125000000Y-85000000D03*
D11*
X125000000Y-83350000D03*
X126650000Y-85000000D03*
X123833274Y-83833274D03*
X123350000Y-85000000D03*
X126166726Y-86166726D03*
X126166726Y-83833274D03*
%TD*%
%TO.P,H3,1*%
%TO.N,N/C*%
X146166726Y-106166726D03*
D10*
X145000000Y-105000000D03*
D11*
X145000000Y-103350000D03*
X143833274Y-106166726D03*
X146650000Y-105000000D03*
X146166726Y-103833274D03*
X143833274Y-103833274D03*
X143350000Y-105000000D03*
X145000000Y-106650000D03*
%TD*%
%TO.P,H4,1*%
%TO.N,N/C*%
X106650000Y-105000000D03*
X103833274Y-106166726D03*
X106166726Y-106166726D03*
X105000000Y-103350000D03*
X103350000Y-105000000D03*
X105000000Y-106650000D03*
X103833274Y-103833274D03*
D10*
X105000000Y-105000000D03*
D11*
X106166726Y-103833274D03*
%TD*%
D12*
%TO.P,J1,1,Pin_1*%
%TO.N,GND*%
X136393031Y-120915111D03*
D13*
%TO.P,J1,2,Pin_2*%
%TO.N,Net-(J1-Pad2)*%
X138000000Y-119000000D03*
%TO.P,J1,3,Pin_3*%
%TO.N,Net-(J1-Pad3)*%
X139606969Y-117084889D03*
%TD*%
D14*
%TO.P,J3,1,Pin_1*%
%TO.N,unconnected-(J3-Pad1)*%
X106000000Y-97000000D03*
D15*
%TO.P,J3,2,Pin_2*%
%TO.N,Net-(J3-Pad2)*%
X107433941Y-94952120D03*
%TO.P,J3,3,Pin_3*%
%TO.N,unconnected-(J3-Pad3)*%
X108867882Y-92904240D03*
%TO.P,J3,4,Pin_4*%
%TO.N,GND*%
X110301823Y-90856360D03*
%TD*%
D16*
%TO.P,C2,1*%
%TO.N,VDD*%
X136275000Y-87000000D03*
%TO.P,C2,2*%
%TO.N,GND*%
X138000000Y-87000000D03*
%TD*%
%TO.P,C4,1*%
%TO.N,VDD*%
X136275000Y-89000000D03*
%TO.P,C4,2*%
%TO.N,GND*%
X138000000Y-89000000D03*
%TD*%
%TO.P,C6,1*%
%TO.N,VDD*%
X136275000Y-91000000D03*
%TO.P,C6,2*%
%TO.N,GND*%
X138000000Y-91000000D03*
%TD*%
D17*
%TO.P,IC1,1,GND*%
%TO.N,GND*%
X111000000Y-110000000D03*
%TO.P,IC1,2,VDD*%
%TO.N,/sensor_pwr*%
X111000000Y-108000000D03*
%TO.P,IC1,3,OUT*%
%TO.N,/tsl237_freq*%
X111000000Y-106000000D03*
%TD*%
D18*
%TO.N,GND*%
X138500000Y-92500000D03*
X135000000Y-85000000D03*
X120500000Y-88000000D03*
X113000000Y-88000000D03*
X142500000Y-98000000D03*
X131677096Y-86322904D03*
%TO.N,VDD*%
X133530200Y-89500000D03*
X134124909Y-86624909D03*
X127000000Y-88000000D03*
X117500000Y-89500000D03*
X137389663Y-94428336D03*
%TO.N,/TX*%
X147476201Y-97634201D03*
X133000000Y-92000000D03*
%TO.N,/RX*%
X146946001Y-101000000D03*
X132000000Y-93000000D03*
%TO.N,/NRST*%
X129500000Y-101000000D03*
X135000000Y-100000000D03*
X143500000Y-97830599D03*
X132000000Y-89000000D03*
%TO.N,/SWDIO*%
X142000000Y-88000000D03*
X139000000Y-94000000D03*
%TO.N,/SWDCLK*%
X140000000Y-93000000D03*
X141000000Y-87000000D03*
%TO.N,/SWO*%
X141000000Y-98000000D03*
X133000000Y-87000000D03*
%TD*%
D19*
%TO.N,GND*%
X138500000Y-93000000D02*
X138500000Y-92500000D01*
X142140790Y-98000000D02*
X138469799Y-94329009D01*
X138000000Y-89000000D02*
X138000000Y-90538998D01*
X138469799Y-94329009D02*
X138469799Y-93030201D01*
X138500000Y-91500000D02*
X138000000Y-91000000D01*
X138000000Y-91000000D02*
X138000000Y-89170347D01*
X138500000Y-92500000D02*
X138500000Y-91500000D01*
X133677096Y-86322904D02*
X135000000Y-85000000D01*
X138000000Y-87000000D02*
X138000000Y-91000000D01*
X131677096Y-86322904D02*
X133677096Y-86322904D01*
X138469799Y-93030201D02*
X138500000Y-93000000D01*
X142500000Y-98000000D02*
X142140790Y-98000000D01*
X120500000Y-88000000D02*
X113000000Y-88000000D01*
%TO.N,VDD*%
X134124909Y-86624909D02*
X134501028Y-86248790D01*
X136275000Y-91000000D02*
X136275000Y-93275000D01*
X133530200Y-89500000D02*
X134030200Y-90000000D01*
X137428336Y-94428336D02*
X137389663Y-94428336D01*
X134501028Y-86248790D02*
X135523790Y-86248790D01*
X136000000Y-90000000D02*
X136000000Y-89275000D01*
X125500000Y-89500000D02*
X127000000Y-88000000D01*
X135523790Y-86248790D02*
X136275000Y-87000000D01*
X136275000Y-93275000D02*
X137428336Y-94428336D01*
X117500000Y-89500000D02*
X125500000Y-89500000D01*
X136000000Y-89000000D02*
X136275000Y-89000000D01*
X134030200Y-90000000D02*
X136000000Y-90000000D01*
X136000000Y-89275000D02*
X136275000Y-89000000D01*
%TO.N,/TX*%
X147476201Y-98476201D02*
X147476201Y-97634201D01*
X135000000Y-101000000D02*
X146000000Y-101000000D01*
X133000000Y-92000000D02*
X133000000Y-99000000D01*
X146000000Y-101000000D02*
X148000000Y-99000000D01*
X133000000Y-99000000D02*
X135000000Y-101000000D01*
X148000000Y-99000000D02*
X147476201Y-98476201D01*
%TO.N,/RX*%
X131000000Y-95000000D02*
X131000000Y-94000000D01*
X146892002Y-102000000D02*
X132000000Y-102000000D01*
X128000000Y-98000000D02*
X131000000Y-95000000D01*
X146946001Y-101000000D02*
X146946001Y-101946001D01*
X131000000Y-94000000D02*
X132000000Y-93000000D01*
X132000000Y-102000000D02*
X128000000Y-98000000D01*
X146946001Y-101946001D02*
X146892002Y-102000000D01*
%TO.N,/NRST*%
X132000000Y-89000000D02*
X125500000Y-95500000D01*
X125500000Y-97000000D02*
X129500000Y-101000000D01*
X141330599Y-100000000D02*
X135000000Y-100000000D01*
X125500000Y-95500000D02*
X125500000Y-97000000D01*
X143500000Y-97830599D02*
X141330599Y-100000000D01*
%TO.N,/SWDIO*%
X146000000Y-93000000D02*
X142000000Y-89000000D01*
X142000000Y-89000000D02*
X142000000Y-88000000D01*
X146000000Y-94000000D02*
X146000000Y-93000000D01*
X139000000Y-94000000D02*
X146000000Y-94000000D01*
%TO.N,/SWDCLK*%
X145000000Y-93000000D02*
X141000000Y-89000000D01*
X141000000Y-89000000D02*
X141000000Y-87000000D01*
X140000000Y-93000000D02*
X145000000Y-93000000D01*
%TO.N,/SWO*%
X133000000Y-91000000D02*
X133000000Y-87000000D01*
X141000000Y-98000000D02*
X134000000Y-98000000D01*
X134000000Y-92000000D02*
X133000000Y-91000000D01*
X134000000Y-98000000D02*
X134000000Y-92000000D01*
%TD*%
%TA.AperFunction,Conductor*%
%TO.N,VDD*%
G36*
X125130753Y-80508900D02*
G01*
X125600726Y-80520796D01*
X126108510Y-80533649D01*
X126113529Y-80533877D01*
X126550067Y-80562489D01*
X127089465Y-80597844D01*
X127094504Y-80598276D01*
X128067086Y-80701357D01*
X128072104Y-80701991D01*
X128600071Y-80779483D01*
X129039757Y-80844018D01*
X129044718Y-80844848D01*
X129407862Y-80913136D01*
X130005945Y-81025605D01*
X130010896Y-81026640D01*
X130964031Y-81245813D01*
X130968936Y-81247045D01*
X131912525Y-81504297D01*
X131917377Y-81505725D01*
X132849874Y-81800634D01*
X132854664Y-81802255D01*
X133701229Y-82107872D01*
X133774598Y-82134359D01*
X133779320Y-82136172D01*
X134685151Y-82504913D01*
X134689796Y-82506913D01*
X135580140Y-82911729D01*
X135584701Y-82913915D01*
X135833915Y-83039529D01*
X136458042Y-83354115D01*
X136462488Y-83356467D01*
X136818605Y-83554273D01*
X137317502Y-83831386D01*
X137321873Y-83833930D01*
X138157117Y-84342765D01*
X138161383Y-84345483D01*
X138757330Y-84742179D01*
X138873593Y-84819570D01*
X138975519Y-84887418D01*
X138979667Y-84890300D01*
X139658131Y-85382329D01*
X139771422Y-85464489D01*
X139775449Y-85467535D01*
X140543532Y-86073043D01*
X140547411Y-86076229D01*
X140558934Y-86086088D01*
X140624672Y-86142334D01*
X140663429Y-86201819D01*
X140663873Y-86272814D01*
X140625864Y-86332779D01*
X140608780Y-86345390D01*
X140527588Y-86395340D01*
X140522557Y-86400267D01*
X140522554Y-86400269D01*
X140484370Y-86437662D01*
X140405366Y-86515028D01*
X140312698Y-86658820D01*
X140310287Y-86665443D01*
X140310286Y-86665446D01*
X140256600Y-86812947D01*
X140256599Y-86812952D01*
X140254190Y-86819570D01*
X140232750Y-86989286D01*
X140249443Y-87159536D01*
X140303440Y-87321856D01*
X140307087Y-87327878D01*
X140307088Y-87327880D01*
X140388407Y-87462155D01*
X140389408Y-87463807D01*
X140392056Y-87468180D01*
X140391288Y-87468645D01*
X140414845Y-87529271D01*
X140415300Y-87539970D01*
X140415300Y-88953421D01*
X140414222Y-88969867D01*
X140410255Y-89000000D01*
X140415300Y-89038319D01*
X140415300Y-89038321D01*
X140430350Y-89152637D01*
X140433510Y-89160266D01*
X140472010Y-89253213D01*
X140486035Y-89287072D01*
X140489266Y-89294873D01*
X140507096Y-89318109D01*
X140582987Y-89417013D01*
X140589537Y-89422039D01*
X140589541Y-89422043D01*
X140607109Y-89435523D01*
X140619501Y-89446391D01*
X143373315Y-92200205D01*
X143407341Y-92262517D01*
X143402276Y-92333332D01*
X143359729Y-92390168D01*
X143293209Y-92414979D01*
X143284220Y-92415300D01*
X140538383Y-92415300D01*
X140470869Y-92395686D01*
X140342316Y-92314104D01*
X140342313Y-92314102D01*
X140336373Y-92310333D01*
X140329740Y-92307971D01*
X140181854Y-92255311D01*
X140181849Y-92255310D01*
X140175219Y-92252949D01*
X140168231Y-92252116D01*
X140168228Y-92252115D01*
X140052655Y-92238334D01*
X140005357Y-92232694D01*
X139998354Y-92233430D01*
X139998353Y-92233430D01*
X139953958Y-92238096D01*
X139835228Y-92250575D01*
X139825761Y-92253798D01*
X139679956Y-92303434D01*
X139679953Y-92303435D01*
X139673289Y-92305704D01*
X139527588Y-92395340D01*
X139522557Y-92400267D01*
X139522554Y-92400269D01*
X139467082Y-92454592D01*
X139404417Y-92487963D01*
X139333658Y-92482157D01*
X139277271Y-92439018D01*
X139253709Y-92378614D01*
X139249041Y-92336997D01*
X139249041Y-92336996D01*
X139248256Y-92330000D01*
X139242721Y-92314104D01*
X139194314Y-92175097D01*
X139194313Y-92175095D01*
X139191999Y-92168450D01*
X139103846Y-92027375D01*
X139084700Y-91960606D01*
X139084700Y-91546586D01*
X139085778Y-91530139D01*
X139088668Y-91508188D01*
X139089746Y-91500000D01*
X139075967Y-91395340D01*
X139070728Y-91355547D01*
X139070727Y-91355543D01*
X139069650Y-91347363D01*
X139066492Y-91339739D01*
X139066491Y-91339735D01*
X139055591Y-91313421D01*
X139046000Y-91265204D01*
X139046000Y-90712928D01*
X139042365Y-90677892D01*
X139035919Y-90615765D01*
X139035918Y-90615761D01*
X139035207Y-90608907D01*
X138980154Y-90443893D01*
X138888616Y-90295969D01*
X138883434Y-90290796D01*
X138770684Y-90178242D01*
X138770679Y-90178238D01*
X138765503Y-90173071D01*
X138712010Y-90140097D01*
X138658803Y-90107300D01*
X138611310Y-90054528D01*
X138599886Y-89984456D01*
X138628160Y-89919332D01*
X138658616Y-89892896D01*
X138760303Y-89829970D01*
X138766531Y-89826116D01*
X138802800Y-89789784D01*
X138884258Y-89708184D01*
X138884262Y-89708179D01*
X138889429Y-89703003D01*
X138924787Y-89645642D01*
X138976869Y-89561150D01*
X138976870Y-89561148D01*
X138980709Y-89554920D01*
X139035474Y-89389809D01*
X139046000Y-89287072D01*
X139046000Y-88712928D01*
X139042692Y-88681045D01*
X139035919Y-88615765D01*
X139035918Y-88615761D01*
X139035207Y-88608907D01*
X138980154Y-88443893D01*
X138888616Y-88295969D01*
X138877167Y-88284540D01*
X138770684Y-88178242D01*
X138770679Y-88178238D01*
X138765503Y-88173071D01*
X138754391Y-88166221D01*
X138658803Y-88107300D01*
X138611310Y-88054528D01*
X138599886Y-87984456D01*
X138628160Y-87919332D01*
X138658616Y-87892896D01*
X138760303Y-87829970D01*
X138766531Y-87826116D01*
X138807794Y-87784781D01*
X138884258Y-87708184D01*
X138884262Y-87708179D01*
X138889429Y-87703003D01*
X138912580Y-87665446D01*
X138976869Y-87561150D01*
X138976870Y-87561148D01*
X138980709Y-87554920D01*
X139035474Y-87389809D01*
X139046000Y-87287072D01*
X139046000Y-86712928D01*
X139045012Y-86703406D01*
X139035919Y-86615765D01*
X139035918Y-86615761D01*
X139035207Y-86608907D01*
X139027375Y-86585430D01*
X138982472Y-86450841D01*
X138980154Y-86443893D01*
X138888616Y-86295969D01*
X138883434Y-86290796D01*
X138770684Y-86178242D01*
X138770679Y-86178238D01*
X138765503Y-86173071D01*
X138715639Y-86142334D01*
X138623650Y-86085631D01*
X138623648Y-86085630D01*
X138617420Y-86081791D01*
X138452309Y-86027026D01*
X138445473Y-86026326D01*
X138445470Y-86026325D01*
X138393974Y-86021049D01*
X138349572Y-86016500D01*
X137650428Y-86016500D01*
X137647182Y-86016837D01*
X137647178Y-86016837D01*
X137553265Y-86026581D01*
X137553261Y-86026582D01*
X137546407Y-86027293D01*
X137539871Y-86029474D01*
X137539869Y-86029474D01*
X137409319Y-86073029D01*
X137381393Y-86082346D01*
X137233469Y-86173884D01*
X137228297Y-86179065D01*
X137226227Y-86181139D01*
X137224462Y-86182105D01*
X137222559Y-86183613D01*
X137222301Y-86183287D01*
X137163946Y-86215219D01*
X137093125Y-86210218D01*
X137048030Y-86181292D01*
X137045369Y-86178636D01*
X137033960Y-86169625D01*
X136898437Y-86086088D01*
X136885259Y-86079944D01*
X136733734Y-86029685D01*
X136720368Y-86026819D01*
X136627730Y-86017328D01*
X136621315Y-86017000D01*
X136547115Y-86017000D01*
X136531876Y-86021475D01*
X136530671Y-86022865D01*
X136529000Y-86030548D01*
X136529000Y-87983000D01*
X136528895Y-87983000D01*
X136530369Y-88024254D01*
X136529000Y-88030547D01*
X136529000Y-89983000D01*
X136528895Y-89983000D01*
X136530369Y-90024254D01*
X136529000Y-90030547D01*
X136529000Y-91964885D01*
X136533475Y-91980124D01*
X136534865Y-91981329D01*
X136542548Y-91983000D01*
X136621266Y-91983000D01*
X136627782Y-91982663D01*
X136721632Y-91972925D01*
X136735028Y-91970032D01*
X136886453Y-91919512D01*
X136899615Y-91913347D01*
X137034992Y-91829574D01*
X137046394Y-91820536D01*
X137048067Y-91818861D01*
X137049493Y-91818081D01*
X137052127Y-91815993D01*
X137052484Y-91816444D01*
X137110349Y-91784781D01*
X137181169Y-91789784D01*
X137226254Y-91818701D01*
X137227125Y-91819570D01*
X137234497Y-91826929D01*
X137382580Y-91918209D01*
X137547691Y-91972974D01*
X137554527Y-91973674D01*
X137554530Y-91973675D01*
X137601870Y-91978525D01*
X137650428Y-91983500D01*
X137697388Y-91983500D01*
X137765509Y-92003502D01*
X137812002Y-92057158D01*
X137822106Y-92127432D01*
X137812371Y-92158701D01*
X137812698Y-92158820D01*
X137756600Y-92312947D01*
X137756599Y-92312952D01*
X137754190Y-92319570D01*
X137732750Y-92489286D01*
X137749443Y-92659536D01*
X137803440Y-92821856D01*
X137807087Y-92827879D01*
X137807088Y-92827880D01*
X137865983Y-92925128D01*
X137884162Y-92993758D01*
X137883129Y-93006844D01*
X137880054Y-93030201D01*
X137881132Y-93038389D01*
X137884021Y-93060334D01*
X137885099Y-93076780D01*
X137885099Y-94282431D01*
X137884021Y-94298878D01*
X137880054Y-94329009D01*
X137881132Y-94337197D01*
X137885099Y-94367328D01*
X137885099Y-94367330D01*
X137895123Y-94443467D01*
X137900149Y-94481646D01*
X137903309Y-94489276D01*
X137903310Y-94489278D01*
X137924925Y-94541461D01*
X137924926Y-94541462D01*
X137959065Y-94623882D01*
X137981277Y-94652829D01*
X138052786Y-94746022D01*
X138059336Y-94751048D01*
X138059340Y-94751052D01*
X138076908Y-94764532D01*
X138089300Y-94775400D01*
X140514105Y-97200205D01*
X140548131Y-97262517D01*
X140543066Y-97333332D01*
X140500519Y-97390168D01*
X140433999Y-97414979D01*
X140425010Y-97415300D01*
X134710700Y-97415300D01*
X134642579Y-97395298D01*
X134596086Y-97341642D01*
X134584700Y-97289300D01*
X134584700Y-92046586D01*
X134585778Y-92030139D01*
X134588668Y-92008188D01*
X134589746Y-92000000D01*
X134569650Y-91847363D01*
X134510734Y-91705128D01*
X134440543Y-91613652D01*
X134440542Y-91613651D01*
X134417013Y-91582987D01*
X134410126Y-91577702D01*
X134392898Y-91564483D01*
X134380507Y-91553616D01*
X134110657Y-91283766D01*
X135229500Y-91283766D01*
X135229837Y-91290282D01*
X135239575Y-91384132D01*
X135242468Y-91397528D01*
X135292988Y-91548953D01*
X135299153Y-91562115D01*
X135382926Y-91697492D01*
X135391960Y-91708890D01*
X135504629Y-91821363D01*
X135516040Y-91830375D01*
X135651563Y-91913912D01*
X135664741Y-91920056D01*
X135816266Y-91970315D01*
X135829632Y-91973181D01*
X135922270Y-91982672D01*
X135928685Y-91983000D01*
X136002885Y-91983000D01*
X136018124Y-91978525D01*
X136019329Y-91977135D01*
X136021000Y-91969452D01*
X136021000Y-91272115D01*
X136016525Y-91256876D01*
X136015135Y-91255671D01*
X136007452Y-91254000D01*
X135247615Y-91254000D01*
X135232376Y-91258475D01*
X135231171Y-91259865D01*
X135229500Y-91267548D01*
X135229500Y-91283766D01*
X134110657Y-91283766D01*
X134079840Y-91252949D01*
X133621605Y-90794715D01*
X133587580Y-90732402D01*
X133587094Y-90727885D01*
X135229500Y-90727885D01*
X135233975Y-90743124D01*
X135235365Y-90744329D01*
X135243048Y-90746000D01*
X136002885Y-90746000D01*
X136018124Y-90741525D01*
X136019329Y-90740135D01*
X136021000Y-90732452D01*
X136021000Y-90017000D01*
X136021105Y-90017000D01*
X136019631Y-89975746D01*
X136021000Y-89969453D01*
X136021000Y-89272115D01*
X136016525Y-89256876D01*
X136015135Y-89255671D01*
X136007452Y-89254000D01*
X135247615Y-89254000D01*
X135232376Y-89258475D01*
X135231171Y-89259865D01*
X135229500Y-89267548D01*
X135229500Y-89283766D01*
X135229837Y-89290282D01*
X135239575Y-89384132D01*
X135242468Y-89397528D01*
X135292988Y-89548953D01*
X135299153Y-89562115D01*
X135382926Y-89697492D01*
X135391960Y-89708890D01*
X135504629Y-89821363D01*
X135516043Y-89830377D01*
X135617149Y-89892699D01*
X135664643Y-89945470D01*
X135676067Y-90015542D01*
X135647793Y-90080666D01*
X135617337Y-90107103D01*
X135515010Y-90170425D01*
X135503610Y-90179460D01*
X135391137Y-90292129D01*
X135382125Y-90303540D01*
X135298588Y-90439063D01*
X135292444Y-90452241D01*
X135242185Y-90603766D01*
X135239319Y-90617132D01*
X135229828Y-90709770D01*
X135229500Y-90716185D01*
X135229500Y-90727885D01*
X133587094Y-90727885D01*
X133584700Y-90705619D01*
X133584700Y-88727885D01*
X135229500Y-88727885D01*
X135233975Y-88743124D01*
X135235365Y-88744329D01*
X135243048Y-88746000D01*
X136002885Y-88746000D01*
X136018124Y-88741525D01*
X136019329Y-88740135D01*
X136021000Y-88732452D01*
X136021000Y-88017000D01*
X136021105Y-88017000D01*
X136019631Y-87975746D01*
X136021000Y-87969453D01*
X136021000Y-87272115D01*
X136016525Y-87256876D01*
X136015135Y-87255671D01*
X136007452Y-87254000D01*
X135247615Y-87254000D01*
X135232376Y-87258475D01*
X135231171Y-87259865D01*
X135229500Y-87267548D01*
X135229500Y-87283766D01*
X135229837Y-87290282D01*
X135239575Y-87384132D01*
X135242468Y-87397528D01*
X135292988Y-87548953D01*
X135299153Y-87562115D01*
X135382926Y-87697492D01*
X135391960Y-87708890D01*
X135504629Y-87821363D01*
X135516043Y-87830377D01*
X135617149Y-87892699D01*
X135664643Y-87945470D01*
X135676067Y-88015542D01*
X135647793Y-88080666D01*
X135617337Y-88107103D01*
X135515010Y-88170425D01*
X135503610Y-88179460D01*
X135391137Y-88292129D01*
X135382125Y-88303540D01*
X135298588Y-88439063D01*
X135292444Y-88452241D01*
X135242185Y-88603766D01*
X135239319Y-88617132D01*
X135229828Y-88709770D01*
X135229500Y-88716185D01*
X135229500Y-88727885D01*
X133584700Y-88727885D01*
X133584700Y-87535942D01*
X133605752Y-87466215D01*
X133655293Y-87391649D01*
X133682471Y-87350743D01*
X133737120Y-87206880D01*
X133740718Y-87197408D01*
X133740719Y-87197406D01*
X133743218Y-87190826D01*
X133747616Y-87159536D01*
X133766475Y-87025347D01*
X133766475Y-87025344D01*
X133767026Y-87021425D01*
X133767313Y-87000847D01*
X133788263Y-86933013D01*
X133845083Y-86886196D01*
X133946723Y-86844095D01*
X133964340Y-86836798D01*
X133971969Y-86833638D01*
X134050961Y-86773025D01*
X134094109Y-86739917D01*
X134103342Y-86727885D01*
X135229500Y-86727885D01*
X135233975Y-86743124D01*
X135235365Y-86744329D01*
X135243048Y-86746000D01*
X136002885Y-86746000D01*
X136018124Y-86741525D01*
X136019329Y-86740135D01*
X136021000Y-86732452D01*
X136021000Y-86035115D01*
X136016525Y-86019876D01*
X136015135Y-86018671D01*
X136007452Y-86017000D01*
X135928734Y-86017000D01*
X135922218Y-86017337D01*
X135828368Y-86027075D01*
X135814972Y-86029968D01*
X135663547Y-86080488D01*
X135650385Y-86086653D01*
X135515008Y-86170426D01*
X135503610Y-86179460D01*
X135391137Y-86292129D01*
X135382125Y-86303540D01*
X135298588Y-86439063D01*
X135292444Y-86452241D01*
X135242185Y-86603766D01*
X135239319Y-86617132D01*
X135229828Y-86709770D01*
X135229500Y-86716185D01*
X135229500Y-86727885D01*
X134103342Y-86727885D01*
X134112616Y-86715798D01*
X134123484Y-86703406D01*
X135035072Y-85791819D01*
X135097384Y-85757794D01*
X135112747Y-85755434D01*
X135147273Y-85752292D01*
X135147275Y-85752292D01*
X135154292Y-85751653D01*
X135160990Y-85749477D01*
X135160993Y-85749476D01*
X135310289Y-85700966D01*
X135310291Y-85700965D01*
X135316985Y-85698790D01*
X135420626Y-85637008D01*
X135457872Y-85614805D01*
X135457874Y-85614804D01*
X135463924Y-85611197D01*
X135587805Y-85493227D01*
X135604872Y-85467540D01*
X135678570Y-85356614D01*
X135682471Y-85350743D01*
X135743218Y-85190826D01*
X135762051Y-85056826D01*
X135766475Y-85025347D01*
X135766475Y-85025344D01*
X135767026Y-85021425D01*
X135767325Y-85000000D01*
X135748256Y-84830000D01*
X135718154Y-84743556D01*
X135694314Y-84675097D01*
X135694313Y-84675095D01*
X135691999Y-84668450D01*
X135601348Y-84523378D01*
X135588159Y-84510096D01*
X135485772Y-84406992D01*
X135480809Y-84401994D01*
X135387478Y-84342765D01*
X135342316Y-84314104D01*
X135342313Y-84314102D01*
X135336373Y-84310333D01*
X135329740Y-84307971D01*
X135181854Y-84255311D01*
X135181849Y-84255310D01*
X135175219Y-84252949D01*
X135168231Y-84252116D01*
X135168228Y-84252115D01*
X135052655Y-84238334D01*
X135005357Y-84232694D01*
X134998354Y-84233430D01*
X134998353Y-84233430D01*
X134953958Y-84238096D01*
X134835228Y-84250575D01*
X134825071Y-84254033D01*
X134679956Y-84303434D01*
X134679953Y-84303435D01*
X134673289Y-84305704D01*
X134527588Y-84395340D01*
X134522557Y-84400267D01*
X134522554Y-84400269D01*
X134515689Y-84406992D01*
X134405366Y-84515028D01*
X134401547Y-84520953D01*
X134401546Y-84520955D01*
X134396135Y-84529352D01*
X134312698Y-84658820D01*
X134310287Y-84665443D01*
X134310286Y-84665446D01*
X134256599Y-84812951D01*
X134254190Y-84819570D01*
X134245620Y-84887418D01*
X134245232Y-84890486D01*
X134216850Y-84955563D01*
X134209320Y-84963790D01*
X133471811Y-85701299D01*
X133409499Y-85735325D01*
X133382716Y-85738204D01*
X132215479Y-85738204D01*
X132147965Y-85718590D01*
X132019412Y-85637008D01*
X132019409Y-85637006D01*
X132013469Y-85633237D01*
X132006836Y-85630875D01*
X131858950Y-85578215D01*
X131858945Y-85578214D01*
X131852315Y-85575853D01*
X131845327Y-85575020D01*
X131845324Y-85575019D01*
X131729751Y-85561238D01*
X131682453Y-85555598D01*
X131675450Y-85556334D01*
X131675449Y-85556334D01*
X131631054Y-85561000D01*
X131512324Y-85573479D01*
X131502167Y-85576937D01*
X131357052Y-85626338D01*
X131357049Y-85626339D01*
X131350385Y-85628608D01*
X131204684Y-85718244D01*
X131199653Y-85723171D01*
X131199650Y-85723173D01*
X131162485Y-85759568D01*
X131082462Y-85837932D01*
X130989794Y-85981724D01*
X130987383Y-85988347D01*
X130987382Y-85988350D01*
X130933696Y-86135851D01*
X130933695Y-86135856D01*
X130931286Y-86142474D01*
X130909846Y-86312190D01*
X130926539Y-86482440D01*
X130980536Y-86644760D01*
X130984183Y-86650782D01*
X130984184Y-86650784D01*
X131065502Y-86785058D01*
X131065505Y-86785061D01*
X131069152Y-86791084D01*
X131187985Y-86914138D01*
X131193881Y-86917996D01*
X131320492Y-87000848D01*
X131331126Y-87007807D01*
X131337730Y-87010263D01*
X131337732Y-87010264D01*
X131484853Y-87064978D01*
X131484855Y-87064978D01*
X131491463Y-87067436D01*
X131570550Y-87077989D01*
X131654045Y-87089130D01*
X131654049Y-87089130D01*
X131661026Y-87090061D01*
X131668037Y-87089423D01*
X131668041Y-87089423D01*
X131824369Y-87075196D01*
X131824371Y-87075196D01*
X131831388Y-87074557D01*
X131838086Y-87072381D01*
X131838089Y-87072380D01*
X131987385Y-87023870D01*
X131987387Y-87023869D01*
X131994081Y-87021694D01*
X132052031Y-86987149D01*
X132120786Y-86969449D01*
X132188195Y-86991731D01*
X132232857Y-87046920D01*
X132241947Y-87083082D01*
X132249443Y-87159536D01*
X132303440Y-87321856D01*
X132307087Y-87327878D01*
X132307088Y-87327880D01*
X132388407Y-87462155D01*
X132389408Y-87463807D01*
X132392056Y-87468180D01*
X132391288Y-87468645D01*
X132414845Y-87529271D01*
X132415300Y-87539970D01*
X132415300Y-88159822D01*
X132395298Y-88227943D01*
X132341642Y-88274436D01*
X132271368Y-88284540D01*
X132247036Y-88278522D01*
X132209034Y-88264990D01*
X132181853Y-88255311D01*
X132181851Y-88255311D01*
X132175219Y-88252949D01*
X132168231Y-88252116D01*
X132168228Y-88252115D01*
X132052655Y-88238334D01*
X132005357Y-88232694D01*
X131998354Y-88233430D01*
X131998353Y-88233430D01*
X131953958Y-88238096D01*
X131835228Y-88250575D01*
X131825071Y-88254033D01*
X131679956Y-88303434D01*
X131679953Y-88303435D01*
X131673289Y-88305704D01*
X131527588Y-88395340D01*
X131522557Y-88400267D01*
X131522554Y-88400269D01*
X131484370Y-88437662D01*
X131405366Y-88515028D01*
X131312698Y-88658820D01*
X131310287Y-88665443D01*
X131310286Y-88665446D01*
X131256600Y-88812947D01*
X131256599Y-88812952D01*
X131254190Y-88819570D01*
X131253307Y-88826562D01*
X131245231Y-88890487D01*
X131216849Y-88955564D01*
X131209320Y-88963790D01*
X125119497Y-95053613D01*
X125107106Y-95064480D01*
X125082987Y-95082987D01*
X125029543Y-95152637D01*
X124989266Y-95205127D01*
X124989266Y-95205128D01*
X124983226Y-95219710D01*
X124983225Y-95219711D01*
X124949378Y-95301426D01*
X124930350Y-95347363D01*
X124916585Y-95451918D01*
X124910255Y-95500000D01*
X124911333Y-95508188D01*
X124914222Y-95530133D01*
X124915300Y-95546579D01*
X124915300Y-96953422D01*
X124914222Y-96969869D01*
X124910255Y-97000000D01*
X124911333Y-97008188D01*
X124915300Y-97038319D01*
X124915300Y-97038321D01*
X124928686Y-97139994D01*
X124930350Y-97152637D01*
X124971901Y-97252949D01*
X124989266Y-97294873D01*
X125023379Y-97339329D01*
X125082987Y-97417013D01*
X125089537Y-97422039D01*
X125089541Y-97422043D01*
X125107109Y-97435523D01*
X125119501Y-97446391D01*
X128708496Y-101035386D01*
X128742522Y-101097698D01*
X128744800Y-101112185D01*
X128749443Y-101159536D01*
X128803440Y-101321856D01*
X128807087Y-101327878D01*
X128807088Y-101327880D01*
X128888406Y-101462154D01*
X128888409Y-101462157D01*
X128892056Y-101468180D01*
X129010889Y-101591234D01*
X129154030Y-101684903D01*
X129160634Y-101687359D01*
X129160636Y-101687360D01*
X129307757Y-101742074D01*
X129307759Y-101742074D01*
X129314367Y-101744532D01*
X129393454Y-101755085D01*
X129476949Y-101766226D01*
X129476953Y-101766226D01*
X129483930Y-101767157D01*
X129490941Y-101766519D01*
X129490945Y-101766519D01*
X129647273Y-101752292D01*
X129647275Y-101752292D01*
X129654292Y-101751653D01*
X129660990Y-101749477D01*
X129660993Y-101749476D01*
X129810289Y-101700966D01*
X129810291Y-101700965D01*
X129816985Y-101698790D01*
X129963924Y-101611197D01*
X130087805Y-101493227D01*
X130101079Y-101473249D01*
X130178570Y-101356614D01*
X130182471Y-101350743D01*
X130207288Y-101285412D01*
X130250177Y-101228834D01*
X130316845Y-101204425D01*
X130386127Y-101219935D01*
X130414171Y-101241061D01*
X131553613Y-102380503D01*
X131564480Y-102392894D01*
X131582987Y-102417013D01*
X131647839Y-102466775D01*
X131705127Y-102510734D01*
X131749274Y-102529020D01*
X131847363Y-102569650D01*
X131906635Y-102577453D01*
X131961676Y-102584700D01*
X131961681Y-102584700D01*
X132000000Y-102589745D01*
X132008188Y-102588667D01*
X132030133Y-102585778D01*
X132046579Y-102584700D01*
X143326942Y-102584700D01*
X143395063Y-102604702D01*
X143441556Y-102658358D01*
X143451660Y-102728632D01*
X143422166Y-102793212D01*
X143403907Y-102810461D01*
X143219260Y-102952916D01*
X143216244Y-102955243D01*
X142983513Y-103184347D01*
X142981149Y-103187314D01*
X142981146Y-103187317D01*
X142964220Y-103208558D01*
X142779991Y-103439751D01*
X142608626Y-103717757D01*
X142471902Y-104014336D01*
X142470741Y-104017940D01*
X142470741Y-104017941D01*
X142462196Y-104044477D01*
X142371797Y-104325192D01*
X142371079Y-104328903D01*
X142371078Y-104328907D01*
X142310482Y-104642105D01*
X142310481Y-104642114D01*
X142309763Y-104645824D01*
X142309496Y-104649600D01*
X142309495Y-104649605D01*
X142288013Y-104953006D01*
X142286698Y-104971585D01*
X142302936Y-105297759D01*
X142303577Y-105301490D01*
X142303578Y-105301498D01*
X142350140Y-105572472D01*
X142358241Y-105619619D01*
X142359329Y-105623258D01*
X142359330Y-105623261D01*
X142400436Y-105760707D01*
X142451814Y-105932504D01*
X142453327Y-105935975D01*
X142453329Y-105935981D01*
X142481232Y-106000000D01*
X142582297Y-106231881D01*
X142584220Y-106235152D01*
X142584222Y-106235156D01*
X142626584Y-106307215D01*
X142747802Y-106513414D01*
X142750103Y-106516429D01*
X142943631Y-106770012D01*
X142943636Y-106770017D01*
X142945931Y-106773025D01*
X143007931Y-106836670D01*
X143127533Y-106959444D01*
X143173814Y-107006953D01*
X143245896Y-107065012D01*
X143425196Y-107209431D01*
X143425201Y-107209435D01*
X143428149Y-107211809D01*
X143705253Y-107384627D01*
X144001112Y-107522903D01*
X144004721Y-107524086D01*
X144185105Y-107583219D01*
X144311440Y-107624634D01*
X144631742Y-107688346D01*
X144635514Y-107688633D01*
X144635522Y-107688634D01*
X144953602Y-107712829D01*
X144953607Y-107712829D01*
X144957379Y-107713116D01*
X145283633Y-107698586D01*
X145289844Y-107697552D01*
X145602037Y-107645590D01*
X145602042Y-107645589D01*
X145605778Y-107644967D01*
X145919149Y-107553034D01*
X145922616Y-107551544D01*
X145922620Y-107551543D01*
X146215721Y-107425616D01*
X146215723Y-107425615D01*
X146219205Y-107424119D01*
X146501601Y-107260091D01*
X146762245Y-107063324D01*
X146997363Y-106836670D01*
X147135069Y-106667525D01*
X147201155Y-106586351D01*
X147201158Y-106586347D01*
X147203549Y-106583410D01*
X147320126Y-106398647D01*
X147375788Y-106310428D01*
X147375790Y-106310425D01*
X147377815Y-106307215D01*
X147517638Y-106012084D01*
X147521670Y-106000000D01*
X147619790Y-105705897D01*
X147619792Y-105705891D01*
X147620992Y-105702293D01*
X147686381Y-105382329D01*
X147687934Y-105363246D01*
X147712674Y-105059061D01*
X147712856Y-105056826D01*
X147713451Y-105000000D01*
X147711510Y-104967796D01*
X147694026Y-104677793D01*
X147694026Y-104677789D01*
X147693798Y-104674015D01*
X147688650Y-104645824D01*
X147635805Y-104356473D01*
X147635804Y-104356469D01*
X147635125Y-104352751D01*
X147627722Y-104328907D01*
X147539404Y-104044477D01*
X147538282Y-104040863D01*
X147404670Y-103742869D01*
X147236226Y-103463084D01*
X147233899Y-103460100D01*
X147233894Y-103460093D01*
X147037726Y-103208558D01*
X147037724Y-103208556D01*
X147035390Y-103205563D01*
X146805070Y-102974034D01*
X146778282Y-102952916D01*
X146596550Y-102809650D01*
X146555437Y-102751769D01*
X146552143Y-102680849D01*
X146587715Y-102619406D01*
X146650858Y-102586949D01*
X146674556Y-102584700D01*
X146845424Y-102584700D01*
X146861871Y-102585778D01*
X146892002Y-102589745D01*
X146930321Y-102584700D01*
X146930326Y-102584700D01*
X147036451Y-102570728D01*
X147044639Y-102569650D01*
X147145215Y-102527990D01*
X147186875Y-102510734D01*
X147244163Y-102466775D01*
X147309015Y-102417013D01*
X147314041Y-102410463D01*
X147314044Y-102410460D01*
X147322362Y-102399619D01*
X147345623Y-102376358D01*
X147363014Y-102363014D01*
X147453901Y-102244567D01*
X147456735Y-102240874D01*
X147493284Y-102152637D01*
X147515651Y-102098638D01*
X147519743Y-102067560D01*
X147530701Y-101984322D01*
X147530701Y-101984320D01*
X147534668Y-101954189D01*
X147535746Y-101946001D01*
X147531779Y-101915868D01*
X147530701Y-101899422D01*
X147530701Y-101535942D01*
X147551753Y-101466215D01*
X147624571Y-101356614D01*
X147628472Y-101350743D01*
X147674781Y-101228834D01*
X147686719Y-101197408D01*
X147686720Y-101197406D01*
X147689219Y-101190826D01*
X147693617Y-101159536D01*
X147712476Y-101025347D01*
X147712476Y-101025344D01*
X147713027Y-101021425D01*
X147713326Y-101000000D01*
X147694257Y-100830000D01*
X147638000Y-100668450D01*
X147547349Y-100523378D01*
X147517570Y-100493390D01*
X147514331Y-100490128D01*
X147480523Y-100427698D01*
X147485835Y-100356900D01*
X147514641Y-100312249D01*
X148380499Y-99446391D01*
X148392891Y-99435523D01*
X148410464Y-99422039D01*
X148410467Y-99422036D01*
X148417013Y-99417013D01*
X148428538Y-99401994D01*
X148446646Y-99378395D01*
X148510734Y-99294873D01*
X148556011Y-99185565D01*
X148600560Y-99130285D01*
X148667923Y-99107864D01*
X148736714Y-99125422D01*
X148785093Y-99177385D01*
X148795360Y-99206188D01*
X148864677Y-99515028D01*
X148999268Y-100114696D01*
X149000277Y-100119652D01*
X149175996Y-101081795D01*
X149176804Y-101086787D01*
X149313760Y-102055155D01*
X149314368Y-102060176D01*
X149367792Y-102590722D01*
X149404498Y-102955243D01*
X149412356Y-103033283D01*
X149412761Y-103038312D01*
X149455041Y-103739611D01*
X149471618Y-104014586D01*
X149471820Y-104019625D01*
X149488723Y-104861630D01*
X149491462Y-104998092D01*
X149491480Y-105001919D01*
X149489476Y-105193292D01*
X149486149Y-105510984D01*
X149486050Y-105514832D01*
X149445921Y-106492649D01*
X149445612Y-106497697D01*
X149366326Y-107472499D01*
X149365815Y-107477530D01*
X149267923Y-108280591D01*
X149247472Y-108448358D01*
X149246761Y-108453354D01*
X149089548Y-109418686D01*
X149088635Y-109423661D01*
X148892810Y-110381887D01*
X148891698Y-110386821D01*
X148657577Y-111336413D01*
X148656268Y-111341298D01*
X148384228Y-112280726D01*
X148382724Y-112285553D01*
X148314742Y-112489324D01*
X148073199Y-113213318D01*
X148071502Y-113218083D01*
X147724999Y-114132661D01*
X147723113Y-114137353D01*
X147340173Y-115037320D01*
X147338109Y-115041911D01*
X146979139Y-115799607D01*
X146919378Y-115925747D01*
X146917122Y-115930273D01*
X146743342Y-116261979D01*
X146522271Y-116683952D01*
X146463234Y-116796639D01*
X146460801Y-116801064D01*
X146264168Y-117142330D01*
X145972528Y-117648484D01*
X145969916Y-117652814D01*
X145756260Y-117991439D01*
X145448032Y-118479950D01*
X145445248Y-118484173D01*
X144890569Y-119289730D01*
X144887617Y-119293837D01*
X144301075Y-120076458D01*
X144297961Y-120080443D01*
X143680498Y-120838878D01*
X143677227Y-120842736D01*
X143029802Y-121575806D01*
X143026385Y-121579523D01*
X142874381Y-121738308D01*
X142350048Y-122286033D01*
X142346478Y-122289615D01*
X142174267Y-122455627D01*
X141655996Y-122955243D01*
X141642366Y-122968382D01*
X141638659Y-122971815D01*
X141066436Y-123480753D01*
X140907836Y-123621812D01*
X140903995Y-123625092D01*
X140760355Y-123742869D01*
X140147716Y-124245201D01*
X140143742Y-124248329D01*
X139991295Y-124363415D01*
X139376353Y-124827650D01*
X139363162Y-124837608D01*
X139359065Y-124840574D01*
X138555448Y-125398062D01*
X138551235Y-125400860D01*
X138213080Y-125615874D01*
X137725936Y-125925621D01*
X137721629Y-125928240D01*
X136875896Y-126419481D01*
X136871473Y-126421933D01*
X136560285Y-126586351D01*
X136081532Y-126839303D01*
X136006726Y-126878827D01*
X136002217Y-126881094D01*
X135186124Y-127271226D01*
X135119842Y-127302912D01*
X135115241Y-127305000D01*
X134222309Y-127688634D01*
X134216625Y-127691076D01*
X134211948Y-127692975D01*
X134159784Y-127712947D01*
X133298555Y-128042679D01*
X133293796Y-128044392D01*
X132367133Y-128357150D01*
X132362309Y-128358671D01*
X131423836Y-128633988D01*
X131418956Y-128635314D01*
X131203861Y-128689143D01*
X130470163Y-128872755D01*
X130465269Y-128873876D01*
X130033457Y-128963693D01*
X129507714Y-129073047D01*
X129502743Y-129073977D01*
X128537991Y-129234556D01*
X128532986Y-129235286D01*
X127562577Y-129357017D01*
X127557547Y-129357546D01*
X127073676Y-129398603D01*
X126583001Y-129440237D01*
X126577960Y-129440563D01*
X125600917Y-129484076D01*
X125595864Y-129484200D01*
X125281066Y-129485574D01*
X124617819Y-129488468D01*
X124612762Y-129488388D01*
X124495762Y-129484200D01*
X123635373Y-129453402D01*
X123630346Y-129453122D01*
X123210634Y-129421195D01*
X122655109Y-129378937D01*
X122650075Y-129378452D01*
X121678645Y-129265195D01*
X121673634Y-129264509D01*
X120707502Y-129112353D01*
X120702523Y-129111466D01*
X119743294Y-128920663D01*
X119738354Y-128919577D01*
X118787532Y-128690427D01*
X118782640Y-128689143D01*
X117841830Y-128422034D01*
X117836993Y-128420556D01*
X116907599Y-128115885D01*
X116902826Y-128114213D01*
X115986449Y-127772505D01*
X115981746Y-127770643D01*
X115400749Y-127527011D01*
X115079798Y-127392425D01*
X115075197Y-127390386D01*
X114189140Y-126976269D01*
X114184612Y-126974041D01*
X113315898Y-126524704D01*
X113311478Y-126522304D01*
X112461499Y-126038466D01*
X112457158Y-126035879D01*
X112419004Y-126012084D01*
X111627262Y-125518309D01*
X111623061Y-125515570D01*
X110824113Y-124971585D01*
X122286698Y-124971585D01*
X122302936Y-125297759D01*
X122303577Y-125301490D01*
X122303578Y-125301498D01*
X122340835Y-125518320D01*
X122358241Y-125619619D01*
X122359329Y-125623258D01*
X122359330Y-125623261D01*
X122450539Y-125928240D01*
X122451814Y-125932504D01*
X122453327Y-125935975D01*
X122453329Y-125935981D01*
X122542868Y-126141416D01*
X122582297Y-126231881D01*
X122584220Y-126235152D01*
X122584222Y-126235156D01*
X122626584Y-126307215D01*
X122747802Y-126513414D01*
X122750103Y-126516429D01*
X122943631Y-126770012D01*
X122943636Y-126770017D01*
X122945931Y-126773025D01*
X123173814Y-127006953D01*
X123246635Y-127065607D01*
X123425196Y-127209431D01*
X123425201Y-127209435D01*
X123428149Y-127211809D01*
X123705253Y-127384627D01*
X124001112Y-127522903D01*
X124311440Y-127624634D01*
X124631742Y-127688346D01*
X124635514Y-127688633D01*
X124635522Y-127688634D01*
X124953602Y-127712829D01*
X124953607Y-127712829D01*
X124957379Y-127713116D01*
X125283633Y-127698586D01*
X125317320Y-127692979D01*
X125602037Y-127645590D01*
X125602042Y-127645589D01*
X125605778Y-127644967D01*
X125919149Y-127553034D01*
X125922616Y-127551544D01*
X125922620Y-127551543D01*
X126215721Y-127425616D01*
X126215723Y-127425615D01*
X126219205Y-127424119D01*
X126501601Y-127260091D01*
X126762245Y-127063324D01*
X126997363Y-126836670D01*
X127203549Y-126583410D01*
X127240586Y-126524710D01*
X127375788Y-126310428D01*
X127375790Y-126310425D01*
X127377815Y-126307215D01*
X127517638Y-126012084D01*
X127544188Y-125932504D01*
X127619790Y-125705897D01*
X127619792Y-125705891D01*
X127620992Y-125702293D01*
X127686381Y-125382329D01*
X127692956Y-125301498D01*
X127712674Y-125059061D01*
X127712856Y-125056826D01*
X127713451Y-125000000D01*
X127711510Y-124967796D01*
X127694026Y-124677793D01*
X127694026Y-124677789D01*
X127693798Y-124674015D01*
X127688650Y-124645824D01*
X127645895Y-124411724D01*
X127635125Y-124352751D01*
X127627722Y-124328907D01*
X127539404Y-124044477D01*
X127538282Y-124040863D01*
X127404670Y-123742869D01*
X127236226Y-123463084D01*
X127233899Y-123460100D01*
X127233894Y-123460093D01*
X127037726Y-123208558D01*
X127037724Y-123208556D01*
X127035390Y-123205563D01*
X126805070Y-122974034D01*
X126548603Y-122771852D01*
X126269705Y-122601945D01*
X126266261Y-122600379D01*
X126266257Y-122600377D01*
X126111655Y-122530084D01*
X125972414Y-122466775D01*
X125661037Y-122368300D01*
X125443492Y-122327390D01*
X125343809Y-122308645D01*
X125343807Y-122308645D01*
X125340086Y-122307945D01*
X125014208Y-122286586D01*
X125010428Y-122286794D01*
X125010427Y-122286794D01*
X124912897Y-122292162D01*
X124688124Y-122304532D01*
X124684397Y-122305193D01*
X124684393Y-122305193D01*
X124527340Y-122333027D01*
X124366557Y-122361522D01*
X124362941Y-122362624D01*
X124362933Y-122362626D01*
X124079687Y-122448953D01*
X124054167Y-122456731D01*
X123755477Y-122588781D01*
X123730041Y-122603914D01*
X123478074Y-122753817D01*
X123478068Y-122753821D01*
X123474814Y-122755757D01*
X123471812Y-122758073D01*
X123318018Y-122876725D01*
X123216244Y-122955243D01*
X123201106Y-122970145D01*
X123011330Y-123156964D01*
X122983513Y-123184347D01*
X122981149Y-123187314D01*
X122981146Y-123187317D01*
X122782356Y-123436783D01*
X122779991Y-123439751D01*
X122608626Y-123717757D01*
X122471902Y-124014336D01*
X122470741Y-124017940D01*
X122470741Y-124017941D01*
X122462196Y-124044477D01*
X122371797Y-124325192D01*
X122371079Y-124328903D01*
X122371078Y-124328907D01*
X122310482Y-124642105D01*
X122310481Y-124642114D01*
X122309763Y-124645824D01*
X122286698Y-124971585D01*
X110824113Y-124971585D01*
X110814619Y-124965121D01*
X110810544Y-124962226D01*
X110024814Y-124379755D01*
X110020817Y-124376666D01*
X109929966Y-124303489D01*
X109259124Y-123763153D01*
X109255258Y-123759909D01*
X109207024Y-123717757D01*
X108518813Y-123116334D01*
X108515078Y-123112936D01*
X108457468Y-123058361D01*
X107977743Y-122603914D01*
X107805056Y-122440326D01*
X107801455Y-122436775D01*
X107118998Y-121736214D01*
X107115542Y-121732521D01*
X106461746Y-121005131D01*
X106458441Y-121001302D01*
X106364041Y-120887394D01*
X134688610Y-120887394D01*
X134689254Y-120894683D01*
X134689254Y-120894687D01*
X134694149Y-120950074D01*
X134704179Y-121063578D01*
X134759862Y-121231456D01*
X134763701Y-121237684D01*
X134763702Y-121237686D01*
X134845540Y-121370451D01*
X134852671Y-121382020D01*
X134925813Y-121457365D01*
X136091505Y-122435496D01*
X136107542Y-122448953D01*
X136146869Y-122508063D01*
X136147995Y-122579051D01*
X136121718Y-122628053D01*
X135990108Y-122779720D01*
X135987108Y-122784906D01*
X135987105Y-122784910D01*
X135948985Y-122850803D01*
X135884187Y-122962811D01*
X135814799Y-123162628D01*
X135813938Y-123168563D01*
X135813938Y-123168565D01*
X135808574Y-123205563D01*
X135784447Y-123371961D01*
X135794227Y-123583256D01*
X135795631Y-123589081D01*
X135795631Y-123589082D01*
X135832694Y-123742869D01*
X135843785Y-123788891D01*
X135846267Y-123794349D01*
X135846268Y-123794353D01*
X135889713Y-123889903D01*
X135931334Y-123981444D01*
X136053714Y-124153968D01*
X136206510Y-124300238D01*
X136384208Y-124414977D01*
X136389774Y-124417220D01*
X136574828Y-124491799D01*
X136574831Y-124491800D01*
X136580397Y-124494043D01*
X136787997Y-124534585D01*
X136793559Y-124534857D01*
X136949506Y-124534857D01*
X137107226Y-124519809D01*
X137310194Y-124460265D01*
X137393771Y-124417220D01*
X137492909Y-124366161D01*
X137492912Y-124366159D01*
X137498240Y-124363415D01*
X137664580Y-124232753D01*
X137668512Y-124228222D01*
X137668515Y-124228219D01*
X137799281Y-124077524D01*
X137803212Y-124072994D01*
X137806212Y-124067808D01*
X137806215Y-124067804D01*
X137906127Y-123895099D01*
X137909133Y-123889903D01*
X137978521Y-123690086D01*
X137988178Y-123623483D01*
X138008012Y-123486693D01*
X138008012Y-123486690D01*
X138008873Y-123480753D01*
X137999093Y-123269458D01*
X137949535Y-123063823D01*
X137909932Y-122976720D01*
X137864466Y-122876725D01*
X137861986Y-122871270D01*
X137739606Y-122698746D01*
X137586810Y-122552476D01*
X137409112Y-122437737D01*
X137303221Y-122395062D01*
X137247515Y-122351047D01*
X137224449Y-122283902D01*
X137241346Y-122214945D01*
X137253798Y-122197205D01*
X137945433Y-121372947D01*
X137945437Y-121372942D01*
X137947527Y-121370451D01*
X137949348Y-121367759D01*
X137949354Y-121367751D01*
X138003242Y-121288087D01*
X138003243Y-121288086D01*
X138007105Y-121282376D01*
X138072072Y-121117868D01*
X138097452Y-120942828D01*
X138092554Y-120887394D01*
X138082527Y-120773936D01*
X138081883Y-120766644D01*
X138028020Y-120604253D01*
X138025559Y-120533301D01*
X138061849Y-120472280D01*
X138125369Y-120440566D01*
X138139585Y-120438844D01*
X138244380Y-120432158D01*
X138291961Y-120429123D01*
X138291963Y-120429123D01*
X138297288Y-120428783D01*
X138302478Y-120427551D01*
X138302480Y-120427551D01*
X138516410Y-120376782D01*
X138516414Y-120376781D01*
X138521604Y-120375549D01*
X138535167Y-120369778D01*
X138728828Y-120287373D01*
X138728834Y-120287370D01*
X138733743Y-120285281D01*
X138927641Y-120160561D01*
X139097751Y-120004954D01*
X139239213Y-119822909D01*
X139347980Y-119619633D01*
X139420941Y-119400937D01*
X139456011Y-119173074D01*
X139455923Y-119167746D01*
X139452277Y-118947899D01*
X139452276Y-118947894D01*
X139452188Y-118942559D01*
X139409580Y-118715985D01*
X139396980Y-118682014D01*
X139392043Y-118611193D01*
X139426180Y-118548942D01*
X139488554Y-118515029D01*
X139528394Y-118512900D01*
X139668872Y-118527788D01*
X139668876Y-118527788D01*
X139674178Y-118528350D01*
X139820286Y-118519029D01*
X139898930Y-118514012D01*
X139898932Y-118514012D01*
X139904257Y-118513672D01*
X139909447Y-118512440D01*
X139909449Y-118512440D01*
X140123379Y-118461671D01*
X140123383Y-118461670D01*
X140128573Y-118460438D01*
X140142136Y-118454667D01*
X140335797Y-118372262D01*
X140335803Y-118372259D01*
X140340712Y-118370170D01*
X140534610Y-118245450D01*
X140704720Y-118089843D01*
X140846182Y-117907798D01*
X140954949Y-117704522D01*
X141027910Y-117485826D01*
X141062980Y-117257963D01*
X141062892Y-117252635D01*
X141059246Y-117032788D01*
X141059245Y-117032783D01*
X141059157Y-117027448D01*
X141016549Y-116800874D01*
X140936374Y-116584718D01*
X140889346Y-116503427D01*
X140823594Y-116389773D01*
X140820926Y-116385161D01*
X140673505Y-116207908D01*
X140655735Y-116191511D01*
X140654597Y-116190556D01*
X140342138Y-115928374D01*
X140342136Y-115928372D01*
X140340088Y-115926654D01*
X140199086Y-115827374D01*
X139990912Y-115728304D01*
X139985777Y-115726856D01*
X139985775Y-115726855D01*
X139774165Y-115667175D01*
X139774160Y-115667174D01*
X139769022Y-115665725D01*
X139689884Y-115657338D01*
X139545066Y-115641990D01*
X139545062Y-115641990D01*
X139539760Y-115641428D01*
X139393652Y-115650749D01*
X139315008Y-115655766D01*
X139315006Y-115655766D01*
X139309681Y-115656106D01*
X139304491Y-115657338D01*
X139304489Y-115657338D01*
X139090559Y-115708107D01*
X139090555Y-115708108D01*
X139085365Y-115709340D01*
X138873226Y-115799607D01*
X138679328Y-115924328D01*
X138509218Y-116079935D01*
X138505942Y-116084150D01*
X138505939Y-116084154D01*
X138409773Y-116207908D01*
X138367756Y-116261979D01*
X138258989Y-116465256D01*
X138186028Y-116683952D01*
X138150958Y-116911815D01*
X138151046Y-116917139D01*
X138151046Y-116917143D01*
X138152876Y-117027448D01*
X138154781Y-117142330D01*
X138197389Y-117368904D01*
X138209989Y-117402875D01*
X138214926Y-117473696D01*
X138180789Y-117535947D01*
X138118415Y-117569860D01*
X138078575Y-117571989D01*
X137938097Y-117557101D01*
X137938093Y-117557101D01*
X137932791Y-117556539D01*
X137786683Y-117565860D01*
X137708039Y-117570877D01*
X137708037Y-117570877D01*
X137702712Y-117571217D01*
X137697522Y-117572449D01*
X137697520Y-117572449D01*
X137483590Y-117623218D01*
X137483586Y-117623219D01*
X137478396Y-117624451D01*
X137266257Y-117714718D01*
X137261768Y-117717606D01*
X137261767Y-117717606D01*
X137200976Y-117756709D01*
X137072359Y-117839439D01*
X136902249Y-117995046D01*
X136898973Y-117999261D01*
X136898970Y-117999265D01*
X136764060Y-118172878D01*
X136760787Y-118177090D01*
X136652020Y-118380367D01*
X136579059Y-118599063D01*
X136543989Y-118826926D01*
X136544077Y-118832250D01*
X136544077Y-118832254D01*
X136547600Y-119044645D01*
X136547812Y-119057441D01*
X136548800Y-119062694D01*
X136556329Y-119102731D01*
X136549262Y-119173375D01*
X136505123Y-119228984D01*
X136437927Y-119251901D01*
X136414422Y-119250714D01*
X136244644Y-119226098D01*
X136237355Y-119226742D01*
X136237351Y-119226742D01*
X136147184Y-119234710D01*
X136068460Y-119241666D01*
X135900582Y-119297349D01*
X135894354Y-119301188D01*
X135894352Y-119301189D01*
X135755869Y-119386551D01*
X135755867Y-119386553D01*
X135750018Y-119390158D01*
X135674673Y-119463300D01*
X135672608Y-119465761D01*
X134848243Y-120448202D01*
X134838535Y-120459771D01*
X134836714Y-120462463D01*
X134836708Y-120462471D01*
X134830073Y-120472280D01*
X134778957Y-120547846D01*
X134713990Y-120712354D01*
X134688610Y-120887394D01*
X106364041Y-120887394D01*
X105834362Y-120248259D01*
X105831214Y-120244301D01*
X105431480Y-119720525D01*
X105237862Y-119466823D01*
X105234881Y-119462751D01*
X105233695Y-119461060D01*
X104673195Y-118662068D01*
X104670398Y-118657906D01*
X104141295Y-117835323D01*
X104138645Y-117831015D01*
X103642993Y-116987884D01*
X103640518Y-116983473D01*
X103599358Y-116906549D01*
X103179102Y-116121129D01*
X103176812Y-116116634D01*
X103159032Y-116079935D01*
X102750379Y-115236476D01*
X102748266Y-115231883D01*
X102357489Y-114335297D01*
X102355562Y-114330621D01*
X102001091Y-113419101D01*
X101999353Y-113414352D01*
X101681743Y-112489324D01*
X101680197Y-112484508D01*
X101399972Y-111547500D01*
X101398620Y-111542626D01*
X101345865Y-111336413D01*
X101156216Y-110595093D01*
X101155064Y-110590183D01*
X101153748Y-110584018D01*
X101022493Y-109969150D01*
X109821877Y-109969150D01*
X109835983Y-110184362D01*
X109889072Y-110393400D01*
X109979366Y-110589263D01*
X110103841Y-110765392D01*
X110258329Y-110915887D01*
X110437656Y-111035710D01*
X110442959Y-111037988D01*
X110442962Y-111037990D01*
X110532918Y-111076638D01*
X110635815Y-111120846D01*
X110738618Y-111144108D01*
X110840535Y-111167170D01*
X110840538Y-111167170D01*
X110846171Y-111168445D01*
X110851942Y-111168672D01*
X110851944Y-111168672D01*
X110918822Y-111171299D01*
X111061679Y-111176912D01*
X111168401Y-111161438D01*
X111269408Y-111146793D01*
X111269413Y-111146792D01*
X111275122Y-111145964D01*
X111280586Y-111144109D01*
X111280591Y-111144108D01*
X111473882Y-111078494D01*
X111479350Y-111076638D01*
X111667525Y-110971255D01*
X111833344Y-110833344D01*
X111971255Y-110667525D01*
X112076638Y-110479350D01*
X112145964Y-110275122D01*
X112146792Y-110269413D01*
X112146793Y-110269408D01*
X112176379Y-110065353D01*
X112176912Y-110061679D01*
X112178527Y-110000000D01*
X112158792Y-109785231D01*
X112100250Y-109577654D01*
X112004859Y-109384221D01*
X111875816Y-109211412D01*
X111745915Y-109091332D01*
X111709470Y-109030404D01*
X111711751Y-108959444D01*
X111750874Y-108901934D01*
X111828912Y-108837030D01*
X111833344Y-108833344D01*
X111971255Y-108667525D01*
X112076638Y-108479350D01*
X112145964Y-108275122D01*
X112146792Y-108269413D01*
X112146793Y-108269408D01*
X112176379Y-108065353D01*
X112176912Y-108061679D01*
X112178527Y-108000000D01*
X112158792Y-107785231D01*
X112100250Y-107577654D01*
X112004859Y-107384221D01*
X111875816Y-107211412D01*
X111745915Y-107091332D01*
X111709470Y-107030404D01*
X111711751Y-106959444D01*
X111750874Y-106901934D01*
X111828912Y-106837030D01*
X111833344Y-106833344D01*
X111971255Y-106667525D01*
X112076638Y-106479350D01*
X112107715Y-106387800D01*
X112144108Y-106280591D01*
X112144109Y-106280586D01*
X112145964Y-106275122D01*
X112146792Y-106269413D01*
X112146793Y-106269408D01*
X112176379Y-106065353D01*
X112176912Y-106061679D01*
X112178527Y-106000000D01*
X112158792Y-105785231D01*
X112100250Y-105577654D01*
X112004859Y-105384221D01*
X111875816Y-105211412D01*
X111717442Y-105065012D01*
X111712559Y-105061931D01*
X111712555Y-105061928D01*
X111539923Y-104953006D01*
X111535040Y-104949925D01*
X111334720Y-104870005D01*
X111329060Y-104868879D01*
X111329056Y-104868878D01*
X111128857Y-104829056D01*
X111128854Y-104829056D01*
X111123190Y-104827929D01*
X111117415Y-104827853D01*
X111117411Y-104827853D01*
X111009320Y-104826438D01*
X110907534Y-104825106D01*
X110901837Y-104826085D01*
X110901836Y-104826085D01*
X110884546Y-104829056D01*
X110694975Y-104861630D01*
X110492631Y-104936279D01*
X110487670Y-104939231D01*
X110487669Y-104939231D01*
X110312247Y-105043596D01*
X110312244Y-105043598D01*
X110307279Y-105046552D01*
X110302939Y-105050358D01*
X110302935Y-105050361D01*
X110149468Y-105184949D01*
X110145127Y-105188756D01*
X110011604Y-105358128D01*
X110008913Y-105363244D01*
X110008911Y-105363246D01*
X109930169Y-105512911D01*
X109911183Y-105548997D01*
X109847227Y-105754970D01*
X109821877Y-105969150D01*
X109835983Y-106184362D01*
X109889072Y-106393400D01*
X109979366Y-106589263D01*
X109982699Y-106593979D01*
X110061811Y-106705920D01*
X110103841Y-106765392D01*
X110254471Y-106912129D01*
X110289307Y-106973988D01*
X110285170Y-107044864D01*
X110249625Y-107097113D01*
X110149473Y-107184944D01*
X110149469Y-107184948D01*
X110145127Y-107188756D01*
X110011604Y-107358128D01*
X110008913Y-107363244D01*
X110008911Y-107363246D01*
X109925759Y-107521293D01*
X109911183Y-107548997D01*
X109847227Y-107754970D01*
X109821877Y-107969150D01*
X109835983Y-108184362D01*
X109889072Y-108393400D01*
X109979366Y-108589263D01*
X110103841Y-108765392D01*
X110254471Y-108912129D01*
X110289307Y-108973988D01*
X110285170Y-109044864D01*
X110249625Y-109097113D01*
X110149473Y-109184944D01*
X110149469Y-109184948D01*
X110145127Y-109188756D01*
X110011604Y-109358128D01*
X110008913Y-109363244D01*
X110008911Y-109363246D01*
X109997876Y-109384221D01*
X109911183Y-109548997D01*
X109847227Y-109754970D01*
X109821877Y-109969150D01*
X101022493Y-109969150D01*
X100950880Y-109633677D01*
X100949928Y-109628731D01*
X100941152Y-109577654D01*
X100784300Y-108664830D01*
X100783544Y-108659829D01*
X100656733Y-107690066D01*
X100656178Y-107685039D01*
X100568388Y-106710965D01*
X100568035Y-106705920D01*
X100519406Y-105729096D01*
X100519256Y-105724041D01*
X100512929Y-105065012D01*
X100512032Y-104971585D01*
X102286698Y-104971585D01*
X102302936Y-105297759D01*
X102303577Y-105301490D01*
X102303578Y-105301498D01*
X102350140Y-105572472D01*
X102358241Y-105619619D01*
X102359329Y-105623258D01*
X102359330Y-105623261D01*
X102400436Y-105760707D01*
X102451814Y-105932504D01*
X102453327Y-105935975D01*
X102453329Y-105935981D01*
X102481232Y-106000000D01*
X102582297Y-106231881D01*
X102584220Y-106235152D01*
X102584222Y-106235156D01*
X102626584Y-106307215D01*
X102747802Y-106513414D01*
X102750103Y-106516429D01*
X102943631Y-106770012D01*
X102943636Y-106770017D01*
X102945931Y-106773025D01*
X103007931Y-106836670D01*
X103127533Y-106959444D01*
X103173814Y-107006953D01*
X103245896Y-107065012D01*
X103425196Y-107209431D01*
X103425201Y-107209435D01*
X103428149Y-107211809D01*
X103705253Y-107384627D01*
X104001112Y-107522903D01*
X104004721Y-107524086D01*
X104185105Y-107583219D01*
X104311440Y-107624634D01*
X104631742Y-107688346D01*
X104635514Y-107688633D01*
X104635522Y-107688634D01*
X104953602Y-107712829D01*
X104953607Y-107712829D01*
X104957379Y-107713116D01*
X105283633Y-107698586D01*
X105289844Y-107697552D01*
X105602037Y-107645590D01*
X105602042Y-107645589D01*
X105605778Y-107644967D01*
X105919149Y-107553034D01*
X105922616Y-107551544D01*
X105922620Y-107551543D01*
X106215721Y-107425616D01*
X106215723Y-107425615D01*
X106219205Y-107424119D01*
X106501601Y-107260091D01*
X106762245Y-107063324D01*
X106997363Y-106836670D01*
X107135069Y-106667525D01*
X107201155Y-106586351D01*
X107201158Y-106586347D01*
X107203549Y-106583410D01*
X107320126Y-106398647D01*
X107375788Y-106310428D01*
X107375790Y-106310425D01*
X107377815Y-106307215D01*
X107517638Y-106012084D01*
X107521670Y-106000000D01*
X107619790Y-105705897D01*
X107619792Y-105705891D01*
X107620992Y-105702293D01*
X107686381Y-105382329D01*
X107687934Y-105363246D01*
X107712674Y-105059061D01*
X107712856Y-105056826D01*
X107713451Y-105000000D01*
X107711510Y-104967796D01*
X107694026Y-104677793D01*
X107694026Y-104677789D01*
X107693798Y-104674015D01*
X107688650Y-104645824D01*
X107635805Y-104356473D01*
X107635804Y-104356469D01*
X107635125Y-104352751D01*
X107627722Y-104328907D01*
X107539404Y-104044477D01*
X107538282Y-104040863D01*
X107404670Y-103742869D01*
X107236226Y-103463084D01*
X107233899Y-103460100D01*
X107233894Y-103460093D01*
X107037726Y-103208558D01*
X107037724Y-103208556D01*
X107035390Y-103205563D01*
X106805070Y-102974034D01*
X106548603Y-102771852D01*
X106269705Y-102601945D01*
X106266261Y-102600379D01*
X106266257Y-102600377D01*
X106076049Y-102513895D01*
X105972414Y-102466775D01*
X105661037Y-102368300D01*
X105443492Y-102327390D01*
X105343809Y-102308645D01*
X105343807Y-102308645D01*
X105340086Y-102307945D01*
X105014208Y-102286586D01*
X105010428Y-102286794D01*
X105010427Y-102286794D01*
X104912897Y-102292162D01*
X104688124Y-102304532D01*
X104684397Y-102305193D01*
X104684393Y-102305193D01*
X104527340Y-102333027D01*
X104366557Y-102361522D01*
X104362941Y-102362624D01*
X104362933Y-102362626D01*
X104057789Y-102455627D01*
X104054167Y-102456731D01*
X103755477Y-102588781D01*
X103730041Y-102603914D01*
X103478074Y-102753817D01*
X103478068Y-102753821D01*
X103474814Y-102755757D01*
X103471812Y-102758073D01*
X103426266Y-102793212D01*
X103216244Y-102955243D01*
X102983513Y-103184347D01*
X102981149Y-103187314D01*
X102981146Y-103187317D01*
X102964220Y-103208558D01*
X102779991Y-103439751D01*
X102608626Y-103717757D01*
X102471902Y-104014336D01*
X102470741Y-104017940D01*
X102470741Y-104017941D01*
X102462196Y-104044477D01*
X102371797Y-104325192D01*
X102371079Y-104328903D01*
X102371078Y-104328907D01*
X102310482Y-104642105D01*
X102310481Y-104642114D01*
X102309763Y-104645824D01*
X102309496Y-104649600D01*
X102309495Y-104649605D01*
X102288013Y-104953006D01*
X102286698Y-104971585D01*
X100512032Y-104971585D01*
X100509867Y-104746045D01*
X100509920Y-104741001D01*
X100512081Y-104670289D01*
X100539788Y-103763428D01*
X100540044Y-103758377D01*
X100609118Y-102782805D01*
X100609576Y-102777768D01*
X100717748Y-101805734D01*
X100718408Y-101800720D01*
X100865502Y-100833812D01*
X100866363Y-100828828D01*
X101052141Y-99868613D01*
X101053201Y-99863668D01*
X101277367Y-98911671D01*
X101278625Y-98906772D01*
X101326403Y-98735071D01*
X101540813Y-97964544D01*
X101542263Y-97959709D01*
X101570265Y-97872756D01*
X101742043Y-97339329D01*
X101812371Y-97120939D01*
X104299650Y-97120939D01*
X104313698Y-97200205D01*
X104329124Y-97287244D01*
X104330515Y-97295095D01*
X104333415Y-97301812D01*
X104333415Y-97301813D01*
X104341608Y-97320792D01*
X104400617Y-97457481D01*
X104404984Y-97463350D01*
X104404986Y-97463354D01*
X104427102Y-97493078D01*
X104506195Y-97599383D01*
X104585626Y-97668067D01*
X104588262Y-97669912D01*
X104588261Y-97669912D01*
X105852235Y-98554956D01*
X105896563Y-98610413D01*
X105903872Y-98681032D01*
X105875130Y-98740747D01*
X105814030Y-98811159D01*
X105811030Y-98816345D01*
X105811027Y-98816349D01*
X105793085Y-98847363D01*
X105708109Y-98994250D01*
X105638721Y-99194067D01*
X105637860Y-99200002D01*
X105637860Y-99200004D01*
X105609538Y-99395340D01*
X105608369Y-99403400D01*
X105618149Y-99614695D01*
X105667707Y-99820330D01*
X105670189Y-99825788D01*
X105670190Y-99825792D01*
X105713635Y-99921342D01*
X105755256Y-100012883D01*
X105877636Y-100185407D01*
X106030432Y-100331677D01*
X106208130Y-100446416D01*
X106213696Y-100448659D01*
X106398750Y-100523238D01*
X106398753Y-100523239D01*
X106404319Y-100525482D01*
X106611919Y-100566024D01*
X106617481Y-100566296D01*
X106773428Y-100566296D01*
X106931148Y-100551248D01*
X107134116Y-100491704D01*
X107217693Y-100448659D01*
X107316831Y-100397600D01*
X107316834Y-100397598D01*
X107322162Y-100394854D01*
X107488502Y-100264192D01*
X107492434Y-100259661D01*
X107492437Y-100259658D01*
X107623203Y-100108963D01*
X107627134Y-100104433D01*
X107630134Y-100099247D01*
X107630137Y-100099243D01*
X107730049Y-99926538D01*
X107733055Y-99921342D01*
X107802443Y-99721525D01*
X107818801Y-99608705D01*
X107831934Y-99518132D01*
X107831934Y-99518129D01*
X107832795Y-99512192D01*
X107823015Y-99300897D01*
X107773457Y-99095262D01*
X107747568Y-99038321D01*
X107688388Y-98908164D01*
X107685908Y-98902709D01*
X107573705Y-98744532D01*
X107566994Y-98735071D01*
X107566993Y-98735070D01*
X107563528Y-98730185D01*
X107437192Y-98609245D01*
X107415062Y-98588060D01*
X107410732Y-98583915D01*
X107233034Y-98469176D01*
X107153041Y-98436938D01*
X107042414Y-98392354D01*
X107042411Y-98392353D01*
X107037988Y-98390571D01*
X107037987Y-98390570D01*
X107036845Y-98390110D01*
X107036934Y-98389890D01*
X106979705Y-98352914D01*
X106950369Y-98288262D01*
X106960644Y-98218012D01*
X106971917Y-98198362D01*
X106988448Y-98174754D01*
X107388177Y-97603881D01*
X107586398Y-97320792D01*
X107586399Y-97320790D01*
X107588266Y-97318124D01*
X107639942Y-97225191D01*
X107690323Y-97055647D01*
X107700350Y-96879061D01*
X107681347Y-96771837D01*
X107670762Y-96712109D01*
X107670761Y-96712107D01*
X107669485Y-96704905D01*
X107666586Y-96698190D01*
X107666585Y-96698186D01*
X107601675Y-96547828D01*
X107593040Y-96477359D01*
X107623874Y-96413408D01*
X107684388Y-96376278D01*
X107698398Y-96373324D01*
X107854618Y-96349558D01*
X107964803Y-96313011D01*
X108068377Y-96278657D01*
X108068380Y-96278656D01*
X108073441Y-96276977D01*
X108276906Y-96168565D01*
X108459196Y-96027421D01*
X108615098Y-95857580D01*
X108740156Y-95663900D01*
X108830794Y-95451918D01*
X108832118Y-95446384D01*
X108883176Y-95232885D01*
X108883176Y-95232883D01*
X108884417Y-95227695D01*
X108886838Y-95190757D01*
X108899146Y-95002973D01*
X108899146Y-95002969D01*
X108899495Y-94997643D01*
X108884974Y-94858316D01*
X108876151Y-94773652D01*
X108876151Y-94773650D01*
X108875597Y-94768338D01*
X108823672Y-94582987D01*
X108814844Y-94551474D01*
X108814842Y-94551469D01*
X108813405Y-94546339D01*
X108797890Y-94513590D01*
X108786800Y-94443467D01*
X108815383Y-94378478D01*
X108874564Y-94339259D01*
X108914066Y-94333666D01*
X109006485Y-94335359D01*
X109060635Y-94336352D01*
X109065906Y-94335550D01*
X109065908Y-94335550D01*
X109283281Y-94302481D01*
X109283282Y-94302481D01*
X109288559Y-94301678D01*
X109458683Y-94245250D01*
X109502318Y-94230777D01*
X109502321Y-94230776D01*
X109507382Y-94229097D01*
X109512707Y-94226260D01*
X109706138Y-94123194D01*
X109710847Y-94120685D01*
X109893137Y-93979541D01*
X110049039Y-93809700D01*
X110082555Y-93757794D01*
X110107985Y-93718409D01*
X110174097Y-93616020D01*
X110251539Y-93434901D01*
X110262635Y-93408950D01*
X110262636Y-93408947D01*
X110264735Y-93404038D01*
X110288448Y-93304886D01*
X110317117Y-93185005D01*
X110317117Y-93185003D01*
X110318358Y-93179815D01*
X110325111Y-93076780D01*
X110333087Y-92955093D01*
X110333087Y-92955089D01*
X110333436Y-92949763D01*
X110309538Y-92720458D01*
X110253780Y-92521425D01*
X110248785Y-92503594D01*
X110248783Y-92503589D01*
X110247346Y-92498459D01*
X110231831Y-92465710D01*
X110220741Y-92395587D01*
X110249324Y-92330598D01*
X110308505Y-92291379D01*
X110348007Y-92285786D01*
X110440426Y-92287479D01*
X110494576Y-92288472D01*
X110499847Y-92287670D01*
X110499849Y-92287670D01*
X110717222Y-92254601D01*
X110717223Y-92254601D01*
X110722500Y-92253798D01*
X110832685Y-92217251D01*
X110936259Y-92182897D01*
X110936262Y-92182896D01*
X110941323Y-92181217D01*
X110983581Y-92158701D01*
X111140079Y-92075314D01*
X111144788Y-92072805D01*
X111327078Y-91931661D01*
X111482980Y-91761820D01*
X111501749Y-91732753D01*
X111549486Y-91658820D01*
X111608038Y-91568140D01*
X111686715Y-91384132D01*
X111696576Y-91361070D01*
X111696577Y-91361067D01*
X111698676Y-91356158D01*
X111700780Y-91347363D01*
X111751058Y-91137125D01*
X111751058Y-91137123D01*
X111752299Y-91131935D01*
X111763999Y-90953422D01*
X111767028Y-90907213D01*
X111767028Y-90907209D01*
X111767377Y-90901883D01*
X111746923Y-90705619D01*
X111744033Y-90677892D01*
X111744033Y-90677890D01*
X111743479Y-90672578D01*
X111681287Y-90450579D01*
X111606219Y-90292129D01*
X111584868Y-90247062D01*
X111584867Y-90247060D01*
X111582580Y-90242233D01*
X111450179Y-90053497D01*
X111446426Y-90049711D01*
X111290792Y-89892712D01*
X111290787Y-89892708D01*
X111287871Y-89889766D01*
X111268740Y-89874980D01*
X111267545Y-89874143D01*
X111267527Y-89874130D01*
X110933399Y-89640172D01*
X110933398Y-89640171D01*
X110931211Y-89638640D01*
X110928899Y-89637297D01*
X110786715Y-89554710D01*
X110786714Y-89554710D01*
X110782094Y-89552026D01*
X110566077Y-89471476D01*
X110339578Y-89428473D01*
X110334243Y-89428375D01*
X110334241Y-89428375D01*
X110243121Y-89426705D01*
X110109070Y-89424248D01*
X109881146Y-89458923D01*
X109876083Y-89460602D01*
X109876080Y-89460603D01*
X109667391Y-89529822D01*
X109662323Y-89531503D01*
X109657618Y-89534010D01*
X109657611Y-89534013D01*
X109486105Y-89625397D01*
X109458858Y-89639915D01*
X109276568Y-89781059D01*
X109120666Y-89950900D01*
X108995608Y-90144580D01*
X108904970Y-90356562D01*
X108903728Y-90361754D01*
X108903727Y-90361758D01*
X108852588Y-90575595D01*
X108851347Y-90580785D01*
X108850998Y-90586108D01*
X108850998Y-90586109D01*
X108837326Y-90794715D01*
X108836269Y-90810837D01*
X108860167Y-91040142D01*
X108861608Y-91045284D01*
X108920111Y-91254116D01*
X108922359Y-91262141D01*
X108937874Y-91294890D01*
X108948964Y-91365013D01*
X108920381Y-91430002D01*
X108861200Y-91469221D01*
X108821698Y-91474814D01*
X108729279Y-91473121D01*
X108675129Y-91472128D01*
X108669858Y-91472930D01*
X108669857Y-91472930D01*
X108647357Y-91476353D01*
X108447205Y-91506803D01*
X108442142Y-91508482D01*
X108442139Y-91508483D01*
X108277082Y-91563230D01*
X108228382Y-91579383D01*
X108223677Y-91581890D01*
X108223670Y-91581893D01*
X108066861Y-91665446D01*
X108024917Y-91687795D01*
X107935098Y-91757340D01*
X107852412Y-91821363D01*
X107842627Y-91828939D01*
X107686725Y-91998780D01*
X107683834Y-92003258D01*
X107683832Y-92003260D01*
X107637307Y-92075314D01*
X107561667Y-92192460D01*
X107471029Y-92404442D01*
X107469787Y-92409634D01*
X107469786Y-92409638D01*
X107430998Y-92571830D01*
X107417406Y-92628665D01*
X107417057Y-92633988D01*
X107417057Y-92633989D01*
X107402851Y-92850743D01*
X107402328Y-92858717D01*
X107426226Y-93088022D01*
X107450450Y-93174491D01*
X107472430Y-93252949D01*
X107488418Y-93310021D01*
X107503933Y-93342770D01*
X107515023Y-93412893D01*
X107486440Y-93477882D01*
X107427259Y-93517101D01*
X107387757Y-93522694D01*
X107295338Y-93521001D01*
X107241188Y-93520008D01*
X107235917Y-93520810D01*
X107235916Y-93520810D01*
X107213416Y-93524233D01*
X107013264Y-93554683D01*
X107008201Y-93556362D01*
X107008198Y-93556363D01*
X106843141Y-93611110D01*
X106794441Y-93627263D01*
X106789736Y-93629770D01*
X106789729Y-93629773D01*
X106648308Y-93705127D01*
X106590976Y-93735675D01*
X106408686Y-93876819D01*
X106252784Y-94046660D01*
X106249893Y-94051138D01*
X106249891Y-94051140D01*
X106203366Y-94123194D01*
X106127726Y-94240340D01*
X106037088Y-94452322D01*
X106035846Y-94457514D01*
X106035845Y-94457518D01*
X105985827Y-94666668D01*
X105983465Y-94676545D01*
X105968387Y-94906597D01*
X105992285Y-95135902D01*
X106004719Y-95180286D01*
X106003835Y-95251276D01*
X105964711Y-95310519D01*
X105899768Y-95339206D01*
X105876252Y-95340072D01*
X105704970Y-95330347D01*
X105608957Y-95347363D01*
X105538018Y-95359935D01*
X105538016Y-95359936D01*
X105530814Y-95361212D01*
X105368428Y-95431314D01*
X105362559Y-95435681D01*
X105362555Y-95435683D01*
X105340735Y-95451918D01*
X105226526Y-95536892D01*
X105157842Y-95616323D01*
X105155997Y-95618958D01*
X104620147Y-96384232D01*
X104411734Y-96681876D01*
X104360058Y-96774809D01*
X104309677Y-96944353D01*
X104299650Y-97120939D01*
X101812371Y-97120939D01*
X101842060Y-97028746D01*
X101843707Y-97023964D01*
X101968185Y-96684727D01*
X102180616Y-96105797D01*
X102182445Y-96101105D01*
X102214517Y-96023487D01*
X102555942Y-95197176D01*
X102557965Y-95192546D01*
X102608473Y-95082987D01*
X102750272Y-94775400D01*
X102967419Y-94304373D01*
X102969628Y-94299823D01*
X103414409Y-93428772D01*
X103416799Y-93424315D01*
X103896169Y-92571830D01*
X103898736Y-92567472D01*
X104288639Y-91934931D01*
X104411944Y-91734892D01*
X104414680Y-91730648D01*
X104429329Y-91708890D01*
X104809331Y-91144451D01*
X104960871Y-90919361D01*
X104963779Y-90915223D01*
X105377008Y-90351650D01*
X105542103Y-90126488D01*
X105545170Y-90122477D01*
X105586240Y-90070938D01*
X106127982Y-89391093D01*
X106154682Y-89357587D01*
X106157913Y-89353696D01*
X106633686Y-88803480D01*
X106797608Y-88613909D01*
X106800991Y-88610151D01*
X106910598Y-88493227D01*
X107383002Y-87989286D01*
X112232750Y-87989286D01*
X112249443Y-88159536D01*
X112303440Y-88321856D01*
X112307087Y-88327878D01*
X112307088Y-88327880D01*
X112388406Y-88462154D01*
X112388409Y-88462157D01*
X112392056Y-88468180D01*
X112510889Y-88591234D01*
X112545542Y-88613910D01*
X112624297Y-88665446D01*
X112654030Y-88684903D01*
X112660634Y-88687359D01*
X112660636Y-88687360D01*
X112807757Y-88742074D01*
X112807759Y-88742074D01*
X112814367Y-88744532D01*
X112893454Y-88755085D01*
X112976949Y-88766226D01*
X112976953Y-88766226D01*
X112983930Y-88767157D01*
X112990941Y-88766519D01*
X112990945Y-88766519D01*
X113147273Y-88752292D01*
X113147275Y-88752292D01*
X113154292Y-88751653D01*
X113160990Y-88749477D01*
X113160993Y-88749476D01*
X113310289Y-88700966D01*
X113310291Y-88700965D01*
X113316985Y-88698790D01*
X113463924Y-88611197D01*
X113465539Y-88609659D01*
X113530111Y-88585084D01*
X113539937Y-88584700D01*
X119963342Y-88584700D01*
X120032335Y-88605268D01*
X120124297Y-88665446D01*
X120154030Y-88684903D01*
X120160634Y-88687359D01*
X120160636Y-88687360D01*
X120307757Y-88742074D01*
X120307759Y-88742074D01*
X120314367Y-88744532D01*
X120393454Y-88755085D01*
X120476949Y-88766226D01*
X120476953Y-88766226D01*
X120483930Y-88767157D01*
X120490941Y-88766519D01*
X120490945Y-88766519D01*
X120647273Y-88752292D01*
X120647275Y-88752292D01*
X120654292Y-88751653D01*
X120660990Y-88749477D01*
X120660993Y-88749476D01*
X120810289Y-88700966D01*
X120810291Y-88700965D01*
X120816985Y-88698790D01*
X120872920Y-88665446D01*
X120957872Y-88614805D01*
X120957874Y-88614804D01*
X120963924Y-88611197D01*
X121087805Y-88493227D01*
X121101079Y-88473249D01*
X121178570Y-88356614D01*
X121182471Y-88350743D01*
X121243218Y-88190826D01*
X121244558Y-88181292D01*
X121266475Y-88025347D01*
X121266475Y-88025344D01*
X121267026Y-88021425D01*
X121267325Y-88000000D01*
X121248256Y-87830000D01*
X121245386Y-87821756D01*
X121194314Y-87675097D01*
X121194313Y-87675095D01*
X121191999Y-87668450D01*
X121177715Y-87645590D01*
X121105081Y-87529352D01*
X121101348Y-87523378D01*
X121088159Y-87510096D01*
X121040551Y-87462155D01*
X120980809Y-87401994D01*
X120900050Y-87350743D01*
X120842316Y-87314104D01*
X120842313Y-87314102D01*
X120836373Y-87310333D01*
X120829740Y-87307971D01*
X120681854Y-87255311D01*
X120681849Y-87255310D01*
X120675219Y-87252949D01*
X120668231Y-87252116D01*
X120668228Y-87252115D01*
X120552655Y-87238334D01*
X120505357Y-87232694D01*
X120498354Y-87233430D01*
X120498353Y-87233430D01*
X120453958Y-87238096D01*
X120335228Y-87250575D01*
X120325167Y-87254000D01*
X120179956Y-87303434D01*
X120179953Y-87303435D01*
X120173289Y-87305704D01*
X120027588Y-87395340D01*
X120026196Y-87393077D01*
X119971500Y-87414768D01*
X119959930Y-87415300D01*
X113538383Y-87415300D01*
X113470869Y-87395686D01*
X113342316Y-87314104D01*
X113342313Y-87314102D01*
X113336373Y-87310333D01*
X113329740Y-87307971D01*
X113181854Y-87255311D01*
X113181849Y-87255310D01*
X113175219Y-87252949D01*
X113168231Y-87252116D01*
X113168228Y-87252115D01*
X113052655Y-87238334D01*
X113005357Y-87232694D01*
X112998354Y-87233430D01*
X112998353Y-87233430D01*
X112953958Y-87238096D01*
X112835228Y-87250575D01*
X112825167Y-87254000D01*
X112679956Y-87303434D01*
X112679953Y-87303435D01*
X112673289Y-87305704D01*
X112527588Y-87395340D01*
X112522557Y-87400267D01*
X112522554Y-87400269D01*
X112496671Y-87425616D01*
X112405366Y-87515028D01*
X112401547Y-87520953D01*
X112401546Y-87520955D01*
X112379657Y-87554920D01*
X112312698Y-87658820D01*
X112310287Y-87665443D01*
X112310286Y-87665446D01*
X112256600Y-87812947D01*
X112256599Y-87812952D01*
X112254190Y-87819570D01*
X112232750Y-87989286D01*
X107383002Y-87989286D01*
X107469890Y-87896598D01*
X107473418Y-87892983D01*
X107473506Y-87892897D01*
X107815628Y-87556107D01*
X108170384Y-87206880D01*
X108174059Y-87203404D01*
X108898030Y-86545796D01*
X108901841Y-86542472D01*
X109651601Y-85914463D01*
X109655543Y-85911294D01*
X110429879Y-85313898D01*
X110433944Y-85310889D01*
X110912274Y-84971585D01*
X122286698Y-84971585D01*
X122290830Y-85054586D01*
X122297613Y-85190826D01*
X122302936Y-85297759D01*
X122303577Y-85301490D01*
X122303578Y-85301498D01*
X122357414Y-85614805D01*
X122358241Y-85619619D01*
X122359329Y-85623258D01*
X122359330Y-85623261D01*
X122446419Y-85914463D01*
X122451814Y-85932504D01*
X122453327Y-85935975D01*
X122453329Y-85935981D01*
X122540442Y-86135851D01*
X122582297Y-86231881D01*
X122584220Y-86235152D01*
X122584222Y-86235156D01*
X122625397Y-86305196D01*
X122747802Y-86513414D01*
X122750103Y-86516429D01*
X122943631Y-86770012D01*
X122943636Y-86770017D01*
X122945931Y-86773025D01*
X123007931Y-86836670D01*
X123170888Y-87003949D01*
X123173814Y-87006953D01*
X123258540Y-87075196D01*
X123425196Y-87209431D01*
X123425201Y-87209435D01*
X123428149Y-87211809D01*
X123705253Y-87384627D01*
X124001112Y-87522903D01*
X124311440Y-87624634D01*
X124631742Y-87688346D01*
X124635514Y-87688633D01*
X124635522Y-87688634D01*
X124953602Y-87712829D01*
X124953607Y-87712829D01*
X124957379Y-87713116D01*
X125283633Y-87698586D01*
X125343425Y-87688634D01*
X125602037Y-87645590D01*
X125602042Y-87645589D01*
X125605778Y-87644967D01*
X125919149Y-87553034D01*
X125922616Y-87551544D01*
X125922620Y-87551543D01*
X126215721Y-87425616D01*
X126215723Y-87425615D01*
X126219205Y-87424119D01*
X126501601Y-87260091D01*
X126746519Y-87075196D01*
X126759221Y-87065607D01*
X126759222Y-87065606D01*
X126762245Y-87063324D01*
X126917002Y-86914138D01*
X126994632Y-86839303D01*
X126994635Y-86839300D01*
X126997363Y-86836670D01*
X127203549Y-86583410D01*
X127227282Y-86545796D01*
X127375788Y-86310428D01*
X127375790Y-86310425D01*
X127377815Y-86307215D01*
X127380193Y-86302197D01*
X127484613Y-86081791D01*
X127517638Y-86012084D01*
X127518840Y-86008482D01*
X127619790Y-85705897D01*
X127619792Y-85705891D01*
X127620992Y-85702293D01*
X127686381Y-85382329D01*
X127688951Y-85350743D01*
X127712674Y-85059061D01*
X127712856Y-85056826D01*
X127713451Y-85000000D01*
X127711510Y-84967796D01*
X127694026Y-84677793D01*
X127694026Y-84677789D01*
X127693798Y-84674015D01*
X127692234Y-84665446D01*
X127635805Y-84356473D01*
X127635804Y-84356469D01*
X127635125Y-84352751D01*
X127632025Y-84342765D01*
X127539404Y-84044477D01*
X127538282Y-84040863D01*
X127404670Y-83742869D01*
X127236226Y-83463084D01*
X127233899Y-83460100D01*
X127233894Y-83460093D01*
X127037726Y-83208558D01*
X127037724Y-83208556D01*
X127035390Y-83205563D01*
X126805070Y-82974034D01*
X126548603Y-82771852D01*
X126269705Y-82601945D01*
X126266261Y-82600379D01*
X126266257Y-82600377D01*
X126155667Y-82550095D01*
X125972414Y-82466775D01*
X125661037Y-82368300D01*
X125443492Y-82327390D01*
X125343809Y-82308645D01*
X125343807Y-82308645D01*
X125340086Y-82307945D01*
X125014208Y-82286586D01*
X125010428Y-82286794D01*
X125010427Y-82286794D01*
X124912897Y-82292162D01*
X124688124Y-82304532D01*
X124684397Y-82305193D01*
X124684393Y-82305193D01*
X124527341Y-82333027D01*
X124366557Y-82361522D01*
X124362941Y-82362624D01*
X124362933Y-82362626D01*
X124057789Y-82455627D01*
X124054167Y-82456731D01*
X123755477Y-82588781D01*
X123730041Y-82603914D01*
X123478074Y-82753817D01*
X123478068Y-82753821D01*
X123474814Y-82755757D01*
X123471812Y-82758073D01*
X123269813Y-82913915D01*
X123216244Y-82955243D01*
X122983513Y-83184347D01*
X122981149Y-83187314D01*
X122981146Y-83187317D01*
X122846351Y-83356474D01*
X122779991Y-83439751D01*
X122608626Y-83717757D01*
X122607037Y-83721204D01*
X122555677Y-83832614D01*
X122471902Y-84014336D01*
X122470741Y-84017940D01*
X122470741Y-84017941D01*
X122462196Y-84044477D01*
X122371797Y-84325192D01*
X122371079Y-84328903D01*
X122371078Y-84328907D01*
X122310482Y-84642105D01*
X122310481Y-84642114D01*
X122309763Y-84645824D01*
X122309496Y-84649600D01*
X122309495Y-84649605D01*
X122287832Y-84955563D01*
X122286698Y-84971585D01*
X110912274Y-84971585D01*
X111026602Y-84890486D01*
X111231676Y-84745017D01*
X111235851Y-84742179D01*
X112055656Y-84208774D01*
X112059941Y-84206108D01*
X112064655Y-84203304D01*
X112422121Y-83990634D01*
X112900457Y-83706054D01*
X112904855Y-83703556D01*
X113764751Y-83237641D01*
X113769245Y-83235321D01*
X114295952Y-82976720D01*
X114647191Y-82804270D01*
X114651770Y-82802135D01*
X115546279Y-82406676D01*
X115550917Y-82404736D01*
X116235557Y-82134359D01*
X116460591Y-82045489D01*
X116465331Y-82043726D01*
X116700203Y-81961705D01*
X117388708Y-81721268D01*
X117393422Y-81719726D01*
X118329058Y-81434566D01*
X118333877Y-81433203D01*
X119280165Y-81185831D01*
X119285037Y-81184662D01*
X119762741Y-81080069D01*
X120240422Y-80975482D01*
X120245383Y-80974499D01*
X120981629Y-80844016D01*
X121208441Y-80803819D01*
X121213421Y-80803039D01*
X122182523Y-80671150D01*
X122187537Y-80670571D01*
X123161128Y-80577681D01*
X123166157Y-80577303D01*
X124142761Y-80523557D01*
X124147787Y-80523382D01*
X124624366Y-80516312D01*
X125125696Y-80508874D01*
X125130753Y-80508900D01*
G37*
%TD.AperFunction*%
%TD*%
M02*
