%TF.GenerationSoftware,KiCad,Pcbnew,(5.1.9)-1*%
%TF.CreationDate,2022-04-02T11:09:43-04:00*%
%TF.ProjectId,Light_Sensor_schematic,4c696768-745f-4536-956e-736f725f7363,rev?*%
%TF.SameCoordinates,Original*%
%TF.FileFunction,Copper,L1,Top*%
%TF.FilePolarity,Positive*%
%FSLAX46Y46*%
G04 Gerber Fmt 4.6, Leading zero omitted, Abs format (unit mm)*
G04 Created by KiCad (PCBNEW (5.1.9)-1) date 2022-04-02 11:09:43*
%MOMM*%
%LPD*%
G01*
G04 APERTURE LIST*
%TA.AperFunction,SMDPad,CuDef*%
%ADD10R,0.740000X2.790000*%
%TD*%
%TA.AperFunction,SMDPad,CuDef*%
%ADD11R,3.450000X3.450000*%
%TD*%
%TA.AperFunction,SMDPad,CuDef*%
%ADD12R,3.600000X2.600000*%
%TD*%
%TA.AperFunction,ComponentPad*%
%ADD13C,4.400000*%
%TD*%
%TA.AperFunction,ComponentPad*%
%ADD14C,0.700000*%
%TD*%
%TA.AperFunction,ComponentPad*%
%ADD15C,1.330000*%
%TD*%
%TA.AperFunction,SMDPad,CuDef*%
%ADD16C,0.100000*%
%TD*%
%TA.AperFunction,SMDPad,CuDef*%
%ADD17R,1.000000X1.500000*%
%TD*%
%TA.AperFunction,SMDPad,CuDef*%
%ADD18C,1.500000*%
%TD*%
%TA.AperFunction,SMDPad,CuDef*%
%ADD19R,0.900000X0.350000*%
%TD*%
%TA.AperFunction,ViaPad*%
%ADD20C,0.508000*%
%TD*%
%TA.AperFunction,Conductor*%
%ADD21C,0.152400*%
%TD*%
%TA.AperFunction,Conductor*%
%ADD22C,0.254000*%
%TD*%
%TA.AperFunction,Conductor*%
%ADD23C,0.100000*%
%TD*%
G04 APERTURE END LIST*
D10*
%TO.P,U2,1*%
%TO.N,Net-(U2-Pad1)*%
X138190000Y-100032000D03*
%TO.P,U2,2*%
%TO.N,Net-(U2-Pad2)*%
X138190000Y-95968000D03*
%TO.P,U2,3*%
%TO.N,VDD*%
X139460000Y-100032000D03*
%TO.P,U2,4*%
%TO.N,/SWDIO*%
X139460000Y-95968000D03*
%TO.P,U2,5*%
%TO.N,GND*%
X140730000Y-100032000D03*
%TO.P,U2,6*%
%TO.N,/SWDCLK*%
X140730000Y-95968000D03*
%TO.P,U2,7*%
%TO.N,GND*%
X142000000Y-100032000D03*
%TO.P,U2,8*%
%TO.N,/SWO*%
X142000000Y-95968000D03*
%TO.P,U2,9*%
%TO.N,Net-(U2-Pad9)*%
X143270000Y-100032000D03*
%TO.P,U2,10*%
%TO.N,Net-(U2-Pad10)*%
X143270000Y-95968000D03*
%TO.P,U2,11*%
%TO.N,GND*%
X144540000Y-100032000D03*
%TO.P,U2,12*%
%TO.N,/NRST*%
X144540000Y-95968000D03*
%TO.P,U2,13*%
%TO.N,/RX*%
X145810000Y-100032000D03*
%TO.P,U2,14*%
%TO.N,/TX*%
X145810000Y-95968000D03*
%TD*%
%TO.P,U1,1*%
%TO.N,VDD*%
%TA.AperFunction,SMDPad,CuDef*%
G36*
G01*
X134125000Y-87312500D02*
X134125000Y-87187500D01*
G75*
G02*
X134187500Y-87125000I62500J0D01*
G01*
X134937500Y-87125000D01*
G75*
G02*
X135000000Y-87187500I0J-62500D01*
G01*
X135000000Y-87312500D01*
G75*
G02*
X134937500Y-87375000I-62500J0D01*
G01*
X134187500Y-87375000D01*
G75*
G02*
X134125000Y-87312500I0J62500D01*
G01*
G37*
%TD.AperFunction*%
%TO.P,U1,2*%
%TO.N,/oscillator*%
%TA.AperFunction,SMDPad,CuDef*%
G36*
G01*
X134125000Y-87812500D02*
X134125000Y-87687500D01*
G75*
G02*
X134187500Y-87625000I62500J0D01*
G01*
X134937500Y-87625000D01*
G75*
G02*
X135000000Y-87687500I0J-62500D01*
G01*
X135000000Y-87812500D01*
G75*
G02*
X134937500Y-87875000I-62500J0D01*
G01*
X134187500Y-87875000D01*
G75*
G02*
X134125000Y-87812500I0J62500D01*
G01*
G37*
%TD.AperFunction*%
%TO.P,U1,3*%
%TO.N,Net-(U1-Pad3)*%
%TA.AperFunction,SMDPad,CuDef*%
G36*
G01*
X134125000Y-88312500D02*
X134125000Y-88187500D01*
G75*
G02*
X134187500Y-88125000I62500J0D01*
G01*
X134937500Y-88125000D01*
G75*
G02*
X135000000Y-88187500I0J-62500D01*
G01*
X135000000Y-88312500D01*
G75*
G02*
X134937500Y-88375000I-62500J0D01*
G01*
X134187500Y-88375000D01*
G75*
G02*
X134125000Y-88312500I0J62500D01*
G01*
G37*
%TD.AperFunction*%
%TO.P,U1,4*%
%TO.N,/NRST*%
%TA.AperFunction,SMDPad,CuDef*%
G36*
G01*
X134125000Y-88812500D02*
X134125000Y-88687500D01*
G75*
G02*
X134187500Y-88625000I62500J0D01*
G01*
X134937500Y-88625000D01*
G75*
G02*
X135000000Y-88687500I0J-62500D01*
G01*
X135000000Y-88812500D01*
G75*
G02*
X134937500Y-88875000I-62500J0D01*
G01*
X134187500Y-88875000D01*
G75*
G02*
X134125000Y-88812500I0J62500D01*
G01*
G37*
%TD.AperFunction*%
%TO.P,U1,5*%
%TO.N,VDD*%
%TA.AperFunction,SMDPad,CuDef*%
G36*
G01*
X134125000Y-89312500D02*
X134125000Y-89187500D01*
G75*
G02*
X134187500Y-89125000I62500J0D01*
G01*
X134937500Y-89125000D01*
G75*
G02*
X135000000Y-89187500I0J-62500D01*
G01*
X135000000Y-89312500D01*
G75*
G02*
X134937500Y-89375000I-62500J0D01*
G01*
X134187500Y-89375000D01*
G75*
G02*
X134125000Y-89312500I0J62500D01*
G01*
G37*
%TD.AperFunction*%
%TO.P,U1,6*%
%TO.N,/tsl237_freq*%
%TA.AperFunction,SMDPad,CuDef*%
G36*
G01*
X134125000Y-89812500D02*
X134125000Y-89687500D01*
G75*
G02*
X134187500Y-89625000I62500J0D01*
G01*
X134937500Y-89625000D01*
G75*
G02*
X135000000Y-89687500I0J-62500D01*
G01*
X135000000Y-89812500D01*
G75*
G02*
X134937500Y-89875000I-62500J0D01*
G01*
X134187500Y-89875000D01*
G75*
G02*
X134125000Y-89812500I0J62500D01*
G01*
G37*
%TD.AperFunction*%
%TO.P,U1,7*%
%TO.N,Net-(U1-Pad7)*%
%TA.AperFunction,SMDPad,CuDef*%
G36*
G01*
X134125000Y-90312500D02*
X134125000Y-90187500D01*
G75*
G02*
X134187500Y-90125000I62500J0D01*
G01*
X134937500Y-90125000D01*
G75*
G02*
X135000000Y-90187500I0J-62500D01*
G01*
X135000000Y-90312500D01*
G75*
G02*
X134937500Y-90375000I-62500J0D01*
G01*
X134187500Y-90375000D01*
G75*
G02*
X134125000Y-90312500I0J62500D01*
G01*
G37*
%TD.AperFunction*%
%TO.P,U1,8*%
%TO.N,/TX*%
%TA.AperFunction,SMDPad,CuDef*%
G36*
G01*
X134125000Y-90812500D02*
X134125000Y-90687500D01*
G75*
G02*
X134187500Y-90625000I62500J0D01*
G01*
X134937500Y-90625000D01*
G75*
G02*
X135000000Y-90687500I0J-62500D01*
G01*
X135000000Y-90812500D01*
G75*
G02*
X134937500Y-90875000I-62500J0D01*
G01*
X134187500Y-90875000D01*
G75*
G02*
X134125000Y-90812500I0J62500D01*
G01*
G37*
%TD.AperFunction*%
%TO.P,U1,9*%
%TO.N,/RX*%
%TA.AperFunction,SMDPad,CuDef*%
G36*
G01*
X135125000Y-91812500D02*
X135125000Y-91062500D01*
G75*
G02*
X135187500Y-91000000I62500J0D01*
G01*
X135312500Y-91000000D01*
G75*
G02*
X135375000Y-91062500I0J-62500D01*
G01*
X135375000Y-91812500D01*
G75*
G02*
X135312500Y-91875000I-62500J0D01*
G01*
X135187500Y-91875000D01*
G75*
G02*
X135125000Y-91812500I0J62500D01*
G01*
G37*
%TD.AperFunction*%
%TO.P,U1,10*%
%TO.N,/sensor_pwr*%
%TA.AperFunction,SMDPad,CuDef*%
G36*
G01*
X135625000Y-91812500D02*
X135625000Y-91062500D01*
G75*
G02*
X135687500Y-91000000I62500J0D01*
G01*
X135812500Y-91000000D01*
G75*
G02*
X135875000Y-91062500I0J-62500D01*
G01*
X135875000Y-91812500D01*
G75*
G02*
X135812500Y-91875000I-62500J0D01*
G01*
X135687500Y-91875000D01*
G75*
G02*
X135625000Y-91812500I0J62500D01*
G01*
G37*
%TD.AperFunction*%
%TO.P,U1,11*%
%TO.N,Net-(U1-Pad11)*%
%TA.AperFunction,SMDPad,CuDef*%
G36*
G01*
X136125000Y-91812500D02*
X136125000Y-91062500D01*
G75*
G02*
X136187500Y-91000000I62500J0D01*
G01*
X136312500Y-91000000D01*
G75*
G02*
X136375000Y-91062500I0J-62500D01*
G01*
X136375000Y-91812500D01*
G75*
G02*
X136312500Y-91875000I-62500J0D01*
G01*
X136187500Y-91875000D01*
G75*
G02*
X136125000Y-91812500I0J62500D01*
G01*
G37*
%TD.AperFunction*%
%TO.P,U1,12*%
%TO.N,Net-(U1-Pad12)*%
%TA.AperFunction,SMDPad,CuDef*%
G36*
G01*
X136625000Y-91812500D02*
X136625000Y-91062500D01*
G75*
G02*
X136687500Y-91000000I62500J0D01*
G01*
X136812500Y-91000000D01*
G75*
G02*
X136875000Y-91062500I0J-62500D01*
G01*
X136875000Y-91812500D01*
G75*
G02*
X136812500Y-91875000I-62500J0D01*
G01*
X136687500Y-91875000D01*
G75*
G02*
X136625000Y-91812500I0J62500D01*
G01*
G37*
%TD.AperFunction*%
%TO.P,U1,13*%
%TO.N,Net-(U1-Pad13)*%
%TA.AperFunction,SMDPad,CuDef*%
G36*
G01*
X137125000Y-91812500D02*
X137125000Y-91062500D01*
G75*
G02*
X137187500Y-91000000I62500J0D01*
G01*
X137312500Y-91000000D01*
G75*
G02*
X137375000Y-91062500I0J-62500D01*
G01*
X137375000Y-91812500D01*
G75*
G02*
X137312500Y-91875000I-62500J0D01*
G01*
X137187500Y-91875000D01*
G75*
G02*
X137125000Y-91812500I0J62500D01*
G01*
G37*
%TD.AperFunction*%
%TO.P,U1,14*%
%TO.N,Net-(U1-Pad14)*%
%TA.AperFunction,SMDPad,CuDef*%
G36*
G01*
X137625000Y-91812500D02*
X137625000Y-91062500D01*
G75*
G02*
X137687500Y-91000000I62500J0D01*
G01*
X137812500Y-91000000D01*
G75*
G02*
X137875000Y-91062500I0J-62500D01*
G01*
X137875000Y-91812500D01*
G75*
G02*
X137812500Y-91875000I-62500J0D01*
G01*
X137687500Y-91875000D01*
G75*
G02*
X137625000Y-91812500I0J62500D01*
G01*
G37*
%TD.AperFunction*%
%TO.P,U1,15*%
%TO.N,Net-(U1-Pad15)*%
%TA.AperFunction,SMDPad,CuDef*%
G36*
G01*
X138125000Y-91812500D02*
X138125000Y-91062500D01*
G75*
G02*
X138187500Y-91000000I62500J0D01*
G01*
X138312500Y-91000000D01*
G75*
G02*
X138375000Y-91062500I0J-62500D01*
G01*
X138375000Y-91812500D01*
G75*
G02*
X138312500Y-91875000I-62500J0D01*
G01*
X138187500Y-91875000D01*
G75*
G02*
X138125000Y-91812500I0J62500D01*
G01*
G37*
%TD.AperFunction*%
%TO.P,U1,16*%
%TO.N,GND*%
%TA.AperFunction,SMDPad,CuDef*%
G36*
G01*
X138625000Y-91812500D02*
X138625000Y-91062500D01*
G75*
G02*
X138687500Y-91000000I62500J0D01*
G01*
X138812500Y-91000000D01*
G75*
G02*
X138875000Y-91062500I0J-62500D01*
G01*
X138875000Y-91812500D01*
G75*
G02*
X138812500Y-91875000I-62500J0D01*
G01*
X138687500Y-91875000D01*
G75*
G02*
X138625000Y-91812500I0J62500D01*
G01*
G37*
%TD.AperFunction*%
%TO.P,U1,17*%
%TO.N,VDD*%
%TA.AperFunction,SMDPad,CuDef*%
G36*
G01*
X139000000Y-90812500D02*
X139000000Y-90687500D01*
G75*
G02*
X139062500Y-90625000I62500J0D01*
G01*
X139812500Y-90625000D01*
G75*
G02*
X139875000Y-90687500I0J-62500D01*
G01*
X139875000Y-90812500D01*
G75*
G02*
X139812500Y-90875000I-62500J0D01*
G01*
X139062500Y-90875000D01*
G75*
G02*
X139000000Y-90812500I0J62500D01*
G01*
G37*
%TD.AperFunction*%
%TO.P,U1,18*%
%TO.N,/CLKOUT*%
%TA.AperFunction,SMDPad,CuDef*%
G36*
G01*
X139000000Y-90312500D02*
X139000000Y-90187500D01*
G75*
G02*
X139062500Y-90125000I62500J0D01*
G01*
X139812500Y-90125000D01*
G75*
G02*
X139875000Y-90187500I0J-62500D01*
G01*
X139875000Y-90312500D01*
G75*
G02*
X139812500Y-90375000I-62500J0D01*
G01*
X139062500Y-90375000D01*
G75*
G02*
X139000000Y-90312500I0J62500D01*
G01*
G37*
%TD.AperFunction*%
%TO.P,U1,19*%
%TO.N,Net-(U1-Pad19)*%
%TA.AperFunction,SMDPad,CuDef*%
G36*
G01*
X139000000Y-89812500D02*
X139000000Y-89687500D01*
G75*
G02*
X139062500Y-89625000I62500J0D01*
G01*
X139812500Y-89625000D01*
G75*
G02*
X139875000Y-89687500I0J-62500D01*
G01*
X139875000Y-89812500D01*
G75*
G02*
X139812500Y-89875000I-62500J0D01*
G01*
X139062500Y-89875000D01*
G75*
G02*
X139000000Y-89812500I0J62500D01*
G01*
G37*
%TD.AperFunction*%
%TO.P,U1,20*%
%TO.N,Net-(U1-Pad20)*%
%TA.AperFunction,SMDPad,CuDef*%
G36*
G01*
X139000000Y-89312500D02*
X139000000Y-89187500D01*
G75*
G02*
X139062500Y-89125000I62500J0D01*
G01*
X139812500Y-89125000D01*
G75*
G02*
X139875000Y-89187500I0J-62500D01*
G01*
X139875000Y-89312500D01*
G75*
G02*
X139812500Y-89375000I-62500J0D01*
G01*
X139062500Y-89375000D01*
G75*
G02*
X139000000Y-89312500I0J62500D01*
G01*
G37*
%TD.AperFunction*%
%TO.P,U1,21*%
%TO.N,Net-(U1-Pad21)*%
%TA.AperFunction,SMDPad,CuDef*%
G36*
G01*
X139000000Y-88812500D02*
X139000000Y-88687500D01*
G75*
G02*
X139062500Y-88625000I62500J0D01*
G01*
X139812500Y-88625000D01*
G75*
G02*
X139875000Y-88687500I0J-62500D01*
G01*
X139875000Y-88812500D01*
G75*
G02*
X139812500Y-88875000I-62500J0D01*
G01*
X139062500Y-88875000D01*
G75*
G02*
X139000000Y-88812500I0J62500D01*
G01*
G37*
%TD.AperFunction*%
%TO.P,U1,22*%
%TO.N,Net-(U1-Pad22)*%
%TA.AperFunction,SMDPad,CuDef*%
G36*
G01*
X139000000Y-88312500D02*
X139000000Y-88187500D01*
G75*
G02*
X139062500Y-88125000I62500J0D01*
G01*
X139812500Y-88125000D01*
G75*
G02*
X139875000Y-88187500I0J-62500D01*
G01*
X139875000Y-88312500D01*
G75*
G02*
X139812500Y-88375000I-62500J0D01*
G01*
X139062500Y-88375000D01*
G75*
G02*
X139000000Y-88312500I0J62500D01*
G01*
G37*
%TD.AperFunction*%
%TO.P,U1,23*%
%TO.N,/SWDIO*%
%TA.AperFunction,SMDPad,CuDef*%
G36*
G01*
X139000000Y-87812500D02*
X139000000Y-87687500D01*
G75*
G02*
X139062500Y-87625000I62500J0D01*
G01*
X139812500Y-87625000D01*
G75*
G02*
X139875000Y-87687500I0J-62500D01*
G01*
X139875000Y-87812500D01*
G75*
G02*
X139812500Y-87875000I-62500J0D01*
G01*
X139062500Y-87875000D01*
G75*
G02*
X139000000Y-87812500I0J62500D01*
G01*
G37*
%TD.AperFunction*%
%TO.P,U1,24*%
%TO.N,/SWDCLK*%
%TA.AperFunction,SMDPad,CuDef*%
G36*
G01*
X139000000Y-87312500D02*
X139000000Y-87187500D01*
G75*
G02*
X139062500Y-87125000I62500J0D01*
G01*
X139812500Y-87125000D01*
G75*
G02*
X139875000Y-87187500I0J-62500D01*
G01*
X139875000Y-87312500D01*
G75*
G02*
X139812500Y-87375000I-62500J0D01*
G01*
X139062500Y-87375000D01*
G75*
G02*
X139000000Y-87312500I0J62500D01*
G01*
G37*
%TD.AperFunction*%
%TO.P,U1,25*%
%TO.N,Net-(U1-Pad25)*%
%TA.AperFunction,SMDPad,CuDef*%
G36*
G01*
X138625000Y-86937500D02*
X138625000Y-86187500D01*
G75*
G02*
X138687500Y-86125000I62500J0D01*
G01*
X138812500Y-86125000D01*
G75*
G02*
X138875000Y-86187500I0J-62500D01*
G01*
X138875000Y-86937500D01*
G75*
G02*
X138812500Y-87000000I-62500J0D01*
G01*
X138687500Y-87000000D01*
G75*
G02*
X138625000Y-86937500I0J62500D01*
G01*
G37*
%TD.AperFunction*%
%TO.P,U1,26*%
%TO.N,/SWO*%
%TA.AperFunction,SMDPad,CuDef*%
G36*
G01*
X138125000Y-86937500D02*
X138125000Y-86187500D01*
G75*
G02*
X138187500Y-86125000I62500J0D01*
G01*
X138312500Y-86125000D01*
G75*
G02*
X138375000Y-86187500I0J-62500D01*
G01*
X138375000Y-86937500D01*
G75*
G02*
X138312500Y-87000000I-62500J0D01*
G01*
X138187500Y-87000000D01*
G75*
G02*
X138125000Y-86937500I0J62500D01*
G01*
G37*
%TD.AperFunction*%
%TO.P,U1,27*%
%TO.N,Net-(U1-Pad27)*%
%TA.AperFunction,SMDPad,CuDef*%
G36*
G01*
X137625000Y-86937500D02*
X137625000Y-86187500D01*
G75*
G02*
X137687500Y-86125000I62500J0D01*
G01*
X137812500Y-86125000D01*
G75*
G02*
X137875000Y-86187500I0J-62500D01*
G01*
X137875000Y-86937500D01*
G75*
G02*
X137812500Y-87000000I-62500J0D01*
G01*
X137687500Y-87000000D01*
G75*
G02*
X137625000Y-86937500I0J62500D01*
G01*
G37*
%TD.AperFunction*%
%TO.P,U1,28*%
%TO.N,Net-(U1-Pad28)*%
%TA.AperFunction,SMDPad,CuDef*%
G36*
G01*
X137125000Y-86937500D02*
X137125000Y-86187500D01*
G75*
G02*
X137187500Y-86125000I62500J0D01*
G01*
X137312500Y-86125000D01*
G75*
G02*
X137375000Y-86187500I0J-62500D01*
G01*
X137375000Y-86937500D01*
G75*
G02*
X137312500Y-87000000I-62500J0D01*
G01*
X137187500Y-87000000D01*
G75*
G02*
X137125000Y-86937500I0J62500D01*
G01*
G37*
%TD.AperFunction*%
%TO.P,U1,29*%
%TO.N,Net-(U1-Pad29)*%
%TA.AperFunction,SMDPad,CuDef*%
G36*
G01*
X136625000Y-86937500D02*
X136625000Y-86187500D01*
G75*
G02*
X136687500Y-86125000I62500J0D01*
G01*
X136812500Y-86125000D01*
G75*
G02*
X136875000Y-86187500I0J-62500D01*
G01*
X136875000Y-86937500D01*
G75*
G02*
X136812500Y-87000000I-62500J0D01*
G01*
X136687500Y-87000000D01*
G75*
G02*
X136625000Y-86937500I0J62500D01*
G01*
G37*
%TD.AperFunction*%
%TO.P,U1,30*%
%TO.N,Net-(U1-Pad30)*%
%TA.AperFunction,SMDPad,CuDef*%
G36*
G01*
X136125000Y-86937500D02*
X136125000Y-86187500D01*
G75*
G02*
X136187500Y-86125000I62500J0D01*
G01*
X136312500Y-86125000D01*
G75*
G02*
X136375000Y-86187500I0J-62500D01*
G01*
X136375000Y-86937500D01*
G75*
G02*
X136312500Y-87000000I-62500J0D01*
G01*
X136187500Y-87000000D01*
G75*
G02*
X136125000Y-86937500I0J62500D01*
G01*
G37*
%TD.AperFunction*%
%TO.P,U1,31*%
%TO.N,GND*%
%TA.AperFunction,SMDPad,CuDef*%
G36*
G01*
X135625000Y-86937500D02*
X135625000Y-86187500D01*
G75*
G02*
X135687500Y-86125000I62500J0D01*
G01*
X135812500Y-86125000D01*
G75*
G02*
X135875000Y-86187500I0J-62500D01*
G01*
X135875000Y-86937500D01*
G75*
G02*
X135812500Y-87000000I-62500J0D01*
G01*
X135687500Y-87000000D01*
G75*
G02*
X135625000Y-86937500I0J62500D01*
G01*
G37*
%TD.AperFunction*%
%TO.P,U1,32*%
%TA.AperFunction,SMDPad,CuDef*%
G36*
G01*
X135125000Y-86937500D02*
X135125000Y-86187500D01*
G75*
G02*
X135187500Y-86125000I62500J0D01*
G01*
X135312500Y-86125000D01*
G75*
G02*
X135375000Y-86187500I0J-62500D01*
G01*
X135375000Y-86937500D01*
G75*
G02*
X135312500Y-87000000I-62500J0D01*
G01*
X135187500Y-87000000D01*
G75*
G02*
X135125000Y-86937500I0J62500D01*
G01*
G37*
%TD.AperFunction*%
D11*
%TO.P,U1,33*%
X137000000Y-89000000D03*
%TD*%
D12*
%TO.P,BT1,2*%
%TO.N,GND*%
X125000000Y-119650000D03*
%TO.P,BT1,1*%
%TO.N,Net-(BT1-Pad1)*%
X125000000Y-90350000D03*
%TD*%
%TO.P,C1,1*%
%TO.N,/sensor_pwr*%
%TA.AperFunction,SMDPad,CuDef*%
G36*
G01*
X106762500Y-107600000D02*
X107237500Y-107600000D01*
G75*
G02*
X107475000Y-107837500I0J-237500D01*
G01*
X107475000Y-108437500D01*
G75*
G02*
X107237500Y-108675000I-237500J0D01*
G01*
X106762500Y-108675000D01*
G75*
G02*
X106525000Y-108437500I0J237500D01*
G01*
X106525000Y-107837500D01*
G75*
G02*
X106762500Y-107600000I237500J0D01*
G01*
G37*
%TD.AperFunction*%
%TO.P,C1,2*%
%TO.N,GND*%
%TA.AperFunction,SMDPad,CuDef*%
G36*
G01*
X106762500Y-109325000D02*
X107237500Y-109325000D01*
G75*
G02*
X107475000Y-109562500I0J-237500D01*
G01*
X107475000Y-110162500D01*
G75*
G02*
X107237500Y-110400000I-237500J0D01*
G01*
X106762500Y-110400000D01*
G75*
G02*
X106525000Y-110162500I0J237500D01*
G01*
X106525000Y-109562500D01*
G75*
G02*
X106762500Y-109325000I237500J0D01*
G01*
G37*
%TD.AperFunction*%
%TD*%
D13*
%TO.P,H1,1*%
%TO.N,N/C*%
X125000000Y-125000000D03*
D14*
X126650000Y-125000000D03*
X126166726Y-126166726D03*
X125000000Y-126650000D03*
X123833274Y-126166726D03*
X123350000Y-125000000D03*
X123833274Y-123833274D03*
X125000000Y-123350000D03*
X126166726Y-123833274D03*
%TD*%
%TO.P,H2,1*%
%TO.N,N/C*%
X126166726Y-83833274D03*
X125000000Y-83350000D03*
X123833274Y-83833274D03*
X123350000Y-85000000D03*
X123833274Y-86166726D03*
X125000000Y-86650000D03*
X126166726Y-86166726D03*
X126650000Y-85000000D03*
D13*
X125000000Y-85000000D03*
%TD*%
%TO.P,H3,1*%
%TO.N,N/C*%
X145000000Y-105000000D03*
D14*
X146650000Y-105000000D03*
X146166726Y-106166726D03*
X145000000Y-106650000D03*
X143833274Y-106166726D03*
X143350000Y-105000000D03*
X143833274Y-103833274D03*
X145000000Y-103350000D03*
X146166726Y-103833274D03*
%TD*%
%TO.P,H4,1*%
%TO.N,N/C*%
X106166726Y-103833274D03*
X105000000Y-103350000D03*
X103833274Y-103833274D03*
X103350000Y-105000000D03*
X103833274Y-106166726D03*
X105000000Y-106650000D03*
X106166726Y-106166726D03*
X106650000Y-105000000D03*
D13*
X105000000Y-105000000D03*
%TD*%
D15*
%TO.P,IC1,1*%
%TO.N,GND*%
X111000000Y-110000000D03*
%TO.P,IC1,2*%
%TO.N,/sensor_pwr*%
X111000000Y-108000000D03*
%TO.P,IC1,3*%
%TO.N,/tsl237_freq*%
X111000000Y-106000000D03*
%TD*%
%TO.P,J1,1*%
%TO.N,GND*%
%TA.AperFunction,ComponentPad*%
G36*
G01*
X136402044Y-122032270D02*
X135291279Y-121100228D01*
G75*
G02*
X135260465Y-120748020I160697J191511D01*
G01*
X136031810Y-119828766D01*
G75*
G02*
X136384018Y-119797952I191511J-160697D01*
G01*
X137494783Y-120729994D01*
G75*
G02*
X137525597Y-121082202I-160697J-191511D01*
G01*
X136754252Y-122001456D01*
G75*
G02*
X136402044Y-122032270I-191511J160697D01*
G01*
G37*
%TD.AperFunction*%
%TO.P,J1,2*%
%TO.N,Net-(J1-Pad2)*%
%TA.AperFunction,ComponentPad*%
G36*
G01*
X137549387Y-119731486D02*
X137357875Y-119570790D01*
G75*
G02*
X137253106Y-118373283I546369J651138D01*
G01*
X137253106Y-118373283D01*
G75*
G02*
X138450613Y-118268514I651138J-546369D01*
G01*
X138642125Y-118429210D01*
G75*
G02*
X138746894Y-119626717I-546369J-651138D01*
G01*
X138746894Y-119626717D01*
G75*
G02*
X137549387Y-119731486I-651138J546369D01*
G01*
G37*
%TD.AperFunction*%
%TO.P,J1,3*%
%TO.N,Net-(J1-Pad3)*%
%TA.AperFunction,ComponentPad*%
G36*
G01*
X139156356Y-117816375D02*
X138964844Y-117655679D01*
G75*
G02*
X138860075Y-116458172I546369J651138D01*
G01*
X138860075Y-116458172D01*
G75*
G02*
X140057582Y-116353403I651138J-546369D01*
G01*
X140249094Y-116514099D01*
G75*
G02*
X140353863Y-117711606I-546369J-651138D01*
G01*
X140353863Y-117711606D01*
G75*
G02*
X139156356Y-117816375I-651138J546369D01*
G01*
G37*
%TD.AperFunction*%
%TD*%
%TO.P,J3,1*%
%TO.N,Net-(J3-Pad1)*%
%TA.AperFunction,ComponentPad*%
G36*
G01*
X106106345Y-98112122D02*
X104918575Y-97280436D01*
G75*
G02*
X104857181Y-96932254I143394J204788D01*
G01*
X105545473Y-95949272D01*
G75*
G02*
X105893655Y-95887878I204788J-143394D01*
G01*
X107081425Y-96719564D01*
G75*
G02*
X107142819Y-97067746I-143394J-204788D01*
G01*
X106454527Y-98050728D01*
G75*
G02*
X106106345Y-98112122I-204788J143394D01*
G01*
G37*
%TD.AperFunction*%
%TO.P,J3,2*%
%TO.N,Net-(J3-Pad2)*%
%TA.AperFunction,ComponentPad*%
G36*
G01*
X107048795Y-95720096D02*
X106844007Y-95576702D01*
G75*
G02*
X106635268Y-94392883I487540J696279D01*
G01*
X106635268Y-94392883D01*
G75*
G02*
X107819087Y-94184144I696279J-487540D01*
G01*
X108023875Y-94327538D01*
G75*
G02*
X108232614Y-95511357I-487540J-696279D01*
G01*
X108232614Y-95511357D01*
G75*
G02*
X107048795Y-95720096I-696279J487540D01*
G01*
G37*
%TD.AperFunction*%
%TO.P,J3,3*%
%TO.N,Net-(J3-Pad3)*%
%TA.AperFunction,ComponentPad*%
G36*
G01*
X108482736Y-93672216D02*
X108277948Y-93528822D01*
G75*
G02*
X108069209Y-92345003I487540J696279D01*
G01*
X108069209Y-92345003D01*
G75*
G02*
X109253028Y-92136264I696279J-487540D01*
G01*
X109457816Y-92279658D01*
G75*
G02*
X109666555Y-93463477I-487540J-696279D01*
G01*
X109666555Y-93463477D01*
G75*
G02*
X108482736Y-93672216I-696279J487540D01*
G01*
G37*
%TD.AperFunction*%
%TO.P,J3,4*%
%TO.N,GND*%
%TA.AperFunction,ComponentPad*%
G36*
G01*
X109916677Y-91624336D02*
X109711889Y-91480942D01*
G75*
G02*
X109503150Y-90297123I487540J696279D01*
G01*
X109503150Y-90297123D01*
G75*
G02*
X110686969Y-90088384I696279J-487540D01*
G01*
X110891757Y-90231778D01*
G75*
G02*
X111100496Y-91415597I-487540J-696279D01*
G01*
X111100496Y-91415597D01*
G75*
G02*
X109916677Y-91624336I-696279J487540D01*
G01*
G37*
%TD.AperFunction*%
%TD*%
%TA.AperFunction,SMDPad,CuDef*%
D16*
%TO.P,JP2,1*%
%TO.N,Net-(BT1-Pad1)*%
G36*
X115750000Y-84250000D02*
G01*
X116300000Y-84250000D01*
X116300000Y-84250602D01*
X116324534Y-84250602D01*
X116373365Y-84255412D01*
X116421490Y-84264984D01*
X116468445Y-84279228D01*
X116513778Y-84298005D01*
X116557051Y-84321136D01*
X116597850Y-84348396D01*
X116635779Y-84379524D01*
X116670476Y-84414221D01*
X116701604Y-84452150D01*
X116728864Y-84492949D01*
X116751995Y-84536222D01*
X116770772Y-84581555D01*
X116785016Y-84628510D01*
X116794588Y-84676635D01*
X116799398Y-84725466D01*
X116799398Y-84750000D01*
X116800000Y-84750000D01*
X116800000Y-85250000D01*
X116799398Y-85250000D01*
X116799398Y-85274534D01*
X116794588Y-85323365D01*
X116785016Y-85371490D01*
X116770772Y-85418445D01*
X116751995Y-85463778D01*
X116728864Y-85507051D01*
X116701604Y-85547850D01*
X116670476Y-85585779D01*
X116635779Y-85620476D01*
X116597850Y-85651604D01*
X116557051Y-85678864D01*
X116513778Y-85701995D01*
X116468445Y-85720772D01*
X116421490Y-85735016D01*
X116373365Y-85744588D01*
X116324534Y-85749398D01*
X116300000Y-85749398D01*
X116300000Y-85750000D01*
X115750000Y-85750000D01*
X115750000Y-84250000D01*
G37*
%TD.AperFunction*%
%TA.AperFunction,SMDPad,CuDef*%
%TO.P,JP2,3*%
%TO.N,Net-(J3-Pad2)*%
G36*
X113700000Y-85749398D02*
G01*
X113675466Y-85749398D01*
X113626635Y-85744588D01*
X113578510Y-85735016D01*
X113531555Y-85720772D01*
X113486222Y-85701995D01*
X113442949Y-85678864D01*
X113402150Y-85651604D01*
X113364221Y-85620476D01*
X113329524Y-85585779D01*
X113298396Y-85547850D01*
X113271136Y-85507051D01*
X113248005Y-85463778D01*
X113229228Y-85418445D01*
X113214984Y-85371490D01*
X113205412Y-85323365D01*
X113200602Y-85274534D01*
X113200602Y-85250000D01*
X113200000Y-85250000D01*
X113200000Y-84750000D01*
X113200602Y-84750000D01*
X113200602Y-84725466D01*
X113205412Y-84676635D01*
X113214984Y-84628510D01*
X113229228Y-84581555D01*
X113248005Y-84536222D01*
X113271136Y-84492949D01*
X113298396Y-84452150D01*
X113329524Y-84414221D01*
X113364221Y-84379524D01*
X113402150Y-84348396D01*
X113442949Y-84321136D01*
X113486222Y-84298005D01*
X113531555Y-84279228D01*
X113578510Y-84264984D01*
X113626635Y-84255412D01*
X113675466Y-84250602D01*
X113700000Y-84250602D01*
X113700000Y-84250000D01*
X114250000Y-84250000D01*
X114250000Y-85750000D01*
X113700000Y-85750000D01*
X113700000Y-85749398D01*
G37*
%TD.AperFunction*%
D17*
%TO.P,JP2,2*%
%TO.N,VDD*%
X115000000Y-85000000D03*
%TD*%
%TO.P,R3,1*%
%TO.N,/TX*%
%TA.AperFunction,SMDPad,CuDef*%
G36*
G01*
X141237500Y-110400000D02*
X140762500Y-110400000D01*
G75*
G02*
X140525000Y-110162500I0J237500D01*
G01*
X140525000Y-109662500D01*
G75*
G02*
X140762500Y-109425000I237500J0D01*
G01*
X141237500Y-109425000D01*
G75*
G02*
X141475000Y-109662500I0J-237500D01*
G01*
X141475000Y-110162500D01*
G75*
G02*
X141237500Y-110400000I-237500J0D01*
G01*
G37*
%TD.AperFunction*%
%TO.P,R3,2*%
%TO.N,Net-(J1-Pad3)*%
%TA.AperFunction,SMDPad,CuDef*%
G36*
G01*
X141237500Y-108575000D02*
X140762500Y-108575000D01*
G75*
G02*
X140525000Y-108337500I0J237500D01*
G01*
X140525000Y-107837500D01*
G75*
G02*
X140762500Y-107600000I237500J0D01*
G01*
X141237500Y-107600000D01*
G75*
G02*
X141475000Y-107837500I0J-237500D01*
G01*
X141475000Y-108337500D01*
G75*
G02*
X141237500Y-108575000I-237500J0D01*
G01*
G37*
%TD.AperFunction*%
%TD*%
%TO.P,R4,2*%
%TO.N,Net-(J1-Pad2)*%
%TA.AperFunction,SMDPad,CuDef*%
G36*
G01*
X138237500Y-108575000D02*
X137762500Y-108575000D01*
G75*
G02*
X137525000Y-108337500I0J237500D01*
G01*
X137525000Y-107837500D01*
G75*
G02*
X137762500Y-107600000I237500J0D01*
G01*
X138237500Y-107600000D01*
G75*
G02*
X138475000Y-107837500I0J-237500D01*
G01*
X138475000Y-108337500D01*
G75*
G02*
X138237500Y-108575000I-237500J0D01*
G01*
G37*
%TD.AperFunction*%
%TO.P,R4,1*%
%TO.N,/RX*%
%TA.AperFunction,SMDPad,CuDef*%
G36*
G01*
X138237500Y-110400000D02*
X137762500Y-110400000D01*
G75*
G02*
X137525000Y-110162500I0J237500D01*
G01*
X137525000Y-109662500D01*
G75*
G02*
X137762500Y-109425000I237500J0D01*
G01*
X138237500Y-109425000D01*
G75*
G02*
X138475000Y-109662500I0J-237500D01*
G01*
X138475000Y-110162500D01*
G75*
G02*
X138237500Y-110400000I-237500J0D01*
G01*
G37*
%TD.AperFunction*%
%TD*%
D18*
%TO.P,TP1,1*%
%TO.N,/CLKOUT*%
X144000000Y-92000000D03*
%TD*%
%TO.P,TP2,1*%
%TO.N,/oscillator*%
X132000000Y-84000000D03*
%TD*%
%TO.P,TP6,1*%
%TO.N,/tsl237_freq*%
X109000000Y-104000000D03*
%TD*%
D19*
%TO.P,U3,1*%
%TO.N,VDD*%
X128800000Y-86000000D03*
%TO.P,U3,10*%
%TO.N,Net-(U3-Pad10)*%
X130540000Y-86000000D03*
%TO.P,U3,2*%
%TO.N,VDD*%
X128800000Y-86700000D03*
%TO.P,U3,9*%
%TO.N,GND*%
X130540000Y-86700000D03*
%TO.P,U3,3*%
%TO.N,VDD*%
X128800000Y-87400000D03*
%TO.P,U3,8*%
%TO.N,GND*%
X130540000Y-87400000D03*
%TO.P,U3,4*%
%TO.N,/oscillator*%
X128800000Y-88100000D03*
%TO.P,U3,7*%
%TO.N,GND*%
X130540000Y-88100000D03*
%TO.P,U3,5*%
X128800000Y-88800000D03*
%TO.P,U3,6*%
%TO.N,Net-(U3-Pad6)*%
X130540000Y-88800000D03*
%TD*%
D20*
%TO.N,GND*%
X131677096Y-86322904D03*
X135000000Y-85000000D03*
X120500000Y-88000000D03*
X113000000Y-88000000D03*
X142500000Y-98000000D03*
X138500000Y-92500000D03*
%TO.N,VDD*%
X117500000Y-89500000D03*
X127000000Y-88000000D03*
X137389663Y-94428336D03*
X133530200Y-89500000D03*
X134124909Y-86624909D03*
%TO.N,/TX*%
X133000000Y-92000000D03*
X147476201Y-97634201D03*
%TO.N,/RX*%
X146946001Y-101000000D03*
X132000000Y-93000000D03*
%TO.N,/NRST*%
X143500000Y-97830599D03*
X135000000Y-100000000D03*
X129500000Y-101000000D03*
X132000000Y-89000000D03*
%TO.N,/SWDIO*%
X139000000Y-94000000D03*
X142000000Y-88000000D03*
%TO.N,/SWDCLK*%
X140000000Y-93000000D03*
X141000000Y-87000000D03*
%TO.N,/SWO*%
X141000000Y-98000000D03*
X133000000Y-87000000D03*
%TD*%
D21*
%TO.N,GND*%
X110862500Y-109862500D02*
X111000000Y-110000000D01*
X107000000Y-109862500D02*
X110862500Y-109862500D01*
X140730000Y-101024162D02*
X140730000Y-100032000D01*
X136393031Y-105361131D02*
X140730000Y-101024162D01*
X136393031Y-120915111D02*
X136393031Y-105361131D01*
X142123801Y-98360799D02*
X142000000Y-98484600D01*
X142000000Y-98484600D02*
X142000000Y-100032000D01*
X144416199Y-98360799D02*
X142123801Y-98360799D01*
X144540000Y-98484600D02*
X144416199Y-98360799D01*
X144540000Y-100032000D02*
X144540000Y-98484600D01*
X142000000Y-100032000D02*
X140730000Y-100032000D01*
%TO.N,Net-(BT1-Pad1)*%
X125550000Y-89800000D02*
X125000000Y-90350000D01*
%TO.N,GND*%
X135000000Y-86312500D02*
X135250000Y-86562500D01*
X135000000Y-85000000D02*
X135000000Y-86312500D01*
X135250000Y-86562500D02*
X135750000Y-86562500D01*
X135750000Y-87750000D02*
X137000000Y-89000000D01*
X135750000Y-86562500D02*
X135750000Y-87750000D01*
X138750000Y-91854010D02*
X138750000Y-91437500D01*
X135127920Y-119650000D02*
X136393031Y-120915111D01*
X125000000Y-119650000D02*
X135127920Y-119650000D01*
X142679039Y-98360799D02*
X142000000Y-99039838D01*
X142123801Y-98360799D02*
X142679039Y-98360799D01*
X127047162Y-88800000D02*
X126247162Y-88000000D01*
X128800000Y-88800000D02*
X127047162Y-88800000D01*
X126247162Y-88000000D02*
X120500000Y-88000000D01*
X110301823Y-90698177D02*
X110301823Y-90856360D01*
X113000000Y-88000000D02*
X110301823Y-90698177D01*
X130117838Y-88100000D02*
X130540000Y-88100000D01*
X129417838Y-88800000D02*
X130117838Y-88100000D01*
X128800000Y-88800000D02*
X129417838Y-88800000D01*
X130540000Y-88100000D02*
X130540000Y-86700000D01*
X131300000Y-86700000D02*
X131677096Y-86322904D01*
X130540000Y-86700000D02*
X131300000Y-86700000D01*
X142000000Y-98484600D02*
X142015400Y-98484600D01*
X142015400Y-98484600D02*
X142500000Y-98000000D01*
X138750000Y-92250000D02*
X138750000Y-91437500D01*
X138500000Y-92500000D02*
X138750000Y-92250000D01*
X111000000Y-110000000D02*
X111000000Y-119000000D01*
X111650000Y-119650000D02*
X125000000Y-119650000D01*
X111000000Y-119000000D02*
X111650000Y-119650000D01*
%TO.N,Net-(BT1-Pad1)*%
X125145973Y-90702409D02*
X125249191Y-90599191D01*
X122002409Y-90702409D02*
X125145973Y-90702409D01*
X116300000Y-85000000D02*
X122002409Y-90702409D01*
%TO.N,VDD*%
X134562500Y-87250000D02*
X134250000Y-87250000D01*
X115000000Y-85000000D02*
X115000000Y-87000000D01*
X115000000Y-87000000D02*
X117500000Y-89500000D01*
X127600000Y-87400000D02*
X128800000Y-87400000D01*
X127000000Y-88000000D02*
X127600000Y-87400000D01*
X128800000Y-87400000D02*
X128800000Y-86700000D01*
X128800000Y-86700000D02*
X128800000Y-86000000D01*
X139336199Y-98360799D02*
X135639201Y-98360799D01*
X139460000Y-98484600D02*
X139336199Y-98360799D01*
X139460000Y-100032000D02*
X139460000Y-98484600D01*
X135639201Y-96256637D02*
X138895838Y-93000000D01*
X135639201Y-98360799D02*
X135639201Y-96256637D01*
X138895838Y-93000000D02*
X139469799Y-93000000D01*
X139745503Y-92469799D02*
X140969799Y-92469799D01*
X139469799Y-92745503D02*
X139745503Y-92469799D01*
X139469799Y-93000000D02*
X139469799Y-92745503D01*
X140969799Y-92469799D02*
X141000000Y-92439598D01*
X141000000Y-92439598D02*
X141000000Y-90602410D01*
X140852410Y-90750000D02*
X139437500Y-90750000D01*
X141000000Y-90602410D02*
X140852410Y-90750000D01*
X141000000Y-90602410D02*
X141000000Y-90780200D01*
X133780200Y-89250000D02*
X133530200Y-89500000D01*
X134562500Y-89250000D02*
X133780200Y-89250000D01*
X134562500Y-87062500D02*
X134124909Y-86624909D01*
X134562500Y-87250000D02*
X134562500Y-87062500D01*
%TO.N,/sensor_pwr*%
X110862500Y-108137500D02*
X111000000Y-108000000D01*
X107000000Y-108137500D02*
X110862500Y-108137500D01*
X135750000Y-93034698D02*
X135750000Y-91437500D01*
X120784698Y-108000000D02*
X135750000Y-93034698D01*
X111000000Y-108000000D02*
X120784698Y-108000000D01*
%TO.N,/tsl237_freq*%
X109000000Y-104000000D02*
X111000000Y-106000000D01*
X134145990Y-89750000D02*
X134562500Y-89750000D01*
X117895990Y-106000000D02*
X134145990Y-89750000D01*
X111000000Y-106000000D02*
X117895990Y-106000000D01*
%TO.N,Net-(J1-Pad2)*%
X137248790Y-118248790D02*
X138000000Y-119000000D01*
X137248790Y-108838710D02*
X137248790Y-118248790D01*
X138000000Y-108087500D02*
X137248790Y-108838710D01*
%TO.N,Net-(J1-Pad3)*%
X140248790Y-116443068D02*
X139606969Y-117084889D01*
X140248790Y-108838710D02*
X140248790Y-116443068D01*
X141000000Y-108087500D02*
X140248790Y-108838710D01*
%TO.N,Net-(J3-Pad2)*%
X107433941Y-91266059D02*
X113700000Y-85000000D01*
X107433941Y-94952120D02*
X107433941Y-91266059D01*
%TO.N,/TX*%
X147476201Y-97634201D02*
X145810000Y-95968000D01*
X147476201Y-106188577D02*
X147476201Y-97634201D01*
X143752278Y-109912500D02*
X147476201Y-106188577D01*
X141000000Y-109912500D02*
X143752278Y-109912500D01*
X134562500Y-90750000D02*
X133312500Y-92000000D01*
X133312500Y-92000000D02*
X133000000Y-92000000D01*
%TO.N,/RX*%
X145810000Y-101024162D02*
X145810000Y-100032000D01*
X145130961Y-101703201D02*
X145810000Y-101024162D01*
X144296799Y-101703201D02*
X145130961Y-101703201D01*
X142523799Y-103476201D02*
X144296799Y-101703201D01*
X142523799Y-104901201D02*
X142523799Y-103476201D01*
X138000000Y-109425000D02*
X142523799Y-104901201D01*
X138000000Y-109912500D02*
X138000000Y-109425000D01*
X145810000Y-100032000D02*
X146032000Y-100032000D01*
X146032000Y-100032000D02*
X147000000Y-101000000D01*
X147000000Y-101000000D02*
X146946001Y-101000000D01*
X135250000Y-91437500D02*
X135250000Y-92750000D01*
X135000000Y-93000000D02*
X132000000Y-93000000D01*
X135250000Y-92750000D02*
X135000000Y-93000000D01*
%TO.N,/CLKOUT*%
X142250000Y-90250000D02*
X139437500Y-90250000D01*
X144000000Y-92000000D02*
X142250000Y-90250000D01*
%TO.N,/oscillator*%
X129526201Y-87976199D02*
X129526201Y-84026201D01*
X129402400Y-88100000D02*
X129526201Y-87976199D01*
X128800000Y-88100000D02*
X129402400Y-88100000D01*
X129552402Y-84000000D02*
X132000000Y-84000000D01*
X129526201Y-84026201D02*
X129552402Y-84000000D01*
X132965302Y-87750000D02*
X134562500Y-87750000D01*
X132207297Y-86991995D02*
X132965302Y-87750000D01*
X132207297Y-84207297D02*
X132207297Y-86991995D01*
X132000000Y-84000000D02*
X132207297Y-84207297D01*
%TO.N,/NRST*%
X144540000Y-97515400D02*
X144055400Y-98000000D01*
X144540000Y-95968000D02*
X144540000Y-97515400D01*
X143669401Y-98000000D02*
X143500000Y-97830599D01*
X144055400Y-98000000D02*
X143669401Y-98000000D01*
X135000000Y-100000000D02*
X130500000Y-100000000D01*
X130500000Y-100000000D02*
X129500000Y-101000000D01*
X134562500Y-88750000D02*
X132250000Y-88750000D01*
X132250000Y-88750000D02*
X132000000Y-89000000D01*
%TO.N,/SWDIO*%
X139460000Y-94420600D02*
X139039400Y-94000000D01*
X139460000Y-95968000D02*
X139460000Y-94420600D01*
X139039400Y-94000000D02*
X139000000Y-94000000D01*
X139441499Y-87746001D02*
X139437500Y-87750000D01*
X141746001Y-87746001D02*
X139441499Y-87746001D01*
X142000000Y-88000000D02*
X141746001Y-87746001D01*
%TO.N,/SWDCLK*%
X140730000Y-95968000D02*
X140730000Y-94730000D01*
X140730000Y-95968000D02*
X140730000Y-93730000D01*
X140730000Y-93730000D02*
X140000000Y-93000000D01*
X139687500Y-87000000D02*
X139437500Y-87250000D01*
X141000000Y-87000000D02*
X139687500Y-87000000D01*
%TO.N,/SWO*%
X142000000Y-97515400D02*
X141515400Y-98000000D01*
X142000000Y-95968000D02*
X142000000Y-97515400D01*
X141515400Y-98000000D02*
X141000000Y-98000000D01*
X133000000Y-86215302D02*
X133000000Y-87000000D01*
X134745503Y-84469799D02*
X133000000Y-86215302D01*
X136594799Y-84469799D02*
X134745503Y-84469799D01*
X138250000Y-86125000D02*
X136594799Y-84469799D01*
X138250000Y-86562500D02*
X138250000Y-86125000D01*
%TD*%
D22*
%TO.N,GND*%
X113028309Y-83832958D02*
X112931618Y-83912310D01*
X112862310Y-83981618D01*
X112782958Y-84078309D01*
X112728502Y-84159808D01*
X112669536Y-84270125D01*
X112632027Y-84360681D01*
X112595718Y-84480377D01*
X112576596Y-84576510D01*
X112564336Y-84700991D01*
X112564336Y-84725550D01*
X112561928Y-84750000D01*
X112561928Y-85132283D01*
X106955751Y-90738462D01*
X106928615Y-90760732D01*
X106906345Y-90787868D01*
X106906344Y-90787869D01*
X106839739Y-90869027D01*
X106782620Y-90975890D01*
X106773700Y-90992578D01*
X106733033Y-91126639D01*
X106731024Y-91147033D01*
X106719301Y-91266059D01*
X106722742Y-91300995D01*
X106722741Y-93524147D01*
X106529797Y-93621928D01*
X106299682Y-93802523D01*
X106109221Y-94024542D01*
X105965733Y-94279452D01*
X105874734Y-94557456D01*
X105839718Y-94847873D01*
X105862032Y-95139538D01*
X105884147Y-95218612D01*
X105769635Y-95204805D01*
X105596049Y-95218086D01*
X105428390Y-95264976D01*
X105273101Y-95343673D01*
X105136148Y-95451155D01*
X105022795Y-95583289D01*
X104334503Y-96566271D01*
X104249107Y-96717980D01*
X104194948Y-96883434D01*
X104174108Y-97056275D01*
X104187389Y-97229860D01*
X104234279Y-97397519D01*
X104312977Y-97552809D01*
X104420458Y-97689761D01*
X104552592Y-97803114D01*
X105740362Y-98634800D01*
X105776617Y-98655207D01*
X105761295Y-98670529D01*
X105626139Y-98872804D01*
X105533042Y-99097560D01*
X105485582Y-99336159D01*
X105485582Y-99579433D01*
X105533042Y-99818032D01*
X105626139Y-100042788D01*
X105761295Y-100245063D01*
X105933315Y-100417083D01*
X106135590Y-100552239D01*
X106360346Y-100645336D01*
X106598945Y-100692796D01*
X106842219Y-100692796D01*
X107080818Y-100645336D01*
X107305574Y-100552239D01*
X107507849Y-100417083D01*
X107679869Y-100245063D01*
X107815025Y-100042788D01*
X107908122Y-99818032D01*
X107955582Y-99579433D01*
X107955582Y-99336159D01*
X107908122Y-99097560D01*
X107815025Y-98872804D01*
X107679869Y-98670529D01*
X107507849Y-98498509D01*
X107305574Y-98363353D01*
X107080818Y-98270256D01*
X107079884Y-98270070D01*
X107665497Y-97433729D01*
X107750893Y-97282020D01*
X107805052Y-97116566D01*
X107825892Y-96943725D01*
X107812611Y-96770140D01*
X107765721Y-96602481D01*
X107713581Y-96499595D01*
X107795450Y-96493332D01*
X108077159Y-96414545D01*
X108338086Y-96282312D01*
X108568200Y-96101717D01*
X108758661Y-95879698D01*
X108902149Y-95624788D01*
X108993149Y-95346784D01*
X109028164Y-95056367D01*
X109005850Y-94764702D01*
X108927063Y-94482993D01*
X108918150Y-94465406D01*
X108937725Y-94467766D01*
X109229391Y-94445452D01*
X109511100Y-94366665D01*
X109772027Y-94234432D01*
X110002141Y-94053837D01*
X110192602Y-93831818D01*
X110336090Y-93576908D01*
X110427090Y-93298904D01*
X110462105Y-93008487D01*
X110439791Y-92716822D01*
X110361004Y-92435113D01*
X110347813Y-92409084D01*
X110606440Y-92399138D01*
X110889548Y-92331420D01*
X111154006Y-92209772D01*
X111380301Y-92047201D01*
X111412780Y-91789299D01*
X110333011Y-91033237D01*
X110321540Y-91049620D01*
X110113474Y-90903931D01*
X110124946Y-90887548D01*
X110108563Y-90876077D01*
X110144206Y-90825172D01*
X110478700Y-90825172D01*
X111558469Y-91581235D01*
X111789709Y-91462507D01*
X111865077Y-91194256D01*
X111888940Y-90904141D01*
X111855746Y-90614945D01*
X111766770Y-90337782D01*
X111625432Y-90083303D01*
X111437164Y-89861288D01*
X111166512Y-89842873D01*
X110478700Y-90825172D01*
X110144206Y-90825172D01*
X110254252Y-90668011D01*
X110270635Y-90679483D01*
X110958448Y-89697185D01*
X110848575Y-89449154D01*
X110575558Y-89348173D01*
X110387553Y-89318235D01*
X113369863Y-86335926D01*
X113430377Y-86354282D01*
X113526510Y-86373404D01*
X113650991Y-86385664D01*
X113675550Y-86385664D01*
X113700000Y-86388072D01*
X114250000Y-86388072D01*
X114288801Y-86384251D01*
X114288801Y-86965064D01*
X114285360Y-87000000D01*
X114288801Y-87034936D01*
X114299092Y-87139420D01*
X114336704Y-87263409D01*
X114339759Y-87273481D01*
X114405798Y-87397032D01*
X114466397Y-87470872D01*
X114494674Y-87505327D01*
X114521810Y-87527597D01*
X116618258Y-89624046D01*
X116645164Y-89759312D01*
X116712179Y-89921099D01*
X116809469Y-90066704D01*
X116933296Y-90190531D01*
X117078901Y-90287821D01*
X117240688Y-90354836D01*
X117412441Y-90389000D01*
X117587559Y-90389000D01*
X117759312Y-90354836D01*
X117921099Y-90287821D01*
X118066704Y-90190531D01*
X118190531Y-90066704D01*
X118287821Y-89921099D01*
X118354836Y-89759312D01*
X118389000Y-89587559D01*
X118389000Y-89412441D01*
X118354836Y-89240688D01*
X118287821Y-89078901D01*
X118190531Y-88933296D01*
X118066704Y-88809469D01*
X117921099Y-88712179D01*
X117759312Y-88645164D01*
X117624046Y-88618258D01*
X115711200Y-86705413D01*
X115711200Y-86384251D01*
X115750000Y-86388072D01*
X116300000Y-86388072D01*
X116324450Y-86385664D01*
X116349009Y-86385664D01*
X116473490Y-86373404D01*
X116569623Y-86354282D01*
X116630138Y-86335925D01*
X121474812Y-91180600D01*
X121497082Y-91207736D01*
X121605376Y-91296611D01*
X121728928Y-91362651D01*
X121862989Y-91403318D01*
X121967473Y-91413609D01*
X121967482Y-91413609D01*
X122002408Y-91417049D01*
X122037334Y-91413609D01*
X122561928Y-91413609D01*
X122561928Y-91650000D01*
X122574188Y-91774482D01*
X122610498Y-91894180D01*
X122669463Y-92004494D01*
X122748815Y-92101185D01*
X122845506Y-92180537D01*
X122955820Y-92239502D01*
X123075518Y-92275812D01*
X123200000Y-92288072D01*
X126800000Y-92288072D01*
X126924482Y-92275812D01*
X127044180Y-92239502D01*
X127154494Y-92180537D01*
X127251185Y-92101185D01*
X127330537Y-92004494D01*
X127389502Y-91894180D01*
X127425812Y-91774482D01*
X127438072Y-91650000D01*
X127438072Y-89050000D01*
X127425812Y-88925518D01*
X127389502Y-88805820D01*
X127387353Y-88801799D01*
X127421099Y-88787821D01*
X127566704Y-88690531D01*
X127690531Y-88566704D01*
X127723554Y-88517281D01*
X127715000Y-88593250D01*
X127873750Y-88752000D01*
X127930271Y-88752000D01*
X127995506Y-88805537D01*
X128074947Y-88848000D01*
X127873750Y-88848000D01*
X127715000Y-89006750D01*
X127726896Y-89112397D01*
X127765674Y-89231318D01*
X127826907Y-89340389D01*
X127908242Y-89435419D01*
X128006553Y-89512755D01*
X128118063Y-89569425D01*
X128238486Y-89603252D01*
X128363195Y-89612936D01*
X128514250Y-89610000D01*
X128673000Y-89451250D01*
X128673000Y-88913072D01*
X128927000Y-88913072D01*
X128927000Y-89451250D01*
X129085750Y-89610000D01*
X129236805Y-89612936D01*
X129361514Y-89603252D01*
X129481937Y-89569425D01*
X129593447Y-89512755D01*
X129670471Y-89452164D01*
X129735506Y-89505537D01*
X129845820Y-89564502D01*
X129965518Y-89600812D01*
X130090000Y-89613072D01*
X130990000Y-89613072D01*
X131114482Y-89600812D01*
X131234180Y-89564502D01*
X131288572Y-89535429D01*
X131309469Y-89566704D01*
X131433296Y-89690531D01*
X131578901Y-89787821D01*
X131740688Y-89854836D01*
X131912441Y-89889000D01*
X132087559Y-89889000D01*
X132259312Y-89854836D01*
X132421099Y-89787821D01*
X132566704Y-89690531D01*
X132645924Y-89611311D01*
X132675364Y-89759312D01*
X132742379Y-89921099D01*
X132833191Y-90057010D01*
X117601403Y-105288800D01*
X112088288Y-105288800D01*
X112009776Y-105171298D01*
X111828702Y-104990224D01*
X111615781Y-104847955D01*
X111379196Y-104749958D01*
X111128039Y-104700000D01*
X110871961Y-104700000D01*
X110733357Y-104727570D01*
X110344716Y-104338929D01*
X110385000Y-104136411D01*
X110385000Y-103863589D01*
X110331775Y-103596011D01*
X110227371Y-103343957D01*
X110075799Y-103117114D01*
X109882886Y-102924201D01*
X109656043Y-102772629D01*
X109403989Y-102668225D01*
X109136411Y-102615000D01*
X108863589Y-102615000D01*
X108596011Y-102668225D01*
X108343957Y-102772629D01*
X108117114Y-102924201D01*
X107924201Y-103117114D01*
X107772629Y-103343957D01*
X107668225Y-103596011D01*
X107615000Y-103863589D01*
X107615000Y-103904958D01*
X107512344Y-103657124D01*
X107202088Y-103192793D01*
X106807207Y-102797912D01*
X106342876Y-102487656D01*
X105826939Y-102273948D01*
X105279223Y-102165000D01*
X104720777Y-102165000D01*
X104173061Y-102273948D01*
X103657124Y-102487656D01*
X103192793Y-102797912D01*
X102797912Y-103192793D01*
X102487656Y-103657124D01*
X102273948Y-104173061D01*
X102165000Y-104720777D01*
X102165000Y-105279223D01*
X102273948Y-105826939D01*
X102487656Y-106342876D01*
X102797912Y-106807207D01*
X103192793Y-107202088D01*
X103657124Y-107512344D01*
X104173061Y-107726052D01*
X104720777Y-107835000D01*
X105279223Y-107835000D01*
X105826939Y-107726052D01*
X105900923Y-107695407D01*
X105886928Y-107837500D01*
X105886928Y-108437500D01*
X105903752Y-108608316D01*
X105953577Y-108772567D01*
X106033774Y-108922606D01*
X105994463Y-108970506D01*
X105935498Y-109080820D01*
X105899188Y-109200518D01*
X105886928Y-109325000D01*
X105890000Y-109576750D01*
X106048750Y-109735500D01*
X106873000Y-109735500D01*
X106873000Y-109715500D01*
X107127000Y-109715500D01*
X107127000Y-109735500D01*
X107951250Y-109735500D01*
X108110000Y-109576750D01*
X108113072Y-109325000D01*
X108100812Y-109200518D01*
X108064502Y-109080820D01*
X108005537Y-108970506D01*
X107966226Y-108922606D01*
X108005729Y-108848700D01*
X110010222Y-108848700D01*
X110171298Y-109009776D01*
X110287302Y-109087287D01*
X110283354Y-109103749D01*
X111000000Y-109820395D01*
X111716646Y-109103749D01*
X111712698Y-109087287D01*
X111828702Y-109009776D01*
X112009776Y-108828702D01*
X112088288Y-108711200D01*
X120749772Y-108711200D01*
X120784698Y-108714640D01*
X120819624Y-108711200D01*
X120819634Y-108711200D01*
X120924118Y-108700909D01*
X121058179Y-108660242D01*
X121181731Y-108594202D01*
X121290025Y-108505327D01*
X121312300Y-108478185D01*
X128626252Y-101164234D01*
X128645164Y-101259312D01*
X128712179Y-101421099D01*
X128809469Y-101566704D01*
X128933296Y-101690531D01*
X129078901Y-101787821D01*
X129240688Y-101854836D01*
X129412441Y-101889000D01*
X129587559Y-101889000D01*
X129759312Y-101854836D01*
X129921099Y-101787821D01*
X130066704Y-101690531D01*
X130190531Y-101566704D01*
X130287821Y-101421099D01*
X130354836Y-101259312D01*
X130381742Y-101124045D01*
X130794589Y-100711200D01*
X134464229Y-100711200D01*
X134578901Y-100787821D01*
X134740688Y-100854836D01*
X134912441Y-100889000D01*
X135087559Y-100889000D01*
X135259312Y-100854836D01*
X135421099Y-100787821D01*
X135566704Y-100690531D01*
X135690531Y-100566704D01*
X135787821Y-100421099D01*
X135854836Y-100259312D01*
X135889000Y-100087559D01*
X135889000Y-99912441D01*
X135854836Y-99740688D01*
X135787821Y-99578901D01*
X135690531Y-99433296D01*
X135566704Y-99309469D01*
X135421099Y-99212179D01*
X135259312Y-99145164D01*
X135087559Y-99111000D01*
X134912441Y-99111000D01*
X134740688Y-99145164D01*
X134578901Y-99212179D01*
X134464229Y-99288800D01*
X130534928Y-99288800D01*
X130504666Y-99285820D01*
X136228195Y-93562291D01*
X136255326Y-93540025D01*
X136277593Y-93512893D01*
X136277597Y-93512889D01*
X136344202Y-93431731D01*
X136393362Y-93339759D01*
X136410242Y-93308179D01*
X136450909Y-93174118D01*
X136461200Y-93069634D01*
X136461200Y-93069625D01*
X136464640Y-93034699D01*
X136461200Y-92999773D01*
X136461200Y-92495963D01*
X136500000Y-92484193D01*
X136550825Y-92499611D01*
X136687500Y-92513072D01*
X136812500Y-92513072D01*
X136949175Y-92499611D01*
X137000000Y-92484193D01*
X137050825Y-92499611D01*
X137187500Y-92513072D01*
X137312500Y-92513072D01*
X137449175Y-92499611D01*
X137500000Y-92484193D01*
X137550825Y-92499611D01*
X137687500Y-92513072D01*
X137812500Y-92513072D01*
X137949175Y-92499611D01*
X138000000Y-92484193D01*
X138050825Y-92499611D01*
X138187500Y-92513072D01*
X138312500Y-92513072D01*
X138380943Y-92506331D01*
X138368245Y-92521804D01*
X137350714Y-93539336D01*
X137302104Y-93539336D01*
X137130351Y-93573500D01*
X136968564Y-93640515D01*
X136822959Y-93737805D01*
X136699132Y-93861632D01*
X136601842Y-94007237D01*
X136534827Y-94169024D01*
X136500663Y-94340777D01*
X136500663Y-94389387D01*
X135161011Y-95729040D01*
X135133875Y-95751310D01*
X135111605Y-95778446D01*
X135111604Y-95778447D01*
X135044999Y-95859605D01*
X134978960Y-95983156D01*
X134938293Y-96117218D01*
X134924561Y-96256637D01*
X134928002Y-96291573D01*
X134928001Y-98325862D01*
X134924560Y-98360799D01*
X134938292Y-98500219D01*
X134978959Y-98634280D01*
X135044999Y-98757832D01*
X135133874Y-98866126D01*
X135212527Y-98930675D01*
X135242168Y-98955001D01*
X135365720Y-99021041D01*
X135499781Y-99061708D01*
X135639201Y-99075440D01*
X135674137Y-99071999D01*
X137181928Y-99071999D01*
X137181928Y-101427000D01*
X137194188Y-101551482D01*
X137230498Y-101671180D01*
X137289463Y-101781494D01*
X137368815Y-101878185D01*
X137465506Y-101957537D01*
X137575820Y-102016502D01*
X137695518Y-102052812D01*
X137820000Y-102065072D01*
X138560000Y-102065072D01*
X138684482Y-102052812D01*
X138804180Y-102016502D01*
X138825000Y-102005373D01*
X138845820Y-102016502D01*
X138965518Y-102052812D01*
X139090000Y-102065072D01*
X139830000Y-102065072D01*
X139954482Y-102052812D01*
X140074180Y-102016502D01*
X140095000Y-102005373D01*
X140115820Y-102016502D01*
X140235518Y-102052812D01*
X140360000Y-102065072D01*
X140444250Y-102062000D01*
X140603000Y-101903250D01*
X140603000Y-100159000D01*
X140857000Y-100159000D01*
X140857000Y-101903250D01*
X141015750Y-102062000D01*
X141100000Y-102065072D01*
X141224482Y-102052812D01*
X141344180Y-102016502D01*
X141365000Y-102005373D01*
X141385820Y-102016502D01*
X141505518Y-102052812D01*
X141630000Y-102065072D01*
X141714250Y-102062000D01*
X141873000Y-101903250D01*
X141873000Y-100159000D01*
X140857000Y-100159000D01*
X140603000Y-100159000D01*
X140583000Y-100159000D01*
X140583000Y-99905000D01*
X140603000Y-99905000D01*
X140603000Y-99885000D01*
X140857000Y-99885000D01*
X140857000Y-99905000D01*
X141873000Y-99905000D01*
X141873000Y-99885000D01*
X142127000Y-99885000D01*
X142127000Y-99905000D01*
X142147000Y-99905000D01*
X142147000Y-100159000D01*
X142127000Y-100159000D01*
X142127000Y-101903250D01*
X142285750Y-102062000D01*
X142370000Y-102065072D01*
X142494482Y-102052812D01*
X142614180Y-102016502D01*
X142635000Y-102005373D01*
X142655820Y-102016502D01*
X142775518Y-102052812D01*
X142900000Y-102065072D01*
X142929140Y-102065072D01*
X142045609Y-102948604D01*
X142018473Y-102970874D01*
X141996203Y-102998010D01*
X141996202Y-102998011D01*
X141940255Y-103066183D01*
X141929598Y-103079168D01*
X141863558Y-103202720D01*
X141838490Y-103285360D01*
X141822891Y-103336782D01*
X141809159Y-103476201D01*
X141812600Y-103511136D01*
X141812599Y-104606613D01*
X139001265Y-107417948D01*
X138965512Y-107351058D01*
X138856623Y-107218377D01*
X138723942Y-107109488D01*
X138572567Y-107028577D01*
X138408316Y-106978752D01*
X138237500Y-106961928D01*
X137762500Y-106961928D01*
X137591684Y-106978752D01*
X137427433Y-107028577D01*
X137276058Y-107109488D01*
X137143377Y-107218377D01*
X137034488Y-107351058D01*
X136953577Y-107502433D01*
X136903752Y-107666684D01*
X136886928Y-107837500D01*
X136886928Y-108194785D01*
X136770600Y-108311113D01*
X136743463Y-108333384D01*
X136654588Y-108441678D01*
X136588548Y-108565230D01*
X136547881Y-108699291D01*
X136537590Y-108803775D01*
X136537590Y-108803784D01*
X136534150Y-108838710D01*
X136537590Y-108873636D01*
X136537591Y-118213854D01*
X136534150Y-118248790D01*
X136541992Y-118328410D01*
X136481121Y-118470951D01*
X136420928Y-118757211D01*
X136417812Y-119042993D01*
X136384379Y-119028715D01*
X136261972Y-119002976D01*
X136136896Y-119001611D01*
X136013957Y-119024675D01*
X135897878Y-119071278D01*
X135793123Y-119139632D01*
X135703716Y-119227111D01*
X135343376Y-119661326D01*
X135362943Y-119884978D01*
X136377377Y-120736189D01*
X136390233Y-120720868D01*
X136584808Y-120884137D01*
X136571953Y-120899457D01*
X137586387Y-121750669D01*
X137810039Y-121731102D01*
X138175085Y-121300836D01*
X138245709Y-121197597D01*
X138294834Y-121082563D01*
X138320573Y-120960156D01*
X138321938Y-120835080D01*
X138298875Y-120712141D01*
X138252271Y-120596062D01*
X138232405Y-120565617D01*
X138513319Y-120512917D01*
X138784777Y-120403928D01*
X139029755Y-120244075D01*
X139238840Y-120039500D01*
X139403998Y-119798065D01*
X139518879Y-119529049D01*
X139579072Y-119242789D01*
X139582261Y-118950287D01*
X139528325Y-118662785D01*
X139520981Y-118644494D01*
X139540283Y-118648553D01*
X139832784Y-118651742D01*
X140120288Y-118597806D01*
X140391746Y-118488817D01*
X140636724Y-118328964D01*
X140845809Y-118124389D01*
X141010967Y-117882954D01*
X141125848Y-117613938D01*
X141186041Y-117327678D01*
X141189230Y-117035176D01*
X141135294Y-116747674D01*
X141026305Y-116476216D01*
X140959990Y-116374587D01*
X140959990Y-111038072D01*
X141237500Y-111038072D01*
X141408316Y-111021248D01*
X141572567Y-110971423D01*
X141723942Y-110890512D01*
X141856623Y-110781623D01*
X141965512Y-110648942D01*
X141979004Y-110623700D01*
X143717352Y-110623700D01*
X143752278Y-110627140D01*
X143787204Y-110623700D01*
X143787214Y-110623700D01*
X143891698Y-110613409D01*
X144025759Y-110572742D01*
X144149311Y-110506702D01*
X144257605Y-110417827D01*
X144279880Y-110390685D01*
X147954402Y-106716165D01*
X147981527Y-106693904D01*
X148003789Y-106666778D01*
X148003798Y-106666769D01*
X148070403Y-106585610D01*
X148087841Y-106552986D01*
X148136443Y-106462058D01*
X148177110Y-106327997D01*
X148187401Y-106223513D01*
X148187401Y-106223504D01*
X148190841Y-106188578D01*
X148187401Y-106153652D01*
X148187401Y-98169972D01*
X148264022Y-98055300D01*
X148294428Y-97981894D01*
X148403029Y-98311666D01*
X148860438Y-100192183D01*
X149166993Y-102103097D01*
X149320757Y-104032326D01*
X149320757Y-105967674D01*
X149166993Y-107896903D01*
X148860438Y-109807817D01*
X148403029Y-111688334D01*
X147797659Y-113526566D01*
X147048155Y-115310890D01*
X146159255Y-117030025D01*
X145136580Y-118673103D01*
X143986595Y-120229735D01*
X142716570Y-121690079D01*
X141334536Y-123044903D01*
X139849229Y-124285642D01*
X138270041Y-125404451D01*
X136606955Y-126394256D01*
X134870486Y-127248800D01*
X133071613Y-127962680D01*
X131221709Y-128531382D01*
X129332469Y-128951311D01*
X127415837Y-129219813D01*
X125483932Y-129335189D01*
X123548968Y-129296710D01*
X121623177Y-129104619D01*
X119718736Y-128760131D01*
X117847684Y-128265425D01*
X116021852Y-127623626D01*
X114252783Y-126838794D01*
X112551660Y-125915890D01*
X110929241Y-124860749D01*
X110747451Y-124720777D01*
X122165000Y-124720777D01*
X122165000Y-125279223D01*
X122273948Y-125826939D01*
X122487656Y-126342876D01*
X122797912Y-126807207D01*
X123192793Y-127202088D01*
X123657124Y-127512344D01*
X124173061Y-127726052D01*
X124720777Y-127835000D01*
X125279223Y-127835000D01*
X125826939Y-127726052D01*
X126342876Y-127512344D01*
X126807207Y-127202088D01*
X127202088Y-126807207D01*
X127512344Y-126342876D01*
X127726052Y-125826939D01*
X127835000Y-125279223D01*
X127835000Y-124720777D01*
X127726052Y-124173061D01*
X127512344Y-123657124D01*
X127202088Y-123192793D01*
X126807207Y-122797912D01*
X126342876Y-122487656D01*
X125826939Y-122273948D01*
X125279223Y-122165000D01*
X124720777Y-122165000D01*
X124173061Y-122273948D01*
X123657124Y-122487656D01*
X123192793Y-122797912D01*
X122797912Y-123192793D01*
X122487656Y-123657124D01*
X122273948Y-124173061D01*
X122165000Y-124720777D01*
X110747451Y-124720777D01*
X109395781Y-123680041D01*
X107960976Y-122381233D01*
X107613806Y-122012711D01*
X135637822Y-122012711D01*
X135657389Y-122236364D01*
X136027076Y-122549387D01*
X135937373Y-122639090D01*
X135802217Y-122841365D01*
X135709120Y-123066121D01*
X135661660Y-123304720D01*
X135661660Y-123547994D01*
X135709120Y-123786593D01*
X135802217Y-124011349D01*
X135937373Y-124213624D01*
X136109393Y-124385644D01*
X136311668Y-124520800D01*
X136536424Y-124613897D01*
X136775023Y-124661357D01*
X137018297Y-124661357D01*
X137256896Y-124613897D01*
X137481652Y-124520800D01*
X137683927Y-124385644D01*
X137855947Y-124213624D01*
X137991103Y-124011349D01*
X138084200Y-123786593D01*
X138131660Y-123547994D01*
X138131660Y-123304720D01*
X138084200Y-123066121D01*
X137991103Y-122841365D01*
X137855947Y-122639090D01*
X137683927Y-122467070D01*
X137481652Y-122331914D01*
X137351978Y-122278201D01*
X137442686Y-122168896D01*
X137423119Y-121945244D01*
X136408685Y-121094033D01*
X135637822Y-122012711D01*
X107613806Y-122012711D01*
X106633897Y-120972535D01*
X106615821Y-120950000D01*
X122561928Y-120950000D01*
X122574188Y-121074482D01*
X122610498Y-121194180D01*
X122669463Y-121304494D01*
X122748815Y-121401185D01*
X122845506Y-121480537D01*
X122955820Y-121539502D01*
X123075518Y-121575812D01*
X123200000Y-121588072D01*
X124714250Y-121585000D01*
X124873000Y-121426250D01*
X124873000Y-119777000D01*
X125127000Y-119777000D01*
X125127000Y-121426250D01*
X125285750Y-121585000D01*
X126800000Y-121588072D01*
X126924482Y-121575812D01*
X127044180Y-121539502D01*
X127154494Y-121480537D01*
X127251185Y-121401185D01*
X127330537Y-121304494D01*
X127389502Y-121194180D01*
X127425812Y-121074482D01*
X127433626Y-120995142D01*
X134464124Y-120995142D01*
X134487187Y-121118081D01*
X134533791Y-121234160D01*
X134602145Y-121338915D01*
X134689623Y-121428322D01*
X135219594Y-121869010D01*
X135443246Y-121849443D01*
X136214109Y-120930765D01*
X135199675Y-120079553D01*
X134976023Y-120099120D01*
X134610977Y-120529386D01*
X134540353Y-120632625D01*
X134491228Y-120747659D01*
X134465489Y-120870066D01*
X134464124Y-120995142D01*
X127433626Y-120995142D01*
X127438072Y-120950000D01*
X127435000Y-119935750D01*
X127276250Y-119777000D01*
X125127000Y-119777000D01*
X124873000Y-119777000D01*
X122723750Y-119777000D01*
X122565000Y-119935750D01*
X122561928Y-120950000D01*
X106615821Y-120950000D01*
X105422935Y-119462853D01*
X104667288Y-118350000D01*
X122561928Y-118350000D01*
X122565000Y-119364250D01*
X122723750Y-119523000D01*
X124873000Y-119523000D01*
X124873000Y-117873750D01*
X125127000Y-117873750D01*
X125127000Y-119523000D01*
X127276250Y-119523000D01*
X127435000Y-119364250D01*
X127438072Y-118350000D01*
X127425812Y-118225518D01*
X127389502Y-118105820D01*
X127330537Y-117995506D01*
X127251185Y-117898815D01*
X127154494Y-117819463D01*
X127044180Y-117760498D01*
X126924482Y-117724188D01*
X126800000Y-117711928D01*
X125285750Y-117715000D01*
X125127000Y-117873750D01*
X124873000Y-117873750D01*
X124714250Y-117715000D01*
X123200000Y-117711928D01*
X123075518Y-117724188D01*
X122955820Y-117760498D01*
X122845506Y-117819463D01*
X122748815Y-117898815D01*
X122669463Y-117995506D01*
X122610498Y-118105820D01*
X122574188Y-118225518D01*
X122561928Y-118350000D01*
X104667288Y-118350000D01*
X104335745Y-117861733D01*
X103379201Y-116179296D01*
X102559351Y-114426180D01*
X101881378Y-112613469D01*
X101349568Y-110752624D01*
X101278516Y-110400000D01*
X105886928Y-110400000D01*
X105899188Y-110524482D01*
X105935498Y-110644180D01*
X105994463Y-110754494D01*
X106073815Y-110851185D01*
X106170506Y-110930537D01*
X106280820Y-110989502D01*
X106400518Y-111025812D01*
X106525000Y-111038072D01*
X106714250Y-111035000D01*
X106873000Y-110876250D01*
X106873000Y-109989500D01*
X107127000Y-109989500D01*
X107127000Y-110876250D01*
X107285750Y-111035000D01*
X107475000Y-111038072D01*
X107599482Y-111025812D01*
X107719180Y-110989502D01*
X107829494Y-110930537D01*
X107871271Y-110896251D01*
X110283354Y-110896251D01*
X110338565Y-111126453D01*
X110571034Y-111233848D01*
X110819989Y-111293827D01*
X111075861Y-111304085D01*
X111328817Y-111264228D01*
X111569138Y-111175787D01*
X111661435Y-111126453D01*
X111716646Y-110896251D01*
X111000000Y-110179605D01*
X110283354Y-110896251D01*
X107871271Y-110896251D01*
X107926185Y-110851185D01*
X108005537Y-110754494D01*
X108064502Y-110644180D01*
X108100812Y-110524482D01*
X108113072Y-110400000D01*
X108110000Y-110148250D01*
X108037611Y-110075861D01*
X109695915Y-110075861D01*
X109735772Y-110328817D01*
X109824213Y-110569138D01*
X109873547Y-110661435D01*
X110103749Y-110716646D01*
X110820395Y-110000000D01*
X111179605Y-110000000D01*
X111896251Y-110716646D01*
X112126453Y-110661435D01*
X112233848Y-110428966D01*
X112293827Y-110180011D01*
X112304085Y-109924139D01*
X112264228Y-109671183D01*
X112175787Y-109430862D01*
X112126453Y-109338565D01*
X111896251Y-109283354D01*
X111179605Y-110000000D01*
X110820395Y-110000000D01*
X110103749Y-109283354D01*
X109873547Y-109338565D01*
X109766152Y-109571034D01*
X109706173Y-109819989D01*
X109695915Y-110075861D01*
X108037611Y-110075861D01*
X107951250Y-109989500D01*
X107127000Y-109989500D01*
X106873000Y-109989500D01*
X106048750Y-109989500D01*
X105890000Y-110148250D01*
X105886928Y-110400000D01*
X101278516Y-110400000D01*
X100967284Y-108855408D01*
X100736943Y-106933817D01*
X100660000Y-105000000D01*
X100736943Y-103066183D01*
X100967284Y-101144592D01*
X101349568Y-99247376D01*
X101881378Y-97386531D01*
X102559351Y-95573820D01*
X103379201Y-93820704D01*
X104335745Y-92138267D01*
X105422935Y-90537147D01*
X106633897Y-89027465D01*
X107960976Y-87618767D01*
X109395781Y-86319959D01*
X110929241Y-85139251D01*
X112551660Y-84084110D01*
X113087540Y-83793381D01*
X113028309Y-83832958D01*
%TA.AperFunction,Conductor*%
D23*
G36*
X113028309Y-83832958D02*
G01*
X112931618Y-83912310D01*
X112862310Y-83981618D01*
X112782958Y-84078309D01*
X112728502Y-84159808D01*
X112669536Y-84270125D01*
X112632027Y-84360681D01*
X112595718Y-84480377D01*
X112576596Y-84576510D01*
X112564336Y-84700991D01*
X112564336Y-84725550D01*
X112561928Y-84750000D01*
X112561928Y-85132283D01*
X106955751Y-90738462D01*
X106928615Y-90760732D01*
X106906345Y-90787868D01*
X106906344Y-90787869D01*
X106839739Y-90869027D01*
X106782620Y-90975890D01*
X106773700Y-90992578D01*
X106733033Y-91126639D01*
X106731024Y-91147033D01*
X106719301Y-91266059D01*
X106722742Y-91300995D01*
X106722741Y-93524147D01*
X106529797Y-93621928D01*
X106299682Y-93802523D01*
X106109221Y-94024542D01*
X105965733Y-94279452D01*
X105874734Y-94557456D01*
X105839718Y-94847873D01*
X105862032Y-95139538D01*
X105884147Y-95218612D01*
X105769635Y-95204805D01*
X105596049Y-95218086D01*
X105428390Y-95264976D01*
X105273101Y-95343673D01*
X105136148Y-95451155D01*
X105022795Y-95583289D01*
X104334503Y-96566271D01*
X104249107Y-96717980D01*
X104194948Y-96883434D01*
X104174108Y-97056275D01*
X104187389Y-97229860D01*
X104234279Y-97397519D01*
X104312977Y-97552809D01*
X104420458Y-97689761D01*
X104552592Y-97803114D01*
X105740362Y-98634800D01*
X105776617Y-98655207D01*
X105761295Y-98670529D01*
X105626139Y-98872804D01*
X105533042Y-99097560D01*
X105485582Y-99336159D01*
X105485582Y-99579433D01*
X105533042Y-99818032D01*
X105626139Y-100042788D01*
X105761295Y-100245063D01*
X105933315Y-100417083D01*
X106135590Y-100552239D01*
X106360346Y-100645336D01*
X106598945Y-100692796D01*
X106842219Y-100692796D01*
X107080818Y-100645336D01*
X107305574Y-100552239D01*
X107507849Y-100417083D01*
X107679869Y-100245063D01*
X107815025Y-100042788D01*
X107908122Y-99818032D01*
X107955582Y-99579433D01*
X107955582Y-99336159D01*
X107908122Y-99097560D01*
X107815025Y-98872804D01*
X107679869Y-98670529D01*
X107507849Y-98498509D01*
X107305574Y-98363353D01*
X107080818Y-98270256D01*
X107079884Y-98270070D01*
X107665497Y-97433729D01*
X107750893Y-97282020D01*
X107805052Y-97116566D01*
X107825892Y-96943725D01*
X107812611Y-96770140D01*
X107765721Y-96602481D01*
X107713581Y-96499595D01*
X107795450Y-96493332D01*
X108077159Y-96414545D01*
X108338086Y-96282312D01*
X108568200Y-96101717D01*
X108758661Y-95879698D01*
X108902149Y-95624788D01*
X108993149Y-95346784D01*
X109028164Y-95056367D01*
X109005850Y-94764702D01*
X108927063Y-94482993D01*
X108918150Y-94465406D01*
X108937725Y-94467766D01*
X109229391Y-94445452D01*
X109511100Y-94366665D01*
X109772027Y-94234432D01*
X110002141Y-94053837D01*
X110192602Y-93831818D01*
X110336090Y-93576908D01*
X110427090Y-93298904D01*
X110462105Y-93008487D01*
X110439791Y-92716822D01*
X110361004Y-92435113D01*
X110347813Y-92409084D01*
X110606440Y-92399138D01*
X110889548Y-92331420D01*
X111154006Y-92209772D01*
X111380301Y-92047201D01*
X111412780Y-91789299D01*
X110333011Y-91033237D01*
X110321540Y-91049620D01*
X110113474Y-90903931D01*
X110124946Y-90887548D01*
X110108563Y-90876077D01*
X110144206Y-90825172D01*
X110478700Y-90825172D01*
X111558469Y-91581235D01*
X111789709Y-91462507D01*
X111865077Y-91194256D01*
X111888940Y-90904141D01*
X111855746Y-90614945D01*
X111766770Y-90337782D01*
X111625432Y-90083303D01*
X111437164Y-89861288D01*
X111166512Y-89842873D01*
X110478700Y-90825172D01*
X110144206Y-90825172D01*
X110254252Y-90668011D01*
X110270635Y-90679483D01*
X110958448Y-89697185D01*
X110848575Y-89449154D01*
X110575558Y-89348173D01*
X110387553Y-89318235D01*
X113369863Y-86335926D01*
X113430377Y-86354282D01*
X113526510Y-86373404D01*
X113650991Y-86385664D01*
X113675550Y-86385664D01*
X113700000Y-86388072D01*
X114250000Y-86388072D01*
X114288801Y-86384251D01*
X114288801Y-86965064D01*
X114285360Y-87000000D01*
X114288801Y-87034936D01*
X114299092Y-87139420D01*
X114336704Y-87263409D01*
X114339759Y-87273481D01*
X114405798Y-87397032D01*
X114466397Y-87470872D01*
X114494674Y-87505327D01*
X114521810Y-87527597D01*
X116618258Y-89624046D01*
X116645164Y-89759312D01*
X116712179Y-89921099D01*
X116809469Y-90066704D01*
X116933296Y-90190531D01*
X117078901Y-90287821D01*
X117240688Y-90354836D01*
X117412441Y-90389000D01*
X117587559Y-90389000D01*
X117759312Y-90354836D01*
X117921099Y-90287821D01*
X118066704Y-90190531D01*
X118190531Y-90066704D01*
X118287821Y-89921099D01*
X118354836Y-89759312D01*
X118389000Y-89587559D01*
X118389000Y-89412441D01*
X118354836Y-89240688D01*
X118287821Y-89078901D01*
X118190531Y-88933296D01*
X118066704Y-88809469D01*
X117921099Y-88712179D01*
X117759312Y-88645164D01*
X117624046Y-88618258D01*
X115711200Y-86705413D01*
X115711200Y-86384251D01*
X115750000Y-86388072D01*
X116300000Y-86388072D01*
X116324450Y-86385664D01*
X116349009Y-86385664D01*
X116473490Y-86373404D01*
X116569623Y-86354282D01*
X116630138Y-86335925D01*
X121474812Y-91180600D01*
X121497082Y-91207736D01*
X121605376Y-91296611D01*
X121728928Y-91362651D01*
X121862989Y-91403318D01*
X121967473Y-91413609D01*
X121967482Y-91413609D01*
X122002408Y-91417049D01*
X122037334Y-91413609D01*
X122561928Y-91413609D01*
X122561928Y-91650000D01*
X122574188Y-91774482D01*
X122610498Y-91894180D01*
X122669463Y-92004494D01*
X122748815Y-92101185D01*
X122845506Y-92180537D01*
X122955820Y-92239502D01*
X123075518Y-92275812D01*
X123200000Y-92288072D01*
X126800000Y-92288072D01*
X126924482Y-92275812D01*
X127044180Y-92239502D01*
X127154494Y-92180537D01*
X127251185Y-92101185D01*
X127330537Y-92004494D01*
X127389502Y-91894180D01*
X127425812Y-91774482D01*
X127438072Y-91650000D01*
X127438072Y-89050000D01*
X127425812Y-88925518D01*
X127389502Y-88805820D01*
X127387353Y-88801799D01*
X127421099Y-88787821D01*
X127566704Y-88690531D01*
X127690531Y-88566704D01*
X127723554Y-88517281D01*
X127715000Y-88593250D01*
X127873750Y-88752000D01*
X127930271Y-88752000D01*
X127995506Y-88805537D01*
X128074947Y-88848000D01*
X127873750Y-88848000D01*
X127715000Y-89006750D01*
X127726896Y-89112397D01*
X127765674Y-89231318D01*
X127826907Y-89340389D01*
X127908242Y-89435419D01*
X128006553Y-89512755D01*
X128118063Y-89569425D01*
X128238486Y-89603252D01*
X128363195Y-89612936D01*
X128514250Y-89610000D01*
X128673000Y-89451250D01*
X128673000Y-88913072D01*
X128927000Y-88913072D01*
X128927000Y-89451250D01*
X129085750Y-89610000D01*
X129236805Y-89612936D01*
X129361514Y-89603252D01*
X129481937Y-89569425D01*
X129593447Y-89512755D01*
X129670471Y-89452164D01*
X129735506Y-89505537D01*
X129845820Y-89564502D01*
X129965518Y-89600812D01*
X130090000Y-89613072D01*
X130990000Y-89613072D01*
X131114482Y-89600812D01*
X131234180Y-89564502D01*
X131288572Y-89535429D01*
X131309469Y-89566704D01*
X131433296Y-89690531D01*
X131578901Y-89787821D01*
X131740688Y-89854836D01*
X131912441Y-89889000D01*
X132087559Y-89889000D01*
X132259312Y-89854836D01*
X132421099Y-89787821D01*
X132566704Y-89690531D01*
X132645924Y-89611311D01*
X132675364Y-89759312D01*
X132742379Y-89921099D01*
X132833191Y-90057010D01*
X117601403Y-105288800D01*
X112088288Y-105288800D01*
X112009776Y-105171298D01*
X111828702Y-104990224D01*
X111615781Y-104847955D01*
X111379196Y-104749958D01*
X111128039Y-104700000D01*
X110871961Y-104700000D01*
X110733357Y-104727570D01*
X110344716Y-104338929D01*
X110385000Y-104136411D01*
X110385000Y-103863589D01*
X110331775Y-103596011D01*
X110227371Y-103343957D01*
X110075799Y-103117114D01*
X109882886Y-102924201D01*
X109656043Y-102772629D01*
X109403989Y-102668225D01*
X109136411Y-102615000D01*
X108863589Y-102615000D01*
X108596011Y-102668225D01*
X108343957Y-102772629D01*
X108117114Y-102924201D01*
X107924201Y-103117114D01*
X107772629Y-103343957D01*
X107668225Y-103596011D01*
X107615000Y-103863589D01*
X107615000Y-103904958D01*
X107512344Y-103657124D01*
X107202088Y-103192793D01*
X106807207Y-102797912D01*
X106342876Y-102487656D01*
X105826939Y-102273948D01*
X105279223Y-102165000D01*
X104720777Y-102165000D01*
X104173061Y-102273948D01*
X103657124Y-102487656D01*
X103192793Y-102797912D01*
X102797912Y-103192793D01*
X102487656Y-103657124D01*
X102273948Y-104173061D01*
X102165000Y-104720777D01*
X102165000Y-105279223D01*
X102273948Y-105826939D01*
X102487656Y-106342876D01*
X102797912Y-106807207D01*
X103192793Y-107202088D01*
X103657124Y-107512344D01*
X104173061Y-107726052D01*
X104720777Y-107835000D01*
X105279223Y-107835000D01*
X105826939Y-107726052D01*
X105900923Y-107695407D01*
X105886928Y-107837500D01*
X105886928Y-108437500D01*
X105903752Y-108608316D01*
X105953577Y-108772567D01*
X106033774Y-108922606D01*
X105994463Y-108970506D01*
X105935498Y-109080820D01*
X105899188Y-109200518D01*
X105886928Y-109325000D01*
X105890000Y-109576750D01*
X106048750Y-109735500D01*
X106873000Y-109735500D01*
X106873000Y-109715500D01*
X107127000Y-109715500D01*
X107127000Y-109735500D01*
X107951250Y-109735500D01*
X108110000Y-109576750D01*
X108113072Y-109325000D01*
X108100812Y-109200518D01*
X108064502Y-109080820D01*
X108005537Y-108970506D01*
X107966226Y-108922606D01*
X108005729Y-108848700D01*
X110010222Y-108848700D01*
X110171298Y-109009776D01*
X110287302Y-109087287D01*
X110283354Y-109103749D01*
X111000000Y-109820395D01*
X111716646Y-109103749D01*
X111712698Y-109087287D01*
X111828702Y-109009776D01*
X112009776Y-108828702D01*
X112088288Y-108711200D01*
X120749772Y-108711200D01*
X120784698Y-108714640D01*
X120819624Y-108711200D01*
X120819634Y-108711200D01*
X120924118Y-108700909D01*
X121058179Y-108660242D01*
X121181731Y-108594202D01*
X121290025Y-108505327D01*
X121312300Y-108478185D01*
X128626252Y-101164234D01*
X128645164Y-101259312D01*
X128712179Y-101421099D01*
X128809469Y-101566704D01*
X128933296Y-101690531D01*
X129078901Y-101787821D01*
X129240688Y-101854836D01*
X129412441Y-101889000D01*
X129587559Y-101889000D01*
X129759312Y-101854836D01*
X129921099Y-101787821D01*
X130066704Y-101690531D01*
X130190531Y-101566704D01*
X130287821Y-101421099D01*
X130354836Y-101259312D01*
X130381742Y-101124045D01*
X130794589Y-100711200D01*
X134464229Y-100711200D01*
X134578901Y-100787821D01*
X134740688Y-100854836D01*
X134912441Y-100889000D01*
X135087559Y-100889000D01*
X135259312Y-100854836D01*
X135421099Y-100787821D01*
X135566704Y-100690531D01*
X135690531Y-100566704D01*
X135787821Y-100421099D01*
X135854836Y-100259312D01*
X135889000Y-100087559D01*
X135889000Y-99912441D01*
X135854836Y-99740688D01*
X135787821Y-99578901D01*
X135690531Y-99433296D01*
X135566704Y-99309469D01*
X135421099Y-99212179D01*
X135259312Y-99145164D01*
X135087559Y-99111000D01*
X134912441Y-99111000D01*
X134740688Y-99145164D01*
X134578901Y-99212179D01*
X134464229Y-99288800D01*
X130534928Y-99288800D01*
X130504666Y-99285820D01*
X136228195Y-93562291D01*
X136255326Y-93540025D01*
X136277593Y-93512893D01*
X136277597Y-93512889D01*
X136344202Y-93431731D01*
X136393362Y-93339759D01*
X136410242Y-93308179D01*
X136450909Y-93174118D01*
X136461200Y-93069634D01*
X136461200Y-93069625D01*
X136464640Y-93034699D01*
X136461200Y-92999773D01*
X136461200Y-92495963D01*
X136500000Y-92484193D01*
X136550825Y-92499611D01*
X136687500Y-92513072D01*
X136812500Y-92513072D01*
X136949175Y-92499611D01*
X137000000Y-92484193D01*
X137050825Y-92499611D01*
X137187500Y-92513072D01*
X137312500Y-92513072D01*
X137449175Y-92499611D01*
X137500000Y-92484193D01*
X137550825Y-92499611D01*
X137687500Y-92513072D01*
X137812500Y-92513072D01*
X137949175Y-92499611D01*
X138000000Y-92484193D01*
X138050825Y-92499611D01*
X138187500Y-92513072D01*
X138312500Y-92513072D01*
X138380943Y-92506331D01*
X138368245Y-92521804D01*
X137350714Y-93539336D01*
X137302104Y-93539336D01*
X137130351Y-93573500D01*
X136968564Y-93640515D01*
X136822959Y-93737805D01*
X136699132Y-93861632D01*
X136601842Y-94007237D01*
X136534827Y-94169024D01*
X136500663Y-94340777D01*
X136500663Y-94389387D01*
X135161011Y-95729040D01*
X135133875Y-95751310D01*
X135111605Y-95778446D01*
X135111604Y-95778447D01*
X135044999Y-95859605D01*
X134978960Y-95983156D01*
X134938293Y-96117218D01*
X134924561Y-96256637D01*
X134928002Y-96291573D01*
X134928001Y-98325862D01*
X134924560Y-98360799D01*
X134938292Y-98500219D01*
X134978959Y-98634280D01*
X135044999Y-98757832D01*
X135133874Y-98866126D01*
X135212527Y-98930675D01*
X135242168Y-98955001D01*
X135365720Y-99021041D01*
X135499781Y-99061708D01*
X135639201Y-99075440D01*
X135674137Y-99071999D01*
X137181928Y-99071999D01*
X137181928Y-101427000D01*
X137194188Y-101551482D01*
X137230498Y-101671180D01*
X137289463Y-101781494D01*
X137368815Y-101878185D01*
X137465506Y-101957537D01*
X137575820Y-102016502D01*
X137695518Y-102052812D01*
X137820000Y-102065072D01*
X138560000Y-102065072D01*
X138684482Y-102052812D01*
X138804180Y-102016502D01*
X138825000Y-102005373D01*
X138845820Y-102016502D01*
X138965518Y-102052812D01*
X139090000Y-102065072D01*
X139830000Y-102065072D01*
X139954482Y-102052812D01*
X140074180Y-102016502D01*
X140095000Y-102005373D01*
X140115820Y-102016502D01*
X140235518Y-102052812D01*
X140360000Y-102065072D01*
X140444250Y-102062000D01*
X140603000Y-101903250D01*
X140603000Y-100159000D01*
X140857000Y-100159000D01*
X140857000Y-101903250D01*
X141015750Y-102062000D01*
X141100000Y-102065072D01*
X141224482Y-102052812D01*
X141344180Y-102016502D01*
X141365000Y-102005373D01*
X141385820Y-102016502D01*
X141505518Y-102052812D01*
X141630000Y-102065072D01*
X141714250Y-102062000D01*
X141873000Y-101903250D01*
X141873000Y-100159000D01*
X140857000Y-100159000D01*
X140603000Y-100159000D01*
X140583000Y-100159000D01*
X140583000Y-99905000D01*
X140603000Y-99905000D01*
X140603000Y-99885000D01*
X140857000Y-99885000D01*
X140857000Y-99905000D01*
X141873000Y-99905000D01*
X141873000Y-99885000D01*
X142127000Y-99885000D01*
X142127000Y-99905000D01*
X142147000Y-99905000D01*
X142147000Y-100159000D01*
X142127000Y-100159000D01*
X142127000Y-101903250D01*
X142285750Y-102062000D01*
X142370000Y-102065072D01*
X142494482Y-102052812D01*
X142614180Y-102016502D01*
X142635000Y-102005373D01*
X142655820Y-102016502D01*
X142775518Y-102052812D01*
X142900000Y-102065072D01*
X142929140Y-102065072D01*
X142045609Y-102948604D01*
X142018473Y-102970874D01*
X141996203Y-102998010D01*
X141996202Y-102998011D01*
X141940255Y-103066183D01*
X141929598Y-103079168D01*
X141863558Y-103202720D01*
X141838490Y-103285360D01*
X141822891Y-103336782D01*
X141809159Y-103476201D01*
X141812600Y-103511136D01*
X141812599Y-104606613D01*
X139001265Y-107417948D01*
X138965512Y-107351058D01*
X138856623Y-107218377D01*
X138723942Y-107109488D01*
X138572567Y-107028577D01*
X138408316Y-106978752D01*
X138237500Y-106961928D01*
X137762500Y-106961928D01*
X137591684Y-106978752D01*
X137427433Y-107028577D01*
X137276058Y-107109488D01*
X137143377Y-107218377D01*
X137034488Y-107351058D01*
X136953577Y-107502433D01*
X136903752Y-107666684D01*
X136886928Y-107837500D01*
X136886928Y-108194785D01*
X136770600Y-108311113D01*
X136743463Y-108333384D01*
X136654588Y-108441678D01*
X136588548Y-108565230D01*
X136547881Y-108699291D01*
X136537590Y-108803775D01*
X136537590Y-108803784D01*
X136534150Y-108838710D01*
X136537590Y-108873636D01*
X136537591Y-118213854D01*
X136534150Y-118248790D01*
X136541992Y-118328410D01*
X136481121Y-118470951D01*
X136420928Y-118757211D01*
X136417812Y-119042993D01*
X136384379Y-119028715D01*
X136261972Y-119002976D01*
X136136896Y-119001611D01*
X136013957Y-119024675D01*
X135897878Y-119071278D01*
X135793123Y-119139632D01*
X135703716Y-119227111D01*
X135343376Y-119661326D01*
X135362943Y-119884978D01*
X136377377Y-120736189D01*
X136390233Y-120720868D01*
X136584808Y-120884137D01*
X136571953Y-120899457D01*
X137586387Y-121750669D01*
X137810039Y-121731102D01*
X138175085Y-121300836D01*
X138245709Y-121197597D01*
X138294834Y-121082563D01*
X138320573Y-120960156D01*
X138321938Y-120835080D01*
X138298875Y-120712141D01*
X138252271Y-120596062D01*
X138232405Y-120565617D01*
X138513319Y-120512917D01*
X138784777Y-120403928D01*
X139029755Y-120244075D01*
X139238840Y-120039500D01*
X139403998Y-119798065D01*
X139518879Y-119529049D01*
X139579072Y-119242789D01*
X139582261Y-118950287D01*
X139528325Y-118662785D01*
X139520981Y-118644494D01*
X139540283Y-118648553D01*
X139832784Y-118651742D01*
X140120288Y-118597806D01*
X140391746Y-118488817D01*
X140636724Y-118328964D01*
X140845809Y-118124389D01*
X141010967Y-117882954D01*
X141125848Y-117613938D01*
X141186041Y-117327678D01*
X141189230Y-117035176D01*
X141135294Y-116747674D01*
X141026305Y-116476216D01*
X140959990Y-116374587D01*
X140959990Y-111038072D01*
X141237500Y-111038072D01*
X141408316Y-111021248D01*
X141572567Y-110971423D01*
X141723942Y-110890512D01*
X141856623Y-110781623D01*
X141965512Y-110648942D01*
X141979004Y-110623700D01*
X143717352Y-110623700D01*
X143752278Y-110627140D01*
X143787204Y-110623700D01*
X143787214Y-110623700D01*
X143891698Y-110613409D01*
X144025759Y-110572742D01*
X144149311Y-110506702D01*
X144257605Y-110417827D01*
X144279880Y-110390685D01*
X147954402Y-106716165D01*
X147981527Y-106693904D01*
X148003789Y-106666778D01*
X148003798Y-106666769D01*
X148070403Y-106585610D01*
X148087841Y-106552986D01*
X148136443Y-106462058D01*
X148177110Y-106327997D01*
X148187401Y-106223513D01*
X148187401Y-106223504D01*
X148190841Y-106188578D01*
X148187401Y-106153652D01*
X148187401Y-98169972D01*
X148264022Y-98055300D01*
X148294428Y-97981894D01*
X148403029Y-98311666D01*
X148860438Y-100192183D01*
X149166993Y-102103097D01*
X149320757Y-104032326D01*
X149320757Y-105967674D01*
X149166993Y-107896903D01*
X148860438Y-109807817D01*
X148403029Y-111688334D01*
X147797659Y-113526566D01*
X147048155Y-115310890D01*
X146159255Y-117030025D01*
X145136580Y-118673103D01*
X143986595Y-120229735D01*
X142716570Y-121690079D01*
X141334536Y-123044903D01*
X139849229Y-124285642D01*
X138270041Y-125404451D01*
X136606955Y-126394256D01*
X134870486Y-127248800D01*
X133071613Y-127962680D01*
X131221709Y-128531382D01*
X129332469Y-128951311D01*
X127415837Y-129219813D01*
X125483932Y-129335189D01*
X123548968Y-129296710D01*
X121623177Y-129104619D01*
X119718736Y-128760131D01*
X117847684Y-128265425D01*
X116021852Y-127623626D01*
X114252783Y-126838794D01*
X112551660Y-125915890D01*
X110929241Y-124860749D01*
X110747451Y-124720777D01*
X122165000Y-124720777D01*
X122165000Y-125279223D01*
X122273948Y-125826939D01*
X122487656Y-126342876D01*
X122797912Y-126807207D01*
X123192793Y-127202088D01*
X123657124Y-127512344D01*
X124173061Y-127726052D01*
X124720777Y-127835000D01*
X125279223Y-127835000D01*
X125826939Y-127726052D01*
X126342876Y-127512344D01*
X126807207Y-127202088D01*
X127202088Y-126807207D01*
X127512344Y-126342876D01*
X127726052Y-125826939D01*
X127835000Y-125279223D01*
X127835000Y-124720777D01*
X127726052Y-124173061D01*
X127512344Y-123657124D01*
X127202088Y-123192793D01*
X126807207Y-122797912D01*
X126342876Y-122487656D01*
X125826939Y-122273948D01*
X125279223Y-122165000D01*
X124720777Y-122165000D01*
X124173061Y-122273948D01*
X123657124Y-122487656D01*
X123192793Y-122797912D01*
X122797912Y-123192793D01*
X122487656Y-123657124D01*
X122273948Y-124173061D01*
X122165000Y-124720777D01*
X110747451Y-124720777D01*
X109395781Y-123680041D01*
X107960976Y-122381233D01*
X107613806Y-122012711D01*
X135637822Y-122012711D01*
X135657389Y-122236364D01*
X136027076Y-122549387D01*
X135937373Y-122639090D01*
X135802217Y-122841365D01*
X135709120Y-123066121D01*
X135661660Y-123304720D01*
X135661660Y-123547994D01*
X135709120Y-123786593D01*
X135802217Y-124011349D01*
X135937373Y-124213624D01*
X136109393Y-124385644D01*
X136311668Y-124520800D01*
X136536424Y-124613897D01*
X136775023Y-124661357D01*
X137018297Y-124661357D01*
X137256896Y-124613897D01*
X137481652Y-124520800D01*
X137683927Y-124385644D01*
X137855947Y-124213624D01*
X137991103Y-124011349D01*
X138084200Y-123786593D01*
X138131660Y-123547994D01*
X138131660Y-123304720D01*
X138084200Y-123066121D01*
X137991103Y-122841365D01*
X137855947Y-122639090D01*
X137683927Y-122467070D01*
X137481652Y-122331914D01*
X137351978Y-122278201D01*
X137442686Y-122168896D01*
X137423119Y-121945244D01*
X136408685Y-121094033D01*
X135637822Y-122012711D01*
X107613806Y-122012711D01*
X106633897Y-120972535D01*
X106615821Y-120950000D01*
X122561928Y-120950000D01*
X122574188Y-121074482D01*
X122610498Y-121194180D01*
X122669463Y-121304494D01*
X122748815Y-121401185D01*
X122845506Y-121480537D01*
X122955820Y-121539502D01*
X123075518Y-121575812D01*
X123200000Y-121588072D01*
X124714250Y-121585000D01*
X124873000Y-121426250D01*
X124873000Y-119777000D01*
X125127000Y-119777000D01*
X125127000Y-121426250D01*
X125285750Y-121585000D01*
X126800000Y-121588072D01*
X126924482Y-121575812D01*
X127044180Y-121539502D01*
X127154494Y-121480537D01*
X127251185Y-121401185D01*
X127330537Y-121304494D01*
X127389502Y-121194180D01*
X127425812Y-121074482D01*
X127433626Y-120995142D01*
X134464124Y-120995142D01*
X134487187Y-121118081D01*
X134533791Y-121234160D01*
X134602145Y-121338915D01*
X134689623Y-121428322D01*
X135219594Y-121869010D01*
X135443246Y-121849443D01*
X136214109Y-120930765D01*
X135199675Y-120079553D01*
X134976023Y-120099120D01*
X134610977Y-120529386D01*
X134540353Y-120632625D01*
X134491228Y-120747659D01*
X134465489Y-120870066D01*
X134464124Y-120995142D01*
X127433626Y-120995142D01*
X127438072Y-120950000D01*
X127435000Y-119935750D01*
X127276250Y-119777000D01*
X125127000Y-119777000D01*
X124873000Y-119777000D01*
X122723750Y-119777000D01*
X122565000Y-119935750D01*
X122561928Y-120950000D01*
X106615821Y-120950000D01*
X105422935Y-119462853D01*
X104667288Y-118350000D01*
X122561928Y-118350000D01*
X122565000Y-119364250D01*
X122723750Y-119523000D01*
X124873000Y-119523000D01*
X124873000Y-117873750D01*
X125127000Y-117873750D01*
X125127000Y-119523000D01*
X127276250Y-119523000D01*
X127435000Y-119364250D01*
X127438072Y-118350000D01*
X127425812Y-118225518D01*
X127389502Y-118105820D01*
X127330537Y-117995506D01*
X127251185Y-117898815D01*
X127154494Y-117819463D01*
X127044180Y-117760498D01*
X126924482Y-117724188D01*
X126800000Y-117711928D01*
X125285750Y-117715000D01*
X125127000Y-117873750D01*
X124873000Y-117873750D01*
X124714250Y-117715000D01*
X123200000Y-117711928D01*
X123075518Y-117724188D01*
X122955820Y-117760498D01*
X122845506Y-117819463D01*
X122748815Y-117898815D01*
X122669463Y-117995506D01*
X122610498Y-118105820D01*
X122574188Y-118225518D01*
X122561928Y-118350000D01*
X104667288Y-118350000D01*
X104335745Y-117861733D01*
X103379201Y-116179296D01*
X102559351Y-114426180D01*
X101881378Y-112613469D01*
X101349568Y-110752624D01*
X101278516Y-110400000D01*
X105886928Y-110400000D01*
X105899188Y-110524482D01*
X105935498Y-110644180D01*
X105994463Y-110754494D01*
X106073815Y-110851185D01*
X106170506Y-110930537D01*
X106280820Y-110989502D01*
X106400518Y-111025812D01*
X106525000Y-111038072D01*
X106714250Y-111035000D01*
X106873000Y-110876250D01*
X106873000Y-109989500D01*
X107127000Y-109989500D01*
X107127000Y-110876250D01*
X107285750Y-111035000D01*
X107475000Y-111038072D01*
X107599482Y-111025812D01*
X107719180Y-110989502D01*
X107829494Y-110930537D01*
X107871271Y-110896251D01*
X110283354Y-110896251D01*
X110338565Y-111126453D01*
X110571034Y-111233848D01*
X110819989Y-111293827D01*
X111075861Y-111304085D01*
X111328817Y-111264228D01*
X111569138Y-111175787D01*
X111661435Y-111126453D01*
X111716646Y-110896251D01*
X111000000Y-110179605D01*
X110283354Y-110896251D01*
X107871271Y-110896251D01*
X107926185Y-110851185D01*
X108005537Y-110754494D01*
X108064502Y-110644180D01*
X108100812Y-110524482D01*
X108113072Y-110400000D01*
X108110000Y-110148250D01*
X108037611Y-110075861D01*
X109695915Y-110075861D01*
X109735772Y-110328817D01*
X109824213Y-110569138D01*
X109873547Y-110661435D01*
X110103749Y-110716646D01*
X110820395Y-110000000D01*
X111179605Y-110000000D01*
X111896251Y-110716646D01*
X112126453Y-110661435D01*
X112233848Y-110428966D01*
X112293827Y-110180011D01*
X112304085Y-109924139D01*
X112264228Y-109671183D01*
X112175787Y-109430862D01*
X112126453Y-109338565D01*
X111896251Y-109283354D01*
X111179605Y-110000000D01*
X110820395Y-110000000D01*
X110103749Y-109283354D01*
X109873547Y-109338565D01*
X109766152Y-109571034D01*
X109706173Y-109819989D01*
X109695915Y-110075861D01*
X108037611Y-110075861D01*
X107951250Y-109989500D01*
X107127000Y-109989500D01*
X106873000Y-109989500D01*
X106048750Y-109989500D01*
X105890000Y-110148250D01*
X105886928Y-110400000D01*
X101278516Y-110400000D01*
X100967284Y-108855408D01*
X100736943Y-106933817D01*
X100660000Y-105000000D01*
X100736943Y-103066183D01*
X100967284Y-101144592D01*
X101349568Y-99247376D01*
X101881378Y-97386531D01*
X102559351Y-95573820D01*
X103379201Y-93820704D01*
X104335745Y-92138267D01*
X105422935Y-90537147D01*
X106633897Y-89027465D01*
X107960976Y-87618767D01*
X109395781Y-86319959D01*
X110929241Y-85139251D01*
X112551660Y-84084110D01*
X113087540Y-83793381D01*
X113028309Y-83832958D01*
G37*
%TD.AperFunction*%
D22*
X144667000Y-99905000D02*
X144687000Y-99905000D01*
X144687000Y-100159000D01*
X144667000Y-100159000D01*
X144667000Y-100179000D01*
X144413000Y-100179000D01*
X144413000Y-100159000D01*
X144393000Y-100159000D01*
X144393000Y-99905000D01*
X144413000Y-99905000D01*
X144413000Y-99885000D01*
X144667000Y-99885000D01*
X144667000Y-99905000D01*
%TA.AperFunction,Conductor*%
D23*
G36*
X144667000Y-99905000D02*
G01*
X144687000Y-99905000D01*
X144687000Y-100159000D01*
X144667000Y-100159000D01*
X144667000Y-100179000D01*
X144413000Y-100179000D01*
X144413000Y-100159000D01*
X144393000Y-100159000D01*
X144393000Y-99905000D01*
X144413000Y-99905000D01*
X144413000Y-99885000D01*
X144667000Y-99885000D01*
X144667000Y-99905000D01*
G37*
%TD.AperFunction*%
D22*
X142638562Y-98056723D02*
X142635000Y-98058627D01*
X142614180Y-98047498D01*
X142509433Y-98015723D01*
X142543796Y-97973853D01*
X142614180Y-97952502D01*
X142617481Y-97950738D01*
X142638562Y-98056723D01*
%TA.AperFunction,Conductor*%
D23*
G36*
X142638562Y-98056723D02*
G01*
X142635000Y-98058627D01*
X142614180Y-98047498D01*
X142509433Y-98015723D01*
X142543796Y-97973853D01*
X142614180Y-97952502D01*
X142617481Y-97950738D01*
X142638562Y-98056723D01*
G37*
%TD.AperFunction*%
D22*
X127415837Y-80780187D02*
X129332469Y-81048689D01*
X131221709Y-81468618D01*
X133071613Y-82037320D01*
X134870486Y-82751200D01*
X136606955Y-83605744D01*
X138270041Y-84595549D01*
X139849229Y-85714358D01*
X140504606Y-86261821D01*
X140464229Y-86288800D01*
X139722425Y-86288800D01*
X139687499Y-86285360D01*
X139652573Y-86288800D01*
X139652564Y-86288800D01*
X139548080Y-86299091D01*
X139513072Y-86309711D01*
X139513072Y-86187500D01*
X139499611Y-86050825D01*
X139459744Y-85919403D01*
X139395004Y-85798283D01*
X139307879Y-85692121D01*
X139201717Y-85604996D01*
X139080597Y-85540256D01*
X138949175Y-85500389D01*
X138812500Y-85486928D01*
X138687500Y-85486928D01*
X138623973Y-85493185D01*
X137122401Y-83991613D01*
X137100126Y-83964472D01*
X136991832Y-83875597D01*
X136868280Y-83809557D01*
X136734219Y-83768890D01*
X136629735Y-83758599D01*
X136629725Y-83758599D01*
X136594799Y-83755159D01*
X136559873Y-83758599D01*
X134780428Y-83758599D01*
X134745502Y-83755159D01*
X134710576Y-83758599D01*
X134710567Y-83758599D01*
X134606083Y-83768890D01*
X134472022Y-83809557D01*
X134348470Y-83875597D01*
X134240176Y-83964472D01*
X134217906Y-83991608D01*
X132918497Y-85291018D01*
X132918497Y-85040188D01*
X133075799Y-84882886D01*
X133227371Y-84656043D01*
X133331775Y-84403989D01*
X133385000Y-84136411D01*
X133385000Y-83863589D01*
X133331775Y-83596011D01*
X133227371Y-83343957D01*
X133075799Y-83117114D01*
X132882886Y-82924201D01*
X132656043Y-82772629D01*
X132403989Y-82668225D01*
X132136411Y-82615000D01*
X131863589Y-82615000D01*
X131596011Y-82668225D01*
X131343957Y-82772629D01*
X131117114Y-82924201D01*
X130924201Y-83117114D01*
X130809484Y-83288800D01*
X129587330Y-83288800D01*
X129552402Y-83285360D01*
X129517474Y-83288800D01*
X129517466Y-83288800D01*
X129412982Y-83299091D01*
X129278921Y-83339758D01*
X129155369Y-83405798D01*
X129047075Y-83494673D01*
X129035263Y-83509066D01*
X129020875Y-83520874D01*
X128998605Y-83548010D01*
X128998604Y-83548011D01*
X128931999Y-83629169D01*
X128865960Y-83752720D01*
X128825293Y-83886782D01*
X128811561Y-84026201D01*
X128815002Y-84061137D01*
X128815002Y-85186928D01*
X128350000Y-85186928D01*
X128225518Y-85199188D01*
X128105820Y-85235498D01*
X127995506Y-85294463D01*
X127898815Y-85373815D01*
X127819463Y-85470506D01*
X127783609Y-85537584D01*
X127835000Y-85279223D01*
X127835000Y-84720777D01*
X127726052Y-84173061D01*
X127512344Y-83657124D01*
X127202088Y-83192793D01*
X126807207Y-82797912D01*
X126342876Y-82487656D01*
X125826939Y-82273948D01*
X125279223Y-82165000D01*
X124720777Y-82165000D01*
X124173061Y-82273948D01*
X123657124Y-82487656D01*
X123192793Y-82797912D01*
X122797912Y-83192793D01*
X122487656Y-83657124D01*
X122273948Y-84173061D01*
X122165000Y-84720777D01*
X122165000Y-85279223D01*
X122273948Y-85826939D01*
X122487656Y-86342876D01*
X122797912Y-86807207D01*
X123192793Y-87202088D01*
X123657124Y-87512344D01*
X124173061Y-87726052D01*
X124720777Y-87835000D01*
X125279223Y-87835000D01*
X125826939Y-87726052D01*
X126223654Y-87561727D01*
X126212179Y-87578901D01*
X126145164Y-87740688D01*
X126111000Y-87912441D01*
X126111000Y-88087559D01*
X126145164Y-88259312D01*
X126208380Y-88411928D01*
X123200000Y-88411928D01*
X123075518Y-88424188D01*
X122955820Y-88460498D01*
X122845506Y-88519463D01*
X122748815Y-88598815D01*
X122669463Y-88695506D01*
X122610498Y-88805820D01*
X122574188Y-88925518D01*
X122561928Y-89050000D01*
X122561928Y-89991209D01*
X122296997Y-89991209D01*
X117438072Y-85132285D01*
X117438072Y-84750000D01*
X117435664Y-84725550D01*
X117435664Y-84700991D01*
X117423404Y-84576510D01*
X117404282Y-84480377D01*
X117367973Y-84360681D01*
X117330464Y-84270125D01*
X117271498Y-84159808D01*
X117217042Y-84078309D01*
X117137690Y-83981618D01*
X117068382Y-83912310D01*
X116971691Y-83832958D01*
X116890192Y-83778502D01*
X116779875Y-83719536D01*
X116689319Y-83682027D01*
X116569623Y-83645718D01*
X116473490Y-83626596D01*
X116349009Y-83614336D01*
X116324450Y-83614336D01*
X116300000Y-83611928D01*
X115750000Y-83611928D01*
X115625518Y-83624188D01*
X115625000Y-83624345D01*
X115624482Y-83624188D01*
X115500000Y-83611928D01*
X114500000Y-83611928D01*
X114375518Y-83624188D01*
X114375000Y-83624345D01*
X114374482Y-83624188D01*
X114250000Y-83611928D01*
X113700000Y-83611928D01*
X113675550Y-83614336D01*
X113650991Y-83614336D01*
X113526510Y-83626596D01*
X113430377Y-83645718D01*
X113310681Y-83682027D01*
X113235042Y-83713357D01*
X114252783Y-83161206D01*
X116021852Y-82376374D01*
X117847684Y-81734575D01*
X119718736Y-81239869D01*
X121623177Y-80895381D01*
X123548968Y-80703290D01*
X125483932Y-80664811D01*
X127415837Y-80780187D01*
%TA.AperFunction,Conductor*%
D23*
G36*
X127415837Y-80780187D02*
G01*
X129332469Y-81048689D01*
X131221709Y-81468618D01*
X133071613Y-82037320D01*
X134870486Y-82751200D01*
X136606955Y-83605744D01*
X138270041Y-84595549D01*
X139849229Y-85714358D01*
X140504606Y-86261821D01*
X140464229Y-86288800D01*
X139722425Y-86288800D01*
X139687499Y-86285360D01*
X139652573Y-86288800D01*
X139652564Y-86288800D01*
X139548080Y-86299091D01*
X139513072Y-86309711D01*
X139513072Y-86187500D01*
X139499611Y-86050825D01*
X139459744Y-85919403D01*
X139395004Y-85798283D01*
X139307879Y-85692121D01*
X139201717Y-85604996D01*
X139080597Y-85540256D01*
X138949175Y-85500389D01*
X138812500Y-85486928D01*
X138687500Y-85486928D01*
X138623973Y-85493185D01*
X137122401Y-83991613D01*
X137100126Y-83964472D01*
X136991832Y-83875597D01*
X136868280Y-83809557D01*
X136734219Y-83768890D01*
X136629735Y-83758599D01*
X136629725Y-83758599D01*
X136594799Y-83755159D01*
X136559873Y-83758599D01*
X134780428Y-83758599D01*
X134745502Y-83755159D01*
X134710576Y-83758599D01*
X134710567Y-83758599D01*
X134606083Y-83768890D01*
X134472022Y-83809557D01*
X134348470Y-83875597D01*
X134240176Y-83964472D01*
X134217906Y-83991608D01*
X132918497Y-85291018D01*
X132918497Y-85040188D01*
X133075799Y-84882886D01*
X133227371Y-84656043D01*
X133331775Y-84403989D01*
X133385000Y-84136411D01*
X133385000Y-83863589D01*
X133331775Y-83596011D01*
X133227371Y-83343957D01*
X133075799Y-83117114D01*
X132882886Y-82924201D01*
X132656043Y-82772629D01*
X132403989Y-82668225D01*
X132136411Y-82615000D01*
X131863589Y-82615000D01*
X131596011Y-82668225D01*
X131343957Y-82772629D01*
X131117114Y-82924201D01*
X130924201Y-83117114D01*
X130809484Y-83288800D01*
X129587330Y-83288800D01*
X129552402Y-83285360D01*
X129517474Y-83288800D01*
X129517466Y-83288800D01*
X129412982Y-83299091D01*
X129278921Y-83339758D01*
X129155369Y-83405798D01*
X129047075Y-83494673D01*
X129035263Y-83509066D01*
X129020875Y-83520874D01*
X128998605Y-83548010D01*
X128998604Y-83548011D01*
X128931999Y-83629169D01*
X128865960Y-83752720D01*
X128825293Y-83886782D01*
X128811561Y-84026201D01*
X128815002Y-84061137D01*
X128815002Y-85186928D01*
X128350000Y-85186928D01*
X128225518Y-85199188D01*
X128105820Y-85235498D01*
X127995506Y-85294463D01*
X127898815Y-85373815D01*
X127819463Y-85470506D01*
X127783609Y-85537584D01*
X127835000Y-85279223D01*
X127835000Y-84720777D01*
X127726052Y-84173061D01*
X127512344Y-83657124D01*
X127202088Y-83192793D01*
X126807207Y-82797912D01*
X126342876Y-82487656D01*
X125826939Y-82273948D01*
X125279223Y-82165000D01*
X124720777Y-82165000D01*
X124173061Y-82273948D01*
X123657124Y-82487656D01*
X123192793Y-82797912D01*
X122797912Y-83192793D01*
X122487656Y-83657124D01*
X122273948Y-84173061D01*
X122165000Y-84720777D01*
X122165000Y-85279223D01*
X122273948Y-85826939D01*
X122487656Y-86342876D01*
X122797912Y-86807207D01*
X123192793Y-87202088D01*
X123657124Y-87512344D01*
X124173061Y-87726052D01*
X124720777Y-87835000D01*
X125279223Y-87835000D01*
X125826939Y-87726052D01*
X126223654Y-87561727D01*
X126212179Y-87578901D01*
X126145164Y-87740688D01*
X126111000Y-87912441D01*
X126111000Y-88087559D01*
X126145164Y-88259312D01*
X126208380Y-88411928D01*
X123200000Y-88411928D01*
X123075518Y-88424188D01*
X122955820Y-88460498D01*
X122845506Y-88519463D01*
X122748815Y-88598815D01*
X122669463Y-88695506D01*
X122610498Y-88805820D01*
X122574188Y-88925518D01*
X122561928Y-89050000D01*
X122561928Y-89991209D01*
X122296997Y-89991209D01*
X117438072Y-85132285D01*
X117438072Y-84750000D01*
X117435664Y-84725550D01*
X117435664Y-84700991D01*
X117423404Y-84576510D01*
X117404282Y-84480377D01*
X117367973Y-84360681D01*
X117330464Y-84270125D01*
X117271498Y-84159808D01*
X117217042Y-84078309D01*
X117137690Y-83981618D01*
X117068382Y-83912310D01*
X116971691Y-83832958D01*
X116890192Y-83778502D01*
X116779875Y-83719536D01*
X116689319Y-83682027D01*
X116569623Y-83645718D01*
X116473490Y-83626596D01*
X116349009Y-83614336D01*
X116324450Y-83614336D01*
X116300000Y-83611928D01*
X115750000Y-83611928D01*
X115625518Y-83624188D01*
X115625000Y-83624345D01*
X115624482Y-83624188D01*
X115500000Y-83611928D01*
X114500000Y-83611928D01*
X114375518Y-83624188D01*
X114375000Y-83624345D01*
X114374482Y-83624188D01*
X114250000Y-83611928D01*
X113700000Y-83611928D01*
X113675550Y-83614336D01*
X113650991Y-83614336D01*
X113526510Y-83626596D01*
X113430377Y-83645718D01*
X113310681Y-83682027D01*
X113235042Y-83713357D01*
X114252783Y-83161206D01*
X116021852Y-82376374D01*
X117847684Y-81734575D01*
X119718736Y-81239869D01*
X121623177Y-80895381D01*
X123548968Y-80703290D01*
X125483932Y-80664811D01*
X127415837Y-80780187D01*
G37*
%TD.AperFunction*%
D22*
X137127000Y-88873000D02*
X137147000Y-88873000D01*
X137147000Y-89127000D01*
X137127000Y-89127000D01*
X137127000Y-89147000D01*
X136873000Y-89147000D01*
X136873000Y-89127000D01*
X136853000Y-89127000D01*
X136853000Y-88873000D01*
X136873000Y-88873000D01*
X136873000Y-88853000D01*
X137127000Y-88853000D01*
X137127000Y-88873000D01*
%TA.AperFunction,Conductor*%
D23*
G36*
X137127000Y-88873000D02*
G01*
X137147000Y-88873000D01*
X137147000Y-89127000D01*
X137127000Y-89127000D01*
X137127000Y-89147000D01*
X136873000Y-89147000D01*
X136873000Y-89127000D01*
X136853000Y-89127000D01*
X136853000Y-88873000D01*
X136873000Y-88873000D01*
X136873000Y-88853000D01*
X137127000Y-88853000D01*
X137127000Y-88873000D01*
G37*
%TD.AperFunction*%
D22*
X130667000Y-87352000D02*
X130667750Y-87352000D01*
X130687000Y-87371250D01*
X130687000Y-87428750D01*
X130667750Y-87448000D01*
X130667000Y-87448000D01*
X130667000Y-87547000D01*
X130413000Y-87547000D01*
X130413000Y-87448000D01*
X130412250Y-87448000D01*
X130393000Y-87428750D01*
X130393000Y-87371250D01*
X130412250Y-87352000D01*
X130413000Y-87352000D01*
X130413000Y-87253000D01*
X130667000Y-87253000D01*
X130667000Y-87352000D01*
%TA.AperFunction,Conductor*%
D23*
G36*
X130667000Y-87352000D02*
G01*
X130667750Y-87352000D01*
X130687000Y-87371250D01*
X130687000Y-87428750D01*
X130667750Y-87448000D01*
X130667000Y-87448000D01*
X130667000Y-87547000D01*
X130413000Y-87547000D01*
X130413000Y-87448000D01*
X130412250Y-87448000D01*
X130393000Y-87428750D01*
X130393000Y-87371250D01*
X130412250Y-87352000D01*
X130413000Y-87352000D01*
X130413000Y-87253000D01*
X130667000Y-87253000D01*
X130667000Y-87352000D01*
G37*
%TD.AperFunction*%
%TD*%
M02*
