%TF.GenerationSoftware,KiCad,Pcbnew,(5.1.9)-1*%
%TF.CreationDate,2022-04-02T11:09:43-04:00*%
%TF.ProjectId,Light_Sensor_schematic,4c696768-745f-4536-956e-736f725f7363,rev?*%
%TF.SameCoordinates,Original*%
%TF.FileFunction,Copper,L2,Bot*%
%TF.FilePolarity,Positive*%
%FSLAX46Y46*%
G04 Gerber Fmt 4.6, Leading zero omitted, Abs format (unit mm)*
G04 Created by KiCad (PCBNEW (5.1.9)-1) date 2022-04-02 11:09:43*
%MOMM*%
%LPD*%
G01*
G04 APERTURE LIST*
%TA.AperFunction,ComponentPad*%
%ADD10C,4.400000*%
%TD*%
%TA.AperFunction,ComponentPad*%
%ADD11C,0.700000*%
%TD*%
%TA.AperFunction,ComponentPad*%
%ADD12C,1.330000*%
%TD*%
%TA.AperFunction,ViaPad*%
%ADD13C,0.508000*%
%TD*%
%TA.AperFunction,Conductor*%
%ADD14C,0.152400*%
%TD*%
%TA.AperFunction,Conductor*%
%ADD15C,0.254000*%
%TD*%
%TA.AperFunction,Conductor*%
%ADD16C,0.100000*%
%TD*%
G04 APERTURE END LIST*
%TO.P,C2,2*%
%TO.N,GND*%
%TA.AperFunction,SMDPad,CuDef*%
G36*
G01*
X137462500Y-87237500D02*
X137462500Y-86762500D01*
G75*
G02*
X137700000Y-86525000I237500J0D01*
G01*
X138300000Y-86525000D01*
G75*
G02*
X138537500Y-86762500I0J-237500D01*
G01*
X138537500Y-87237500D01*
G75*
G02*
X138300000Y-87475000I-237500J0D01*
G01*
X137700000Y-87475000D01*
G75*
G02*
X137462500Y-87237500I0J237500D01*
G01*
G37*
%TD.AperFunction*%
%TO.P,C2,1*%
%TO.N,VDD*%
%TA.AperFunction,SMDPad,CuDef*%
G36*
G01*
X135737500Y-87237500D02*
X135737500Y-86762500D01*
G75*
G02*
X135975000Y-86525000I237500J0D01*
G01*
X136575000Y-86525000D01*
G75*
G02*
X136812500Y-86762500I0J-237500D01*
G01*
X136812500Y-87237500D01*
G75*
G02*
X136575000Y-87475000I-237500J0D01*
G01*
X135975000Y-87475000D01*
G75*
G02*
X135737500Y-87237500I0J237500D01*
G01*
G37*
%TD.AperFunction*%
%TD*%
%TO.P,C4,1*%
%TO.N,VDD*%
%TA.AperFunction,SMDPad,CuDef*%
G36*
G01*
X135737500Y-89237500D02*
X135737500Y-88762500D01*
G75*
G02*
X135975000Y-88525000I237500J0D01*
G01*
X136575000Y-88525000D01*
G75*
G02*
X136812500Y-88762500I0J-237500D01*
G01*
X136812500Y-89237500D01*
G75*
G02*
X136575000Y-89475000I-237500J0D01*
G01*
X135975000Y-89475000D01*
G75*
G02*
X135737500Y-89237500I0J237500D01*
G01*
G37*
%TD.AperFunction*%
%TO.P,C4,2*%
%TO.N,GND*%
%TA.AperFunction,SMDPad,CuDef*%
G36*
G01*
X137462500Y-89237500D02*
X137462500Y-88762500D01*
G75*
G02*
X137700000Y-88525000I237500J0D01*
G01*
X138300000Y-88525000D01*
G75*
G02*
X138537500Y-88762500I0J-237500D01*
G01*
X138537500Y-89237500D01*
G75*
G02*
X138300000Y-89475000I-237500J0D01*
G01*
X137700000Y-89475000D01*
G75*
G02*
X137462500Y-89237500I0J237500D01*
G01*
G37*
%TD.AperFunction*%
%TD*%
%TO.P,C6,2*%
%TO.N,GND*%
%TA.AperFunction,SMDPad,CuDef*%
G36*
G01*
X137462500Y-91237500D02*
X137462500Y-90762500D01*
G75*
G02*
X137700000Y-90525000I237500J0D01*
G01*
X138300000Y-90525000D01*
G75*
G02*
X138537500Y-90762500I0J-237500D01*
G01*
X138537500Y-91237500D01*
G75*
G02*
X138300000Y-91475000I-237500J0D01*
G01*
X137700000Y-91475000D01*
G75*
G02*
X137462500Y-91237500I0J237500D01*
G01*
G37*
%TD.AperFunction*%
%TO.P,C6,1*%
%TO.N,VDD*%
%TA.AperFunction,SMDPad,CuDef*%
G36*
G01*
X135737500Y-91237500D02*
X135737500Y-90762500D01*
G75*
G02*
X135975000Y-90525000I237500J0D01*
G01*
X136575000Y-90525000D01*
G75*
G02*
X136812500Y-90762500I0J-237500D01*
G01*
X136812500Y-91237500D01*
G75*
G02*
X136575000Y-91475000I-237500J0D01*
G01*
X135975000Y-91475000D01*
G75*
G02*
X135737500Y-91237500I0J237500D01*
G01*
G37*
%TD.AperFunction*%
%TD*%
D10*
%TO.P,H1,1*%
%TO.N,N/C*%
X125000000Y-125000000D03*
D11*
X126650000Y-125000000D03*
X126166726Y-126166726D03*
X125000000Y-126650000D03*
X123833274Y-126166726D03*
X123350000Y-125000000D03*
X123833274Y-123833274D03*
X125000000Y-123350000D03*
X126166726Y-123833274D03*
%TD*%
%TO.P,H2,1*%
%TO.N,N/C*%
X126166726Y-83833274D03*
X125000000Y-83350000D03*
X123833274Y-83833274D03*
X123350000Y-85000000D03*
X123833274Y-86166726D03*
X125000000Y-86650000D03*
X126166726Y-86166726D03*
X126650000Y-85000000D03*
D10*
X125000000Y-85000000D03*
%TD*%
%TO.P,H3,1*%
%TO.N,N/C*%
X145000000Y-105000000D03*
D11*
X146650000Y-105000000D03*
X146166726Y-106166726D03*
X145000000Y-106650000D03*
X143833274Y-106166726D03*
X143350000Y-105000000D03*
X143833274Y-103833274D03*
X145000000Y-103350000D03*
X146166726Y-103833274D03*
%TD*%
%TO.P,H4,1*%
%TO.N,N/C*%
X106166726Y-103833274D03*
X105000000Y-103350000D03*
X103833274Y-103833274D03*
X103350000Y-105000000D03*
X103833274Y-106166726D03*
X105000000Y-106650000D03*
X106166726Y-106166726D03*
X106650000Y-105000000D03*
D10*
X105000000Y-105000000D03*
%TD*%
D12*
%TO.P,IC1,1*%
%TO.N,GND*%
X111000000Y-110000000D03*
%TO.P,IC1,2*%
%TO.N,/sensor_pwr*%
X111000000Y-108000000D03*
%TO.P,IC1,3*%
%TO.N,/tsl237_freq*%
X111000000Y-106000000D03*
%TD*%
%TO.P,J1,1*%
%TO.N,GND*%
%TA.AperFunction,ComponentPad*%
G36*
G01*
X136402044Y-122032270D02*
X135291279Y-121100228D01*
G75*
G02*
X135260465Y-120748020I160697J191511D01*
G01*
X136031810Y-119828766D01*
G75*
G02*
X136384018Y-119797952I191511J-160697D01*
G01*
X137494783Y-120729994D01*
G75*
G02*
X137525597Y-121082202I-160697J-191511D01*
G01*
X136754252Y-122001456D01*
G75*
G02*
X136402044Y-122032270I-191511J160697D01*
G01*
G37*
%TD.AperFunction*%
%TO.P,J1,2*%
%TO.N,Net-(J1-Pad2)*%
%TA.AperFunction,ComponentPad*%
G36*
G01*
X137549387Y-119731486D02*
X137357875Y-119570790D01*
G75*
G02*
X137253106Y-118373283I546369J651138D01*
G01*
X137253106Y-118373283D01*
G75*
G02*
X138450613Y-118268514I651138J-546369D01*
G01*
X138642125Y-118429210D01*
G75*
G02*
X138746894Y-119626717I-546369J-651138D01*
G01*
X138746894Y-119626717D01*
G75*
G02*
X137549387Y-119731486I-651138J546369D01*
G01*
G37*
%TD.AperFunction*%
%TO.P,J1,3*%
%TO.N,Net-(J1-Pad3)*%
%TA.AperFunction,ComponentPad*%
G36*
G01*
X139156356Y-117816375D02*
X138964844Y-117655679D01*
G75*
G02*
X138860075Y-116458172I546369J651138D01*
G01*
X138860075Y-116458172D01*
G75*
G02*
X140057582Y-116353403I651138J-546369D01*
G01*
X140249094Y-116514099D01*
G75*
G02*
X140353863Y-117711606I-546369J-651138D01*
G01*
X140353863Y-117711606D01*
G75*
G02*
X139156356Y-117816375I-651138J546369D01*
G01*
G37*
%TD.AperFunction*%
%TD*%
%TO.P,J3,1*%
%TO.N,Net-(J3-Pad1)*%
%TA.AperFunction,ComponentPad*%
G36*
G01*
X106106345Y-98112122D02*
X104918575Y-97280436D01*
G75*
G02*
X104857181Y-96932254I143394J204788D01*
G01*
X105545473Y-95949272D01*
G75*
G02*
X105893655Y-95887878I204788J-143394D01*
G01*
X107081425Y-96719564D01*
G75*
G02*
X107142819Y-97067746I-143394J-204788D01*
G01*
X106454527Y-98050728D01*
G75*
G02*
X106106345Y-98112122I-204788J143394D01*
G01*
G37*
%TD.AperFunction*%
%TO.P,J3,2*%
%TO.N,Net-(J3-Pad2)*%
%TA.AperFunction,ComponentPad*%
G36*
G01*
X107048795Y-95720096D02*
X106844007Y-95576702D01*
G75*
G02*
X106635268Y-94392883I487540J696279D01*
G01*
X106635268Y-94392883D01*
G75*
G02*
X107819087Y-94184144I696279J-487540D01*
G01*
X108023875Y-94327538D01*
G75*
G02*
X108232614Y-95511357I-487540J-696279D01*
G01*
X108232614Y-95511357D01*
G75*
G02*
X107048795Y-95720096I-696279J487540D01*
G01*
G37*
%TD.AperFunction*%
%TO.P,J3,3*%
%TO.N,Net-(J3-Pad3)*%
%TA.AperFunction,ComponentPad*%
G36*
G01*
X108482736Y-93672216D02*
X108277948Y-93528822D01*
G75*
G02*
X108069209Y-92345003I487540J696279D01*
G01*
X108069209Y-92345003D01*
G75*
G02*
X109253028Y-92136264I696279J-487540D01*
G01*
X109457816Y-92279658D01*
G75*
G02*
X109666555Y-93463477I-487540J-696279D01*
G01*
X109666555Y-93463477D01*
G75*
G02*
X108482736Y-93672216I-696279J487540D01*
G01*
G37*
%TD.AperFunction*%
%TO.P,J3,4*%
%TO.N,GND*%
%TA.AperFunction,ComponentPad*%
G36*
G01*
X109916677Y-91624336D02*
X109711889Y-91480942D01*
G75*
G02*
X109503150Y-90297123I487540J696279D01*
G01*
X109503150Y-90297123D01*
G75*
G02*
X110686969Y-90088384I696279J-487540D01*
G01*
X110891757Y-90231778D01*
G75*
G02*
X111100496Y-91415597I-487540J-696279D01*
G01*
X111100496Y-91415597D01*
G75*
G02*
X109916677Y-91624336I-696279J487540D01*
G01*
G37*
%TD.AperFunction*%
%TD*%
D13*
%TO.N,GND*%
X131677096Y-86322904D03*
X135000000Y-85000000D03*
X120500000Y-88000000D03*
X113000000Y-88000000D03*
X142500000Y-98000000D03*
X138500000Y-92500000D03*
%TO.N,VDD*%
X117500000Y-89500000D03*
X127000000Y-88000000D03*
X137389663Y-94428336D03*
X133530200Y-89500000D03*
X134124909Y-86624909D03*
%TO.N,/TX*%
X133000000Y-92000000D03*
X147476201Y-97634201D03*
%TO.N,/RX*%
X146946001Y-101000000D03*
X132000000Y-93000000D03*
%TO.N,/NRST*%
X143500000Y-97830599D03*
X135000000Y-100000000D03*
X129500000Y-101000000D03*
X132000000Y-89000000D03*
%TO.N,/SWDIO*%
X139000000Y-94000000D03*
X142000000Y-88000000D03*
%TO.N,/SWDCLK*%
X140000000Y-93000000D03*
X141000000Y-87000000D03*
%TO.N,/SWO*%
X141000000Y-98000000D03*
X133000000Y-87000000D03*
%TD*%
D14*
%TO.N,GND*%
X133677096Y-86322904D02*
X135000000Y-85000000D01*
X131677096Y-86322904D02*
X133677096Y-86322904D01*
X138000000Y-87000000D02*
X138000000Y-91000000D01*
X138000000Y-91000000D02*
X138000000Y-89170347D01*
X138000000Y-89000000D02*
X138000000Y-90538998D01*
X120500000Y-88000000D02*
X113000000Y-88000000D01*
X138469799Y-94329009D02*
X138469799Y-93030201D01*
X142140790Y-98000000D02*
X138469799Y-94329009D01*
X142500000Y-98000000D02*
X142140790Y-98000000D01*
X138469799Y-93030201D02*
X138500000Y-93000000D01*
X138500000Y-93000000D02*
X138500000Y-92500000D01*
X138500000Y-91500000D02*
X138000000Y-91000000D01*
X138500000Y-92500000D02*
X138500000Y-91500000D01*
%TO.N,VDD*%
X136000000Y-89000000D02*
X136275000Y-89000000D01*
X117500000Y-89500000D02*
X125500000Y-89500000D01*
X125500000Y-89500000D02*
X127000000Y-88000000D01*
X137428336Y-94428336D02*
X137389663Y-94428336D01*
X136275000Y-93275000D02*
X137428336Y-94428336D01*
X136275000Y-91000000D02*
X136275000Y-93275000D01*
X133530200Y-89500000D02*
X134030200Y-90000000D01*
X134030200Y-90000000D02*
X136000000Y-90000000D01*
X136000000Y-89275000D02*
X136275000Y-89000000D01*
X136000000Y-90000000D02*
X136000000Y-89275000D01*
X135523790Y-86248790D02*
X136275000Y-87000000D01*
X134501028Y-86248790D02*
X135523790Y-86248790D01*
X134124909Y-86624909D02*
X134501028Y-86248790D01*
%TO.N,/TX*%
X133000000Y-92000000D02*
X133000000Y-99000000D01*
X133000000Y-99000000D02*
X135000000Y-101000000D01*
X135000000Y-101000000D02*
X146000000Y-101000000D01*
X146000000Y-101000000D02*
X148000000Y-99000000D01*
X147476201Y-98476201D02*
X147476201Y-97634201D01*
X148000000Y-99000000D02*
X147476201Y-98476201D01*
%TO.N,/RX*%
X146946001Y-101000000D02*
X146946001Y-101946001D01*
X146946001Y-101946001D02*
X146892002Y-102000000D01*
X146892002Y-102000000D02*
X132000000Y-102000000D01*
X132000000Y-102000000D02*
X128000000Y-98000000D01*
X128000000Y-98000000D02*
X131000000Y-95000000D01*
X131000000Y-95000000D02*
X131000000Y-94000000D01*
X131000000Y-94000000D02*
X132000000Y-93000000D01*
%TO.N,/NRST*%
X143500000Y-97830599D02*
X141330599Y-100000000D01*
X141330599Y-100000000D02*
X135000000Y-100000000D01*
X125500000Y-97000000D02*
X129500000Y-101000000D01*
X125500000Y-95500000D02*
X125500000Y-97000000D01*
X132000000Y-89000000D02*
X125500000Y-95500000D01*
%TO.N,/SWDIO*%
X139000000Y-94000000D02*
X146000000Y-94000000D01*
X146000000Y-94000000D02*
X146000000Y-93000000D01*
X146000000Y-93000000D02*
X142000000Y-89000000D01*
X142000000Y-89000000D02*
X142000000Y-88000000D01*
%TO.N,/SWDCLK*%
X140000000Y-93000000D02*
X145000000Y-93000000D01*
X145000000Y-93000000D02*
X141000000Y-89000000D01*
X141000000Y-89000000D02*
X141000000Y-87000000D01*
%TO.N,/SWO*%
X141000000Y-98000000D02*
X134000000Y-98000000D01*
X134000000Y-98000000D02*
X134000000Y-92000000D01*
X134000000Y-92000000D02*
X133000000Y-91000000D01*
X133000000Y-91000000D02*
X133000000Y-87000000D01*
%TD*%
D15*
%TO.N,VDD*%
X127415837Y-80780187D02*
X129332469Y-81048689D01*
X131221709Y-81468618D01*
X133071613Y-82037320D01*
X134870486Y-82751200D01*
X136606955Y-83605744D01*
X138270041Y-84595549D01*
X139849229Y-85714358D01*
X140504606Y-86261821D01*
X140433296Y-86309469D01*
X140309469Y-86433296D01*
X140212179Y-86578901D01*
X140145164Y-86740688D01*
X140111000Y-86912441D01*
X140111000Y-87087559D01*
X140145164Y-87259312D01*
X140212179Y-87421099D01*
X140288801Y-87535772D01*
X140288800Y-88965074D01*
X140285360Y-89000000D01*
X140288800Y-89034926D01*
X140288800Y-89034935D01*
X140299091Y-89139419D01*
X140339758Y-89273480D01*
X140405798Y-89397032D01*
X140494673Y-89505326D01*
X140521810Y-89527598D01*
X143283012Y-92288800D01*
X140535771Y-92288800D01*
X140421099Y-92212179D01*
X140259312Y-92145164D01*
X140087559Y-92111000D01*
X139912441Y-92111000D01*
X139740688Y-92145164D01*
X139578901Y-92212179D01*
X139433296Y-92309469D01*
X139379265Y-92363500D01*
X139354836Y-92240688D01*
X139287821Y-92078901D01*
X139211200Y-91964229D01*
X139211200Y-91534928D01*
X139214640Y-91500000D01*
X139211200Y-91465071D01*
X139211200Y-91465064D01*
X139200909Y-91360580D01*
X139185405Y-91309469D01*
X139172631Y-91267360D01*
X139175572Y-91237500D01*
X139175572Y-90762500D01*
X139158748Y-90591684D01*
X139108923Y-90427433D01*
X139028012Y-90276058D01*
X138919123Y-90143377D01*
X138786442Y-90034488D01*
X138721919Y-90000000D01*
X138786442Y-89965512D01*
X138919123Y-89856623D01*
X139028012Y-89723942D01*
X139108923Y-89572567D01*
X139158748Y-89408316D01*
X139175572Y-89237500D01*
X139175572Y-88762500D01*
X139158748Y-88591684D01*
X139108923Y-88427433D01*
X139028012Y-88276058D01*
X138919123Y-88143377D01*
X138786442Y-88034488D01*
X138721919Y-88000000D01*
X138786442Y-87965512D01*
X138919123Y-87856623D01*
X139028012Y-87723942D01*
X139108923Y-87572567D01*
X139158748Y-87408316D01*
X139175572Y-87237500D01*
X139175572Y-86762500D01*
X139158748Y-86591684D01*
X139108923Y-86427433D01*
X139028012Y-86276058D01*
X138919123Y-86143377D01*
X138786442Y-86034488D01*
X138635067Y-85953577D01*
X138470816Y-85903752D01*
X138300000Y-85886928D01*
X137700000Y-85886928D01*
X137529184Y-85903752D01*
X137364933Y-85953577D01*
X137214894Y-86033774D01*
X137166994Y-85994463D01*
X137056680Y-85935498D01*
X136936982Y-85899188D01*
X136812500Y-85886928D01*
X136560750Y-85890000D01*
X136402000Y-86048750D01*
X136402000Y-86873000D01*
X136422000Y-86873000D01*
X136422000Y-87127000D01*
X136402000Y-87127000D01*
X136402000Y-87951250D01*
X136450750Y-88000000D01*
X136402000Y-88048750D01*
X136402000Y-88873000D01*
X136422000Y-88873000D01*
X136422000Y-89127000D01*
X136402000Y-89127000D01*
X136402000Y-89951250D01*
X136450750Y-90000000D01*
X136402000Y-90048750D01*
X136402000Y-90873000D01*
X136422000Y-90873000D01*
X136422000Y-91127000D01*
X136402000Y-91127000D01*
X136402000Y-91951250D01*
X136560750Y-92110000D01*
X136812500Y-92113072D01*
X136936982Y-92100812D01*
X137056680Y-92064502D01*
X137166994Y-92005537D01*
X137214894Y-91966226D01*
X137364933Y-92046423D01*
X137529184Y-92096248D01*
X137698102Y-92112885D01*
X137645164Y-92240688D01*
X137611000Y-92412441D01*
X137611000Y-92587559D01*
X137645164Y-92759312D01*
X137712179Y-92921099D01*
X137759003Y-92991176D01*
X137755159Y-93030201D01*
X137758600Y-93065136D01*
X137758599Y-94294083D01*
X137755159Y-94329009D01*
X137758599Y-94363935D01*
X137758599Y-94363944D01*
X137768890Y-94468428D01*
X137809557Y-94602489D01*
X137875597Y-94726041D01*
X137964472Y-94834335D01*
X137991609Y-94856607D01*
X140423802Y-97288800D01*
X134711200Y-97288800D01*
X134711200Y-92034928D01*
X134714640Y-92000000D01*
X134711200Y-91965071D01*
X134711200Y-91965064D01*
X134700909Y-91860580D01*
X134685405Y-91809469D01*
X134660242Y-91726518D01*
X134594202Y-91602967D01*
X134527598Y-91521809D01*
X134527593Y-91521804D01*
X134505327Y-91494673D01*
X134481356Y-91475000D01*
X135099428Y-91475000D01*
X135111688Y-91599482D01*
X135147998Y-91719180D01*
X135206963Y-91829494D01*
X135286315Y-91926185D01*
X135383006Y-92005537D01*
X135493320Y-92064502D01*
X135613018Y-92100812D01*
X135737500Y-92113072D01*
X135989250Y-92110000D01*
X136148000Y-91951250D01*
X136148000Y-91127000D01*
X135261250Y-91127000D01*
X135102500Y-91285750D01*
X135099428Y-91475000D01*
X134481356Y-91475000D01*
X134478196Y-91472407D01*
X133711200Y-90705413D01*
X133711200Y-89475000D01*
X135099428Y-89475000D01*
X135111688Y-89599482D01*
X135147998Y-89719180D01*
X135206963Y-89829494D01*
X135286315Y-89926185D01*
X135376259Y-90000000D01*
X135286315Y-90073815D01*
X135206963Y-90170506D01*
X135147998Y-90280820D01*
X135111688Y-90400518D01*
X135099428Y-90525000D01*
X135102500Y-90714250D01*
X135261250Y-90873000D01*
X136148000Y-90873000D01*
X136148000Y-90048750D01*
X136099250Y-90000000D01*
X136148000Y-89951250D01*
X136148000Y-89127000D01*
X135261250Y-89127000D01*
X135102500Y-89285750D01*
X135099428Y-89475000D01*
X133711200Y-89475000D01*
X133711200Y-87535771D01*
X133751805Y-87475000D01*
X135099428Y-87475000D01*
X135111688Y-87599482D01*
X135147998Y-87719180D01*
X135206963Y-87829494D01*
X135286315Y-87926185D01*
X135376259Y-88000000D01*
X135286315Y-88073815D01*
X135206963Y-88170506D01*
X135147998Y-88280820D01*
X135111688Y-88400518D01*
X135099428Y-88525000D01*
X135102500Y-88714250D01*
X135261250Y-88873000D01*
X136148000Y-88873000D01*
X136148000Y-88048750D01*
X136099250Y-88000000D01*
X136148000Y-87951250D01*
X136148000Y-87127000D01*
X135261250Y-87127000D01*
X135102500Y-87285750D01*
X135099428Y-87475000D01*
X133751805Y-87475000D01*
X133787821Y-87421099D01*
X133854836Y-87259312D01*
X133889000Y-87087559D01*
X133889000Y-87001825D01*
X133950577Y-86983146D01*
X134074129Y-86917106D01*
X134182423Y-86828231D01*
X134204698Y-86801089D01*
X134480787Y-86525000D01*
X135099428Y-86525000D01*
X135102500Y-86714250D01*
X135261250Y-86873000D01*
X136148000Y-86873000D01*
X136148000Y-86048750D01*
X135989250Y-85890000D01*
X135737500Y-85886928D01*
X135613018Y-85899188D01*
X135493320Y-85935498D01*
X135383006Y-85994463D01*
X135286315Y-86073815D01*
X135206963Y-86170506D01*
X135147998Y-86280820D01*
X135111688Y-86400518D01*
X135099428Y-86525000D01*
X134480787Y-86525000D01*
X135124045Y-85881742D01*
X135259312Y-85854836D01*
X135421099Y-85787821D01*
X135566704Y-85690531D01*
X135690531Y-85566704D01*
X135787821Y-85421099D01*
X135854836Y-85259312D01*
X135889000Y-85087559D01*
X135889000Y-84912441D01*
X135854836Y-84740688D01*
X135787821Y-84578901D01*
X135690531Y-84433296D01*
X135566704Y-84309469D01*
X135421099Y-84212179D01*
X135259312Y-84145164D01*
X135087559Y-84111000D01*
X134912441Y-84111000D01*
X134740688Y-84145164D01*
X134578901Y-84212179D01*
X134433296Y-84309469D01*
X134309469Y-84433296D01*
X134212179Y-84578901D01*
X134145164Y-84740688D01*
X134118258Y-84875955D01*
X133382509Y-85611704D01*
X132212867Y-85611704D01*
X132098195Y-85535083D01*
X131936408Y-85468068D01*
X131764655Y-85433904D01*
X131589537Y-85433904D01*
X131417784Y-85468068D01*
X131255997Y-85535083D01*
X131110392Y-85632373D01*
X130986565Y-85756200D01*
X130889275Y-85901805D01*
X130822260Y-86063592D01*
X130788096Y-86235345D01*
X130788096Y-86410463D01*
X130822260Y-86582216D01*
X130889275Y-86744003D01*
X130986565Y-86889608D01*
X131110392Y-87013435D01*
X131255997Y-87110725D01*
X131417784Y-87177740D01*
X131589537Y-87211904D01*
X131764655Y-87211904D01*
X131936408Y-87177740D01*
X132098195Y-87110725D01*
X132113565Y-87100455D01*
X132145164Y-87259312D01*
X132212179Y-87421099D01*
X132288801Y-87535772D01*
X132288801Y-88157379D01*
X132259312Y-88145164D01*
X132087559Y-88111000D01*
X131912441Y-88111000D01*
X131740688Y-88145164D01*
X131578901Y-88212179D01*
X131433296Y-88309469D01*
X131309469Y-88433296D01*
X131212179Y-88578901D01*
X131145164Y-88740688D01*
X131118258Y-88875954D01*
X125021811Y-94972402D01*
X124994673Y-94994674D01*
X124905798Y-95102968D01*
X124839758Y-95226520D01*
X124799091Y-95360581D01*
X124788800Y-95465065D01*
X124788800Y-95465074D01*
X124785360Y-95500000D01*
X124788800Y-95534926D01*
X124788801Y-96965064D01*
X124785360Y-97000000D01*
X124788801Y-97034936D01*
X124799092Y-97139420D01*
X124808477Y-97170358D01*
X124839759Y-97273481D01*
X124900186Y-97386531D01*
X124905799Y-97397033D01*
X124994674Y-97505327D01*
X125021810Y-97527597D01*
X128618258Y-101124047D01*
X128645164Y-101259312D01*
X128712179Y-101421099D01*
X128809469Y-101566704D01*
X128933296Y-101690531D01*
X129078901Y-101787821D01*
X129240688Y-101854836D01*
X129412441Y-101889000D01*
X129587559Y-101889000D01*
X129759312Y-101854836D01*
X129921099Y-101787821D01*
X130066704Y-101690531D01*
X130190531Y-101566704D01*
X130287821Y-101421099D01*
X130325162Y-101330950D01*
X131472407Y-102478196D01*
X131494673Y-102505327D01*
X131521804Y-102527593D01*
X131521808Y-102527597D01*
X131537169Y-102540203D01*
X131602967Y-102594202D01*
X131726519Y-102660242D01*
X131860580Y-102700909D01*
X131965064Y-102711200D01*
X131965073Y-102711200D01*
X131999999Y-102714640D01*
X132034925Y-102711200D01*
X143322567Y-102711200D01*
X143192793Y-102797912D01*
X142797912Y-103192793D01*
X142487656Y-103657124D01*
X142273948Y-104173061D01*
X142165000Y-104720777D01*
X142165000Y-105279223D01*
X142273948Y-105826939D01*
X142487656Y-106342876D01*
X142797912Y-106807207D01*
X143192793Y-107202088D01*
X143657124Y-107512344D01*
X144173061Y-107726052D01*
X144720777Y-107835000D01*
X145279223Y-107835000D01*
X145826939Y-107726052D01*
X146342876Y-107512344D01*
X146807207Y-107202088D01*
X147202088Y-106807207D01*
X147512344Y-106342876D01*
X147726052Y-105826939D01*
X147835000Y-105279223D01*
X147835000Y-104720777D01*
X147726052Y-104173061D01*
X147512344Y-103657124D01*
X147202088Y-103192793D01*
X146807207Y-102797912D01*
X146677433Y-102711200D01*
X146857076Y-102711200D01*
X146892002Y-102714640D01*
X146926928Y-102711200D01*
X146926938Y-102711200D01*
X147031422Y-102700909D01*
X147165483Y-102660242D01*
X147289035Y-102594202D01*
X147397329Y-102505327D01*
X147419604Y-102478185D01*
X147424186Y-102473603D01*
X147451328Y-102451328D01*
X147540203Y-102343034D01*
X147606243Y-102219482D01*
X147646910Y-102085421D01*
X147657201Y-101980937D01*
X147657201Y-101980928D01*
X147660641Y-101946002D01*
X147657201Y-101911076D01*
X147657201Y-101535771D01*
X147733822Y-101421099D01*
X147800837Y-101259312D01*
X147835001Y-101087559D01*
X147835001Y-100912441D01*
X147800837Y-100740688D01*
X147733822Y-100578901D01*
X147636532Y-100433296D01*
X147604512Y-100401276D01*
X148478192Y-99527596D01*
X148505327Y-99505327D01*
X148527598Y-99478190D01*
X148594202Y-99397033D01*
X148644253Y-99303394D01*
X148860438Y-100192183D01*
X149166993Y-102103097D01*
X149320757Y-104032326D01*
X149320757Y-105967674D01*
X149166993Y-107896903D01*
X148860438Y-109807817D01*
X148403029Y-111688334D01*
X147797659Y-113526566D01*
X147048155Y-115310890D01*
X146159255Y-117030025D01*
X145136580Y-118673103D01*
X143986595Y-120229735D01*
X142716570Y-121690079D01*
X141334536Y-123044903D01*
X139849229Y-124285642D01*
X138270041Y-125404451D01*
X136606955Y-126394256D01*
X134870486Y-127248800D01*
X133071613Y-127962680D01*
X131221709Y-128531382D01*
X129332469Y-128951311D01*
X127415837Y-129219813D01*
X125483932Y-129335189D01*
X123548968Y-129296710D01*
X121623177Y-129104619D01*
X119718736Y-128760131D01*
X117847684Y-128265425D01*
X116021852Y-127623626D01*
X114252783Y-126838794D01*
X112551660Y-125915890D01*
X110929241Y-124860749D01*
X110747451Y-124720777D01*
X122165000Y-124720777D01*
X122165000Y-125279223D01*
X122273948Y-125826939D01*
X122487656Y-126342876D01*
X122797912Y-126807207D01*
X123192793Y-127202088D01*
X123657124Y-127512344D01*
X124173061Y-127726052D01*
X124720777Y-127835000D01*
X125279223Y-127835000D01*
X125826939Y-127726052D01*
X126342876Y-127512344D01*
X126807207Y-127202088D01*
X127202088Y-126807207D01*
X127512344Y-126342876D01*
X127726052Y-125826939D01*
X127835000Y-125279223D01*
X127835000Y-124720777D01*
X127726052Y-124173061D01*
X127512344Y-123657124D01*
X127202088Y-123192793D01*
X126807207Y-122797912D01*
X126342876Y-122487656D01*
X125826939Y-122273948D01*
X125279223Y-122165000D01*
X124720777Y-122165000D01*
X124173061Y-122273948D01*
X123657124Y-122487656D01*
X123192793Y-122797912D01*
X122797912Y-123192793D01*
X122487656Y-123657124D01*
X122273948Y-124173061D01*
X122165000Y-124720777D01*
X110747451Y-124720777D01*
X109395781Y-123680041D01*
X107960976Y-122381233D01*
X106646694Y-120986118D01*
X134567283Y-120986118D01*
X134599383Y-121157226D01*
X134664247Y-121318783D01*
X134759383Y-121464582D01*
X134881135Y-121589020D01*
X135991900Y-122521062D01*
X136029607Y-122546856D01*
X135937373Y-122639090D01*
X135802217Y-122841365D01*
X135709120Y-123066121D01*
X135661660Y-123304720D01*
X135661660Y-123547994D01*
X135709120Y-123786593D01*
X135802217Y-124011349D01*
X135937373Y-124213624D01*
X136109393Y-124385644D01*
X136311668Y-124520800D01*
X136536424Y-124613897D01*
X136775023Y-124661357D01*
X137018297Y-124661357D01*
X137256896Y-124613897D01*
X137481652Y-124520800D01*
X137683927Y-124385644D01*
X137855947Y-124213624D01*
X137991103Y-124011349D01*
X138084200Y-123786593D01*
X138131660Y-123547994D01*
X138131660Y-123304720D01*
X138084200Y-123066121D01*
X137991103Y-122841365D01*
X137855947Y-122639090D01*
X137683927Y-122467070D01*
X137481652Y-122331914D01*
X137354205Y-122279124D01*
X138014389Y-121492346D01*
X138112683Y-121348657D01*
X138181055Y-121188553D01*
X138216880Y-121018186D01*
X138218779Y-120844104D01*
X138186679Y-120672996D01*
X138143704Y-120565958D01*
X138225815Y-120566853D01*
X138513319Y-120512917D01*
X138784777Y-120403928D01*
X139029755Y-120244075D01*
X139238840Y-120039500D01*
X139403998Y-119798065D01*
X139518879Y-119529049D01*
X139579072Y-119242789D01*
X139582261Y-118950287D01*
X139528325Y-118662785D01*
X139520981Y-118644494D01*
X139540283Y-118648553D01*
X139832784Y-118651742D01*
X140120288Y-118597806D01*
X140391746Y-118488817D01*
X140636724Y-118328964D01*
X140845809Y-118124389D01*
X141010967Y-117882954D01*
X141125848Y-117613938D01*
X141186041Y-117327678D01*
X141189230Y-117035176D01*
X141135294Y-116747674D01*
X141026305Y-116476216D01*
X140866452Y-116231238D01*
X140713141Y-116074548D01*
X140409863Y-115820070D01*
X140228930Y-115696299D01*
X139959914Y-115581418D01*
X139673654Y-115521225D01*
X139381154Y-115518036D01*
X139093650Y-115571972D01*
X138822192Y-115680961D01*
X138577214Y-115840814D01*
X138368129Y-116045389D01*
X138202971Y-116286824D01*
X138088090Y-116555840D01*
X138027897Y-116842100D01*
X138024708Y-117134600D01*
X138078644Y-117422104D01*
X138085988Y-117440395D01*
X138066685Y-117436336D01*
X137774185Y-117433147D01*
X137486681Y-117487083D01*
X137215223Y-117596072D01*
X136970245Y-117755925D01*
X136761160Y-117960500D01*
X136596002Y-118201935D01*
X136481121Y-118470951D01*
X136420928Y-118757211D01*
X136417739Y-119049711D01*
X136432877Y-119130405D01*
X136320002Y-119106669D01*
X136145920Y-119104770D01*
X135974812Y-119136870D01*
X135813255Y-119201734D01*
X135667456Y-119296870D01*
X135543018Y-119418622D01*
X134771673Y-120337876D01*
X134673379Y-120481565D01*
X134605007Y-120641669D01*
X134569182Y-120812036D01*
X134567283Y-120986118D01*
X106646694Y-120986118D01*
X106633897Y-120972535D01*
X105422935Y-119462853D01*
X104335745Y-117861733D01*
X103379201Y-116179296D01*
X102559351Y-114426180D01*
X101881378Y-112613469D01*
X101349568Y-110752624D01*
X100967284Y-108855408D01*
X100736943Y-106933817D01*
X100660000Y-105000000D01*
X100671109Y-104720777D01*
X102165000Y-104720777D01*
X102165000Y-105279223D01*
X102273948Y-105826939D01*
X102487656Y-106342876D01*
X102797912Y-106807207D01*
X103192793Y-107202088D01*
X103657124Y-107512344D01*
X104173061Y-107726052D01*
X104720777Y-107835000D01*
X105279223Y-107835000D01*
X105826939Y-107726052D01*
X106342876Y-107512344D01*
X106807207Y-107202088D01*
X107202088Y-106807207D01*
X107512344Y-106342876D01*
X107707403Y-105871961D01*
X109700000Y-105871961D01*
X109700000Y-106128039D01*
X109749958Y-106379196D01*
X109847955Y-106615781D01*
X109990224Y-106828702D01*
X110161522Y-107000000D01*
X109990224Y-107171298D01*
X109847955Y-107384219D01*
X109749958Y-107620804D01*
X109700000Y-107871961D01*
X109700000Y-108128039D01*
X109749958Y-108379196D01*
X109847955Y-108615781D01*
X109990224Y-108828702D01*
X110161522Y-109000000D01*
X109990224Y-109171298D01*
X109847955Y-109384219D01*
X109749958Y-109620804D01*
X109700000Y-109871961D01*
X109700000Y-110128039D01*
X109749958Y-110379196D01*
X109847955Y-110615781D01*
X109990224Y-110828702D01*
X110171298Y-111009776D01*
X110384219Y-111152045D01*
X110620804Y-111250042D01*
X110871961Y-111300000D01*
X111128039Y-111300000D01*
X111379196Y-111250042D01*
X111615781Y-111152045D01*
X111828702Y-111009776D01*
X112009776Y-110828702D01*
X112152045Y-110615781D01*
X112250042Y-110379196D01*
X112300000Y-110128039D01*
X112300000Y-109871961D01*
X112250042Y-109620804D01*
X112152045Y-109384219D01*
X112009776Y-109171298D01*
X111838478Y-109000000D01*
X112009776Y-108828702D01*
X112152045Y-108615781D01*
X112250042Y-108379196D01*
X112300000Y-108128039D01*
X112300000Y-107871961D01*
X112250042Y-107620804D01*
X112152045Y-107384219D01*
X112009776Y-107171298D01*
X111838478Y-107000000D01*
X112009776Y-106828702D01*
X112152045Y-106615781D01*
X112250042Y-106379196D01*
X112300000Y-106128039D01*
X112300000Y-105871961D01*
X112250042Y-105620804D01*
X112152045Y-105384219D01*
X112009776Y-105171298D01*
X111828702Y-104990224D01*
X111615781Y-104847955D01*
X111379196Y-104749958D01*
X111128039Y-104700000D01*
X110871961Y-104700000D01*
X110620804Y-104749958D01*
X110384219Y-104847955D01*
X110171298Y-104990224D01*
X109990224Y-105171298D01*
X109847955Y-105384219D01*
X109749958Y-105620804D01*
X109700000Y-105871961D01*
X107707403Y-105871961D01*
X107726052Y-105826939D01*
X107835000Y-105279223D01*
X107835000Y-104720777D01*
X107726052Y-104173061D01*
X107512344Y-103657124D01*
X107202088Y-103192793D01*
X106807207Y-102797912D01*
X106342876Y-102487656D01*
X105826939Y-102273948D01*
X105279223Y-102165000D01*
X104720777Y-102165000D01*
X104173061Y-102273948D01*
X103657124Y-102487656D01*
X103192793Y-102797912D01*
X102797912Y-103192793D01*
X102487656Y-103657124D01*
X102273948Y-104173061D01*
X102165000Y-104720777D01*
X100671109Y-104720777D01*
X100736943Y-103066183D01*
X100967284Y-101144592D01*
X101349568Y-99247376D01*
X101881378Y-97386531D01*
X102004897Y-97056275D01*
X104174108Y-97056275D01*
X104187389Y-97229860D01*
X104234279Y-97397519D01*
X104312977Y-97552809D01*
X104420458Y-97689761D01*
X104552592Y-97803114D01*
X105740362Y-98634800D01*
X105776617Y-98655207D01*
X105761295Y-98670529D01*
X105626139Y-98872804D01*
X105533042Y-99097560D01*
X105485582Y-99336159D01*
X105485582Y-99579433D01*
X105533042Y-99818032D01*
X105626139Y-100042788D01*
X105761295Y-100245063D01*
X105933315Y-100417083D01*
X106135590Y-100552239D01*
X106360346Y-100645336D01*
X106598945Y-100692796D01*
X106842219Y-100692796D01*
X107080818Y-100645336D01*
X107305574Y-100552239D01*
X107507849Y-100417083D01*
X107679869Y-100245063D01*
X107815025Y-100042788D01*
X107908122Y-99818032D01*
X107955582Y-99579433D01*
X107955582Y-99336159D01*
X107908122Y-99097560D01*
X107815025Y-98872804D01*
X107679869Y-98670529D01*
X107507849Y-98498509D01*
X107305574Y-98363353D01*
X107080818Y-98270256D01*
X107079884Y-98270070D01*
X107665497Y-97433729D01*
X107750893Y-97282020D01*
X107805052Y-97116566D01*
X107825892Y-96943725D01*
X107812611Y-96770140D01*
X107765721Y-96602481D01*
X107713581Y-96499595D01*
X107795450Y-96493332D01*
X108077159Y-96414545D01*
X108338086Y-96282312D01*
X108568200Y-96101717D01*
X108758661Y-95879698D01*
X108902149Y-95624788D01*
X108993149Y-95346784D01*
X109028164Y-95056367D01*
X109005850Y-94764702D01*
X108927063Y-94482993D01*
X108918150Y-94465406D01*
X108937725Y-94467766D01*
X109229391Y-94445452D01*
X109511100Y-94366665D01*
X109772027Y-94234432D01*
X110002141Y-94053837D01*
X110192602Y-93831818D01*
X110336090Y-93576908D01*
X110427090Y-93298904D01*
X110462105Y-93008487D01*
X110439791Y-92716822D01*
X110361004Y-92435113D01*
X110352091Y-92417526D01*
X110371666Y-92419886D01*
X110663332Y-92397572D01*
X110945041Y-92318785D01*
X111205968Y-92186552D01*
X111436082Y-92005957D01*
X111626543Y-91783938D01*
X111770031Y-91529028D01*
X111861031Y-91251024D01*
X111896046Y-90960607D01*
X111873732Y-90668942D01*
X111794945Y-90387233D01*
X111662712Y-90126307D01*
X111482117Y-89896192D01*
X111315734Y-89753459D01*
X110991432Y-89526380D01*
X110800400Y-89418849D01*
X110522396Y-89327850D01*
X110231979Y-89292834D01*
X109940314Y-89315148D01*
X109658605Y-89393935D01*
X109397679Y-89526168D01*
X109167564Y-89706763D01*
X108977103Y-89928782D01*
X108833615Y-90183692D01*
X108742616Y-90461696D01*
X108707600Y-90752113D01*
X108729914Y-91043778D01*
X108808701Y-91325487D01*
X108817614Y-91343074D01*
X108798038Y-91340714D01*
X108506373Y-91363028D01*
X108224664Y-91441815D01*
X107963738Y-91574048D01*
X107733623Y-91754643D01*
X107543162Y-91976662D01*
X107399674Y-92231572D01*
X107308675Y-92509576D01*
X107273659Y-92799993D01*
X107295973Y-93091658D01*
X107374760Y-93373367D01*
X107383673Y-93390954D01*
X107364097Y-93388594D01*
X107072432Y-93410908D01*
X106790723Y-93489695D01*
X106529797Y-93621928D01*
X106299682Y-93802523D01*
X106109221Y-94024542D01*
X105965733Y-94279452D01*
X105874734Y-94557456D01*
X105839718Y-94847873D01*
X105862032Y-95139538D01*
X105884147Y-95218612D01*
X105769635Y-95204805D01*
X105596049Y-95218086D01*
X105428390Y-95264976D01*
X105273101Y-95343673D01*
X105136148Y-95451155D01*
X105022795Y-95583289D01*
X104334503Y-96566271D01*
X104249107Y-96717980D01*
X104194948Y-96883434D01*
X104174108Y-97056275D01*
X102004897Y-97056275D01*
X102559351Y-95573820D01*
X103379201Y-93820704D01*
X104335745Y-92138267D01*
X105422935Y-90537147D01*
X106633897Y-89027465D01*
X107684317Y-87912441D01*
X112111000Y-87912441D01*
X112111000Y-88087559D01*
X112145164Y-88259312D01*
X112212179Y-88421099D01*
X112309469Y-88566704D01*
X112433296Y-88690531D01*
X112578901Y-88787821D01*
X112740688Y-88854836D01*
X112912441Y-88889000D01*
X113087559Y-88889000D01*
X113259312Y-88854836D01*
X113421099Y-88787821D01*
X113535771Y-88711200D01*
X119964229Y-88711200D01*
X120078901Y-88787821D01*
X120240688Y-88854836D01*
X120412441Y-88889000D01*
X120587559Y-88889000D01*
X120759312Y-88854836D01*
X120921099Y-88787821D01*
X121066704Y-88690531D01*
X121190531Y-88566704D01*
X121287821Y-88421099D01*
X121354836Y-88259312D01*
X121389000Y-88087559D01*
X121389000Y-87912441D01*
X121354836Y-87740688D01*
X121287821Y-87578901D01*
X121190531Y-87433296D01*
X121066704Y-87309469D01*
X120921099Y-87212179D01*
X120759312Y-87145164D01*
X120587559Y-87111000D01*
X120412441Y-87111000D01*
X120240688Y-87145164D01*
X120078901Y-87212179D01*
X119964229Y-87288800D01*
X113535771Y-87288800D01*
X113421099Y-87212179D01*
X113259312Y-87145164D01*
X113087559Y-87111000D01*
X112912441Y-87111000D01*
X112740688Y-87145164D01*
X112578901Y-87212179D01*
X112433296Y-87309469D01*
X112309469Y-87433296D01*
X112212179Y-87578901D01*
X112145164Y-87740688D01*
X112111000Y-87912441D01*
X107684317Y-87912441D01*
X107960976Y-87618767D01*
X109395781Y-86319959D01*
X110929241Y-85139251D01*
X111572700Y-84720777D01*
X122165000Y-84720777D01*
X122165000Y-85279223D01*
X122273948Y-85826939D01*
X122487656Y-86342876D01*
X122797912Y-86807207D01*
X123192793Y-87202088D01*
X123657124Y-87512344D01*
X124173061Y-87726052D01*
X124720777Y-87835000D01*
X125279223Y-87835000D01*
X125826939Y-87726052D01*
X126342876Y-87512344D01*
X126807207Y-87202088D01*
X127202088Y-86807207D01*
X127512344Y-86342876D01*
X127726052Y-85826939D01*
X127835000Y-85279223D01*
X127835000Y-84720777D01*
X127726052Y-84173061D01*
X127512344Y-83657124D01*
X127202088Y-83192793D01*
X126807207Y-82797912D01*
X126342876Y-82487656D01*
X125826939Y-82273948D01*
X125279223Y-82165000D01*
X124720777Y-82165000D01*
X124173061Y-82273948D01*
X123657124Y-82487656D01*
X123192793Y-82797912D01*
X122797912Y-83192793D01*
X122487656Y-83657124D01*
X122273948Y-84173061D01*
X122165000Y-84720777D01*
X111572700Y-84720777D01*
X112551660Y-84084110D01*
X114252783Y-83161206D01*
X116021852Y-82376374D01*
X117847684Y-81734575D01*
X119718736Y-81239869D01*
X121623177Y-80895381D01*
X123548968Y-80703290D01*
X125483932Y-80664811D01*
X127415837Y-80780187D01*
%TA.AperFunction,Conductor*%
D16*
G36*
X127415837Y-80780187D02*
G01*
X129332469Y-81048689D01*
X131221709Y-81468618D01*
X133071613Y-82037320D01*
X134870486Y-82751200D01*
X136606955Y-83605744D01*
X138270041Y-84595549D01*
X139849229Y-85714358D01*
X140504606Y-86261821D01*
X140433296Y-86309469D01*
X140309469Y-86433296D01*
X140212179Y-86578901D01*
X140145164Y-86740688D01*
X140111000Y-86912441D01*
X140111000Y-87087559D01*
X140145164Y-87259312D01*
X140212179Y-87421099D01*
X140288801Y-87535772D01*
X140288800Y-88965074D01*
X140285360Y-89000000D01*
X140288800Y-89034926D01*
X140288800Y-89034935D01*
X140299091Y-89139419D01*
X140339758Y-89273480D01*
X140405798Y-89397032D01*
X140494673Y-89505326D01*
X140521810Y-89527598D01*
X143283012Y-92288800D01*
X140535771Y-92288800D01*
X140421099Y-92212179D01*
X140259312Y-92145164D01*
X140087559Y-92111000D01*
X139912441Y-92111000D01*
X139740688Y-92145164D01*
X139578901Y-92212179D01*
X139433296Y-92309469D01*
X139379265Y-92363500D01*
X139354836Y-92240688D01*
X139287821Y-92078901D01*
X139211200Y-91964229D01*
X139211200Y-91534928D01*
X139214640Y-91500000D01*
X139211200Y-91465071D01*
X139211200Y-91465064D01*
X139200909Y-91360580D01*
X139185405Y-91309469D01*
X139172631Y-91267360D01*
X139175572Y-91237500D01*
X139175572Y-90762500D01*
X139158748Y-90591684D01*
X139108923Y-90427433D01*
X139028012Y-90276058D01*
X138919123Y-90143377D01*
X138786442Y-90034488D01*
X138721919Y-90000000D01*
X138786442Y-89965512D01*
X138919123Y-89856623D01*
X139028012Y-89723942D01*
X139108923Y-89572567D01*
X139158748Y-89408316D01*
X139175572Y-89237500D01*
X139175572Y-88762500D01*
X139158748Y-88591684D01*
X139108923Y-88427433D01*
X139028012Y-88276058D01*
X138919123Y-88143377D01*
X138786442Y-88034488D01*
X138721919Y-88000000D01*
X138786442Y-87965512D01*
X138919123Y-87856623D01*
X139028012Y-87723942D01*
X139108923Y-87572567D01*
X139158748Y-87408316D01*
X139175572Y-87237500D01*
X139175572Y-86762500D01*
X139158748Y-86591684D01*
X139108923Y-86427433D01*
X139028012Y-86276058D01*
X138919123Y-86143377D01*
X138786442Y-86034488D01*
X138635067Y-85953577D01*
X138470816Y-85903752D01*
X138300000Y-85886928D01*
X137700000Y-85886928D01*
X137529184Y-85903752D01*
X137364933Y-85953577D01*
X137214894Y-86033774D01*
X137166994Y-85994463D01*
X137056680Y-85935498D01*
X136936982Y-85899188D01*
X136812500Y-85886928D01*
X136560750Y-85890000D01*
X136402000Y-86048750D01*
X136402000Y-86873000D01*
X136422000Y-86873000D01*
X136422000Y-87127000D01*
X136402000Y-87127000D01*
X136402000Y-87951250D01*
X136450750Y-88000000D01*
X136402000Y-88048750D01*
X136402000Y-88873000D01*
X136422000Y-88873000D01*
X136422000Y-89127000D01*
X136402000Y-89127000D01*
X136402000Y-89951250D01*
X136450750Y-90000000D01*
X136402000Y-90048750D01*
X136402000Y-90873000D01*
X136422000Y-90873000D01*
X136422000Y-91127000D01*
X136402000Y-91127000D01*
X136402000Y-91951250D01*
X136560750Y-92110000D01*
X136812500Y-92113072D01*
X136936982Y-92100812D01*
X137056680Y-92064502D01*
X137166994Y-92005537D01*
X137214894Y-91966226D01*
X137364933Y-92046423D01*
X137529184Y-92096248D01*
X137698102Y-92112885D01*
X137645164Y-92240688D01*
X137611000Y-92412441D01*
X137611000Y-92587559D01*
X137645164Y-92759312D01*
X137712179Y-92921099D01*
X137759003Y-92991176D01*
X137755159Y-93030201D01*
X137758600Y-93065136D01*
X137758599Y-94294083D01*
X137755159Y-94329009D01*
X137758599Y-94363935D01*
X137758599Y-94363944D01*
X137768890Y-94468428D01*
X137809557Y-94602489D01*
X137875597Y-94726041D01*
X137964472Y-94834335D01*
X137991609Y-94856607D01*
X140423802Y-97288800D01*
X134711200Y-97288800D01*
X134711200Y-92034928D01*
X134714640Y-92000000D01*
X134711200Y-91965071D01*
X134711200Y-91965064D01*
X134700909Y-91860580D01*
X134685405Y-91809469D01*
X134660242Y-91726518D01*
X134594202Y-91602967D01*
X134527598Y-91521809D01*
X134527593Y-91521804D01*
X134505327Y-91494673D01*
X134481356Y-91475000D01*
X135099428Y-91475000D01*
X135111688Y-91599482D01*
X135147998Y-91719180D01*
X135206963Y-91829494D01*
X135286315Y-91926185D01*
X135383006Y-92005537D01*
X135493320Y-92064502D01*
X135613018Y-92100812D01*
X135737500Y-92113072D01*
X135989250Y-92110000D01*
X136148000Y-91951250D01*
X136148000Y-91127000D01*
X135261250Y-91127000D01*
X135102500Y-91285750D01*
X135099428Y-91475000D01*
X134481356Y-91475000D01*
X134478196Y-91472407D01*
X133711200Y-90705413D01*
X133711200Y-89475000D01*
X135099428Y-89475000D01*
X135111688Y-89599482D01*
X135147998Y-89719180D01*
X135206963Y-89829494D01*
X135286315Y-89926185D01*
X135376259Y-90000000D01*
X135286315Y-90073815D01*
X135206963Y-90170506D01*
X135147998Y-90280820D01*
X135111688Y-90400518D01*
X135099428Y-90525000D01*
X135102500Y-90714250D01*
X135261250Y-90873000D01*
X136148000Y-90873000D01*
X136148000Y-90048750D01*
X136099250Y-90000000D01*
X136148000Y-89951250D01*
X136148000Y-89127000D01*
X135261250Y-89127000D01*
X135102500Y-89285750D01*
X135099428Y-89475000D01*
X133711200Y-89475000D01*
X133711200Y-87535771D01*
X133751805Y-87475000D01*
X135099428Y-87475000D01*
X135111688Y-87599482D01*
X135147998Y-87719180D01*
X135206963Y-87829494D01*
X135286315Y-87926185D01*
X135376259Y-88000000D01*
X135286315Y-88073815D01*
X135206963Y-88170506D01*
X135147998Y-88280820D01*
X135111688Y-88400518D01*
X135099428Y-88525000D01*
X135102500Y-88714250D01*
X135261250Y-88873000D01*
X136148000Y-88873000D01*
X136148000Y-88048750D01*
X136099250Y-88000000D01*
X136148000Y-87951250D01*
X136148000Y-87127000D01*
X135261250Y-87127000D01*
X135102500Y-87285750D01*
X135099428Y-87475000D01*
X133751805Y-87475000D01*
X133787821Y-87421099D01*
X133854836Y-87259312D01*
X133889000Y-87087559D01*
X133889000Y-87001825D01*
X133950577Y-86983146D01*
X134074129Y-86917106D01*
X134182423Y-86828231D01*
X134204698Y-86801089D01*
X134480787Y-86525000D01*
X135099428Y-86525000D01*
X135102500Y-86714250D01*
X135261250Y-86873000D01*
X136148000Y-86873000D01*
X136148000Y-86048750D01*
X135989250Y-85890000D01*
X135737500Y-85886928D01*
X135613018Y-85899188D01*
X135493320Y-85935498D01*
X135383006Y-85994463D01*
X135286315Y-86073815D01*
X135206963Y-86170506D01*
X135147998Y-86280820D01*
X135111688Y-86400518D01*
X135099428Y-86525000D01*
X134480787Y-86525000D01*
X135124045Y-85881742D01*
X135259312Y-85854836D01*
X135421099Y-85787821D01*
X135566704Y-85690531D01*
X135690531Y-85566704D01*
X135787821Y-85421099D01*
X135854836Y-85259312D01*
X135889000Y-85087559D01*
X135889000Y-84912441D01*
X135854836Y-84740688D01*
X135787821Y-84578901D01*
X135690531Y-84433296D01*
X135566704Y-84309469D01*
X135421099Y-84212179D01*
X135259312Y-84145164D01*
X135087559Y-84111000D01*
X134912441Y-84111000D01*
X134740688Y-84145164D01*
X134578901Y-84212179D01*
X134433296Y-84309469D01*
X134309469Y-84433296D01*
X134212179Y-84578901D01*
X134145164Y-84740688D01*
X134118258Y-84875955D01*
X133382509Y-85611704D01*
X132212867Y-85611704D01*
X132098195Y-85535083D01*
X131936408Y-85468068D01*
X131764655Y-85433904D01*
X131589537Y-85433904D01*
X131417784Y-85468068D01*
X131255997Y-85535083D01*
X131110392Y-85632373D01*
X130986565Y-85756200D01*
X130889275Y-85901805D01*
X130822260Y-86063592D01*
X130788096Y-86235345D01*
X130788096Y-86410463D01*
X130822260Y-86582216D01*
X130889275Y-86744003D01*
X130986565Y-86889608D01*
X131110392Y-87013435D01*
X131255997Y-87110725D01*
X131417784Y-87177740D01*
X131589537Y-87211904D01*
X131764655Y-87211904D01*
X131936408Y-87177740D01*
X132098195Y-87110725D01*
X132113565Y-87100455D01*
X132145164Y-87259312D01*
X132212179Y-87421099D01*
X132288801Y-87535772D01*
X132288801Y-88157379D01*
X132259312Y-88145164D01*
X132087559Y-88111000D01*
X131912441Y-88111000D01*
X131740688Y-88145164D01*
X131578901Y-88212179D01*
X131433296Y-88309469D01*
X131309469Y-88433296D01*
X131212179Y-88578901D01*
X131145164Y-88740688D01*
X131118258Y-88875954D01*
X125021811Y-94972402D01*
X124994673Y-94994674D01*
X124905798Y-95102968D01*
X124839758Y-95226520D01*
X124799091Y-95360581D01*
X124788800Y-95465065D01*
X124788800Y-95465074D01*
X124785360Y-95500000D01*
X124788800Y-95534926D01*
X124788801Y-96965064D01*
X124785360Y-97000000D01*
X124788801Y-97034936D01*
X124799092Y-97139420D01*
X124808477Y-97170358D01*
X124839759Y-97273481D01*
X124900186Y-97386531D01*
X124905799Y-97397033D01*
X124994674Y-97505327D01*
X125021810Y-97527597D01*
X128618258Y-101124047D01*
X128645164Y-101259312D01*
X128712179Y-101421099D01*
X128809469Y-101566704D01*
X128933296Y-101690531D01*
X129078901Y-101787821D01*
X129240688Y-101854836D01*
X129412441Y-101889000D01*
X129587559Y-101889000D01*
X129759312Y-101854836D01*
X129921099Y-101787821D01*
X130066704Y-101690531D01*
X130190531Y-101566704D01*
X130287821Y-101421099D01*
X130325162Y-101330950D01*
X131472407Y-102478196D01*
X131494673Y-102505327D01*
X131521804Y-102527593D01*
X131521808Y-102527597D01*
X131537169Y-102540203D01*
X131602967Y-102594202D01*
X131726519Y-102660242D01*
X131860580Y-102700909D01*
X131965064Y-102711200D01*
X131965073Y-102711200D01*
X131999999Y-102714640D01*
X132034925Y-102711200D01*
X143322567Y-102711200D01*
X143192793Y-102797912D01*
X142797912Y-103192793D01*
X142487656Y-103657124D01*
X142273948Y-104173061D01*
X142165000Y-104720777D01*
X142165000Y-105279223D01*
X142273948Y-105826939D01*
X142487656Y-106342876D01*
X142797912Y-106807207D01*
X143192793Y-107202088D01*
X143657124Y-107512344D01*
X144173061Y-107726052D01*
X144720777Y-107835000D01*
X145279223Y-107835000D01*
X145826939Y-107726052D01*
X146342876Y-107512344D01*
X146807207Y-107202088D01*
X147202088Y-106807207D01*
X147512344Y-106342876D01*
X147726052Y-105826939D01*
X147835000Y-105279223D01*
X147835000Y-104720777D01*
X147726052Y-104173061D01*
X147512344Y-103657124D01*
X147202088Y-103192793D01*
X146807207Y-102797912D01*
X146677433Y-102711200D01*
X146857076Y-102711200D01*
X146892002Y-102714640D01*
X146926928Y-102711200D01*
X146926938Y-102711200D01*
X147031422Y-102700909D01*
X147165483Y-102660242D01*
X147289035Y-102594202D01*
X147397329Y-102505327D01*
X147419604Y-102478185D01*
X147424186Y-102473603D01*
X147451328Y-102451328D01*
X147540203Y-102343034D01*
X147606243Y-102219482D01*
X147646910Y-102085421D01*
X147657201Y-101980937D01*
X147657201Y-101980928D01*
X147660641Y-101946002D01*
X147657201Y-101911076D01*
X147657201Y-101535771D01*
X147733822Y-101421099D01*
X147800837Y-101259312D01*
X147835001Y-101087559D01*
X147835001Y-100912441D01*
X147800837Y-100740688D01*
X147733822Y-100578901D01*
X147636532Y-100433296D01*
X147604512Y-100401276D01*
X148478192Y-99527596D01*
X148505327Y-99505327D01*
X148527598Y-99478190D01*
X148594202Y-99397033D01*
X148644253Y-99303394D01*
X148860438Y-100192183D01*
X149166993Y-102103097D01*
X149320757Y-104032326D01*
X149320757Y-105967674D01*
X149166993Y-107896903D01*
X148860438Y-109807817D01*
X148403029Y-111688334D01*
X147797659Y-113526566D01*
X147048155Y-115310890D01*
X146159255Y-117030025D01*
X145136580Y-118673103D01*
X143986595Y-120229735D01*
X142716570Y-121690079D01*
X141334536Y-123044903D01*
X139849229Y-124285642D01*
X138270041Y-125404451D01*
X136606955Y-126394256D01*
X134870486Y-127248800D01*
X133071613Y-127962680D01*
X131221709Y-128531382D01*
X129332469Y-128951311D01*
X127415837Y-129219813D01*
X125483932Y-129335189D01*
X123548968Y-129296710D01*
X121623177Y-129104619D01*
X119718736Y-128760131D01*
X117847684Y-128265425D01*
X116021852Y-127623626D01*
X114252783Y-126838794D01*
X112551660Y-125915890D01*
X110929241Y-124860749D01*
X110747451Y-124720777D01*
X122165000Y-124720777D01*
X122165000Y-125279223D01*
X122273948Y-125826939D01*
X122487656Y-126342876D01*
X122797912Y-126807207D01*
X123192793Y-127202088D01*
X123657124Y-127512344D01*
X124173061Y-127726052D01*
X124720777Y-127835000D01*
X125279223Y-127835000D01*
X125826939Y-127726052D01*
X126342876Y-127512344D01*
X126807207Y-127202088D01*
X127202088Y-126807207D01*
X127512344Y-126342876D01*
X127726052Y-125826939D01*
X127835000Y-125279223D01*
X127835000Y-124720777D01*
X127726052Y-124173061D01*
X127512344Y-123657124D01*
X127202088Y-123192793D01*
X126807207Y-122797912D01*
X126342876Y-122487656D01*
X125826939Y-122273948D01*
X125279223Y-122165000D01*
X124720777Y-122165000D01*
X124173061Y-122273948D01*
X123657124Y-122487656D01*
X123192793Y-122797912D01*
X122797912Y-123192793D01*
X122487656Y-123657124D01*
X122273948Y-124173061D01*
X122165000Y-124720777D01*
X110747451Y-124720777D01*
X109395781Y-123680041D01*
X107960976Y-122381233D01*
X106646694Y-120986118D01*
X134567283Y-120986118D01*
X134599383Y-121157226D01*
X134664247Y-121318783D01*
X134759383Y-121464582D01*
X134881135Y-121589020D01*
X135991900Y-122521062D01*
X136029607Y-122546856D01*
X135937373Y-122639090D01*
X135802217Y-122841365D01*
X135709120Y-123066121D01*
X135661660Y-123304720D01*
X135661660Y-123547994D01*
X135709120Y-123786593D01*
X135802217Y-124011349D01*
X135937373Y-124213624D01*
X136109393Y-124385644D01*
X136311668Y-124520800D01*
X136536424Y-124613897D01*
X136775023Y-124661357D01*
X137018297Y-124661357D01*
X137256896Y-124613897D01*
X137481652Y-124520800D01*
X137683927Y-124385644D01*
X137855947Y-124213624D01*
X137991103Y-124011349D01*
X138084200Y-123786593D01*
X138131660Y-123547994D01*
X138131660Y-123304720D01*
X138084200Y-123066121D01*
X137991103Y-122841365D01*
X137855947Y-122639090D01*
X137683927Y-122467070D01*
X137481652Y-122331914D01*
X137354205Y-122279124D01*
X138014389Y-121492346D01*
X138112683Y-121348657D01*
X138181055Y-121188553D01*
X138216880Y-121018186D01*
X138218779Y-120844104D01*
X138186679Y-120672996D01*
X138143704Y-120565958D01*
X138225815Y-120566853D01*
X138513319Y-120512917D01*
X138784777Y-120403928D01*
X139029755Y-120244075D01*
X139238840Y-120039500D01*
X139403998Y-119798065D01*
X139518879Y-119529049D01*
X139579072Y-119242789D01*
X139582261Y-118950287D01*
X139528325Y-118662785D01*
X139520981Y-118644494D01*
X139540283Y-118648553D01*
X139832784Y-118651742D01*
X140120288Y-118597806D01*
X140391746Y-118488817D01*
X140636724Y-118328964D01*
X140845809Y-118124389D01*
X141010967Y-117882954D01*
X141125848Y-117613938D01*
X141186041Y-117327678D01*
X141189230Y-117035176D01*
X141135294Y-116747674D01*
X141026305Y-116476216D01*
X140866452Y-116231238D01*
X140713141Y-116074548D01*
X140409863Y-115820070D01*
X140228930Y-115696299D01*
X139959914Y-115581418D01*
X139673654Y-115521225D01*
X139381154Y-115518036D01*
X139093650Y-115571972D01*
X138822192Y-115680961D01*
X138577214Y-115840814D01*
X138368129Y-116045389D01*
X138202971Y-116286824D01*
X138088090Y-116555840D01*
X138027897Y-116842100D01*
X138024708Y-117134600D01*
X138078644Y-117422104D01*
X138085988Y-117440395D01*
X138066685Y-117436336D01*
X137774185Y-117433147D01*
X137486681Y-117487083D01*
X137215223Y-117596072D01*
X136970245Y-117755925D01*
X136761160Y-117960500D01*
X136596002Y-118201935D01*
X136481121Y-118470951D01*
X136420928Y-118757211D01*
X136417739Y-119049711D01*
X136432877Y-119130405D01*
X136320002Y-119106669D01*
X136145920Y-119104770D01*
X135974812Y-119136870D01*
X135813255Y-119201734D01*
X135667456Y-119296870D01*
X135543018Y-119418622D01*
X134771673Y-120337876D01*
X134673379Y-120481565D01*
X134605007Y-120641669D01*
X134569182Y-120812036D01*
X134567283Y-120986118D01*
X106646694Y-120986118D01*
X106633897Y-120972535D01*
X105422935Y-119462853D01*
X104335745Y-117861733D01*
X103379201Y-116179296D01*
X102559351Y-114426180D01*
X101881378Y-112613469D01*
X101349568Y-110752624D01*
X100967284Y-108855408D01*
X100736943Y-106933817D01*
X100660000Y-105000000D01*
X100671109Y-104720777D01*
X102165000Y-104720777D01*
X102165000Y-105279223D01*
X102273948Y-105826939D01*
X102487656Y-106342876D01*
X102797912Y-106807207D01*
X103192793Y-107202088D01*
X103657124Y-107512344D01*
X104173061Y-107726052D01*
X104720777Y-107835000D01*
X105279223Y-107835000D01*
X105826939Y-107726052D01*
X106342876Y-107512344D01*
X106807207Y-107202088D01*
X107202088Y-106807207D01*
X107512344Y-106342876D01*
X107707403Y-105871961D01*
X109700000Y-105871961D01*
X109700000Y-106128039D01*
X109749958Y-106379196D01*
X109847955Y-106615781D01*
X109990224Y-106828702D01*
X110161522Y-107000000D01*
X109990224Y-107171298D01*
X109847955Y-107384219D01*
X109749958Y-107620804D01*
X109700000Y-107871961D01*
X109700000Y-108128039D01*
X109749958Y-108379196D01*
X109847955Y-108615781D01*
X109990224Y-108828702D01*
X110161522Y-109000000D01*
X109990224Y-109171298D01*
X109847955Y-109384219D01*
X109749958Y-109620804D01*
X109700000Y-109871961D01*
X109700000Y-110128039D01*
X109749958Y-110379196D01*
X109847955Y-110615781D01*
X109990224Y-110828702D01*
X110171298Y-111009776D01*
X110384219Y-111152045D01*
X110620804Y-111250042D01*
X110871961Y-111300000D01*
X111128039Y-111300000D01*
X111379196Y-111250042D01*
X111615781Y-111152045D01*
X111828702Y-111009776D01*
X112009776Y-110828702D01*
X112152045Y-110615781D01*
X112250042Y-110379196D01*
X112300000Y-110128039D01*
X112300000Y-109871961D01*
X112250042Y-109620804D01*
X112152045Y-109384219D01*
X112009776Y-109171298D01*
X111838478Y-109000000D01*
X112009776Y-108828702D01*
X112152045Y-108615781D01*
X112250042Y-108379196D01*
X112300000Y-108128039D01*
X112300000Y-107871961D01*
X112250042Y-107620804D01*
X112152045Y-107384219D01*
X112009776Y-107171298D01*
X111838478Y-107000000D01*
X112009776Y-106828702D01*
X112152045Y-106615781D01*
X112250042Y-106379196D01*
X112300000Y-106128039D01*
X112300000Y-105871961D01*
X112250042Y-105620804D01*
X112152045Y-105384219D01*
X112009776Y-105171298D01*
X111828702Y-104990224D01*
X111615781Y-104847955D01*
X111379196Y-104749958D01*
X111128039Y-104700000D01*
X110871961Y-104700000D01*
X110620804Y-104749958D01*
X110384219Y-104847955D01*
X110171298Y-104990224D01*
X109990224Y-105171298D01*
X109847955Y-105384219D01*
X109749958Y-105620804D01*
X109700000Y-105871961D01*
X107707403Y-105871961D01*
X107726052Y-105826939D01*
X107835000Y-105279223D01*
X107835000Y-104720777D01*
X107726052Y-104173061D01*
X107512344Y-103657124D01*
X107202088Y-103192793D01*
X106807207Y-102797912D01*
X106342876Y-102487656D01*
X105826939Y-102273948D01*
X105279223Y-102165000D01*
X104720777Y-102165000D01*
X104173061Y-102273948D01*
X103657124Y-102487656D01*
X103192793Y-102797912D01*
X102797912Y-103192793D01*
X102487656Y-103657124D01*
X102273948Y-104173061D01*
X102165000Y-104720777D01*
X100671109Y-104720777D01*
X100736943Y-103066183D01*
X100967284Y-101144592D01*
X101349568Y-99247376D01*
X101881378Y-97386531D01*
X102004897Y-97056275D01*
X104174108Y-97056275D01*
X104187389Y-97229860D01*
X104234279Y-97397519D01*
X104312977Y-97552809D01*
X104420458Y-97689761D01*
X104552592Y-97803114D01*
X105740362Y-98634800D01*
X105776617Y-98655207D01*
X105761295Y-98670529D01*
X105626139Y-98872804D01*
X105533042Y-99097560D01*
X105485582Y-99336159D01*
X105485582Y-99579433D01*
X105533042Y-99818032D01*
X105626139Y-100042788D01*
X105761295Y-100245063D01*
X105933315Y-100417083D01*
X106135590Y-100552239D01*
X106360346Y-100645336D01*
X106598945Y-100692796D01*
X106842219Y-100692796D01*
X107080818Y-100645336D01*
X107305574Y-100552239D01*
X107507849Y-100417083D01*
X107679869Y-100245063D01*
X107815025Y-100042788D01*
X107908122Y-99818032D01*
X107955582Y-99579433D01*
X107955582Y-99336159D01*
X107908122Y-99097560D01*
X107815025Y-98872804D01*
X107679869Y-98670529D01*
X107507849Y-98498509D01*
X107305574Y-98363353D01*
X107080818Y-98270256D01*
X107079884Y-98270070D01*
X107665497Y-97433729D01*
X107750893Y-97282020D01*
X107805052Y-97116566D01*
X107825892Y-96943725D01*
X107812611Y-96770140D01*
X107765721Y-96602481D01*
X107713581Y-96499595D01*
X107795450Y-96493332D01*
X108077159Y-96414545D01*
X108338086Y-96282312D01*
X108568200Y-96101717D01*
X108758661Y-95879698D01*
X108902149Y-95624788D01*
X108993149Y-95346784D01*
X109028164Y-95056367D01*
X109005850Y-94764702D01*
X108927063Y-94482993D01*
X108918150Y-94465406D01*
X108937725Y-94467766D01*
X109229391Y-94445452D01*
X109511100Y-94366665D01*
X109772027Y-94234432D01*
X110002141Y-94053837D01*
X110192602Y-93831818D01*
X110336090Y-93576908D01*
X110427090Y-93298904D01*
X110462105Y-93008487D01*
X110439791Y-92716822D01*
X110361004Y-92435113D01*
X110352091Y-92417526D01*
X110371666Y-92419886D01*
X110663332Y-92397572D01*
X110945041Y-92318785D01*
X111205968Y-92186552D01*
X111436082Y-92005957D01*
X111626543Y-91783938D01*
X111770031Y-91529028D01*
X111861031Y-91251024D01*
X111896046Y-90960607D01*
X111873732Y-90668942D01*
X111794945Y-90387233D01*
X111662712Y-90126307D01*
X111482117Y-89896192D01*
X111315734Y-89753459D01*
X110991432Y-89526380D01*
X110800400Y-89418849D01*
X110522396Y-89327850D01*
X110231979Y-89292834D01*
X109940314Y-89315148D01*
X109658605Y-89393935D01*
X109397679Y-89526168D01*
X109167564Y-89706763D01*
X108977103Y-89928782D01*
X108833615Y-90183692D01*
X108742616Y-90461696D01*
X108707600Y-90752113D01*
X108729914Y-91043778D01*
X108808701Y-91325487D01*
X108817614Y-91343074D01*
X108798038Y-91340714D01*
X108506373Y-91363028D01*
X108224664Y-91441815D01*
X107963738Y-91574048D01*
X107733623Y-91754643D01*
X107543162Y-91976662D01*
X107399674Y-92231572D01*
X107308675Y-92509576D01*
X107273659Y-92799993D01*
X107295973Y-93091658D01*
X107374760Y-93373367D01*
X107383673Y-93390954D01*
X107364097Y-93388594D01*
X107072432Y-93410908D01*
X106790723Y-93489695D01*
X106529797Y-93621928D01*
X106299682Y-93802523D01*
X106109221Y-94024542D01*
X105965733Y-94279452D01*
X105874734Y-94557456D01*
X105839718Y-94847873D01*
X105862032Y-95139538D01*
X105884147Y-95218612D01*
X105769635Y-95204805D01*
X105596049Y-95218086D01*
X105428390Y-95264976D01*
X105273101Y-95343673D01*
X105136148Y-95451155D01*
X105022795Y-95583289D01*
X104334503Y-96566271D01*
X104249107Y-96717980D01*
X104194948Y-96883434D01*
X104174108Y-97056275D01*
X102004897Y-97056275D01*
X102559351Y-95573820D01*
X103379201Y-93820704D01*
X104335745Y-92138267D01*
X105422935Y-90537147D01*
X106633897Y-89027465D01*
X107684317Y-87912441D01*
X112111000Y-87912441D01*
X112111000Y-88087559D01*
X112145164Y-88259312D01*
X112212179Y-88421099D01*
X112309469Y-88566704D01*
X112433296Y-88690531D01*
X112578901Y-88787821D01*
X112740688Y-88854836D01*
X112912441Y-88889000D01*
X113087559Y-88889000D01*
X113259312Y-88854836D01*
X113421099Y-88787821D01*
X113535771Y-88711200D01*
X119964229Y-88711200D01*
X120078901Y-88787821D01*
X120240688Y-88854836D01*
X120412441Y-88889000D01*
X120587559Y-88889000D01*
X120759312Y-88854836D01*
X120921099Y-88787821D01*
X121066704Y-88690531D01*
X121190531Y-88566704D01*
X121287821Y-88421099D01*
X121354836Y-88259312D01*
X121389000Y-88087559D01*
X121389000Y-87912441D01*
X121354836Y-87740688D01*
X121287821Y-87578901D01*
X121190531Y-87433296D01*
X121066704Y-87309469D01*
X120921099Y-87212179D01*
X120759312Y-87145164D01*
X120587559Y-87111000D01*
X120412441Y-87111000D01*
X120240688Y-87145164D01*
X120078901Y-87212179D01*
X119964229Y-87288800D01*
X113535771Y-87288800D01*
X113421099Y-87212179D01*
X113259312Y-87145164D01*
X113087559Y-87111000D01*
X112912441Y-87111000D01*
X112740688Y-87145164D01*
X112578901Y-87212179D01*
X112433296Y-87309469D01*
X112309469Y-87433296D01*
X112212179Y-87578901D01*
X112145164Y-87740688D01*
X112111000Y-87912441D01*
X107684317Y-87912441D01*
X107960976Y-87618767D01*
X109395781Y-86319959D01*
X110929241Y-85139251D01*
X111572700Y-84720777D01*
X122165000Y-84720777D01*
X122165000Y-85279223D01*
X122273948Y-85826939D01*
X122487656Y-86342876D01*
X122797912Y-86807207D01*
X123192793Y-87202088D01*
X123657124Y-87512344D01*
X124173061Y-87726052D01*
X124720777Y-87835000D01*
X125279223Y-87835000D01*
X125826939Y-87726052D01*
X126342876Y-87512344D01*
X126807207Y-87202088D01*
X127202088Y-86807207D01*
X127512344Y-86342876D01*
X127726052Y-85826939D01*
X127835000Y-85279223D01*
X127835000Y-84720777D01*
X127726052Y-84173061D01*
X127512344Y-83657124D01*
X127202088Y-83192793D01*
X126807207Y-82797912D01*
X126342876Y-82487656D01*
X125826939Y-82273948D01*
X125279223Y-82165000D01*
X124720777Y-82165000D01*
X124173061Y-82273948D01*
X123657124Y-82487656D01*
X123192793Y-82797912D01*
X122797912Y-83192793D01*
X122487656Y-83657124D01*
X122273948Y-84173061D01*
X122165000Y-84720777D01*
X111572700Y-84720777D01*
X112551660Y-84084110D01*
X114252783Y-83161206D01*
X116021852Y-82376374D01*
X117847684Y-81734575D01*
X119718736Y-81239869D01*
X121623177Y-80895381D01*
X123548968Y-80703290D01*
X125483932Y-80664811D01*
X127415837Y-80780187D01*
G37*
%TD.AperFunction*%
%TD*%
M02*
