%TF.GenerationSoftware,KiCad,Pcbnew,(5.1.9)-1*%
%TF.CreationDate,2022-04-02T11:09:43-04:00*%
%TF.ProjectId,Light_Sensor_schematic,4c696768-745f-4536-956e-736f725f7363,rev?*%
%TF.SameCoordinates,Original*%
%TF.FileFunction,Paste,Top*%
%TF.FilePolarity,Positive*%
%FSLAX46Y46*%
G04 Gerber Fmt 4.6, Leading zero omitted, Abs format (unit mm)*
G04 Created by KiCad (PCBNEW (5.1.9)-1) date 2022-04-02 11:09:43*
%MOMM*%
%LPD*%
G01*
G04 APERTURE LIST*
%ADD10R,0.740000X2.790000*%
%ADD11R,3.600000X2.600000*%
%ADD12R,0.900000X0.350000*%
G04 APERTURE END LIST*
D10*
%TO.C,U2*%
X138190000Y-100032000D03*
X138190000Y-95968000D03*
X139460000Y-100032000D03*
X139460000Y-95968000D03*
X140730000Y-100032000D03*
X140730000Y-95968000D03*
X142000000Y-100032000D03*
X142000000Y-95968000D03*
X143270000Y-100032000D03*
X143270000Y-95968000D03*
X144540000Y-100032000D03*
X144540000Y-95968000D03*
X145810000Y-100032000D03*
X145810000Y-95968000D03*
%TD*%
%TO.C,U1*%
G36*
G01*
X134125000Y-87312500D02*
X134125000Y-87187500D01*
G75*
G02*
X134187500Y-87125000I62500J0D01*
G01*
X134937500Y-87125000D01*
G75*
G02*
X135000000Y-87187500I0J-62500D01*
G01*
X135000000Y-87312500D01*
G75*
G02*
X134937500Y-87375000I-62500J0D01*
G01*
X134187500Y-87375000D01*
G75*
G02*
X134125000Y-87312500I0J62500D01*
G01*
G37*
G36*
G01*
X134125000Y-87812500D02*
X134125000Y-87687500D01*
G75*
G02*
X134187500Y-87625000I62500J0D01*
G01*
X134937500Y-87625000D01*
G75*
G02*
X135000000Y-87687500I0J-62500D01*
G01*
X135000000Y-87812500D01*
G75*
G02*
X134937500Y-87875000I-62500J0D01*
G01*
X134187500Y-87875000D01*
G75*
G02*
X134125000Y-87812500I0J62500D01*
G01*
G37*
G36*
G01*
X134125000Y-88312500D02*
X134125000Y-88187500D01*
G75*
G02*
X134187500Y-88125000I62500J0D01*
G01*
X134937500Y-88125000D01*
G75*
G02*
X135000000Y-88187500I0J-62500D01*
G01*
X135000000Y-88312500D01*
G75*
G02*
X134937500Y-88375000I-62500J0D01*
G01*
X134187500Y-88375000D01*
G75*
G02*
X134125000Y-88312500I0J62500D01*
G01*
G37*
G36*
G01*
X134125000Y-88812500D02*
X134125000Y-88687500D01*
G75*
G02*
X134187500Y-88625000I62500J0D01*
G01*
X134937500Y-88625000D01*
G75*
G02*
X135000000Y-88687500I0J-62500D01*
G01*
X135000000Y-88812500D01*
G75*
G02*
X134937500Y-88875000I-62500J0D01*
G01*
X134187500Y-88875000D01*
G75*
G02*
X134125000Y-88812500I0J62500D01*
G01*
G37*
G36*
G01*
X134125000Y-89312500D02*
X134125000Y-89187500D01*
G75*
G02*
X134187500Y-89125000I62500J0D01*
G01*
X134937500Y-89125000D01*
G75*
G02*
X135000000Y-89187500I0J-62500D01*
G01*
X135000000Y-89312500D01*
G75*
G02*
X134937500Y-89375000I-62500J0D01*
G01*
X134187500Y-89375000D01*
G75*
G02*
X134125000Y-89312500I0J62500D01*
G01*
G37*
G36*
G01*
X134125000Y-89812500D02*
X134125000Y-89687500D01*
G75*
G02*
X134187500Y-89625000I62500J0D01*
G01*
X134937500Y-89625000D01*
G75*
G02*
X135000000Y-89687500I0J-62500D01*
G01*
X135000000Y-89812500D01*
G75*
G02*
X134937500Y-89875000I-62500J0D01*
G01*
X134187500Y-89875000D01*
G75*
G02*
X134125000Y-89812500I0J62500D01*
G01*
G37*
G36*
G01*
X134125000Y-90312500D02*
X134125000Y-90187500D01*
G75*
G02*
X134187500Y-90125000I62500J0D01*
G01*
X134937500Y-90125000D01*
G75*
G02*
X135000000Y-90187500I0J-62500D01*
G01*
X135000000Y-90312500D01*
G75*
G02*
X134937500Y-90375000I-62500J0D01*
G01*
X134187500Y-90375000D01*
G75*
G02*
X134125000Y-90312500I0J62500D01*
G01*
G37*
G36*
G01*
X134125000Y-90812500D02*
X134125000Y-90687500D01*
G75*
G02*
X134187500Y-90625000I62500J0D01*
G01*
X134937500Y-90625000D01*
G75*
G02*
X135000000Y-90687500I0J-62500D01*
G01*
X135000000Y-90812500D01*
G75*
G02*
X134937500Y-90875000I-62500J0D01*
G01*
X134187500Y-90875000D01*
G75*
G02*
X134125000Y-90812500I0J62500D01*
G01*
G37*
G36*
G01*
X135125000Y-91812500D02*
X135125000Y-91062500D01*
G75*
G02*
X135187500Y-91000000I62500J0D01*
G01*
X135312500Y-91000000D01*
G75*
G02*
X135375000Y-91062500I0J-62500D01*
G01*
X135375000Y-91812500D01*
G75*
G02*
X135312500Y-91875000I-62500J0D01*
G01*
X135187500Y-91875000D01*
G75*
G02*
X135125000Y-91812500I0J62500D01*
G01*
G37*
G36*
G01*
X135625000Y-91812500D02*
X135625000Y-91062500D01*
G75*
G02*
X135687500Y-91000000I62500J0D01*
G01*
X135812500Y-91000000D01*
G75*
G02*
X135875000Y-91062500I0J-62500D01*
G01*
X135875000Y-91812500D01*
G75*
G02*
X135812500Y-91875000I-62500J0D01*
G01*
X135687500Y-91875000D01*
G75*
G02*
X135625000Y-91812500I0J62500D01*
G01*
G37*
G36*
G01*
X136125000Y-91812500D02*
X136125000Y-91062500D01*
G75*
G02*
X136187500Y-91000000I62500J0D01*
G01*
X136312500Y-91000000D01*
G75*
G02*
X136375000Y-91062500I0J-62500D01*
G01*
X136375000Y-91812500D01*
G75*
G02*
X136312500Y-91875000I-62500J0D01*
G01*
X136187500Y-91875000D01*
G75*
G02*
X136125000Y-91812500I0J62500D01*
G01*
G37*
G36*
G01*
X136625000Y-91812500D02*
X136625000Y-91062500D01*
G75*
G02*
X136687500Y-91000000I62500J0D01*
G01*
X136812500Y-91000000D01*
G75*
G02*
X136875000Y-91062500I0J-62500D01*
G01*
X136875000Y-91812500D01*
G75*
G02*
X136812500Y-91875000I-62500J0D01*
G01*
X136687500Y-91875000D01*
G75*
G02*
X136625000Y-91812500I0J62500D01*
G01*
G37*
G36*
G01*
X137125000Y-91812500D02*
X137125000Y-91062500D01*
G75*
G02*
X137187500Y-91000000I62500J0D01*
G01*
X137312500Y-91000000D01*
G75*
G02*
X137375000Y-91062500I0J-62500D01*
G01*
X137375000Y-91812500D01*
G75*
G02*
X137312500Y-91875000I-62500J0D01*
G01*
X137187500Y-91875000D01*
G75*
G02*
X137125000Y-91812500I0J62500D01*
G01*
G37*
G36*
G01*
X137625000Y-91812500D02*
X137625000Y-91062500D01*
G75*
G02*
X137687500Y-91000000I62500J0D01*
G01*
X137812500Y-91000000D01*
G75*
G02*
X137875000Y-91062500I0J-62500D01*
G01*
X137875000Y-91812500D01*
G75*
G02*
X137812500Y-91875000I-62500J0D01*
G01*
X137687500Y-91875000D01*
G75*
G02*
X137625000Y-91812500I0J62500D01*
G01*
G37*
G36*
G01*
X138125000Y-91812500D02*
X138125000Y-91062500D01*
G75*
G02*
X138187500Y-91000000I62500J0D01*
G01*
X138312500Y-91000000D01*
G75*
G02*
X138375000Y-91062500I0J-62500D01*
G01*
X138375000Y-91812500D01*
G75*
G02*
X138312500Y-91875000I-62500J0D01*
G01*
X138187500Y-91875000D01*
G75*
G02*
X138125000Y-91812500I0J62500D01*
G01*
G37*
G36*
G01*
X138625000Y-91812500D02*
X138625000Y-91062500D01*
G75*
G02*
X138687500Y-91000000I62500J0D01*
G01*
X138812500Y-91000000D01*
G75*
G02*
X138875000Y-91062500I0J-62500D01*
G01*
X138875000Y-91812500D01*
G75*
G02*
X138812500Y-91875000I-62500J0D01*
G01*
X138687500Y-91875000D01*
G75*
G02*
X138625000Y-91812500I0J62500D01*
G01*
G37*
G36*
G01*
X139000000Y-90812500D02*
X139000000Y-90687500D01*
G75*
G02*
X139062500Y-90625000I62500J0D01*
G01*
X139812500Y-90625000D01*
G75*
G02*
X139875000Y-90687500I0J-62500D01*
G01*
X139875000Y-90812500D01*
G75*
G02*
X139812500Y-90875000I-62500J0D01*
G01*
X139062500Y-90875000D01*
G75*
G02*
X139000000Y-90812500I0J62500D01*
G01*
G37*
G36*
G01*
X139000000Y-90312500D02*
X139000000Y-90187500D01*
G75*
G02*
X139062500Y-90125000I62500J0D01*
G01*
X139812500Y-90125000D01*
G75*
G02*
X139875000Y-90187500I0J-62500D01*
G01*
X139875000Y-90312500D01*
G75*
G02*
X139812500Y-90375000I-62500J0D01*
G01*
X139062500Y-90375000D01*
G75*
G02*
X139000000Y-90312500I0J62500D01*
G01*
G37*
G36*
G01*
X139000000Y-89812500D02*
X139000000Y-89687500D01*
G75*
G02*
X139062500Y-89625000I62500J0D01*
G01*
X139812500Y-89625000D01*
G75*
G02*
X139875000Y-89687500I0J-62500D01*
G01*
X139875000Y-89812500D01*
G75*
G02*
X139812500Y-89875000I-62500J0D01*
G01*
X139062500Y-89875000D01*
G75*
G02*
X139000000Y-89812500I0J62500D01*
G01*
G37*
G36*
G01*
X139000000Y-89312500D02*
X139000000Y-89187500D01*
G75*
G02*
X139062500Y-89125000I62500J0D01*
G01*
X139812500Y-89125000D01*
G75*
G02*
X139875000Y-89187500I0J-62500D01*
G01*
X139875000Y-89312500D01*
G75*
G02*
X139812500Y-89375000I-62500J0D01*
G01*
X139062500Y-89375000D01*
G75*
G02*
X139000000Y-89312500I0J62500D01*
G01*
G37*
G36*
G01*
X139000000Y-88812500D02*
X139000000Y-88687500D01*
G75*
G02*
X139062500Y-88625000I62500J0D01*
G01*
X139812500Y-88625000D01*
G75*
G02*
X139875000Y-88687500I0J-62500D01*
G01*
X139875000Y-88812500D01*
G75*
G02*
X139812500Y-88875000I-62500J0D01*
G01*
X139062500Y-88875000D01*
G75*
G02*
X139000000Y-88812500I0J62500D01*
G01*
G37*
G36*
G01*
X139000000Y-88312500D02*
X139000000Y-88187500D01*
G75*
G02*
X139062500Y-88125000I62500J0D01*
G01*
X139812500Y-88125000D01*
G75*
G02*
X139875000Y-88187500I0J-62500D01*
G01*
X139875000Y-88312500D01*
G75*
G02*
X139812500Y-88375000I-62500J0D01*
G01*
X139062500Y-88375000D01*
G75*
G02*
X139000000Y-88312500I0J62500D01*
G01*
G37*
G36*
G01*
X139000000Y-87812500D02*
X139000000Y-87687500D01*
G75*
G02*
X139062500Y-87625000I62500J0D01*
G01*
X139812500Y-87625000D01*
G75*
G02*
X139875000Y-87687500I0J-62500D01*
G01*
X139875000Y-87812500D01*
G75*
G02*
X139812500Y-87875000I-62500J0D01*
G01*
X139062500Y-87875000D01*
G75*
G02*
X139000000Y-87812500I0J62500D01*
G01*
G37*
G36*
G01*
X139000000Y-87312500D02*
X139000000Y-87187500D01*
G75*
G02*
X139062500Y-87125000I62500J0D01*
G01*
X139812500Y-87125000D01*
G75*
G02*
X139875000Y-87187500I0J-62500D01*
G01*
X139875000Y-87312500D01*
G75*
G02*
X139812500Y-87375000I-62500J0D01*
G01*
X139062500Y-87375000D01*
G75*
G02*
X139000000Y-87312500I0J62500D01*
G01*
G37*
G36*
G01*
X138625000Y-86937500D02*
X138625000Y-86187500D01*
G75*
G02*
X138687500Y-86125000I62500J0D01*
G01*
X138812500Y-86125000D01*
G75*
G02*
X138875000Y-86187500I0J-62500D01*
G01*
X138875000Y-86937500D01*
G75*
G02*
X138812500Y-87000000I-62500J0D01*
G01*
X138687500Y-87000000D01*
G75*
G02*
X138625000Y-86937500I0J62500D01*
G01*
G37*
G36*
G01*
X138125000Y-86937500D02*
X138125000Y-86187500D01*
G75*
G02*
X138187500Y-86125000I62500J0D01*
G01*
X138312500Y-86125000D01*
G75*
G02*
X138375000Y-86187500I0J-62500D01*
G01*
X138375000Y-86937500D01*
G75*
G02*
X138312500Y-87000000I-62500J0D01*
G01*
X138187500Y-87000000D01*
G75*
G02*
X138125000Y-86937500I0J62500D01*
G01*
G37*
G36*
G01*
X137625000Y-86937500D02*
X137625000Y-86187500D01*
G75*
G02*
X137687500Y-86125000I62500J0D01*
G01*
X137812500Y-86125000D01*
G75*
G02*
X137875000Y-86187500I0J-62500D01*
G01*
X137875000Y-86937500D01*
G75*
G02*
X137812500Y-87000000I-62500J0D01*
G01*
X137687500Y-87000000D01*
G75*
G02*
X137625000Y-86937500I0J62500D01*
G01*
G37*
G36*
G01*
X137125000Y-86937500D02*
X137125000Y-86187500D01*
G75*
G02*
X137187500Y-86125000I62500J0D01*
G01*
X137312500Y-86125000D01*
G75*
G02*
X137375000Y-86187500I0J-62500D01*
G01*
X137375000Y-86937500D01*
G75*
G02*
X137312500Y-87000000I-62500J0D01*
G01*
X137187500Y-87000000D01*
G75*
G02*
X137125000Y-86937500I0J62500D01*
G01*
G37*
G36*
G01*
X136625000Y-86937500D02*
X136625000Y-86187500D01*
G75*
G02*
X136687500Y-86125000I62500J0D01*
G01*
X136812500Y-86125000D01*
G75*
G02*
X136875000Y-86187500I0J-62500D01*
G01*
X136875000Y-86937500D01*
G75*
G02*
X136812500Y-87000000I-62500J0D01*
G01*
X136687500Y-87000000D01*
G75*
G02*
X136625000Y-86937500I0J62500D01*
G01*
G37*
G36*
G01*
X136125000Y-86937500D02*
X136125000Y-86187500D01*
G75*
G02*
X136187500Y-86125000I62500J0D01*
G01*
X136312500Y-86125000D01*
G75*
G02*
X136375000Y-86187500I0J-62500D01*
G01*
X136375000Y-86937500D01*
G75*
G02*
X136312500Y-87000000I-62500J0D01*
G01*
X136187500Y-87000000D01*
G75*
G02*
X136125000Y-86937500I0J62500D01*
G01*
G37*
G36*
G01*
X135625000Y-86937500D02*
X135625000Y-86187500D01*
G75*
G02*
X135687500Y-86125000I62500J0D01*
G01*
X135812500Y-86125000D01*
G75*
G02*
X135875000Y-86187500I0J-62500D01*
G01*
X135875000Y-86937500D01*
G75*
G02*
X135812500Y-87000000I-62500J0D01*
G01*
X135687500Y-87000000D01*
G75*
G02*
X135625000Y-86937500I0J62500D01*
G01*
G37*
G36*
G01*
X135125000Y-86937500D02*
X135125000Y-86187500D01*
G75*
G02*
X135187500Y-86125000I62500J0D01*
G01*
X135312500Y-86125000D01*
G75*
G02*
X135375000Y-86187500I0J-62500D01*
G01*
X135375000Y-86937500D01*
G75*
G02*
X135312500Y-87000000I-62500J0D01*
G01*
X135187500Y-87000000D01*
G75*
G02*
X135125000Y-86937500I0J62500D01*
G01*
G37*
G36*
G01*
X135385000Y-88082500D02*
X135385000Y-87617500D01*
G75*
G02*
X135617500Y-87385000I232500J0D01*
G01*
X136082500Y-87385000D01*
G75*
G02*
X136315000Y-87617500I0J-232500D01*
G01*
X136315000Y-88082500D01*
G75*
G02*
X136082500Y-88315000I-232500J0D01*
G01*
X135617500Y-88315000D01*
G75*
G02*
X135385000Y-88082500I0J232500D01*
G01*
G37*
G36*
G01*
X135385000Y-89232500D02*
X135385000Y-88767500D01*
G75*
G02*
X135617500Y-88535000I232500J0D01*
G01*
X136082500Y-88535000D01*
G75*
G02*
X136315000Y-88767500I0J-232500D01*
G01*
X136315000Y-89232500D01*
G75*
G02*
X136082500Y-89465000I-232500J0D01*
G01*
X135617500Y-89465000D01*
G75*
G02*
X135385000Y-89232500I0J232500D01*
G01*
G37*
G36*
G01*
X135385000Y-90382500D02*
X135385000Y-89917500D01*
G75*
G02*
X135617500Y-89685000I232500J0D01*
G01*
X136082500Y-89685000D01*
G75*
G02*
X136315000Y-89917500I0J-232500D01*
G01*
X136315000Y-90382500D01*
G75*
G02*
X136082500Y-90615000I-232500J0D01*
G01*
X135617500Y-90615000D01*
G75*
G02*
X135385000Y-90382500I0J232500D01*
G01*
G37*
G36*
G01*
X136535000Y-88082500D02*
X136535000Y-87617500D01*
G75*
G02*
X136767500Y-87385000I232500J0D01*
G01*
X137232500Y-87385000D01*
G75*
G02*
X137465000Y-87617500I0J-232500D01*
G01*
X137465000Y-88082500D01*
G75*
G02*
X137232500Y-88315000I-232500J0D01*
G01*
X136767500Y-88315000D01*
G75*
G02*
X136535000Y-88082500I0J232500D01*
G01*
G37*
G36*
G01*
X136535000Y-89232500D02*
X136535000Y-88767500D01*
G75*
G02*
X136767500Y-88535000I232500J0D01*
G01*
X137232500Y-88535000D01*
G75*
G02*
X137465000Y-88767500I0J-232500D01*
G01*
X137465000Y-89232500D01*
G75*
G02*
X137232500Y-89465000I-232500J0D01*
G01*
X136767500Y-89465000D01*
G75*
G02*
X136535000Y-89232500I0J232500D01*
G01*
G37*
G36*
G01*
X136535000Y-90382500D02*
X136535000Y-89917500D01*
G75*
G02*
X136767500Y-89685000I232500J0D01*
G01*
X137232500Y-89685000D01*
G75*
G02*
X137465000Y-89917500I0J-232500D01*
G01*
X137465000Y-90382500D01*
G75*
G02*
X137232500Y-90615000I-232500J0D01*
G01*
X136767500Y-90615000D01*
G75*
G02*
X136535000Y-90382500I0J232500D01*
G01*
G37*
G36*
G01*
X137685000Y-88082500D02*
X137685000Y-87617500D01*
G75*
G02*
X137917500Y-87385000I232500J0D01*
G01*
X138382500Y-87385000D01*
G75*
G02*
X138615000Y-87617500I0J-232500D01*
G01*
X138615000Y-88082500D01*
G75*
G02*
X138382500Y-88315000I-232500J0D01*
G01*
X137917500Y-88315000D01*
G75*
G02*
X137685000Y-88082500I0J232500D01*
G01*
G37*
G36*
G01*
X137685000Y-89232500D02*
X137685000Y-88767500D01*
G75*
G02*
X137917500Y-88535000I232500J0D01*
G01*
X138382500Y-88535000D01*
G75*
G02*
X138615000Y-88767500I0J-232500D01*
G01*
X138615000Y-89232500D01*
G75*
G02*
X138382500Y-89465000I-232500J0D01*
G01*
X137917500Y-89465000D01*
G75*
G02*
X137685000Y-89232500I0J232500D01*
G01*
G37*
G36*
G01*
X137685000Y-90382500D02*
X137685000Y-89917500D01*
G75*
G02*
X137917500Y-89685000I232500J0D01*
G01*
X138382500Y-89685000D01*
G75*
G02*
X138615000Y-89917500I0J-232500D01*
G01*
X138615000Y-90382500D01*
G75*
G02*
X138382500Y-90615000I-232500J0D01*
G01*
X137917500Y-90615000D01*
G75*
G02*
X137685000Y-90382500I0J232500D01*
G01*
G37*
%TD*%
D11*
%TO.C,BT1*%
X125000000Y-119650000D03*
X125000000Y-90350000D03*
%TD*%
%TO.C,C1*%
G36*
G01*
X106762500Y-107600000D02*
X107237500Y-107600000D01*
G75*
G02*
X107475000Y-107837500I0J-237500D01*
G01*
X107475000Y-108437500D01*
G75*
G02*
X107237500Y-108675000I-237500J0D01*
G01*
X106762500Y-108675000D01*
G75*
G02*
X106525000Y-108437500I0J237500D01*
G01*
X106525000Y-107837500D01*
G75*
G02*
X106762500Y-107600000I237500J0D01*
G01*
G37*
G36*
G01*
X106762500Y-109325000D02*
X107237500Y-109325000D01*
G75*
G02*
X107475000Y-109562500I0J-237500D01*
G01*
X107475000Y-110162500D01*
G75*
G02*
X107237500Y-110400000I-237500J0D01*
G01*
X106762500Y-110400000D01*
G75*
G02*
X106525000Y-110162500I0J237500D01*
G01*
X106525000Y-109562500D01*
G75*
G02*
X106762500Y-109325000I237500J0D01*
G01*
G37*
%TD*%
%TO.C,R3*%
G36*
G01*
X141237500Y-110400000D02*
X140762500Y-110400000D01*
G75*
G02*
X140525000Y-110162500I0J237500D01*
G01*
X140525000Y-109662500D01*
G75*
G02*
X140762500Y-109425000I237500J0D01*
G01*
X141237500Y-109425000D01*
G75*
G02*
X141475000Y-109662500I0J-237500D01*
G01*
X141475000Y-110162500D01*
G75*
G02*
X141237500Y-110400000I-237500J0D01*
G01*
G37*
G36*
G01*
X141237500Y-108575000D02*
X140762500Y-108575000D01*
G75*
G02*
X140525000Y-108337500I0J237500D01*
G01*
X140525000Y-107837500D01*
G75*
G02*
X140762500Y-107600000I237500J0D01*
G01*
X141237500Y-107600000D01*
G75*
G02*
X141475000Y-107837500I0J-237500D01*
G01*
X141475000Y-108337500D01*
G75*
G02*
X141237500Y-108575000I-237500J0D01*
G01*
G37*
%TD*%
%TO.C,R4*%
G36*
G01*
X138237500Y-108575000D02*
X137762500Y-108575000D01*
G75*
G02*
X137525000Y-108337500I0J237500D01*
G01*
X137525000Y-107837500D01*
G75*
G02*
X137762500Y-107600000I237500J0D01*
G01*
X138237500Y-107600000D01*
G75*
G02*
X138475000Y-107837500I0J-237500D01*
G01*
X138475000Y-108337500D01*
G75*
G02*
X138237500Y-108575000I-237500J0D01*
G01*
G37*
G36*
G01*
X138237500Y-110400000D02*
X137762500Y-110400000D01*
G75*
G02*
X137525000Y-110162500I0J237500D01*
G01*
X137525000Y-109662500D01*
G75*
G02*
X137762500Y-109425000I237500J0D01*
G01*
X138237500Y-109425000D01*
G75*
G02*
X138475000Y-109662500I0J-237500D01*
G01*
X138475000Y-110162500D01*
G75*
G02*
X138237500Y-110400000I-237500J0D01*
G01*
G37*
%TD*%
D12*
%TO.C,U3*%
X128800000Y-86000000D03*
X130540000Y-86000000D03*
X128800000Y-86700000D03*
X130540000Y-86700000D03*
X128800000Y-87400000D03*
X130540000Y-87400000D03*
X128800000Y-88100000D03*
X130540000Y-88100000D03*
X128800000Y-88800000D03*
X130540000Y-88800000D03*
%TD*%
M02*
